# Blender v2.79 (sub 0) OBJ File: 'brazierofhoarding.blend'
# www.blender.org
mtllib brazier_of_hoarding.mtl
o FireRing
v 0.500000 0.740209 0.151465
v 0.500000 1.250000 0.221172
v 0.500000 0.711644 0.250456
v 0.198160 0.740209 0.325733
v 0.258528 1.250000 0.360586
v 0.283889 0.711644 0.375228
v 0.198160 0.740209 0.674268
v 0.258528 1.250000 0.639414
v 0.283889 0.711644 0.624772
v 0.500000 0.740209 0.848535
v 0.500000 1.250000 0.778828
v 0.500000 0.711644 0.749544
v 0.801840 0.740209 0.674267
v 0.741472 1.250000 0.639414
v 0.716111 0.711644 0.624772
v 0.801840 0.740209 0.325732
v 0.741472 1.250000 0.360586
v 0.716111 0.711644 0.375228
vt 0.163281 0.001230
vt 0.834317 0.001231
vt 0.767212 0.995284
vt 0.230384 0.995284
vt 0.739022 0.001098
vt 0.258574 0.001098
vt 0.834186 0.001231
vt 0.163150 0.001231
vt 0.230255 0.995284
vt 0.767083 0.995284
vt 0.258446 0.001098
vt 0.738893 0.001098
vt 0.163152 0.001231
vt 0.834186 0.001231
vt 0.767083 0.995284
vt 0.738893 0.001098
vt 0.834317 0.001231
vt 0.163281 0.001231
vt 0.230383 0.995284
vt 0.767212 0.995284
vt 0.258574 0.001098
vt 0.739022 0.001098
vt 0.163152 0.001231
vt 0.834186 0.001231
vt 0.767083 0.995284
vt 0.230255 0.995284
vt 0.738893 0.001098
vt 0.258446 0.001098
vt 0.163150 0.001230
vt 0.230255 0.995284
vt 0.258446 0.001098
vn -0.4965 0.1176 -0.8600
vn 0.4994 0.0471 0.8651
vn -0.9931 0.1176 0.0000
vn 0.9989 0.0471 -0.0000
vn -0.4965 0.1176 0.8600
vn 0.4994 0.0471 -0.8651
vn 0.4965 0.1176 0.8600
vn -0.4994 0.0471 -0.8651
vn 0.9931 0.1176 -0.0000
vn -0.9989 0.0471 0.0000
vn 0.4965 0.1176 -0.8600
vn -0.4994 0.0471 0.8651
usemtl FireVariantA
s off
f 1/1/1 4/2/1 5/3/1 2/4/1
f 2/4/2 5/3/2 6/5/2 3/6/2
f 4/7/3 7/8/3 8/9/3 5/10/3
f 5/10/4 8/9/4 9/11/4 6/12/4
f 7/13/5 10/14/5 11/15/5 8/9/5
f 8/9/6 11/15/6 12/16/6 9/11/6
f 10/17/7 13/18/7 14/19/7 11/20/7
f 11/20/8 14/19/8 15/21/8 12/22/8
f 13/23/9 16/24/9 17/25/9 14/26/9
f 14/26/10 17/25/10 18/27/10 15/28/10
f 16/24/11 1/29/11 2/30/11 17/25/11
f 17/25/12 2/30/12 3/31/12 18/27/12
o FireCenter1
v 0.500000 0.750000 0.831584
v 0.500000 1.425000 0.777559
v 0.500000 0.750000 0.168416
v 0.500000 1.425000 0.222441
v 0.428091 0.750000 0.336171
v 0.571908 0.750000 0.336171
v 0.571067 0.750000 0.665792
v 0.428933 0.750000 0.665792
vt 0.744280 0.001500
vt 0.993699 0.001500
vt 0.913374 0.998178
vt 0.744280 0.001500
vt 0.088024 0.998178
vt 0.254199 0.001500
vt 0.254198 0.001500
vt 0.007698 0.001500
vn 0.9187 0.0315 -0.3938
vn -0.9187 0.0315 -0.3938
vn -0.9944 0.1053 0.0009
vn 0.9944 0.1053 0.0009
vn -0.9187 0.0315 0.3938
vn 0.9187 0.0315 0.3938
usemtl FireVariantB
s off
f 24/32/13 21/33/13 22/34/13
f 22/34/14 21/33/14 23/35/14
f 20/36/15 22/34/15 23/35/15 26/37/15
f 20/36/16 25/38/16 24/32/16 22/34/16
f 19/39/17 20/36/17 26/37/17
f 19/39/18 25/38/18 20/36/18
o FireCenter2
v 0.787161 0.750000 0.665792
v 0.740373 1.425000 0.638779
v 0.212840 0.750000 0.334208
v 0.259627 1.425000 0.361221
v 0.322166 0.750000 0.480361
v 0.394074 0.750000 0.355811
v 0.679114 0.750000 0.521350
v 0.608047 0.750000 0.644442
vt 0.744280 0.001500
vt 0.993699 0.001500
vt 0.913374 0.998178
vt 0.744280 0.001500
vt 0.088024 0.998178
vt 0.254199 0.001500
vt 0.254198 0.001500
vt 0.007698 0.001500
vn 0.1183 0.0315 -0.9925
vn -0.8004 0.0315 0.5987
vn -0.4964 0.1053 0.8617
vn 0.4980 0.1053 -0.8607
vn -0.1183 0.0315 0.9925
vn 0.8004 0.0315 -0.5987
usemtl FireVariantB
s off
f 32/40/19 29/41/19 30/42/19
f 30/42/20 29/41/20 31/43/20
f 28/44/21 30/42/21 31/43/21 34/45/21
f 28/44/22 33/46/22 32/40/22 30/42/22
f 27/47/23 28/44/23 34/45/23
f 27/47/24 33/46/24 28/44/24
o FireCenter3
v 0.212840 0.750000 0.665792
v 0.259627 1.425000 0.638779
v 0.787160 0.750000 0.334208
v 0.740373 1.425000 0.361221
v 0.605925 0.750000 0.355811
v 0.677834 0.750000 0.480360
v 0.391953 0.750000 0.644442
v 0.320886 0.750000 0.521350
vt 0.744280 0.001500
vt 0.993699 0.001500
vt 0.913374 0.998178
vt 0.744280 0.001500
vt 0.088024 0.998178
vt 0.254199 0.001500
vt 0.254198 0.001500
vt 0.007698 0.001500
vn 0.8004 0.0315 0.5987
vn -0.1183 0.0315 -0.9925
vn -0.4980 0.1053 -0.8607
vn 0.4964 0.1053 0.8617
vn -0.8004 0.0315 -0.5987
vn 0.1183 0.0315 0.9925
usemtl FireVariantB
s off
f 40/48/25 37/49/25 38/50/25
f 38/50/26 37/49/26 39/51/26
f 36/52/27 38/50/27 39/51/27 42/53/27
f 36/52/28 41/54/28 40/48/28 38/50/28
f 35/55/29 36/52/29 42/53/29
f 35/55/30 41/54/30 36/52/30
