# 3ds Max Wavefront OBJ Exporter v0.97b - (c)2007 guruware
# File Created: 29.09.2018 04:00:23

mtllib matrix_reservoir.mtl

#
# object Crystal
#

v  0.6023 2.1037 0.3014
v  0.4921 2.1849 0.3014
v  0.4921 2.4424 0.4921
v  0.6573 2.1849 0.3968
v  0.3820 2.1037 0.3014
v  0.3269 2.1849 0.3968
v  0.2719 2.1037 0.4921
v  0.3269 2.1849 0.5875
v  0.3820 2.1037 0.6829
v  0.4921 2.1849 0.6829
v  0.6023 2.1037 0.6829
v  0.6573 2.1849 0.5875
v  0.7124 2.1037 0.4921
v  0.6023 0.8313 0.3014
v  0.4921 0.7501 0.3014
v  0.3820 0.8313 0.3014
v  0.3269 0.7501 0.3968
v  0.2719 0.8313 0.4921
v  0.3269 0.7501 0.5875
v  0.6573 0.7501 0.3968
v  0.6573 0.7501 0.5875
v  0.7124 0.8313 0.4921
v  0.4921 0.4927 0.4921
v  0.3820 0.8313 0.6829
v  0.4921 0.7501 0.6829
v  0.6023 0.8313 0.6829
# 26 vertices

vn 0.4634 0.3754 -0.8027
vn -0.4634 0.3754 -0.8027
vn -0.9269 0.3754 -0.0000
vn -0.4634 0.3754 0.8027
vn 0.4634 0.3754 0.8027
vn 0.9269 0.3754 -0.0000
vn 0.0000 0.0000 -1.0000
vn -0.8660 0.0000 -0.5000
vn -0.8660 0.0000 0.5000
vn 0.8660 0.0000 -0.5000
vn 0.8660 -0.0000 0.5000
vn 0.4634 -0.3754 -0.8027
vn -0.4634 -0.3754 -0.8027
vn -0.9269 -0.3754 -0.0000
vn -0.4634 -0.3754 0.8027
vn 0.4634 -0.3754 0.8027
vn 0.9269 -0.3754 -0.0000
vn 0.0000 0.0000 1.0000
# 18 vertex normals

vt 0.7187 0.7817 0.0000
vt 0.5306 0.7812 0.0000
vt 0.5304 0.9687 0.0000
vt 0.7197 0.9685 0.0000
vt 0.7088 0.7073 0.0000
vt 0.7088 0.0434 0.0000
vt 0.6254 0.0033 0.0000
vt 0.6254 0.7473 0.0000
vt 0.5421 0.0434 0.0000
vt 0.5421 0.7073 0.0000
# 10 texture coords

g Crystal
usemtl mat_ArcaneArchives_Master
s off
f 1/1/1 2/2/1 3/3/1 4/4/1 
f 5/3/2 6/2/2 3/1/2 2/4/2 
f 7/1/3 8/4/3 3/3/3 6/2/3 
f 9/4/4 10/1/4 3/2/4 8/3/4 
f 11/3/5 12/4/5 3/1/5 10/2/5 
f 13/1/6 4/2/6 3/3/6 12/4/6 
f 1/5/7 14/6/7 15/7/7 2/8/7 
f 5/5/8 16/6/8 17/7/8 6/8/8 
f 8/8/9 7/5/9 18/6/9 19/7/9 
f 4/8/10 20/7/10 14/9/10 1/10/10 
f 5/10/7 2/8/7 15/7/7 16/9/7 
f 7/10/8 6/8/8 17/7/8 18/9/8 
f 12/8/11 21/7/11 22/9/11 13/10/11 
f 14/4/12 20/3/12 23/2/12 15/1/12 
f 16/3/13 15/2/13 23/1/13 17/4/13 
f 18/1/14 17/4/14 23/3/14 19/2/14 
f 24/4/15 19/1/15 23/2/15 25/3/15 
f 26/2/16 25/1/16 23/4/16 21/3/16 
f 22/1/17 21/2/17 23/3/17 20/4/17 
f 4/8/10 13/5/10 22/6/10 20/7/10 
f 10/8/18 9/5/18 24/6/18 25/7/18 
f 12/8/11 11/5/11 26/6/11 21/7/11 
f 8/8/9 19/7/9 24/9/9 9/10/9 
f 10/8/18 25/7/18 26/9/18 11/10/18 
# 24 polygons

#
# object Base
#

v  0.0984 0.0000 0.8858
v  0.0984 0.0000 0.0984
v  0.8858 0.0000 0.0984
v  0.8858 0.0000 0.8858
v  0.8858 0.0984 0.8858
v  0.0984 0.0984 0.8858
v  0.8858 0.0984 0.0984
v  0.0984 0.0984 0.0984
v  0.8366 0.0984 0.8366
v  0.1476 0.0984 0.8366
v  0.8366 0.0984 0.1476
v  0.1476 0.0984 0.1476
v  0.8366 0.2461 0.8366
v  0.1476 0.2461 0.8366
v  0.8366 0.2461 0.1476
v  0.1476 0.2461 0.1476
v  0.7382 0.2461 0.7382
v  0.2461 0.2461 0.7382
v  0.7382 0.2461 0.2461
v  0.2461 0.2461 0.2461
v  0.5906 0.3937 0.5906
v  0.3937 0.3937 0.5906
v  0.5906 0.3937 0.3937
v  0.3937 0.3937 0.3937
v  0.0984 2.9528 0.8858
v  0.8858 2.9528 0.8858
v  0.8858 2.9528 0.0984
v  0.0984 2.9528 0.0984
v  0.0984 2.8543 0.8858
v  0.8858 2.8543 0.8858
v  0.8858 2.8543 0.0984
v  0.0984 2.8543 0.0984
v  0.1476 2.8543 0.8366
v  0.8366 2.8543 0.8366
v  0.8366 2.8543 0.1476
v  0.1476 2.8543 0.1476
v  0.1476 2.7067 0.8366
v  0.8366 2.7067 0.8366
v  0.8366 2.7067 0.1476
v  0.1476 2.7067 0.1476
v  0.2461 2.7067 0.7382
v  0.7382 2.7067 0.7382
v  0.7382 2.7067 0.2461
v  0.2461 2.7067 0.2461
v  0.3937 2.5591 0.5906
v  0.5906 2.5591 0.5906
v  0.5906 2.5591 0.3937
v  0.3937 2.5591 0.3937
# 48 vertices

vn 0.0000 -1.0000 -0.0000
vn 0.0000 0.0000 1.0000
vn 1.0000 0.0000 -0.0000
vn 0.0000 0.0000 -1.0000
vn -1.0000 0.0000 -0.0000
vn 0.0000 1.0000 -0.0000
vn 0.0000 0.7071 0.7071
vn 0.7071 0.7071 -0.0000
vn 0.0000 0.7071 -0.7071
vn -0.7071 0.7071 -0.0000
vn 0.0000 -0.7071 0.7071
vn 0.7071 -0.7071 -0.0000
vn 0.0000 -0.7071 -0.7071
vn -0.7071 -0.7071 -0.0000
# 14 vertex normals

vt 0.2493 0.2512 0.0000
vt 0.2493 0.4988 0.0000
vt 0.0013 0.4988 0.0000
vt 0.0013 0.2512 0.0000
vt 0.0013 0.0018 0.0000
vt 0.4987 0.0018 0.0000
vt 0.4987 0.0619 0.0000
vt 0.0013 0.0619 0.0000
vt 0.0012 0.0016 0.0000
vt 0.4987 0.0016 0.0000
vt 0.4676 0.0315 0.0000
vt 0.0323 0.0315 0.0000
vt 0.0010 0.0639 0.0000
vt 0.4988 0.0639 0.0000
vt 0.4988 0.1859 0.0000
vt 0.0010 0.1859 0.0000
vt 0.0323 0.0019 0.0000
vt 0.4676 0.0019 0.0000
vt 0.4054 0.0618 0.0000
vt 0.0945 0.0618 0.0000
vt 0.0008 0.0639 0.0000
vt 0.3494 0.1859 0.0000
vt 0.1502 0.1859 0.0000
vt 0.4980 0.7481 0.0000
vt 0.3782 0.7481 0.0000
vt 0.3782 0.6273 0.0000
vt 0.4980 0.6273 0.0000
# 27 texture coords

g Base
usemtl mat_ArcaneArchives_Master
s 2
f 27/11/19 28/12/19 29/13/19 30/14/19 
s 8
f 27/15/20 30/16/20 31/17/20 32/18/20 
s 16
f 30/15/21 29/16/21 33/17/21 31/18/21 
s 32
f 29/15/22 28/16/22 34/17/22 33/18/22 
s 64
f 28/15/23 27/16/23 32/17/23 34/18/23 
s off
f 32/19/24 31/20/24 35/21/24 36/22/24 
f 31/19/24 33/20/24 37/21/24 35/22/24 
f 33/19/24 34/20/24 38/21/24 37/22/24 
f 34/19/24 32/20/24 36/21/24 38/22/24 
f 36/23/20 35/24/20 39/25/20 40/26/20 
f 35/23/21 37/24/21 41/25/21 39/26/21 
f 37/23/22 38/24/22 42/25/22 41/26/22 
f 38/23/23 36/24/23 40/25/23 42/26/23 
f 40/27/24 39/28/24 43/29/24 44/30/24 
f 39/27/24 41/28/24 45/29/24 43/30/24 
f 41/27/24 42/28/24 46/29/24 45/30/24 
f 42/27/24 40/28/24 44/29/24 46/30/24 
f 44/31/25 43/24/25 47/32/25 48/33/25 
f 43/31/26 45/24/26 49/32/26 47/33/26 
f 45/31/27 46/24/27 50/32/27 49/33/27 
f 46/31/28 44/24/28 48/32/28 50/33/28 
f 49/34/24 50/35/24 48/36/24 47/37/24 
s 2
f 51/11/24 52/14/24 53/13/24 54/12/24 
s 8
f 51/15/20 55/18/20 56/17/20 52/16/20 
s 16
f 52/15/21 56/18/21 57/17/21 53/16/21 
s 32
f 53/15/22 57/18/22 58/17/22 54/16/22 
s 64
f 54/15/23 58/18/23 55/17/23 51/16/23 
s off
f 55/19/19 59/22/19 60/21/19 56/20/19 
f 56/19/19 60/22/19 61/21/19 57/20/19 
f 57/19/19 61/22/19 62/21/19 58/20/19 
f 58/19/19 62/22/19 59/21/19 55/20/19 
f 59/23/20 63/26/20 64/25/20 60/24/20 
f 60/23/21 64/26/21 65/25/21 61/24/21 
f 61/23/22 65/26/22 66/25/22 62/24/22 
f 62/23/23 66/26/23 63/25/23 59/24/23 
f 63/27/19 67/30/19 68/29/19 64/28/19 
f 64/27/19 68/30/19 69/29/19 65/28/19 
f 65/27/19 69/30/19 70/29/19 66/28/19 
f 66/27/19 70/30/19 67/29/19 63/28/19 
f 67/31/29 71/33/29 72/32/29 68/24/29 
f 68/31/30 72/33/30 73/32/30 69/24/30 
f 69/31/31 73/33/31 74/32/31 70/24/31 
f 70/31/32 74/33/32 71/32/32 67/24/32 
f 73/34/19 72/37/19 71/36/19 74/35/19 
# 44 polygons

#
# object Struts
#

v  0.8120 0.2461 0.2215
v  0.8120 1.4764 0.2215
v  0.7628 1.4764 0.2215
v  0.7628 0.2461 0.2215
v  0.8120 0.2461 0.1722
v  0.8120 1.4764 0.1722
v  0.7628 0.2461 0.1722
v  0.7628 1.4764 0.1722
v  0.8120 2.7067 0.2215
v  0.7628 2.7067 0.2215
v  0.8120 2.7067 0.1722
v  0.7628 2.7067 0.1722
v  0.1722 0.2461 0.2215
v  0.2215 0.2461 0.2215
v  0.2215 1.4764 0.2215
v  0.1722 1.4764 0.2215
v  0.1722 0.2461 0.1722
v  0.1722 1.4764 0.1722
v  0.2215 0.2461 0.1722
v  0.2215 1.4764 0.1722
v  0.1722 2.7067 0.2215
v  0.2215 2.7067 0.2215
v  0.1722 2.7067 0.1722
v  0.2215 2.7067 0.1722
v  0.8120 0.2461 0.7628
v  0.7628 0.2461 0.7628
v  0.7628 1.4764 0.7628
v  0.8120 1.4764 0.7628
v  0.8120 0.2461 0.8120
v  0.8120 1.4764 0.8120
v  0.7628 0.2461 0.8120
v  0.7628 1.4764 0.8120
v  0.8120 2.7067 0.7628
v  0.7628 2.7067 0.7628
v  0.8120 2.7067 0.8120
v  0.7628 2.7067 0.8120
v  0.1722 0.2461 0.7628
v  0.1722 1.4764 0.7628
v  0.2215 1.4764 0.7628
v  0.2215 0.2461 0.7628
v  0.1722 0.2461 0.8120
v  0.1722 1.4764 0.8120
v  0.2215 0.2461 0.8120
v  0.2215 1.4764 0.8120
v  0.1722 2.7067 0.7628
v  0.2215 2.7067 0.7628
v  0.1722 2.7067 0.8120
v  0.2215 2.7067 0.8120
# 48 vertices

vn 0.0000 0.0000 1.0000
vn 1.0000 0.0000 -0.0000
vn 0.0000 0.0000 -1.0000
vn -1.0000 0.0000 -0.0000
# 4 vertex normals

vt 0.0782 0.9839 0.0000
vt 0.0782 0.5154 0.0000
vt 0.0471 0.5154 0.0000
vt 0.0471 0.9839 0.0000
vt 0.1092 0.9839 0.0000
vt 0.1092 0.5154 0.0000
vt 0.1402 0.9839 0.0000
vt 0.1402 0.5154 0.0000
vt 0.1713 0.9839 0.0000
vt 0.1713 0.5154 0.0000
# 10 texture coords

g Struts
usemtl mat_ArcaneArchives_Master
s 8
f 75/38/33 76/39/33 77/40/33 78/41/33 
s 16
f 79/42/34 80/43/34 76/39/34 75/38/34 
s 32
f 81/44/35 82/45/35 80/43/35 79/42/35 
s 64
f 78/46/36 77/47/36 82/45/36 81/44/36 
s 8
f 83/38/33 84/41/33 77/40/33 76/39/33 
s 16
f 85/42/34 83/38/34 76/39/34 80/43/34 
s 32
f 86/44/35 85/42/35 80/43/35 82/45/35 
s 64
f 84/46/36 86/44/36 82/45/36 77/47/36 
s 8
f 87/38/33 88/41/33 89/40/33 90/39/33 
s 16
f 91/42/36 87/38/36 90/39/36 92/43/36 
s 32
f 93/44/35 91/42/35 92/43/35 94/45/35 
s 64
f 88/46/34 93/44/34 94/45/34 89/47/34 
s 8
f 95/38/33 90/39/33 89/40/33 96/41/33 
s 16
f 97/42/36 92/43/36 90/39/36 95/38/36 
s 32
f 98/44/35 94/45/35 92/43/35 97/42/35 
s 64
f 96/46/34 89/47/34 94/45/34 98/44/34 
s 8
f 99/38/35 100/41/35 101/40/35 102/39/35 
s 16
f 103/42/34 99/38/34 102/39/34 104/43/34 
s 32
f 105/44/33 103/42/33 104/43/33 106/45/33 
s 64
f 100/46/36 105/44/36 106/45/36 101/47/36 
s 8
f 107/38/35 102/39/35 101/40/35 108/41/35 
s 16
f 109/42/34 104/43/34 102/39/34 107/38/34 
s 32
f 110/44/33 106/45/33 104/43/33 109/42/33 
s 64
f 108/46/36 101/47/36 106/45/36 110/44/36 
s 8
f 111/38/35 112/39/35 113/40/35 114/41/35 
s 16
f 115/42/36 116/43/36 112/39/36 111/38/36 
s 32
f 117/44/33 118/45/33 116/43/33 115/42/33 
s 64
f 114/46/34 113/47/34 118/45/34 117/44/34 
s 8
f 119/38/35 120/41/35 113/40/35 112/39/35 
s 16
f 121/42/36 119/38/36 112/39/36 116/43/36 
s 32
f 122/44/33 121/42/33 116/43/33 118/45/33 
s 64
f 120/46/34 122/44/34 118/45/34 113/47/34 
# 32 polygons

