# 3ds Max Wavefront OBJ Exporter v0.97b - (c)2007 guruware
# File Created: 24.10.2018 21:07:33

mtllib spirit_matter01.mtl

#
# object head
#

v  0.0000 0.8366 0.3937
v  0.0000 0.8366 0.1476
v  -0.2461 0.8366 0.1476
v  -0.2461 0.8366 0.3937
v  -0.2461 0.3937 0.1476
v  -0.2461 0.5906 0.1476
v  -0.2461 0.5906 -0.0984
v  -0.2461 0.3937 -0.0984
v  -0.2461 0.8366 -0.0984
v  0.0000 0.8366 -0.0984
v  0.0000 0.5906 -0.0984
v  -0.2461 0.5906 0.3937
v  0.0000 0.3937 -0.0984
v  0.0000 0.3937 0.1476
v  0.0000 0.5906 0.3937
v  0.0000 0.5906 0.1476
v  0.2461 0.8366 0.3937
v  0.2461 0.8366 0.1476
v  0.2461 0.3937 0.1476
v  0.2461 0.3937 -0.0984
v  0.2461 0.5906 -0.0984
v  0.2461 0.5906 0.1476
v  0.2461 0.8366 -0.0984
v  0.2461 0.5906 0.3937
# 24 vertices

vn 0.0000 1.0000 -0.0000
vn -1.0000 0.0000 -0.0000
vn 0.0000 0.0000 -1.0000
vn 0.0000 -1.0000 -0.0000
vn 0.0000 0.0000 1.0000
vn 1.0000 0.0000 -0.0000
# 6 vertex normals

vt 0.9992 0.7507 0.0000
vt 0.9992 0.8753 0.0000
vt 0.8754 0.8753 0.0000
vt 0.8754 0.7507 0.0000
vt 0.7496 0.7503 0.0000
vt 0.7496 0.8750 0.0000
vt 0.6254 0.8750 0.0000
vt 0.6254 0.7503 0.0000
vt 0.8754 0.9999 0.0000
vt 1.0000 0.9999 0.0000
vt 1.0000 0.8614 0.0000
vt 0.8754 0.8614 0.0000
vt 0.8739 0.9997 0.0000
vt 0.7496 0.9997 0.0000
vt 0.8739 0.8750 0.0000
vt 0.8754 0.7505 0.0000
vt 0.8754 0.8745 0.0000
vt 0.9994 0.8745 0.0000
vt 0.9994 0.7505 0.0000
vt 0.6254 0.9997 0.0000
vt 1.0000 0.7505 0.0000
vt 0.1255 0.8747 0.0000
vt 0.1255 0.7503 0.0000
vt 0.2499 0.7503 0.0000
vt 0.2499 0.8747 0.0000
vt 0.9992 0.9999 0.0000
vt 0.0008 0.5005 0.0000
vt 0.0008 0.6247 0.0000
vt 0.1247 0.6247 0.0000
vt 0.1247 0.5005 0.0000
# 30 texture coords

g head
usemtl mat_spirit_matter
f 1/1/1 2/2/1 3/3/1 4/4/1 
f 5/5/2 6/6/2 7/7/2 8/8/2 
f 9/9/3 10/10/3 11/11/3 7/12/3 
f 4/13/2 3/14/2 6/6/2 12/15/2 
f 8/16/4 13/17/4 14/18/4 5/19/4 
f 9/20/2 7/7/2 6/6/2 3/14/2 
f 8/16/3 7/12/3 11/11/3 13/21/3 
f 4/22/5 12/23/5 15/24/5 1/25/5 
f 9/9/1 3/3/1 2/2/1 10/26/1 
f 12/27/4 6/28/4 16/29/4 15/30/4 
f 6/28/5 5/27/5 14/30/5 16/29/5 
f 1/1/1 17/4/1 18/3/1 2/2/1 
f 19/5/6 20/8/6 21/7/6 22/6/6 
f 23/9/3 21/12/3 11/11/3 10/10/3 
f 17/13/6 24/15/6 22/6/6 18/14/6 
f 20/16/4 19/19/4 14/18/4 13/17/4 
f 23/20/6 18/14/6 22/6/6 21/7/6 
f 20/16/3 13/21/3 11/11/3 21/12/3 
f 17/22/5 1/25/5 15/24/5 24/23/5 
f 23/9/1 10/26/1 2/2/1 18/3/1 
f 24/27/4 15/30/4 16/29/4 22/28/4 
f 22/28/5 16/29/5 14/30/5 19/27/5 
# 22 polygons

#
# object jaw
#

v  -0.3199 0.3445 0.0246
v  -0.0000 0.3445 0.0246
v  -0.0000 0.3445 0.5413
v  -0.3199 0.3445 0.5413
v  -0.0000 0.5906 0.5413
v  -0.0000 0.5906 0.0246
v  -0.3199 0.5906 0.0246
v  -0.3199 0.5906 0.5413
v  0.3199 0.3445 0.0246
v  0.3199 0.3445 0.5413
v  0.3199 0.5906 0.5413
v  0.3199 0.5906 0.0246
v  -0.2953 0.6152 0.5167
v  -0.1969 0.6152 0.5167
v  -0.1969 0.6152 0.4183
v  -0.2953 0.6152 0.4183
v  -0.2953 0.5906 0.5167
v  -0.1969 0.5906 0.5167
v  -0.1969 0.5906 0.4183
v  -0.2953 0.5906 0.4183
v  0.2953 0.6152 0.5167
v  0.2953 0.6152 0.4183
v  0.1969 0.6152 0.4183
v  0.1969 0.6152 0.5167
v  0.2953 0.5906 0.5167
v  0.1969 0.5906 0.5167
v  0.1969 0.5906 0.4183
v  0.2953 0.5906 0.4183
# 28 vertices

vn 0.0000 -1.0000 -0.0000
vn 0.0000 1.0000 -0.0000
vn 0.0000 0.0000 1.0000
vn -1.0000 0.0000 -0.0000
vn 0.0000 0.0000 -1.0000
vn 1.0000 0.0000 -0.0000
# 6 vertex normals

vt 0.8756 1.0000 0.0000
vt 1.0000 1.0000 0.0000
vt 1.0000 0.7504 0.0000
vt 0.8756 0.7504 0.0000
vt 0.2498 0.5004 0.0000
vt 0.2498 0.7499 0.0000
vt 0.1254 0.7499 0.0000
vt 0.1254 0.5004 0.0000
vt 0.3757 0.6257 0.0000
vt 0.5000 0.6257 0.0000
vt 0.5000 0.7497 0.0000
vt 0.3757 0.7497 0.0000
vt 0.4993 0.7497 0.0000
vt 0.3759 0.7497 0.0000
vt 0.3759 0.5012 0.0000
vt 0.4993 0.5012 0.0000
vt 0.3758 0.7499 0.0000
vt 0.4999 0.7499 0.0000
vt 0.4999 0.6256 0.0000
vt 0.3758 0.6256 0.0000
vt 0.0005 0.6251 0.0000
vt 0.1249 0.6251 0.0000
vt 0.1249 0.7496 0.0000
vt 0.0005 0.7496 0.0000
vt 0.0005 0.7194 0.0000
vt 0.1249 0.7194 0.0000
# 26 texture coords

g jaw
usemtl mat_spirit_matter
f 25/31/7 26/32/7 27/33/7 28/34/7 
f 29/35/8 30/36/8 31/37/8 32/38/8 
f 27/39/9 29/40/9 32/41/9 28/42/9 
f 28/43/10 32/44/10 31/45/10 25/46/10 
f 31/47/11 30/48/11 26/49/11 25/50/11 
f 33/31/7 34/34/7 27/33/7 26/32/7 
f 29/35/8 35/38/8 36/37/8 30/36/8 
f 27/39/9 34/42/9 35/41/9 29/40/9 
f 34/43/12 33/46/12 36/45/12 35/44/12 
f 36/47/11 33/50/11 26/49/11 30/48/11 
f 37/51/8 38/52/8 39/53/8 40/54/8 
f 41/55/9 42/56/9 38/53/9 37/54/9 
f 42/55/12 43/56/12 39/53/12 38/54/12 
f 43/55/11 44/56/11 40/53/11 39/54/11 
f 44/55/10 41/56/10 37/53/10 40/54/10 
f 45/51/8 46/54/8 47/53/8 48/52/8 
f 49/55/9 45/54/9 48/53/9 50/56/9 
f 50/55/10 48/54/10 47/53/10 51/56/10 
f 51/55/11 47/54/11 46/53/11 52/56/11 
f 52/55/12 46/54/12 45/53/12 49/56/12 
# 20 polygons

#
# object Box006
#

v  -0.2707 0.0000 -0.0246
v  -0.2707 0.0000 -0.1722
v  -0.1230 0.0000 -0.1722
v  -0.1230 0.0000 -0.0246
v  -0.2707 0.4921 -0.0246
v  -0.1230 0.4921 -0.0246
v  -0.1230 0.4921 -0.1722
v  -0.2707 0.4921 -0.1722
v  -0.1230 0.1476 -0.0246
v  -0.2707 0.1476 -0.0246
v  -0.1230 0.1476 -0.1722
v  -0.2707 0.0000 -0.2215
v  -0.2707 0.1476 -0.2215
v  -0.1230 0.1476 -0.2215
v  -0.1230 0.0000 -0.2215
v  -0.2707 0.1476 -0.1722
# 16 vertices

vn 0.0000 -1.0000 -0.0000
vn 0.0000 1.0000 -0.0000
vn 0.0000 0.0000 1.0000
vn 1.0000 0.0000 -0.0000
vn 0.0000 0.0000 -1.0000
vn -1.0000 0.0000 -0.0000
# 6 vertex normals

vt 0.5943 0.6413 0.0000
vt 0.5943 0.7225 0.0000
vt 0.6875 0.7225 0.0000
vt 0.6875 0.6413 0.0000
vt 0.5941 0.5013 0.0000
vt 0.6870 0.5013 0.0000
vt 0.6870 0.5777 0.0000
vt 0.5941 0.5777 0.0000
vt 0.8747 0.5018 0.0000
vt 0.8747 0.5762 0.0000
vt 0.7831 0.5762 0.0000
vt 0.7831 0.5018 0.0000
vt 0.9077 0.5017 0.0000
vt 0.9077 0.5761 0.0000
vt 0.9997 0.5761 0.0000
vt 0.9997 0.5017 0.0000
vt 0.6881 0.5018 0.0000
vt 0.6881 0.5762 0.0000
vt 0.7797 0.5762 0.0000
vt 0.7797 0.5018 0.0000
vt 0.9997 0.5018 0.0000
vt 0.9997 0.5762 0.0000
vt 0.9077 0.5762 0.0000
vt 0.9077 0.5018 0.0000
vt 0.8747 0.7498 0.0000
vt 0.7831 0.7498 0.0000
vt 0.9077 0.7497 0.0000
vt 0.9997 0.7497 0.0000
vt 0.6881 0.7498 0.0000
vt 0.7797 0.7498 0.0000
vt 0.5943 0.7495 0.0000
vt 0.6875 0.7495 0.0000
vt 0.8770 0.5762 0.0000
vt 0.8770 0.5018 0.0000
vt 0.9064 0.5778 0.0000
vt 0.9064 0.6679 0.0000
vt 0.8761 0.6679 0.0000
vt 0.8761 0.5778 0.0000
vt 0.8770 0.5017 0.0000
vt 0.8770 0.5761 0.0000
# 40 texture coords

g Box006
usemtl mat_spirit_matter
f 53/57/13 54/58/13 55/59/13 56/60/13 
f 57/61/14 58/62/14 59/63/14 60/64/14 
f 56/65/15 61/66/15 62/67/15 53/68/15 
f 55/69/16 63/70/16 61/71/16 56/72/16 
f 64/73/17 65/74/17 66/75/17 67/76/17 
f 53/77/18 62/78/18 68/79/18 54/80/18 
f 58/81/15 57/82/15 62/67/15 61/66/15 
f 59/83/16 58/84/16 61/71/16 63/70/16 
f 60/85/17 59/86/17 63/75/17 68/74/17 
f 57/84/18 60/83/18 68/79/18 62/78/18 
f 55/59/13 54/58/13 64/87/13 67/88/13 
f 54/80/18 68/79/18 65/89/18 64/90/18 
f 68/91/14 63/92/14 66/93/14 65/94/14 
f 63/70/16 55/69/16 67/95/16 66/96/16 
# 14 polygons

#
# object Object001
#

v  0.2707 0.0000 -0.0246
v  0.1230 0.0000 -0.0246
v  0.1230 0.0000 -0.1722
v  0.2707 0.0000 -0.1722
v  0.2707 0.4921 -0.0246
v  0.2707 0.4921 -0.1722
v  0.1230 0.4921 -0.1722
v  0.1230 0.4921 -0.0246
v  0.2707 0.1476 -0.0246
v  0.1230 0.1476 -0.0246
v  0.1230 0.1476 -0.1722
v  0.2707 0.0000 -0.2215
v  0.1230 0.0000 -0.2215
v  0.1230 0.1476 -0.2215
v  0.2707 0.1476 -0.2215
v  0.2707 0.1476 -0.1722
# 16 vertices

vn 0.0000 -1.0000 -0.0000
vn 0.0000 1.0000 -0.0000
vn 0.0000 0.0000 1.0000
vn -1.0000 0.0000 -0.0000
vn 0.0000 0.0000 -1.0000
vn 1.0000 0.0000 -0.0000
# 6 vertex normals

vt 0.5943 0.6413 0.0000
vt 0.6875 0.6413 0.0000
vt 0.6875 0.7225 0.0000
vt 0.5943 0.7225 0.0000
vt 0.5941 0.5013 0.0000
vt 0.5941 0.5777 0.0000
vt 0.6870 0.5777 0.0000
vt 0.6870 0.5013 0.0000
vt 0.8747 0.5018 0.0000
vt 0.7831 0.5018 0.0000
vt 0.7831 0.5762 0.0000
vt 0.8747 0.5762 0.0000
vt 0.9077 0.5017 0.0000
vt 0.9997 0.5017 0.0000
vt 0.9997 0.5761 0.0000
vt 0.9077 0.5761 0.0000
vt 0.6881 0.5018 0.0000
vt 0.7797 0.5018 0.0000
vt 0.7797 0.5762 0.0000
vt 0.6881 0.5762 0.0000
vt 0.9997 0.5018 0.0000
vt 0.9077 0.5018 0.0000
vt 0.9077 0.5762 0.0000
vt 0.9997 0.5762 0.0000
vt 0.8747 0.7498 0.0000
vt 0.7831 0.7498 0.0000
vt 0.9077 0.7497 0.0000
vt 0.9997 0.7497 0.0000
vt 0.6881 0.7498 0.0000
vt 0.7797 0.7498 0.0000
vt 0.6875 0.7495 0.0000
vt 0.5943 0.7495 0.0000
vt 0.8770 0.5018 0.0000
vt 0.8770 0.5762 0.0000
vt 0.9064 0.5778 0.0000
vt 0.8761 0.5778 0.0000
vt 0.8761 0.6679 0.0000
vt 0.9064 0.6679 0.0000
vt 0.8770 0.5761 0.0000
vt 0.8770 0.5017 0.0000
# 40 texture coords

g Object001
usemtl mat_spirit_matter
f 69/97/19 70/98/19 71/99/19 72/100/19 
f 73/101/20 74/102/20 75/103/20 76/104/20 
f 70/105/21 69/106/21 77/107/21 78/108/21 
f 71/109/22 70/110/22 78/111/22 79/112/22 
f 80/113/23 81/114/23 82/115/23 83/116/23 
f 69/117/24 72/118/24 84/119/24 77/120/24 
f 76/121/21 78/108/21 77/107/21 73/122/21 
f 75/123/22 79/112/22 78/111/22 76/124/22 
f 74/125/23 84/116/23 79/115/23 75/126/23 
f 73/124/24 77/120/24 84/119/24 74/123/24 
f 71/99/19 81/127/19 80/128/19 72/100/19 
f 72/118/24 80/129/24 83/130/24 84/119/24 
f 84/131/20 83/132/20 82/133/20 79/134/20 
f 79/112/22 82/135/22 81/136/22 71/109/22 
# 14 polygons

#
# object tail
#

v  -0.0615 0.4583 0.0344
v  0.0615 0.4583 0.0344
v  0.0615 0.5453 -0.0526
v  -0.0615 0.5453 -0.0526
v  0.0000 0.1538 -0.3571
v  0.0615 0.2843 -0.1396
v  -0.0615 0.2843 -0.1396
v  0.0615 0.3713 -0.2266
v  -0.0615 0.3713 -0.2266
# 9 vertices

vn 0.0000 1.0000 -0.0000
vn 0.0000 -0.2425 0.9701
vn 0.9701 -0.2425 -0.0000
vn 0.0000 -0.2425 -0.9701
vn -0.9701 -0.2425 -0.0000
vn 0.0000 0.0000 1.0000
vn 1.0000 0.0000 -0.0000
vn 0.0000 0.0000 -1.0000
vn -1.0000 0.0000 -0.0000
# 9 vertex normals

vt 0.7514 0.3764 0.0000
vt 0.8116 0.3764 0.0000
vt 0.8116 0.4374 0.0000
vt 0.7514 0.4374 0.0000
vt 0.4841 0.0630 0.0000
vt 0.5141 0.1870 0.0000
vt 0.4541 0.1870 0.0000
vt 0.4541 0.0630 0.0000
vt 0.5141 0.0630 0.0000
# 9 texture coords

g tail
usemtl mat_spirit_matter
f 85/137/25 86/138/25 87/139/25 88/140/25 
f 89/141/26 90/142/26 91/143/26 
f 89/141/27 92/142/27 90/143/27 
f 89/141/28 93/142/28 92/143/28 
f 89/141/29 91/142/29 93/143/29 
f 86/142/30 85/143/30 91/144/30 90/145/30 
f 87/142/31 86/143/31 90/144/31 92/145/31 
f 88/142/32 87/143/32 92/144/32 93/145/32 
f 85/142/33 88/143/33 93/144/33 91/145/33 
# 5 polygons - 4 triangles

