# 3ds Max Wavefront OBJ Exporter v0.97b - (c)2007 guruware
# File Created: 31.10.2018 04:59:56

mtllib arm_left.mtl

#
# object arm_left
#

v  -0.0738 -0.4183 -0.0738
v  0.0738 -0.4183 -0.0738
v  0.0738 -0.4183 0.0738
v  -0.0738 -0.4183 0.0738
v  -0.0738 0.0738 -0.0738
v  -0.0738 0.0738 0.0738
v  0.0738 0.0738 0.0738
v  0.0738 0.0738 -0.0738
v  -0.0738 -0.2707 -0.0738
v  0.0738 -0.2707 -0.0738
v  0.0738 -0.2707 0.0738
v  -0.0738 -0.4183 0.1230
v  0.0738 -0.4183 0.1230
v  0.0738 -0.2707 0.1230
v  -0.0738 -0.2707 0.1230
v  -0.0738 -0.2707 0.0738
# 16 vertices

vn 0.0000 -1.0000 -0.0000
vn 0.0000 1.0000 -0.0000
vn 0.0000 0.0000 -1.0000
vn 1.0000 0.0000 0.0000
vn -0.0000 0.0000 1.0000
vn -1.0000 0.0000 -0.0000
# 6 vertex normals

vt 0.5943 0.6413 0.0000
vt 0.6875 0.6413 0.0000
vt 0.6875 0.7225 0.0000
vt 0.5943 0.7225 0.0000
vt 0.5941 0.5013 0.0000
vt 0.5941 0.5777 0.0000
vt 0.6870 0.5777 0.0000
vt 0.6870 0.5013 0.0000
vt 0.8747 0.5018 0.0000
vt 0.7831 0.5018 0.0000
vt 0.7831 0.5762 0.0000
vt 0.8747 0.5762 0.0000
vt 0.9077 0.5017 0.0000
vt 0.9997 0.5017 0.0000
vt 0.9997 0.5761 0.0000
vt 0.9077 0.5761 0.0000
vt 0.6881 0.5018 0.0000
vt 0.7797 0.5018 0.0000
vt 0.7797 0.5762 0.0000
vt 0.6881 0.5762 0.0000
vt 0.9997 0.5018 0.0000
vt 0.9077 0.5018 0.0000
vt 0.9077 0.5762 0.0000
vt 0.9997 0.5762 0.0000
vt 0.8747 0.7498 0.0000
vt 0.7831 0.7498 0.0000
vt 0.9077 0.7497 0.0000
vt 0.9997 0.7497 0.0000
vt 0.6881 0.7498 0.0000
vt 0.7797 0.7498 0.0000
vt 0.6875 0.7495 0.0000
vt 0.5943 0.7495 0.0000
vt 0.8770 0.5018 0.0000
vt 0.8770 0.5762 0.0000
vt 0.9064 0.5778 0.0000
vt 0.8761 0.5778 0.0000
vt 0.8761 0.6679 0.0000
vt 0.9064 0.6679 0.0000
vt 0.8770 0.5761 0.0000
vt 0.8770 0.5017 0.0000
# 40 texture coords

g arm_left
usemtl mat_spirit_matter
f 1/1/1 2/2/1 3/3/1 4/4/1 
f 5/5/2 6/6/2 7/7/2 8/8/2 
f 2/9/3 1/10/3 9/11/3 10/12/3 
f 3/13/4 2/14/4 10/15/4 11/16/4 
f 12/17/5 13/18/5 14/19/5 15/20/5 
f 1/21/6 4/22/6 16/23/6 9/24/6 
f 8/25/3 10/12/3 9/11/3 5/26/3 
f 7/27/4 11/16/4 10/15/4 8/28/4 
f 6/29/5 16/20/5 11/19/5 7/30/5 
f 5/28/6 9/24/6 16/23/6 6/27/6 
f 3/3/1 13/31/1 12/32/1 4/4/1 
f 4/22/6 12/33/6 15/34/6 16/23/6 
f 16/35/2 15/36/2 14/37/2 11/38/2 
f 11/16/4 14/39/4 13/40/4 3/13/4 
# 14 polygons

