# 3ds Max Wavefront OBJ Exporter v0.97b - (c)2007 guruware
# File Created: 27.10.2018 21:59:00

mtllib head.mtl

#
# object head
#

v  0.0000 0.8366 -0.3931
v  0.0000 0.8366 -0.1471
v  0.2461 0.8366 -0.1471
v  0.2461 0.8366 -0.3931
v  0.2461 0.3937 -0.1471
v  0.2461 0.5906 -0.1471
v  0.2461 0.5906 0.0990
v  0.2461 0.3937 0.0990
v  0.2461 0.8366 0.0990
v  -0.0000 0.8366 0.0990
v  -0.0000 0.5906 0.0990
v  0.2461 0.5906 -0.3931
v  -0.0000 0.3937 0.0990
v  0.0000 0.3937 -0.1471
v  0.0000 0.5906 -0.3931
v  0.0000 0.5906 -0.1471
v  -0.2461 0.8366 -0.3931
v  -0.2461 0.8366 -0.1471
v  -0.2461 0.3937 -0.1471
v  -0.2461 0.3937 0.0990
v  -0.2461 0.5906 0.0990
v  -0.2461 0.5906 -0.1471
v  -0.2461 0.8366 0.0990
v  -0.2461 0.5906 -0.3931
# 24 vertices

vn 0.0000 1.0000 -0.0000
vn 1.0000 0.0000 0.0000
vn -0.0000 0.0000 1.0000
vn 0.0000 -1.0000 -0.0000
vn 0.0000 0.0000 -1.0000
vn -1.0000 0.0000 -0.0000
# 6 vertex normals

vt 0.9992 0.7507 0.0000
vt 0.9992 0.8753 0.0000
vt 0.8754 0.8753 0.0000
vt 0.8754 0.7507 0.0000
vt 0.7496 0.7503 0.0000
vt 0.7496 0.8750 0.0000
vt 0.6254 0.8750 0.0000
vt 0.6254 0.7503 0.0000
vt 0.8754 0.9999 0.0000
vt 1.0000 0.9999 0.0000
vt 1.0000 0.8614 0.0000
vt 0.8754 0.8614 0.0000
vt 0.8739 0.9997 0.0000
vt 0.7496 0.9997 0.0000
vt 0.8739 0.8750 0.0000
vt 0.8754 0.7505 0.0000
vt 0.8754 0.8745 0.0000
vt 0.9994 0.8745 0.0000
vt 0.9994 0.7505 0.0000
vt 0.6254 0.9997 0.0000
vt 1.0000 0.7505 0.0000
vt 0.1255 0.8747 0.0000
vt 0.1255 0.7503 0.0000
vt 0.2499 0.7503 0.0000
vt 0.2499 0.8747 0.0000
vt 0.9992 0.9999 0.0000
vt 0.0008 0.5005 0.0000
vt 0.0008 0.6247 0.0000
vt 0.1247 0.6247 0.0000
vt 0.1247 0.5005 0.0000
# 30 texture coords

g head
usemtl mat_spirit_matter
f 1/1/1 2/2/1 3/3/1 4/4/1 
f 5/5/2 6/6/2 7/7/2 8/8/2 
f 9/9/3 10/10/3 11/11/3 7/12/3 
f 4/13/2 3/14/2 6/6/2 12/15/2 
f 8/16/4 13/17/4 14/18/4 5/19/4 
f 9/20/2 7/7/2 6/6/2 3/14/2 
f 8/16/3 7/12/3 11/11/3 13/21/3 
f 4/22/5 12/23/5 15/24/5 1/25/5 
f 9/9/1 3/3/1 2/2/1 10/26/1 
f 12/27/4 6/28/4 16/29/4 15/30/4 
f 6/28/5 5/27/5 14/30/5 16/29/5 
f 1/1/1 17/4/1 18/3/1 2/2/1 
f 19/5/6 20/8/6 21/7/6 22/6/6 
f 23/9/3 21/12/3 11/11/3 10/10/3 
f 17/13/6 24/15/6 22/6/6 18/14/6 
f 20/16/4 19/19/4 14/18/4 13/17/4 
f 23/20/6 18/14/6 22/6/6 21/7/6 
f 20/16/3 13/21/3 11/11/3 21/12/3 
f 17/22/5 1/25/5 15/24/5 24/23/5 
f 23/9/1 10/26/1 2/2/1 18/3/1 
f 24/27/4 15/30/4 16/29/4 22/28/4 
f 22/28/5 16/29/5 14/30/5 19/27/5 
# 22 polygons

