# 3ds Max Wavefront OBJ Exporter v0.97b - (c)2007 guruware
# File Created: 31.10.2018 03:50:39

mtllib jaw.mtl

#
# object jaw
#

v  0.3199 -0.2461 0.1226
v  0.0000 -0.2461 0.1226
v  0.0000 -0.2461 -0.3941
v  0.3199 -0.2461 -0.3941
v  0.0000 0.0000 -0.3941
v  0.0000 0.0000 0.1226
v  0.3199 0.0000 0.1226
v  0.3199 0.0000 -0.3941
v  -0.3199 -0.2461 0.1226
v  -0.3199 -0.2461 -0.3941
v  -0.3199 0.0000 -0.3941
v  -0.3199 0.0000 0.1226
v  0.2953 0.0246 -0.3695
v  0.1969 0.0246 -0.3695
v  0.1969 0.0246 -0.2711
v  0.2953 0.0246 -0.2711
v  0.2953 0.0000 -0.3695
v  0.1969 0.0000 -0.3695
v  0.1969 0.0000 -0.2711
v  0.2953 0.0000 -0.2711
v  -0.2953 0.0246 -0.3695
v  -0.2953 0.0246 -0.2711
v  -0.1969 0.0246 -0.2711
v  -0.1969 0.0246 -0.3695
v  -0.2953 0.0000 -0.3695
v  -0.1969 0.0000 -0.3695
v  -0.1969 0.0000 -0.2711
v  -0.2953 0.0000 -0.2711
# 28 vertices

vn 0.0000 -1.0000 -0.0000
vn 0.0000 1.0000 -0.0000
vn 0.0000 0.0000 -1.0000
vn 1.0000 0.0000 0.0000
vn -0.0000 0.0000 1.0000
vn -1.0000 0.0000 -0.0000
vn 0.0000 0.0000 1.0000
vn 1.0000 0.0000 -0.0000
# 8 vertex normals

vt 0.8756 1.0000 0.0000
vt 1.0000 1.0000 0.0000
vt 1.0000 0.7504 0.0000
vt 0.8756 0.7504 0.0000
vt 0.2498 0.5004 0.0000
vt 0.2498 0.7499 0.0000
vt 0.1254 0.7499 0.0000
vt 0.1254 0.5004 0.0000
vt 0.3757 0.6257 0.0000
vt 0.5000 0.6257 0.0000
vt 0.5000 0.7497 0.0000
vt 0.3757 0.7497 0.0000
vt 0.4993 0.7497 0.0000
vt 0.3759 0.7497 0.0000
vt 0.3759 0.5012 0.0000
vt 0.4993 0.5012 0.0000
vt 0.3758 0.7499 0.0000
vt 0.4999 0.7499 0.0000
vt 0.4999 0.6256 0.0000
vt 0.3758 0.6256 0.0000
vt 0.0005 0.6251 0.0000
vt 0.1249 0.6251 0.0000
vt 0.1249 0.7496 0.0000
vt 0.0005 0.7496 0.0000
vt 0.0005 0.7194 0.0000
vt 0.1249 0.7194 0.0000
# 26 texture coords

g jaw
usemtl mat_spirit_matter
f 1/1/1 2/2/1 3/3/1 4/4/1 
f 5/5/2 6/6/2 7/7/2 8/8/2 
f 3/9/3 5/10/3 8/11/3 4/12/3 
f 4/13/4 8/14/4 7/15/4 1/16/4 
f 7/17/5 6/18/5 2/19/5 1/20/5 
f 9/1/1 10/4/1 3/3/1 2/2/1 
f 5/5/2 11/8/2 12/7/2 6/6/2 
f 3/9/3 10/12/3 11/11/3 5/10/3 
f 10/13/6 9/16/6 12/15/6 11/14/6 
f 12/17/5 9/20/5 2/19/5 6/18/5 
f 13/21/2 14/22/2 15/23/2 16/24/2 
f 17/25/3 18/26/3 14/23/3 13/24/3 
f 18/25/6 19/26/6 15/23/6 14/24/6 
f 19/25/7 20/26/7 16/23/7 15/24/7 
f 20/25/8 17/26/8 13/23/8 16/24/8 
f 21/21/2 22/24/2 23/23/2 24/22/2 
f 25/25/3 21/24/3 24/23/3 26/26/3 
f 26/25/4 24/24/4 23/23/4 27/26/4 
f 27/25/5 23/24/5 22/23/5 28/26/5 
f 28/25/6 22/24/6 21/23/6 25/26/6 
# 20 polygons

