# 3ds Max Wavefront OBJ Exporter v0.97b - (c)2007 guruware
# File Created: 27.10.2018 21:59:43

mtllib tail.mtl

#
# object tail
#

v  0.0615 0.4583 -0.0338
v  -0.0615 0.4583 -0.0338
v  -0.0615 0.5453 0.0532
v  0.0615 0.5453 0.0532
v  -0.0000 0.1538 0.3577
v  -0.0615 0.2843 0.1402
v  0.0615 0.2843 0.1402
v  -0.0615 0.3713 0.2272
v  0.0615 0.3713 0.2272
# 9 vertices

vn 0.0000 1.0000 -0.0000
vn 0.0000 -0.2425 -0.9701
vn -0.9701 -0.2425 -0.0000
vn -0.0000 -0.2425 0.9701
vn 0.9701 -0.2425 0.0000
vn 0.0000 0.0000 -1.0000
vn -1.0000 0.0000 -0.0000
vn -0.0000 0.0000 1.0000
vn 1.0000 0.0000 0.0000
# 9 vertex normals

vt 0.7514 0.3764 0.0000
vt 0.8116 0.3764 0.0000
vt 0.8116 0.4374 0.0000
vt 0.7514 0.4374 0.0000
vt 0.4841 0.0630 0.0000
vt 0.5141 0.1870 0.0000
vt 0.4541 0.1870 0.0000
vt 0.4541 0.0630 0.0000
vt 0.5141 0.0630 0.0000
# 9 texture coords

g tail
usemtl mat_spirit_matter
f 1/1/1 2/2/1 3/3/1 4/4/1 
f 5/5/2 6/6/2 7/7/2 
f 5/5/3 8/6/3 6/7/3 
f 5/5/4 9/6/4 8/7/4 
f 5/5/5 7/6/5 9/7/5 
f 2/6/6 1/7/6 7/8/6 6/9/6 
f 3/6/7 2/7/7 6/8/7 8/9/7 
f 4/6/8 3/7/8 8/8/8 9/9/8 
f 1/6/9 4/7/9 9/8/9 7/9/9 
# 5 polygons - 4 triangles

