# Blender v2.79 (sub 0) OBJ File: 'brazierofhoarding.blend'
# www.blender.org
mtllib brazier_of_hoarding.mtl
o FireRing_Torus
v 0.500000 0.740209 0.151465
v 0.500000 1.125000 0.221172
v 0.500000 0.711644 0.250456
v 0.198160 0.740209 0.325733
v 0.258528 1.125000 0.360586
v 0.283889 0.711644 0.375228
v 0.198160 0.740209 0.674268
v 0.258528 1.125000 0.639414
v 0.283889 0.711644 0.624772
v 0.500000 0.740209 0.848535
v 0.500000 1.125000 0.778828
v 0.500000 0.711644 0.749544
v 0.801840 0.740209 0.674267
v 0.741472 1.125000 0.639414
v 0.716111 0.711644 0.624772
v 0.801840 0.740209 0.325732
v 0.741472 1.125000 0.360586
v 0.716111 0.711644 0.375228
vt 0.252029 0.420147
vt 0.746202 0.420147
vt 0.696783 0.997025
vt 0.301446 0.997025
vt 0.676023 0.377322
vt 0.322206 0.377322
vt 0.746105 0.420147
vt 0.251933 0.420147
vt 0.301351 0.997025
vt 0.696688 0.997025
vt 0.322112 0.377322
vt 0.675928 0.377322
vt 0.746105 0.420147
vt 0.696688 0.997025
vt 0.675928 0.377322
vt 0.746202 0.420147
vt 0.252029 0.420147
vt 0.301445 0.997025
vt 0.696783 0.997025
vt 0.322206 0.377322
vt 0.676023 0.377322
vt 0.251935 0.420147
vt 0.746105 0.420147
vt 0.696688 0.997025
vt 0.675928 0.377322
vt 0.322112 0.377323
vt 0.251933 0.420147
vt 0.322112 0.377322
vn -0.4940 0.1550 -0.8556
vn 0.4991 0.0612 0.8644
vn -0.9879 0.1550 0.0000
vn 0.9981 0.0612 -0.0000
vn -0.4940 0.1550 0.8556
vn 0.4991 0.0612 -0.8644
vn 0.4940 0.1550 0.8556
vn -0.4991 0.0612 -0.8644
vn 0.9879 0.1550 -0.0000
vn -0.9981 0.0612 0.0000
vn 0.4940 0.1550 -0.8556
vn -0.4991 0.0612 0.8644
usemtl FireVariantA
s off
f 1/1/1 4/2/1 5/3/1 2/4/1
f 2/4/2 5/3/2 6/5/2 3/6/2
f 4/7/3 7/8/3 8/9/3 5/10/3
f 5/10/4 8/9/4 9/11/4 6/12/4
f 7/8/5 10/13/5 11/14/5 8/9/5
f 8/9/6 11/14/6 12/15/6 9/11/6
f 10/16/7 13/17/7 14/18/7 11/19/7
f 11/19/8 14/18/8 15/20/8 12/21/8
f 13/22/9 16/23/9 17/24/9 14/18/9
f 14/18/10 17/24/10 18/25/10 15/26/10
f 16/23/11 1/27/11 2/4/11 17/24/11
f 17/24/12 2/4/12 3/28/12 18/25/12
o FireCenter1
v 0.500000 0.750000 0.831584
v 0.500000 1.250000 0.777559
v 0.500000 0.750000 0.168416
v 0.500000 1.250000 0.222441
v 0.428091 0.750000 0.336171
v 0.571908 0.750000 0.336171
v 0.571067 0.750000 0.665792
v 0.428933 0.750000 0.665792
vt 0.744280 0.255239
vt 0.993699 0.255239
vt 0.913374 0.998641
vt 0.744280 0.255239
vt 0.088024 0.998641
vt 0.254199 0.255239
vt 0.254198 0.255239
vt 0.007698 0.255239
vn 0.9183 0.0425 -0.3936
vn -0.9183 0.0425 -0.3936
vn -0.9899 0.1415 0.0009
vn 0.9899 0.1415 0.0009
vn -0.9183 0.0425 0.3936
vn 0.9183 0.0425 0.3936
usemtl FireVariantB
s off
f 24/29/13 21/30/13 22/31/13
f 22/31/14 21/30/14 23/32/14
f 20/33/15 22/31/15 23/32/15 26/34/15
f 20/33/16 25/35/16 24/29/16 22/31/16
f 19/36/17 20/33/17 26/34/17
f 19/36/18 25/35/18 20/33/18
o FireCenter2
v 0.787161 0.750000 0.665792
v 0.740373 1.250000 0.638779
v 0.212840 0.750000 0.334208
v 0.259627 1.250000 0.361221
v 0.322166 0.750000 0.480361
v 0.394074 0.750000 0.355811
v 0.679114 0.750000 0.521350
v 0.608047 0.750000 0.644442
vt 0.744280 0.255239
vt 0.993699 0.255239
vt 0.913374 0.998641
vt 0.744280 0.255239
vt 0.088024 0.998641
vt 0.254199 0.255239
vt 0.254198 0.255239
vt 0.007698 0.255239
vn 0.1183 0.0425 -0.9921
vn -0.8000 0.0425 0.5984
vn -0.4941 0.1415 0.8578
vn 0.4958 0.1415 -0.8568
vn -0.1183 0.0425 0.9921
vn 0.8000 0.0425 -0.5984
usemtl FireVariantB
s off
f 32/37/19 29/38/19 30/39/19
f 30/39/20 29/38/20 31/40/20
f 28/41/21 30/39/21 31/40/21 34/42/21
f 28/41/22 33/43/22 32/37/22 30/39/22
f 27/44/23 28/41/23 34/42/23
f 27/44/24 33/43/24 28/41/24
o FireCenter3
v 0.212840 0.750000 0.665792
v 0.259627 1.250000 0.638779
v 0.787160 0.750000 0.334208
v 0.740373 1.250000 0.361221
v 0.605925 0.750000 0.355811
v 0.677834 0.750000 0.480360
v 0.391953 0.750000 0.644442
v 0.320886 0.750000 0.521350
vt 0.744280 0.255239
vt 0.993699 0.255239
vt 0.913374 0.998641
vt 0.744280 0.255239
vt 0.088024 0.998641
vt 0.254199 0.255239
vt 0.254198 0.255239
vt 0.007698 0.255239
vn 0.8000 0.0425 0.5984
vn -0.1183 0.0425 -0.9921
vn -0.4958 0.1415 -0.8568
vn 0.4942 0.1415 0.8578
vn -0.8000 0.0425 -0.5984
vn 0.1183 0.0425 0.9921
usemtl FireVariantB
s off
f 40/45/25 37/46/25 38/47/25
f 38/47/26 37/46/26 39/48/26
f 36/49/27 38/47/27 39/48/27 42/50/27
f 36/49/28 41/51/28 40/45/28 38/47/28
f 35/52/29 36/49/29 42/50/29
f 35/52/30 41/51/30 36/49/30
