# 3ds Max Wavefront OBJ Exporter v0.97b - (c)2007 guruware
# File Created: 27.09.2018 22:12:16

mtllib distillatematrix.mtl

#
# object Crystal
#

v  0.6023 2.1037 0.3014
v  0.4921 2.1849 0.3014
v  0.4921 2.4424 0.4921
v  0.6573 2.1849 0.3968
v  0.3820 2.1037 0.3014
v  0.3269 2.1849 0.3968
v  0.2719 2.1037 0.4921
v  0.3269 2.1849 0.5875
v  0.3820 2.1037 0.6829
v  0.4921 2.1849 0.6829
v  0.6023 2.1037 0.6829
v  0.6573 2.1849 0.5875
v  0.7124 2.1037 0.4921
v  0.6023 0.8313 0.3014
v  0.4921 0.7501 0.3014
v  0.3820 0.8313 0.3014
v  0.3269 0.7501 0.3968
v  0.2719 0.8313 0.4921
v  0.3269 0.7501 0.5875
v  0.6573 0.7501 0.3968
v  0.6573 0.7501 0.5875
v  0.7124 0.8313 0.4921
v  0.4921 0.4927 0.4921
v  0.3820 0.8313 0.6829
v  0.4921 0.7501 0.6829
v  0.6023 0.8313 0.6829
# 26 vertices

vn 0.4634 0.3754 -0.8027
vn -0.4634 0.3754 -0.8027
vn -0.9269 0.3754 -0.0000
vn -0.4634 0.3754 0.8027
vn 0.4634 0.3754 0.8027
vn 0.9269 0.3754 -0.0000
vn 0.0000 0.0000 -1.0000
vn -0.8660 0.0000 -0.5000
vn -0.8660 0.0000 0.5000
vn 0.8660 0.0000 -0.5000
vn 0.8660 -0.0000 0.5000
vn 0.4634 -0.3754 -0.8027
vn -0.4634 -0.3754 -0.8027
vn -0.9269 -0.3754 -0.0000
vn -0.4634 -0.3754 0.8027
vn 0.4634 -0.3754 0.8027
vn 0.9269 -0.3754 -0.0000
vn 0.0000 0.0000 1.0000
# 18 vertex normals

vt 0.7187 0.7817 0.0000
vt 0.5306 0.7812 0.0000
vt 0.5304 0.9687 0.0000
vt 0.7197 0.9685 0.0000
vt 0.7088 0.7073 0.0000
vt 0.7088 0.0434 0.0000
vt 0.6254 0.0033 0.0000
vt 0.6254 0.7473 0.0000
vt 0.5421 0.0434 0.0000
vt 0.5421 0.7073 0.0000
# 10 texture coords

g Crystal
usemtl mat_ArcaneArchives_Master
s off
f 1/1/1 2/2/1 3/3/1 4/4/1 
f 5/3/2 6/2/2 3/1/2 2/4/2 
f 7/1/3 8/4/3 3/3/3 6/2/3 
f 9/4/4 10/1/4 3/2/4 8/3/4 
f 11/3/5 12/4/5 3/1/5 10/2/5 
f 13/1/6 4/2/6 3/3/6 12/4/6 
f 1/5/7 14/6/7 15/7/7 2/8/7 
f 5/5/8 16/6/8 17/7/8 6/8/8 
f 8/8/9 7/5/9 18/6/9 19/7/9 
f 4/8/10 20/7/10 14/9/10 1/10/10 
f 5/10/7 2/8/7 15/7/7 16/9/7 
f 7/10/8 6/8/8 17/7/8 18/9/8 
f 12/8/11 21/7/11 22/9/11 13/10/11 
f 14/4/12 20/3/12 23/2/12 15/1/12 
f 16/3/13 15/2/13 23/1/13 17/4/13 
f 18/1/14 17/4/14 23/3/14 19/2/14 
f 24/4/15 19/1/15 23/2/15 25/3/15 
f 26/2/16 25/1/16 23/4/16 21/3/16 
f 22/1/17 21/2/17 23/3/17 20/4/17 
f 4/8/10 13/5/10 22/6/10 20/7/10 
f 10/8/18 9/5/18 24/6/18 25/7/18 
f 12/8/11 11/5/11 26/6/11 21/7/11 
f 8/8/9 19/7/9 24/9/9 9/10/9 
f 10/8/18 25/7/18 26/9/18 11/10/18 
# 24 polygons

#
# object Base
#

v  0.0984 0.0000 0.8858
v  0.0984 0.0000 0.0984
v  0.8858 0.0000 0.0984
v  0.8858 0.0000 0.8858
v  0.8858 0.0984 0.8858
v  0.0984 0.0984 0.8858
v  0.8858 0.0984 0.0984
v  0.0984 0.0984 0.0984
v  0.8366 0.0984 0.8366
v  0.1476 0.0984 0.8366
v  0.8366 0.0984 0.1476
v  0.1476 0.0984 0.1476
v  0.8366 0.2461 0.8366
v  0.1476 0.2461 0.8366
v  0.8366 0.2461 0.1476
v  0.1476 0.2461 0.1476
v  0.7382 0.2461 0.7382
v  0.2461 0.2461 0.7382
v  0.7382 0.2461 0.2461
v  0.2461 0.2461 0.2461
v  0.5906 0.3937 0.5906
v  0.3937 0.3937 0.5906
v  0.5906 0.3937 0.3937
v  0.3937 0.3937 0.3937
v  0.0984 2.9528 0.8858
v  0.0984 2.9528 0.0984
v  0.8858 2.9528 0.0984
v  0.8858 2.9528 0.8858
v  0.8858 2.8543 0.8858
v  0.0984 2.8543 0.8858
v  0.8858 2.8543 0.0984
v  0.0984 2.8543 0.0984
v  0.8366 2.8543 0.8366
v  0.1476 2.8543 0.8366
v  0.8366 2.8543 0.1476
v  0.1476 2.8543 0.1476
v  0.8366 2.7067 0.8366
v  0.1476 2.7067 0.8366
v  0.8366 2.7067 0.1476
v  0.1476 2.7067 0.1476
v  0.7382 2.7067 0.7382
v  0.2461 2.7067 0.7382
v  0.7382 2.7067 0.2461
v  0.2461 2.7067 0.2461
v  0.5906 2.5591 0.5906
v  0.3937 2.5591 0.5906
v  0.5906 2.5591 0.3937
v  0.3937 2.5591 0.3937
# 48 vertices

vn 0.0000 -1.0000 -0.0000
vn 0.0000 0.0000 1.0000
vn 1.0000 0.0000 -0.0000
vn 0.0000 0.0000 -1.0000
vn -1.0000 0.0000 -0.0000
vn 0.0000 1.0000 -0.0000
vn 0.0000 0.7071 0.7071
vn 0.7071 0.7071 -0.0000
vn 0.0000 0.7071 -0.7071
vn -0.7071 0.7071 -0.0000
# 10 vertex normals

vt 0.2493 0.2512 0.0000
vt 0.2493 0.4988 0.0000
vt 0.0013 0.4988 0.0000
vt 0.0013 0.2512 0.0000
vt 0.0013 0.0018 0.0000
vt 0.4987 0.0018 0.0000
vt 0.4987 0.0619 0.0000
vt 0.0013 0.0619 0.0000
vt 0.0012 0.0016 0.0000
vt 0.4987 0.0016 0.0000
vt 0.4676 0.0315 0.0000
vt 0.0323 0.0315 0.0000
vt 0.0010 0.0639 0.0000
vt 0.4988 0.0639 0.0000
vt 0.4988 0.1859 0.0000
vt 0.0010 0.1859 0.0000
vt 0.0323 0.0019 0.0000
vt 0.4676 0.0019 0.0000
vt 0.4054 0.0618 0.0000
vt 0.0945 0.0618 0.0000
vt 0.0008 0.0639 0.0000
vt 0.3494 0.1859 0.0000
vt 0.1502 0.1859 0.0000
vt 0.4980 0.7481 0.0000
vt 0.3782 0.7481 0.0000
vt 0.3782 0.6273 0.0000
vt 0.4980 0.6273 0.0000
# 27 texture coords

g Base
usemtl mat_ArcaneArchives_Master
s 2
f 27/11/19 28/12/19 29/13/19 30/14/19 
s 8
f 27/15/20 30/16/20 31/17/20 32/18/20 
s 16
f 30/15/21 29/16/21 33/17/21 31/18/21 
s 32
f 29/15/22 28/16/22 34/17/22 33/18/22 
s 64
f 28/15/23 27/16/23 32/17/23 34/18/23 
s off
f 32/19/24 31/20/24 35/21/24 36/22/24 
f 31/19/24 33/20/24 37/21/24 35/22/24 
f 33/19/24 34/20/24 38/21/24 37/22/24 
f 34/19/24 32/20/24 36/21/24 38/22/24 
f 36/23/20 35/24/20 39/25/20 40/26/20 
f 35/23/21 37/24/21 41/25/21 39/26/21 
f 37/23/22 38/24/22 42/25/22 41/26/22 
f 38/23/23 36/24/23 40/25/23 42/26/23 
f 40/27/24 39/28/24 43/29/24 44/30/24 
f 39/27/24 41/28/24 45/29/24 43/30/24 
f 41/27/24 42/28/24 46/29/24 45/30/24 
f 42/27/24 40/28/24 44/29/24 46/30/24 
f 44/31/25 43/24/25 47/32/25 48/33/25 
f 43/31/26 45/24/26 49/32/26 47/33/26 
f 45/31/27 46/24/27 50/32/27 49/33/27 
f 46/31/28 44/24/28 48/32/28 50/33/28 
f 49/34/24 50/35/24 48/36/24 47/37/24 
s 2
f 51/11/19 52/12/19 53/13/19 54/14/19 
s 8
f 51/15/22 54/16/22 55/17/22 56/18/22 
s 16
f 54/15/23 53/16/23 57/17/23 55/18/23 
s 32
f 53/15/20 52/16/20 58/17/20 57/18/20 
s 64
f 52/15/21 51/16/21 56/17/21 58/18/21 
s off
f 56/19/24 55/20/24 59/21/24 60/22/24 
f 55/19/24 57/20/24 61/21/24 59/22/24 
f 57/19/24 58/20/24 62/21/24 61/22/24 
f 58/19/24 56/20/24 60/21/24 62/22/24 
f 60/23/22 59/24/22 63/25/22 64/26/22 
f 59/23/23 61/24/23 65/25/23 63/26/23 
f 61/23/20 62/24/20 66/25/20 65/26/20 
f 62/23/21 60/24/21 64/25/21 66/26/21 
f 64/27/24 63/28/24 67/29/24 68/30/24 
f 63/27/24 65/28/24 69/29/24 67/30/24 
f 65/27/24 66/28/24 70/29/24 69/30/24 
f 66/27/24 64/28/24 68/29/24 70/30/24 
f 68/31/27 67/24/27 71/32/27 72/33/27 
f 67/31/28 69/24/28 73/32/28 71/33/28 
f 69/31/25 70/24/25 74/32/25 73/33/25 
f 70/31/26 68/24/26 72/32/26 74/33/26 
f 73/34/24 74/35/24 72/36/24 71/37/24 
# 44 polygons

#
# object Struts
#

v  0.8120 0.2461 0.2215
v  0.8120 1.4764 0.2215
v  0.7628 1.4764 0.2215
v  0.7628 0.2461 0.2215
v  0.8120 0.2461 0.1722
v  0.8120 1.4764 0.1722
v  0.7628 0.2461 0.1722
v  0.7628 1.4764 0.1722
v  0.8120 2.7067 0.2215
v  0.7628 2.7067 0.2215
v  0.8120 2.7067 0.1722
v  0.7628 2.7067 0.1722
v  0.1722 0.2461 0.2215
v  0.2215 0.2461 0.2215
v  0.2215 1.4764 0.2215
v  0.1722 1.4764 0.2215
v  0.1722 0.2461 0.1722
v  0.1722 1.4764 0.1722
v  0.2215 0.2461 0.1722
v  0.2215 1.4764 0.1722
v  0.1722 2.7067 0.2215
v  0.2215 2.7067 0.2215
v  0.1722 2.7067 0.1722
v  0.2215 2.7067 0.1722
v  0.8120 0.2461 0.7628
v  0.7628 0.2461 0.7628
v  0.7628 1.4764 0.7628
v  0.8120 1.4764 0.7628
v  0.8120 0.2461 0.8120
v  0.8120 1.4764 0.8120
v  0.7628 0.2461 0.8120
v  0.7628 1.4764 0.8120
v  0.8120 2.7067 0.7628
v  0.7628 2.7067 0.7628
v  0.8120 2.7067 0.8120
v  0.7628 2.7067 0.8120
v  0.1722 0.2461 0.7628
v  0.1722 1.4764 0.7628
v  0.2215 1.4764 0.7628
v  0.2215 0.2461 0.7628
v  0.1722 0.2461 0.8120
v  0.1722 1.4764 0.8120
v  0.2215 0.2461 0.8120
v  0.2215 1.4764 0.8120
v  0.1722 2.7067 0.7628
v  0.2215 2.7067 0.7628
v  0.1722 2.7067 0.8120
v  0.2215 2.7067 0.8120
# 48 vertices

vn 0.0000 0.0000 1.0000
vn 1.0000 0.0000 -0.0000
vn 0.0000 0.0000 -1.0000
vn -1.0000 0.0000 -0.0000
# 4 vertex normals

vt 0.0782 0.9839 0.0000
vt 0.0782 0.5154 0.0000
vt 0.0471 0.5154 0.0000
vt 0.0471 0.9839 0.0000
vt 0.1092 0.9839 0.0000
vt 0.1092 0.5154 0.0000
vt 0.1402 0.9839 0.0000
vt 0.1402 0.5154 0.0000
vt 0.1713 0.9839 0.0000
vt 0.1713 0.5154 0.0000
# 10 texture coords

g Struts
usemtl mat_ArcaneArchives_Master
s 8
f 75/38/29 76/39/29 77/40/29 78/41/29 
s 16
f 79/42/30 80/43/30 76/39/30 75/38/30 
s 32
f 81/44/31 82/45/31 80/43/31 79/42/31 
s 64
f 78/46/32 77/47/32 82/45/32 81/44/32 
s 8
f 83/38/29 84/41/29 77/40/29 76/39/29 
s 16
f 85/42/30 83/38/30 76/39/30 80/43/30 
s 32
f 86/44/31 85/42/31 80/43/31 82/45/31 
s 64
f 84/46/32 86/44/32 82/45/32 77/47/32 
s 8
f 87/38/29 88/41/29 89/40/29 90/39/29 
s 16
f 91/42/32 87/38/32 90/39/32 92/43/32 
s 32
f 93/44/31 91/42/31 92/43/31 94/45/31 
s 64
f 88/46/30 93/44/30 94/45/30 89/47/30 
s 8
f 95/38/29 90/39/29 89/40/29 96/41/29 
s 16
f 97/42/32 92/43/32 90/39/32 95/38/32 
s 32
f 98/44/31 94/45/31 92/43/31 97/42/31 
s 64
f 96/46/30 89/47/30 94/45/30 98/44/30 
s 8
f 99/38/31 100/41/31 101/40/31 102/39/31 
s 16
f 103/42/30 99/38/30 102/39/30 104/43/30 
s 32
f 105/44/29 103/42/29 104/43/29 106/45/29 
s 64
f 100/46/32 105/44/32 106/45/32 101/47/32 
s 8
f 107/38/31 102/39/31 101/40/31 108/41/31 
s 16
f 109/42/30 104/43/30 102/39/30 107/38/30 
s 32
f 110/44/29 106/45/29 104/43/29 109/42/29 
s 64
f 108/46/32 101/47/32 106/45/32 110/44/32 
s 8
f 111/38/31 112/39/31 113/40/31 114/41/31 
s 16
f 115/42/32 116/43/32 112/39/32 111/38/32 
s 32
f 117/44/29 118/45/29 116/43/29 115/42/29 
s 64
f 114/46/30 113/47/30 118/45/30 117/44/30 
s 8
f 119/38/31 120/41/31 113/40/31 112/39/31 
s 16
f 121/42/32 119/38/32 112/39/32 116/43/32 
s 32
f 122/44/29 121/42/29 116/43/29 118/45/29 
s 64
f 120/46/30 122/44/30 118/45/30 113/47/30 
# 32 polygons

#
# object TextRing03
#

v  0.8478 2.2146 0.1365
v  0.8572 2.2865 0.1271
v  0.4921 2.2865 -0.0241
v  0.4921 2.2146 -0.0108
v  0.1271 2.2865 0.1271
v  0.1365 2.2146 0.1365
v  -0.0241 2.2865 0.4922
v  -0.0109 2.2146 0.4922
v  0.1271 2.2865 0.8572
v  0.1365 2.2146 0.8479
v  0.4921 2.2146 0.9952
v  0.4921 2.2865 1.0084
v  0.8478 2.2146 0.8479
v  0.8572 2.2865 0.8572
v  1.0084 2.2865 0.4922
v  0.9952 2.2146 0.4922
v  0.1271 2.1427 0.1271
v  0.4921 2.1427 -0.0241
v  0.8572 2.1427 0.1271
v  1.0084 2.1427 0.4922
v  0.8572 2.1427 0.8572
v  0.4921 2.1427 1.0084
v  0.1271 2.1427 0.8572
v  -0.0241 2.1427 0.4922
v  0.4921 2.2146 -0.0373
v  0.1177 2.2146 0.1178
v  0.8666 2.2146 0.1178
v  1.0216 2.2146 0.4922
v  0.8666 2.2146 0.8666
v  0.4921 2.2146 1.0217
v  0.1177 2.2146 0.8666
v  -0.0373 2.2146 0.4922
# 32 vertices

vn -0.3729 0.2250 0.9002
vn 0.3729 0.2250 0.9002
vn 0.9002 0.2250 0.3729
vn 0.9002 0.2250 -0.3729
vn 0.3729 0.2250 -0.9002
vn -0.3729 0.2250 -0.9002
vn -0.9002 0.2250 -0.3729
vn -0.9002 0.2250 0.3729
vn 0.3729 -0.2250 0.9002
vn -0.3729 -0.2250 0.9002
vn -0.9002 -0.2250 0.3729
vn -0.9002 -0.2250 -0.3729
vn -0.3729 -0.2250 -0.9002
vn 0.3729 -0.2250 -0.9002
vn 0.9002 -0.2250 -0.3729
vn 0.9002 -0.2250 0.3729
# 16 vertex normals

vt 0.9750 0.5000 0.0000
vt 0.9875 1.0000 0.0000
vt 0.0125 1.0000 0.0000
vt 0.0250 0.5000 0.0000
vt 0.9875 0.0000 0.0000
vt 0.0125 0.0000 0.0000
vt 0.9875 -0.0000 0.0000
vt 0.0125 -0.0000 0.0000
vt 0.0000 0.5000 0.0000
vt 1.0000 0.5000 0.0000
# 10 texture coords

g TextRing03
usemtl mat_ArcaneArchives_TextRing
s off
f 123/48/33 124/49/33 125/50/33 126/51/33 
f 125/50/34 127/49/34 128/48/34 126/51/34 
f 128/51/35 127/50/35 129/49/35 130/48/35 
f 130/51/36 129/50/36 131/49/36 132/48/36 
f 133/48/37 132/51/37 131/50/37 134/49/37 
f 135/51/38 133/48/38 134/49/38 136/50/38 
f 136/49/39 137/50/39 138/51/39 135/48/39 
f 138/48/40 137/49/40 124/50/40 123/51/40 
f 139/52/41 140/53/41 126/51/41 128/48/41 
f 141/54/42 123/48/42 126/51/42 140/55/42 
f 141/55/43 142/54/43 138/48/43 123/51/43 
f 138/51/44 142/55/44 143/54/44 135/48/44 
f 143/55/45 144/54/45 133/48/45 135/51/45 
f 133/48/46 144/52/46 145/53/46 132/51/46 
f 146/53/47 130/51/47 132/48/47 145/52/47 
f 139/53/48 128/51/48 130/48/48 146/52/48 
f 147/56/38 148/57/38 127/49/38 125/50/38 
f 149/57/37 147/56/37 125/50/37 124/49/37 
f 137/49/36 150/57/36 149/56/36 124/50/36 
f 137/50/35 136/49/35 151/57/35 150/56/35 
f 134/49/34 152/57/34 151/56/34 136/50/34 
f 153/56/33 152/57/33 134/49/33 131/50/33 
f 153/57/40 131/49/40 129/50/40 154/56/40 
f 148/56/39 154/57/39 129/49/39 127/50/39 
f 140/55/46 147/56/46 149/57/46 141/54/46 
f 140/53/45 139/52/45 148/57/45 147/56/45 
f 146/52/44 154/57/44 148/56/44 139/53/44 
f 145/52/43 153/57/43 154/56/43 146/53/43 
f 145/53/42 144/52/42 152/57/42 153/56/42 
f 152/57/41 144/54/41 143/55/41 151/56/41 
f 143/54/48 142/55/48 150/56/48 151/57/48 
f 150/57/47 142/54/47 141/55/47 149/56/47 
# 32 polygons

#
# object TextRing01
#

v  0.8478 1.7224 0.1365
v  0.8572 1.7943 0.1271
v  0.4921 1.7943 -0.0241
v  0.4921 1.7224 -0.0108
v  0.1271 1.7943 0.1271
v  0.1365 1.7224 0.1365
v  -0.0241 1.7943 0.4922
v  -0.0109 1.7224 0.4922
v  0.1271 1.7943 0.8572
v  0.1365 1.7224 0.8479
v  0.4921 1.7224 0.9952
v  0.4921 1.7943 1.0084
v  0.8478 1.7224 0.8479
v  0.8572 1.7943 0.8572
v  1.0084 1.7943 0.4922
v  0.9952 1.7224 0.4922
v  0.1271 1.6505 0.1271
v  0.4921 1.6505 -0.0241
v  0.8572 1.6505 0.1271
v  1.0084 1.6505 0.4922
v  0.8572 1.6505 0.8572
v  0.4921 1.6505 1.0084
v  0.1271 1.6505 0.8572
v  -0.0241 1.6505 0.4922
v  0.4921 1.7224 -0.0373
v  0.1177 1.7224 0.1178
v  0.8666 1.7224 0.1178
v  1.0216 1.7224 0.4922
v  0.8666 1.7224 0.8666
v  0.4921 1.7224 1.0217
v  0.1177 1.7224 0.8666
v  -0.0373 1.7224 0.4922
# 32 vertices

vn -0.3729 0.2250 0.9002
vn 0.3729 0.2250 0.9002
vn 0.9002 0.2250 0.3729
vn 0.9002 0.2250 -0.3729
vn 0.3729 0.2250 -0.9002
vn -0.3729 0.2250 -0.9002
vn -0.9002 0.2250 -0.3729
vn -0.9002 0.2250 0.3729
vn 0.3729 -0.2250 0.9002
vn -0.3729 -0.2250 0.9002
vn -0.9002 -0.2250 0.3729
vn -0.9002 -0.2250 -0.3729
vn -0.3729 -0.2250 -0.9002
vn 0.3729 -0.2250 -0.9002
vn 0.9002 -0.2250 -0.3729
vn 0.9002 -0.2250 0.3729
# 16 vertex normals

vt 0.9750 0.5000 0.0000
vt 0.9875 1.0000 0.0000
vt 0.0125 1.0000 0.0000
vt 0.0250 0.5000 0.0000
vt 0.9875 0.0000 0.0000
vt 0.0125 0.0000 0.0000
vt 0.9875 -0.0000 0.0000
vt 0.0125 -0.0000 0.0000
vt 0.0000 0.5000 0.0000
vt 1.0000 0.5000 0.0000
# 10 texture coords

g TextRing01
usemtl mat_ArcaneArchives_TextRing
s off
f 155/58/49 156/59/49 157/60/49 158/61/49 
f 157/60/50 159/59/50 160/58/50 158/61/50 
f 160/61/51 159/60/51 161/59/51 162/58/51 
f 162/61/52 161/60/52 163/59/52 164/58/52 
f 165/58/53 164/61/53 163/60/53 166/59/53 
f 167/61/54 165/58/54 166/59/54 168/60/54 
f 168/59/55 169/60/55 170/61/55 167/58/55 
f 170/58/56 169/59/56 156/60/56 155/61/56 
f 171/62/57 172/63/57 158/61/57 160/58/57 
f 173/64/58 155/58/58 158/61/58 172/65/58 
f 173/65/59 174/64/59 170/58/59 155/61/59 
f 170/61/60 174/65/60 175/64/60 167/58/60 
f 175/65/61 176/64/61 165/58/61 167/61/61 
f 165/58/62 176/62/62 177/63/62 164/61/62 
f 178/63/63 162/61/63 164/58/63 177/62/63 
f 171/63/64 160/61/64 162/58/64 178/62/64 
f 179/66/54 180/67/54 159/59/54 157/60/54 
f 181/67/53 179/66/53 157/60/53 156/59/53 
f 169/59/52 182/67/52 181/66/52 156/60/52 
f 169/60/51 168/59/51 183/67/51 182/66/51 
f 166/59/50 184/67/50 183/66/50 168/60/50 
f 185/66/49 184/67/49 166/59/49 163/60/49 
f 185/67/56 163/59/56 161/60/56 186/66/56 
f 180/66/55 186/67/55 161/59/55 159/60/55 
f 172/65/62 179/66/62 181/67/62 173/64/62 
f 172/63/61 171/62/61 180/67/61 179/66/61 
f 178/62/60 186/67/60 180/66/60 171/63/60 
f 177/62/59 185/67/59 186/66/59 178/63/59 
f 177/63/58 176/62/58 184/67/58 185/66/58 
f 184/67/57 176/64/57 175/65/57 183/66/57 
f 175/64/64 174/65/64 182/66/64 183/67/64 
f 182/67/63 174/64/63 173/65/63 181/66/63 
# 32 polygons

#
# object TextRing02
#

v  0.8478 1.9685 0.1365
v  0.8572 2.0404 0.1271
v  0.4921 2.0404 -0.0241
v  0.4921 1.9685 -0.0108
v  0.1271 2.0404 0.1271
v  0.1365 1.9685 0.1365
v  -0.0241 2.0404 0.4922
v  -0.0109 1.9685 0.4922
v  0.1271 2.0404 0.8572
v  0.1365 1.9685 0.8479
v  0.4921 1.9685 0.9952
v  0.4921 2.0404 1.0084
v  0.8478 1.9685 0.8479
v  0.8572 2.0404 0.8572
v  1.0084 2.0404 0.4922
v  0.9952 1.9685 0.4922
v  0.1271 1.8966 0.1271
v  0.4921 1.8966 -0.0241
v  0.8572 1.8966 0.1271
v  1.0084 1.8966 0.4922
v  0.8572 1.8966 0.8572
v  0.4921 1.8966 1.0084
v  0.1271 1.8966 0.8572
v  -0.0241 1.8966 0.4922
v  0.4921 1.9685 -0.0373
v  0.1177 1.9685 0.1178
v  0.8666 1.9685 0.1178
v  1.0216 1.9685 0.4922
v  0.8666 1.9685 0.8666
v  0.4921 1.9685 1.0217
v  0.1177 1.9685 0.8666
v  -0.0373 1.9685 0.4922
# 32 vertices

vn -0.3729 0.2250 0.9002
vn 0.3729 0.2250 0.9002
vn 0.9002 0.2250 0.3729
vn 0.9002 0.2250 -0.3729
vn 0.3729 0.2250 -0.9002
vn -0.3729 0.2250 -0.9002
vn -0.9002 0.2250 -0.3729
vn -0.9002 0.2250 0.3729
vn 0.3729 -0.2250 0.9002
vn -0.3729 -0.2250 0.9002
vn -0.9002 -0.2250 0.3729
vn -0.9002 -0.2250 -0.3729
vn -0.3729 -0.2250 -0.9002
vn 0.3729 -0.2250 -0.9002
vn 0.9002 -0.2250 -0.3729
vn 0.9002 -0.2250 0.3729
# 16 vertex normals

vt 0.9750 0.5000 0.0000
vt 0.9875 1.0000 0.0000
vt 0.0125 1.0000 0.0000
vt 0.0250 0.5000 0.0000
vt 0.9875 0.0000 0.0000
vt 0.0125 0.0000 0.0000
vt 0.9875 -0.0000 0.0000
vt 0.0125 -0.0000 0.0000
vt 0.0000 0.5000 0.0000
vt 1.0000 0.5000 0.0000
# 10 texture coords

g TextRing02
usemtl mat_ArcaneArchives_TextRing
s off
f 187/68/65 188/69/65 189/70/65 190/71/65 
f 189/70/66 191/69/66 192/68/66 190/71/66 
f 192/71/67 191/70/67 193/69/67 194/68/67 
f 194/71/68 193/70/68 195/69/68 196/68/68 
f 197/68/69 196/71/69 195/70/69 198/69/69 
f 199/71/70 197/68/70 198/69/70 200/70/70 
f 200/69/71 201/70/71 202/71/71 199/68/71 
f 202/68/72 201/69/72 188/70/72 187/71/72 
f 203/72/73 204/73/73 190/71/73 192/68/73 
f 205/74/74 187/68/74 190/71/74 204/75/74 
f 205/75/75 206/74/75 202/68/75 187/71/75 
f 202/71/76 206/75/76 207/74/76 199/68/76 
f 207/75/77 208/74/77 197/68/77 199/71/77 
f 197/68/78 208/72/78 209/73/78 196/71/78 
f 210/73/79 194/71/79 196/68/79 209/72/79 
f 203/73/80 192/71/80 194/68/80 210/72/80 
f 211/76/70 212/77/70 191/69/70 189/70/70 
f 213/77/69 211/76/69 189/70/69 188/69/69 
f 201/69/68 214/77/68 213/76/68 188/70/68 
f 201/70/67 200/69/67 215/77/67 214/76/67 
f 198/69/66 216/77/66 215/76/66 200/70/66 
f 217/76/65 216/77/65 198/69/65 195/70/65 
f 217/77/72 195/69/72 193/70/72 218/76/72 
f 212/76/71 218/77/71 193/69/71 191/70/71 
f 204/75/78 211/76/78 213/77/78 205/74/78 
f 204/73/77 203/72/77 212/77/77 211/76/77 
f 210/72/76 218/77/76 212/76/76 203/73/76 
f 209/72/75 217/77/75 218/76/75 210/73/75 
f 209/73/74 208/72/74 216/77/74 217/76/74 
f 216/77/73 208/74/73 207/75/73 215/76/73 
f 207/74/80 206/75/80 214/76/80 215/77/80 
f 214/77/79 206/74/79 205/75/79 213/76/79 
# 32 polygons

