# 3ds Max Wavefront OBJ Exporter v0.97b - (c)2007 guruware
# File Created: 24.09.2018 04:28:59

mtllib dominioncrystal.mtl

#
# object MainCrystal
#

v  0.4921 0.5915 0.0839
v  0.6962 0.5443 0.1386
v  0.6151 0.6807 0.2791
v  0.4921 0.6807 0.2081
v  0.1386 0.5916 0.2880
v  0.2880 0.5443 0.1386
v  0.3691 0.6807 0.2791
v  0.2461 0.6807 0.3501
v  0.1386 0.5916 0.6962
v  0.0839 0.5443 0.4921
v  0.2461 0.6807 0.4921
v  0.2461 0.6807 0.6342
v  0.4921 0.5916 0.9003
v  0.2880 0.5443 0.8456
v  0.3691 0.6807 0.7052
v  0.4921 0.6807 0.7762
v  0.8456 0.5916 0.6962
v  0.6962 0.5443 0.8456
v  0.6151 0.6807 0.7052
v  0.7381 0.6807 0.6342
v  0.8456 0.5916 0.2880
v  0.9003 0.5443 0.4921
v  0.7381 0.6807 0.4921
v  0.7381 0.6807 0.3501
v  0.4921 0.6807 0.4921
v  0.6342 0.4552 0.2461
v  0.7052 0.4552 0.3691
v  0.3501 0.4552 0.2461
v  0.4921 0.4551 0.2461
v  0.2081 0.4552 0.4921
v  0.2791 0.4552 0.3691
v  0.3501 0.4552 0.7381
v  0.2791 0.4552 0.6151
v  0.6342 0.4552 0.7381
v  0.4921 0.4552 0.7381
v  0.7762 0.4552 0.4921
v  0.7052 0.4552 0.6151
v  0.4921 0.4552 0.4921
# 38 vertices

vn 0.4763 0.3262 -0.8165
vn -0.4685 0.3263 -0.8210
vn -0.9453 0.3263 -0.0048
vn -0.4768 0.3263 0.8162
vn 0.4685 0.3263 0.8210
vn 0.9453 0.3263 0.0048
vn -0.9453 0.3263 0.0048
vn -0.4763 0.3262 -0.8165
vn 0.4768 0.3263 0.8162
vn 0.9453 0.3263 -0.0048
vn 0.4685 0.3263 -0.8210
vn -0.4685 0.3263 0.8210
vn 0.0000 1.0000 0.0000
vn 0.0000 1.0000 -0.0000
vn 0.8210 -0.3263 -0.4685
vn 0.0039 -0.3264 -0.9452
vn -0.8162 -0.3263 -0.4768
vn -0.8210 -0.3263 0.4685
vn -0.0048 -0.3263 0.9453
vn 0.8162 -0.3263 0.4768
vn -0.8210 -0.3263 -0.4685
vn -0.0039 -0.3264 -0.9452
vn 0.0048 -0.3263 0.9453
vn 0.8210 -0.3263 0.4685
vn 0.8162 -0.3263 -0.4768
vn -0.8162 -0.3263 0.4768
vn -0.0000 -1.0000 0.0000
vn 0.0017 -1.0000 0.0010
vn -0.0017 -1.0000 0.0010
vn 0.0000 -1.0000 0.0000
# 30 vertex normals

vt 0.9900 0.5518 0.0000
vt 0.4950 0.3591 0.0000
vt 0.4950 0.9276 0.0000
vt 0.8250 0.9276 0.0000
vt 0.0000 0.5518 0.0000
vt 0.1650 0.9276 0.0000
vt 0.0833 0.8218 0.0000
vt 0.0833 0.6633 0.0000
vt 0.4950 0.6633 0.0000
vt 0.2891 0.9010 0.0000
vt 0.4950 0.9802 0.0000
vt 0.7009 0.9010 0.0000
vt 0.9067 0.8218 0.0000
vt 0.9067 0.6633 0.0000
vt 0.9067 0.5048 0.0000
vt 0.7009 0.4256 0.0000
vt 0.4950 0.3463 0.0000
vt 0.2891 0.4256 0.0000
vt 0.0833 0.5048 0.0000
vt 0.0196 0.6633 0.0000
vt 0.1384 0.8005 0.0000
vt 0.1384 0.5260 0.0000
vt 0.2573 0.9378 0.0000
vt 0.4950 0.9378 0.0000
vt 0.7327 0.9378 0.0000
vt 0.8516 0.8005 0.0000
vt 0.9704 0.6633 0.0000
vt 0.8516 0.5260 0.0000
vt 0.7327 0.3888 0.0000
vt 0.4950 0.3888 0.0000
vt 0.2573 0.3888 0.0000
# 31 texture coords

g MainCrystal
usemtl mat_DominionCrystal
s off
f 4/4/1 3/3/1 2/2/1 1/1/1 
f 8/4/2 7/3/2 6/2/2 5/1/2 
f 12/4/3 11/3/3 10/2/3 9/1/3 
f 16/4/4 15/3/4 14/2/4 13/1/4 
f 20/4/5 19/3/5 18/2/5 17/1/5 
f 24/4/6 23/3/6 22/2/6 21/1/6 
f 10/2/7 11/3/7 8/6/7 5/5/7 
f 6/2/8 7/3/8 4/6/8 1/5/8 
f 18/2/9 19/3/9 16/6/9 13/5/9 
f 22/2/10 23/3/10 20/6/10 17/5/10 
f 2/2/11 3/3/11 24/6/11 21/5/11 
f 14/2/12 15/3/12 12/6/12 9/5/12 
f 3/10/13 25/9/13 23/8/13 24/7/13 
f 7/12/13 25/9/13 3/10/13 4/11/13 
f 11/14/13 25/9/13 7/12/13 8/13/13 
f 15/16/14 25/9/14 11/14/14 12/15/14 
f 19/18/14 25/9/14 15/16/14 16/17/14 
f 23/8/13 25/9/13 19/18/13 20/19/13 
f 21/2/15 27/3/15 26/4/15 2/1/15 
f 1/2/16 29/3/16 28/4/16 6/1/16 
f 5/2/17 31/3/17 30/4/17 10/1/17 
f 9/2/18 33/3/18 32/4/18 14/1/18 
f 13/2/19 35/3/19 34/4/19 18/1/19 
f 17/2/20 37/3/20 36/4/20 22/1/20 
f 28/6/21 31/3/21 5/2/21 6/5/21 
f 26/6/22 29/3/22 1/2/22 2/5/22 
f 32/6/23 35/3/23 13/2/23 14/5/23 
f 34/6/24 37/3/24 17/2/24 18/5/24 
f 36/6/25 27/3/25 21/2/25 22/5/25 
f 30/6/26 33/3/26 9/2/26 10/5/26 
f 37/22/27 38/9/27 27/21/27 36/20/27 
f 27/21/28 38/9/28 29/24/28 26/23/28 
f 29/24/29 38/9/29 31/26/29 28/25/29 
f 31/26/30 38/9/30 33/28/30 30/27/30 
f 33/28/30 38/9/30 35/30/30 32/29/30 
f 35/30/30 38/9/30 37/22/30 34/31/30 
# 36 polygons

#
# object FixtureRing
#

v  0.5118 0.3913 0.3216
v  0.5118 0.6144 0.0592
v  0.4724 0.6144 0.0592
v  0.4724 0.3913 0.3216
v  0.4724 0.3914 0.2706
v  0.4724 0.5843 0.0338
v  0.4850 0.6452 0.0033
v  0.4850 0.6343 -0.0059
v  0.3937 0.3519 0.6626
v  0.5906 0.3519 0.6626
v  0.6198 0.3519 0.7133
v  0.3644 0.3519 0.7133
v  0.0652 0.6452 0.7303
v  0.0572 0.6343 0.7349
v  0.0644 0.6343 0.7474
v  0.0724 0.6452 0.7427
v  0.3346 0.3913 0.5603
v  0.1074 0.6144 0.6915
v  0.1270 0.6144 0.7256
v  0.3543 0.3913 0.5944
v  0.3101 0.3914 0.6200
v  0.1050 0.5843 0.7383
v  0.2904 0.3914 0.5859
v  0.0853 0.5843 0.7043
v  0.3543 0.3519 0.5944
v  0.3346 0.3519 0.5603
v  0.3104 0.3519 0.6198
v  0.2907 0.3519 0.5857
v  0.3937 0.3913 0.6626
v  0.5906 0.3913 0.6626
v  0.3644 0.3913 0.7133
v  0.6198 0.3913 0.7133
v  0.4993 0.6452 0.0033
v  0.4993 0.6343 -0.0059
v  0.5118 0.3914 0.2706
v  0.5118 0.5843 0.0338
v  0.5118 0.3519 0.2709
v  0.5118 0.3519 0.3216
v  0.4724 0.3519 0.3216
v  0.4724 0.3519 0.2709
v  0.9190 0.6452 0.7303
v  0.9119 0.6452 0.7427
v  0.9199 0.6343 0.7474
v  0.9270 0.6343 0.7349
v  0.6496 0.3913 0.5603
v  0.6299 0.3913 0.5944
v  0.8572 0.6144 0.7256
v  0.8769 0.6144 0.6915
v  0.6742 0.3914 0.6200
v  0.8792 0.5843 0.7383
v  0.6938 0.3914 0.5859
v  0.8989 0.5843 0.7043
v  0.6496 0.3519 0.5603
v  0.6299 0.3519 0.5944
v  0.6739 0.3519 0.6198
v  0.6935 0.3519 0.5857
v  0.3937 0.3913 0.3216
v  0.3937 0.3519 0.3216
v  0.3644 0.3519 0.2709
v  0.3644 0.3913 0.2709
v  0.2367 0.3913 0.4921
v  0.2367 0.3519 0.4921
v  0.2953 0.3519 0.4921
v  0.2953 0.3913 0.4921
v  0.5906 0.3519 0.3216
v  0.5906 0.3913 0.3216
v  0.6198 0.3913 0.2709
v  0.6198 0.3519 0.2709
v  0.7476 0.3519 0.4921
v  0.7476 0.3913 0.4921
v  0.6890 0.3913 0.4921
v  0.6890 0.3519 0.4921
# 72 vertices

vn 0.0000 0.7619 0.6477
vn -1.0000 -0.0000 -0.0000
vn -1.0000 0.0000 -0.0000
vn -0.9806 0.1266 -0.1498
vn 0.0000 -1.0000 -0.0000
vn -0.6615 0.6455 0.3819
vn 0.5609 0.7619 -0.3238
vn 0.5000 -0.0000 0.8660
vn 0.5000 0.0000 0.8660
vn -0.5470 -0.7753 0.3158
vn -0.5000 -0.0000 -0.8660
vn 0.4184 0.8755 -0.2416
vn 0.3606 0.1266 0.9241
vn -0.6779 -0.6224 0.3914
vn -0.6200 0.1266 -0.7743
vn 0.8660 0.0000 -0.5000
vn -0.8660 -0.0089 0.5000
vn 0.0000 0.0000 -1.0000
vn 0.0000 1.0000 -0.0000
vn 0.0000 0.6455 -0.7638
vn 1.0000 -0.0000 -0.0000
vn 1.0000 0.0000 -0.0000
vn 0.0000 0.8755 0.4831
vn 0.9806 0.1266 -0.1498
vn 0.0000 -0.0089 -1.0000
vn 0.0000 0.0000 1.0000
vn 0.6615 0.6455 0.3819
vn -0.5609 0.7619 -0.3238
vn -0.5000 -0.0000 0.8660
vn -0.5000 0.0000 0.8660
vn 0.5470 -0.7753 0.3158
vn 0.5000 -0.0000 -0.8660
vn -0.4184 0.8755 -0.2416
vn -0.3606 0.1266 0.9241
vn 0.6779 -0.6224 0.3914
vn 0.6200 0.1266 -0.7743
vn -0.8660 0.0000 -0.5000
vn 0.8660 -0.0089 0.5000
vn 0.0000 -0.7753 -0.6316
vn 0.0000 -0.6224 -0.7827
vn -0.0025 -0.0020 -1.0000
vn -0.0033 0.0000 -1.0000
vn -0.0007 -0.0069 -1.0000
vn -0.0005 1.0000 0.0012
vn -0.0009 1.0000 0.0020
vn -0.0013 1.0000 0.0028
vn -0.8664 -0.0020 0.4994
vn -0.8660 0.0000 0.5000
vn -0.8673 -0.0069 0.4978
vn -0.8676 -0.0089 0.4972
vn 0.0007 1.0000 -0.0015
vn -0.0000 1.0000 -0.0015
vn 0.0015 1.0000 -0.0014
vn 0.0024 1.0000 -0.0014
vn 0.0009 1.0000 0.0013
vn 0.0013 1.0000 0.0008
vn 0.0005 1.0000 0.0020
vn 0.0000 1.0000 0.0028
vn 0.0007 -0.0020 -1.0000
vn 0.0025 -0.0069 -1.0000
vn 0.0033 -0.0089 -1.0000
vn 0.8673 -0.0020 0.4978
vn 0.8677 0.0000 0.4972
vn 0.8664 -0.0069 0.4994
vn -0.0007 1.0000 -0.0011
vn -0.0013 1.0000 -0.0018
vn -0.0017 1.0000 -0.0025
vn -0.0016 1.0000 0.0002
vn -0.0013 1.0000 0.0008
vn -0.0020 1.0000 -0.0006
vn -0.0024 1.0000 -0.0014
vn 0.8657 -0.0020 0.5006
vn 0.8660 0.0000 0.5000
vn 0.8647 -0.0069 0.5022
vn 0.8644 -0.0089 0.5028
vn -0.8648 -0.0020 0.5022
vn -0.8644 0.0000 0.5028
vn -0.8656 -0.0069 0.5006
vn 0.0013 1.0000 -0.0001
vn 0.0022 1.0000 -0.0002
vn 0.0030 1.0000 -0.0003
# 81 vertex normals

vt 0.9920 0.0498 0.0000
vt 0.9913 0.2426 0.0000
vt 0.0221 0.2426 0.0000
vt 0.0228 0.0498 0.0000
vt 0.0175 0.0647 0.0000
vt 0.7875 0.0447 0.0000
vt 0.9903 0.2323 0.0000
vt 0.0429 0.2320 0.0000
vt 0.7214 0.2757 0.0000
vt 0.3763 0.2756 0.0000
vt 0.1238 0.3124 0.0000
vt 0.8754 0.3124 0.0000
vt 0.9867 0.0091 0.0000
vt 0.0090 0.0091 0.0000
vt 0.4616 0.1889 0.0000
vt 0.4616 0.1451 0.0000
vt 0.5415 0.1451 0.0000
vt 0.5415 0.1889 0.0000
vt 0.9902 0.0497 0.0000
vt 0.0210 0.0497 0.0000
vt 0.9902 0.0733 0.0000
vt 0.0221 0.0733 0.0000
vt 0.6832 0.2774 0.0000
vt 0.3301 0.2774 0.0000
vt 0.4242 0.3086 0.0000
vt 0.5756 0.3086 0.0000
vt 0.5756 0.0084 0.0000
vt 0.4242 0.0084 0.0000
vt 0.5704 0.0091 0.0000
vt 0.4281 0.0091 0.0000
vt 0.4293 0.3124 0.0000
vt 0.5698 0.3124 0.0000
vt 0.5756 0.3096 0.0000
vt 0.4242 0.3096 0.0000
vt 0.1214 0.0084 0.0000
vt 0.1214 0.3086 0.0000
vt 0.8784 0.3086 0.0000
vt 0.8784 0.0084 0.0000
vt 0.9910 0.0084 0.0000
vt 0.9910 0.3086 0.0000
vt 0.0088 0.3086 0.0000
vt 0.0088 0.0084 0.0000
vt 0.0232 0.0497 0.0000
vt 0.9924 0.0497 0.0000
vt 0.9924 0.0733 0.0000
vt 0.9920 0.0733 0.0000
# 46 texture coords

g FixtureRing
usemtl mat_DominionCrystal
s 9
f 39/32/31 40/33/31 41/34/31 42/35/31 
s 64
f 43/36/32 42/37/32 41/38/33 44/39/33 
s off
f 44/39/34 41/38/34 45/40/34 46/41/34 
f 47/42/35 48/43/35 49/44/35 50/45/35 
s 4
f 51/46/36 52/47/36 53/48/36 54/49/36 
s 9
f 55/50/37 56/33/37 57/34/37 58/51/37 
s 16
f 59/36/38 58/37/38 57/38/39 60/39/39 
s 32
f 61/52/40 59/53/40 60/34/40 62/33/40 
s 64
f 61/36/41 62/39/41 56/38/41 55/37/41 
s off
f 56/33/42 51/54/42 54/55/42 57/34/42 
f 57/38/43 54/40/43 53/41/43 60/39/43 
f 60/34/44 53/55/44 52/54/44 62/33/44 
f 62/39/45 52/41/45 51/40/45 56/38/45 
f 55/56/46 58/57/46 63/58/46 64/59/46 
f 65/60/35 66/61/35 64/62/35 63/63/35 
f 59/64/47 61/65/47 66/59/47 65/58/47 
f 47/66/48 67/67/48 68/68/48 48/69/48 
f 67/42/49 69/45/49 70/44/49 68/43/49 
s 4
f 71/46/50 72/47/50 46/48/50 45/49/50 
s 64
f 73/36/51 74/39/52 40/38/52 39/37/51 
s off
f 40/33/53 71/54/53 45/55/53 41/34/53 
f 74/39/54 72/41/54 71/40/54 40/38/54 
f 75/61/35 76/62/35 77/63/35 78/60/35 
f 73/64/55 75/58/55 78/59/55 43/65/55 
f 49/70/56 70/71/56 69/72/56 50/73/56 
s 4
f 79/49/57 80/46/57 81/47/57 82/48/57 
s 9
f 83/74/58 84/75/58 85/33/58 86/34/58 
s 16
f 87/36/59 88/39/60 85/38/60 84/37/59 
s 32
f 89/53/61 90/34/61 88/33/61 87/76/61 
s 64
f 89/36/62 83/37/62 86/38/62 90/39/62 
s off
f 86/34/63 85/33/63 80/54/63 79/55/63 
f 85/38/64 88/39/64 81/41/64 80/40/64 
f 88/33/65 90/34/65 82/55/65 81/54/65 
f 90/39/66 86/38/66 79/40/66 82/41/66 
f 83/56/67 91/59/67 92/58/67 84/57/67 
f 93/61/35 92/62/35 91/63/35 94/60/35 
f 87/64/68 93/58/68 94/59/68 89/65/68 
s 32
f 43/53/69 44/34/69 74/33/69 73/77/69 
s off
f 46/55/70 72/54/70 74/33/70 44/34/70 
f 42/56/56 77/59/56 76/58/56 39/57/56 
s 2
f 95/67/56 96/66/56 77/59/56 42/56/56 
s 4
f 96/43/35 97/44/35 78/60/35 77/63/35 
s 2
f 97/73/71 98/72/72 43/65/73 78/59/55 
s 4
f 98/44/74 95/43/49 42/63/75 43/60/76 
s 2
f 99/72/77 100/73/78 66/59/79 61/65/80 
s 4
f 100/45/35 101/42/35 64/62/35 66/61/35 
s 2
f 101/66/46 102/67/46 55/56/46 64/59/46 
s 4
f 102/42/81 99/45/82 61/61/83 55/62/84 
s 2
f 103/69/56 104/68/56 39/57/56 76/58/56 
s 4
f 104/42/85 105/45/86 73/61/87 39/62/88 
s 2
f 105/71/89 106/70/48 75/58/90 73/64/91 
s 4
f 106/45/35 103/42/35 76/62/35 75/61/35 
s 2
f 107/73/92 108/72/93 89/65/94 94/59/68 
s 4
f 108/44/95 109/43/49 83/63/96 89/60/97 
s 2
f 109/67/67 110/66/67 91/59/67 83/56/67 
s 4
f 110/43/35 107/44/35 94/60/35 91/63/35 
s 2
f 48/69/67 68/68/67 84/57/67 92/58/67 
s 4
f 68/42/98 70/45/99 87/61/100 84/62/101 
s 2
f 70/71/102 49/70/103 93/58/104 87/64/105 
s 4
f 49/45/35 48/42/35 92/62/35 93/61/35 
s 2
f 50/70/106 69/71/107 59/64/108 65/58/47 
s 4
f 69/44/109 67/43/49 58/63/110 59/60/111 
s 2
f 67/68/46 47/69/46 63/58/46 58/57/46 
s 4
f 47/43/35 50/44/35 65/60/35 63/63/35 
s 1
f 104/67/78 103/66/78 110/69/78 109/68/78 
s 8
f 103/43/35 106/44/35 107/45/35 110/42/35 
s 1
f 106/73/46 105/72/46 108/71/46 107/70/46 
s 8
f 105/44/49 104/43/49 109/42/49 108/45/49 
s 1
f 96/66/103 95/67/103 102/68/103 101/69/103 
s 8
f 95/42/49 98/45/49 99/44/49 102/43/49 
s 1
f 98/72/67 97/73/67 100/70/67 99/71/67 
s 8
f 97/45/35 96/42/35 101/43/35 100/44/35 
# 72 polygons

#
# object FloatingRing
#

v  0.8141 0.1111 0.2934
v  0.7921 0.0810 0.3061
v  0.8467 0.0502 0.2890
v  0.8548 0.0612 0.2844
v  0.2953 0.2800 0.5020
v  0.3937 0.2800 0.6725
v  0.3644 0.2800 0.7233
v  0.2367 0.2800 0.5020
v  0.1375 0.0502 0.2890
v  0.1295 0.0612 0.2844
v  0.1223 0.0612 0.2968
v  0.1303 0.0502 0.3014
v  0.1921 0.0810 0.3061
v  0.1725 0.0810 0.3402
v  0.1505 0.1111 0.3275
v  0.1701 0.1111 0.2934
v  0.3543 0.2406 0.3998
v  0.3346 0.2406 0.4339
v  0.3346 0.2800 0.4339
v  0.3543 0.2800 0.3998
v  0.2907 0.2800 0.4085
v  0.3104 0.2800 0.3744
v  0.2904 0.2405 0.4083
v  0.3101 0.2405 0.3742
v  0.2953 0.2406 0.5020
v  0.3937 0.2406 0.6725
v  0.2367 0.2406 0.5020
v  0.3644 0.2406 0.7233
v  0.8539 0.0502 0.3014
v  0.8619 0.0612 0.2968
v  0.8118 0.0810 0.3402
v  0.8338 0.1111 0.3275
v  0.6935 0.2800 0.4085
v  0.6496 0.2800 0.4339
v  0.6299 0.2800 0.3998
v  0.6739 0.2800 0.3744
v  0.6938 0.2405 0.4083
v  0.6742 0.2405 0.3742
v  0.4993 0.0502 0.9157
v  0.4850 0.0502 0.9157
v  0.4850 0.0612 0.9249
v  0.4993 0.0612 0.9249
v  0.5118 0.0810 0.8598
v  0.4724 0.0810 0.8598
v  0.4724 0.1111 0.8852
v  0.5118 0.1111 0.8852
v  0.5118 0.2406 0.6725
v  0.5118 0.2800 0.6725
v  0.4724 0.2800 0.6725
v  0.4724 0.2406 0.6725
v  0.4724 0.2800 0.7233
v  0.5118 0.2800 0.7233
v  0.4724 0.2405 0.7236
v  0.5118 0.2405 0.7236
v  0.6299 0.2406 0.3998
v  0.6496 0.2406 0.4339
v  0.5906 0.2406 0.3316
v  0.5906 0.2800 0.3316
v  0.6198 0.2800 0.2808
v  0.6198 0.2406 0.2808
v  0.3644 0.2406 0.2808
v  0.3644 0.2800 0.2808
v  0.3937 0.2800 0.3316
v  0.3937 0.2406 0.3316
v  0.6890 0.2800 0.5020
v  0.6890 0.2406 0.5020
v  0.7476 0.2406 0.5020
v  0.7476 0.2800 0.5020
v  0.6198 0.2800 0.7233
v  0.6198 0.2406 0.7233
v  0.5906 0.2406 0.6725
v  0.5906 0.2800 0.6725
# 72 vertices

vn -0.3606 -0.1266 -0.9241
vn 0.0000 1.0000 -0.0000
vn -0.6615 -0.6455 -0.3819
vn 0.4184 -0.8755 0.2416
vn -0.6200 -0.1266 0.7743
vn -0.6779 0.6224 -0.3914
vn 0.3606 -0.1266 -0.9241
vn 0.8660 -0.0000 0.5000
vn -0.8660 0.0089 -0.5000
vn 0.8660 0.0000 -0.5000
vn 0.0000 -1.0000 -0.0000
vn 0.6615 -0.6455 -0.3819
vn -0.4184 -0.8755 0.2416
vn 0.6200 -0.1266 0.7743
vn 0.8660 0.0089 -0.5000
vn -0.8660 0.0000 0.5000
vn 0.0000 -0.6455 0.7638
vn -0.0000 -0.6455 0.7638
vn 0.0000 -0.8755 -0.4831
vn -0.9806 -0.1266 0.1498
vn -0.0000 0.6224 0.7827
vn 0.9806 -0.1266 0.1498
vn 0.0000 -0.0000 -1.0000
vn -0.0000 0.0089 1.0000
vn 0.6779 0.6224 -0.3914
vn 0.8648 0.0020 -0.5022
vn 0.8644 0.0000 -0.5028
vn 0.8656 0.0069 -0.5006
vn -0.0013 -1.0000 0.0001
vn -0.0022 -1.0000 0.0002
vn -0.0030 -1.0000 0.0003
vn -0.8657 0.0020 -0.5006
vn -0.8660 0.0000 -0.5000
vn -0.8647 0.0069 -0.5022
vn -0.8644 0.0089 -0.5028
vn 0.8660 0.0000 0.5000
vn 0.0016 -1.0000 -0.0002
vn 0.0013 -1.0000 -0.0008
vn 0.0020 -1.0000 0.0006
vn 0.0024 -1.0000 0.0014
vn -0.0007 -1.0000 0.0015
vn -0.0000 -1.0000 0.0015
vn -0.0015 -1.0000 0.0014
vn -0.0024 -1.0000 0.0014
vn 0.8664 0.0020 -0.4994
vn 0.8673 0.0069 -0.4978
vn 0.8676 0.0089 -0.4972
vn 0.0025 0.0020 1.0000
vn 0.0033 0.0000 1.0000
vn 0.0007 0.0069 1.0000
vn 0.0005 -1.0000 -0.0012
vn 0.0009 -1.0000 -0.0020
vn 0.0013 -1.0000 -0.0028
vn 0.0000 0.0000 -1.0000
vn -0.0009 -1.0000 -0.0013
vn -0.0013 -1.0000 -0.0008
vn -0.0005 -1.0000 -0.0020
vn 0.0000 -1.0000 -0.0028
vn -0.0007 0.0020 1.0000
vn -0.0000 0.0000 1.0000
vn -0.0025 0.0069 1.0000
vn -0.0033 0.0089 1.0000
vn -0.8673 0.0020 -0.4978
vn -0.8677 0.0000 -0.4972
vn -0.8664 0.0069 -0.4994
vn 0.0007 -1.0000 0.0011
vn 0.0013 -1.0000 0.0018
vn 0.0017 -1.0000 0.0025
vn 0.5617 -0.7611 0.3243
vn -0.5000 0.0000 0.8660
vn -0.5412 0.7807 -0.3125
vn 0.5000 -0.0000 -0.8660
vn 0.5000 0.0000 -0.8660
vn -0.5617 -0.7611 0.3243
vn 0.5000 0.0000 0.8660
vn 0.5000 -0.0000 0.8660
vn 0.5412 0.7807 -0.3125
vn -0.5000 0.0000 -0.8660
vn -0.5000 -0.0000 -0.8660
vn 0.0000 -0.7611 -0.6486
vn -1.0000 -0.0000 -0.0000
vn -1.0000 0.0000 -0.0000
vn -0.0000 0.7807 0.6250
vn 1.0000 0.0000 0.0000
# 84 vertex normals

vt 0.9775 0.2217 0.0000
vt 0.0568 0.2187 0.0000
vt 0.3633 0.2637 0.0000
vt 0.6987 0.2648 0.0000
vt 0.8780 0.0105 0.0000
vt 0.1246 0.0105 0.0000
vt 0.0125 0.3068 0.0000
vt 0.9900 0.3068 0.0000
vt 0.4486 0.0816 0.0000
vt 0.4486 0.1458 0.0000
vt 0.5514 0.1458 0.0000
vt 0.5514 0.0816 0.0000
vt 0.0089 0.1040 0.0000
vt 0.3209 0.0539 0.0000
vt 0.6785 0.0539 0.0000
vt 0.9905 0.1040 0.0000
vt 0.9905 0.0812 0.0000
vt 0.6785 0.0456 0.0000
vt 0.3209 0.0456 0.0000
vt 0.0089 0.0812 0.0000
vt 0.5766 0.0075 0.0000
vt 0.4255 0.0075 0.0000
vt 0.4255 0.3043 0.0000
vt 0.5766 0.3043 0.0000
vt 0.4237 0.3020 0.0000
vt 0.5749 0.3014 0.0000
vt 0.5754 0.0063 0.0000
vt 0.4241 0.0068 0.0000
vt 0.4255 0.0064 0.0000
vt 0.5766 0.0064 0.0000
vt 0.8789 0.3043 0.0000
vt 0.8789 0.0075 0.0000
vt 0.1232 0.0075 0.0000
vt 0.1232 0.3043 0.0000
vt 0.0114 0.1040 0.0000
vt 0.3234 0.0539 0.0000
vt 0.6810 0.0539 0.0000
vt 0.9930 0.1040 0.0000
vt 0.5766 0.3069 0.0000
vt 0.5766 0.0106 0.0000
vt 0.4259 0.0106 0.0000
vt 0.4259 0.3069 0.0000
vt 0.0108 0.3043 0.0000
vt 0.0108 0.0075 0.0000
vt 0.9913 0.0075 0.0000
vt 0.9913 0.3043 0.0000
vt 0.9929 0.1040 0.0000
vt 0.0113 0.1040 0.0000
vt 0.3233 0.0539 0.0000
vt 0.6809 0.0539 0.0000
vt 0.0113 0.0812 0.0000
vt 0.9929 0.0812 0.0000
vt 0.6809 0.0456 0.0000
vt 0.3233 0.0456 0.0000
vt 0.5789 0.3020 0.0000
vt 0.5784 0.0068 0.0000
vt 0.4271 0.0063 0.0000
vt 0.4276 0.3014 0.0000
vt 0.6810 0.0456 0.0000
vt 0.3234 0.0456 0.0000
vt 0.0114 0.0812 0.0000
vt 0.9930 0.0812 0.0000
vt 0.1246 0.0106 0.0000
vt 0.0125 0.3069 0.0000
vt 0.4259 0.3090 0.0000
vt 0.9900 0.3000 0.0000
vt 0.8780 0.0052 0.0000
vt 0.5749 0.3035 0.0000
vt 0.8780 0.0106 0.0000
vt 0.9900 0.3069 0.0000
vt 0.5766 0.3090 0.0000
vt 0.0125 0.3000 0.0000
vt 0.1246 0.0052 0.0000
vt 0.4276 0.3035 0.0000
vt 0.8810 0.0079 0.0000
vt 0.9940 0.3034 0.0000
vt 0.5789 0.3040 0.0000
vt 0.0086 0.3034 0.0000
vt 0.1216 0.0079 0.0000
vt 0.4237 0.3040 0.0000
vt 0.1216 0.0080 0.0000
vt 0.0086 0.3035 0.0000
vt 0.9900 0.3001 0.0000
vt 0.8780 0.0053 0.0000
vt 0.8810 0.0080 0.0000
vt 0.9940 0.3035 0.0000
vt 0.0125 0.3001 0.0000
vt 0.1246 0.0053 0.0000
vt 0.9905 0.2721 0.0000
vt 0.0089 0.2721 0.0000
vt 0.8033 0.0756 0.0000
vt 0.0262 0.0456 0.0000
vt 0.0089 0.2263 0.0000
vt 0.9905 0.2263 0.0000
vt 0.9930 0.2721 0.0000
vt 0.0114 0.2721 0.0000
vt 0.0114 0.2263 0.0000
vt 0.9930 0.2263 0.0000
vt 0.9929 0.2721 0.0000
vt 0.0113 0.2721 0.0000
vt 0.0113 0.2263 0.0000
vt 0.9929 0.2263 0.0000
# 102 texture coords

g FloatingRing
usemtl mat_DominionCrystal
s off
f 114/81/112 113/80/112 112/79/112 111/78/112 
f 118/85/113 117/84/113 116/83/113 115/82/113 
s 4
f 122/89/114 121/88/114 120/87/114 119/86/114 
s off
f 124/93/115 122/92/115 119/91/115 123/90/115 
f 125/78/116 121/81/116 122/80/116 124/79/116 
f 126/97/117 120/96/117 121/95/117 125/94/117 
f 123/79/118 119/80/118 120/81/118 126/78/118 
f 130/101/119 129/100/119 128/99/119 127/98/119 
f 129/105/113 130/104/113 132/103/113 131/102/113 
f 131/100/120 132/101/120 134/107/120 133/106/120 
f 116/111/121 136/110/121 135/109/121 115/108/121 
f 136/83/122 138/84/122 137/85/122 135/82/122 
s 4
f 113/89/123 114/88/123 140/87/123 139/86/123 
s off
f 112/115/124 113/114/124 139/113/124 141/112/124 
f 141/79/125 139/80/125 140/81/125 142/78/125 
f 146/119/113 145/118/113 144/117/113 143/116/113 
f 148/107/126 146/101/126 143/100/126 147/106/126 
f 118/123/127 137/122/127 138/121/127 117/120/127 
s 4
f 152/88/128 151/87/128 150/86/129 149/89/128 
s off
f 149/127/130 150/126/130 154/125/130 153/124/130 
f 150/80/131 151/81/131 155/78/131 154/79/131 
f 151/131/132 152/130/132 156/129/132 155/128/132 
f 152/81/133 149/80/133 153/79/133 156/78/133 
f 160/99/134 159/100/134 158/101/134 157/98/134 
f 162/135/113 158/134/113 159/133/113 161/132/113 
f 164/107/135 162/101/135 161/100/135 163/106/135 
f 111/139/136 142/138/136 140/137/136 114/136/136 
f 166/99/127 144/100/127 145/101/127 165/98/127 
s 2
f 165/98/127 145/101/127 168/108/127 167/109/127 
s 4
f 145/118/113 146/119/113 169/141/113 168/140/113 
s 2
f 146/101/126 148/107/139 170/122/138 169/123/137 
s 4
f 148/142/142 165/118/141 167/140/122 170/141/140 
s 2
f 134/107/146 132/101/145 172/123/144 171/122/143 
s 4
f 132/103/113 130/104/113 173/144/113 172/143/113 
s 2
f 130/101/147 127/98/147 174/109/147 173/108/147 
s 4
f 127/104/151 134/145/150 171/143/149 174/144/148 
s 2
f 144/100/127 166/99/127 176/110/127 175/111/127 
s 4
f 166/117/155 147/148/154 177/147/153 176/146/152 
s 2
f 147/106/158 143/100/157 178/120/121 177/121/156 
s 4
f 143/116/113 144/117/113 175/146/113 178/147/113 
s 2
f 162/101/135 164/107/161 180/122/160 179/123/159 
s 4
f 164/151/164 157/134/163 181/150/122 180/149/162 
s 2
f 157/98/165 158/101/165 182/108/165 181/109/165 
s 4
f 158/134/113 162/135/113 179/149/113 182/150/113 
s 2
f 159/100/134 160/99/134 136/110/165 116/111/134 
s 4
f 160/133/169 163/154/168 138/153/167 136/152/166 
s 2
f 163/106/173 161/100/172 117/120/171 138/121/170 
s 4
f 161/132/113 159/133/113 116/152/113 117/153/113 
s 2
f 131/100/120 133/106/176 137/121/175 118/120/174 
s 4
f 133/157/179 128/105/178 135/156/122 137/155/177 
s 2
f 128/99/119 129/100/119 115/111/147 135/110/119 
s 4
f 129/105/113 131/102/113 118/155/113 115/156/113 
s 1
f 181/110/144 182/111/144 175/108/144 176/109/144 
s 8
f 182/161/113 179/160/113 178/159/113 175/158/113 
s 1
f 179/120/147 180/121/147 177/122/147 178/123/147 
s 8
f 180/160/122 181/161/122 176/158/122 177/159/122 
s 1
f 173/111/171 174/110/171 167/109/171 168/108/171 
s 8
f 174/165/122 171/164/122 170/163/122 167/162/122 
s 1
f 171/121/165 172/120/165 169/123/165 170/122/165 
s 8
f 172/164/113 173/165/113 168/162/113 169/163/113 
s 1
f 127/167/180 128/166/180 124/93/180 123/90/180 
s 8
f 128/169/181 133/168/181 125/78/181 124/79/181 
s 1
f 133/171/182 134/170/182 126/97/182 125/94/182 
s 8
f 134/168/184 127/169/183 123/79/183 126/78/183 
s 1
f 112/115/185 141/112/185 166/173/185 165/172/185 
s 8
f 141/79/187 142/78/187 147/168/186 166/169/186 
s 1
f 142/138/188 111/139/188 148/175/188 147/174/188 
s 8
f 111/78/190 112/79/190 165/169/189 148/168/189 
s 1
f 153/124/191 154/125/191 160/177/191 157/176/191 
s 8
f 154/79/192 155/78/192 163/168/193 160/169/192 
s 1
f 155/128/194 156/129/194 164/179/194 163/178/194 
s 8
f 156/78/195 153/79/195 157/169/195 164/168/195 
# 72 polygons

