# Blender v2.79 (sub 0) OBJ File: 'lectern.blend'
# www.blender.org
mtllib lectern_manifest.mtl
o Manifest_Plane
v 0.750000 1.392105 0.278359
v 0.250000 1.392105 0.278360
v 0.750000 1.200763 0.740299
v 0.250000 1.200763 0.740299
vt 0.996875 0.996875
vt 0.003125 0.996875
vt 0.003125 0.003125
vt 0.996875 0.003125
vn 0.0000 0.9239 0.3827
usemtl Mat_ManifestItem
f 1/1/1 2/2/1 4/3/1 3/4/1
o PlateBottom_Cube.012
v 0.750000 0.068750 0.250000
v 0.750000 0.131250 0.250000
v 0.750000 0.068750 0.750000
v 0.750000 0.131250 0.750000
v 0.250000 0.068750 0.250000
v 0.250000 0.131250 0.250000
v 0.250000 0.068750 0.750000
v 0.250000 0.131250 0.750000
v 0.500000 0.131250 0.500000
v 0.500162 0.068750 0.499838
vt 0.297820 0.522405
vt 0.297820 0.541625
vt 0.453134 0.541625
vt 0.453134 0.522405
vt 0.297793 0.522205
vt 0.297793 0.541620
vt 0.453108 0.541620
vt 0.453108 0.522205
vt 0.453134 0.522405
vt 0.297820 0.541625
vt 0.297820 0.522405
vt 0.453108 0.522205
vt 0.453108 0.541620
vt 0.297793 0.522205
vt 0.329123 0.063893
vt 0.172234 0.063845
vt 0.250765 0.140786
vt 0.329160 0.063815
vt 0.250719 0.140696
vt 0.172277 0.063815
vt 0.329143 0.063980
vt 0.250702 0.140860
vt 0.172260 0.063980
vt 0.329123 0.063893
vt 0.172234 0.063845
vt 0.329140 0.063959
vt 0.250731 0.140801
vt 0.172251 0.063911
vt 0.172251 0.063911
vt 0.250681 0.140751
vt 0.329140 0.063959
vt 0.329143 0.063980
vt 0.172260 0.063980
vt 0.172277 0.063815
vt 0.250668 0.140746
vt 0.329160 0.063815
vn 1.0000 0.0000 -0.0000
vn 0.0000 0.0000 1.0000
vn -1.0000 0.0000 0.0000
vn -0.0000 0.0000 -1.0000
vn 0.0000 -1.0000 0.0000
vn 0.0000 1.0000 0.0000
usemtl Mat_Master
f 5/5/2 6/6/2 8/7/2 7/8/2
f 7/9/3 8/10/3 12/11/3 11/12/3
f 11/13/4 12/11/4 10/14/4 9/15/4
f 9/16/5 10/17/5 6/6/5 5/18/5
f 7/19/6 11/20/6 14/21/6
f 12/22/7 13/23/7 10/24/7
f 6/25/7 13/26/7 8/27/7
f 8/28/7 13/23/7 12/29/7
f 10/30/7 13/31/7 6/32/7
f 5/33/6 14/34/6 9/35/6
f 14/21/6 5/36/6 7/37/6
f 9/38/6 14/39/6 11/40/6
o PlateTop_Cube.011
v 0.750000 0.843750 0.250000
v 0.750000 0.906250 0.250000
v 0.750000 0.843750 0.750000
v 0.750000 0.906250 0.750000
v 0.250000 0.843750 0.250000
v 0.250000 0.906250 0.250000
v 0.250000 0.843750 0.750000
v 0.250000 0.906250 0.750000
v 0.500000 0.906250 0.500000
v 0.500162 0.843750 0.499838
vt 0.297820 0.522405
vt 0.297820 0.541625
vt 0.453134 0.541625
vt 0.453134 0.522405
vt 0.297793 0.522205
vt 0.297793 0.541620
vt 0.453108 0.541620
vt 0.453108 0.522205
vt 0.453134 0.522405
vt 0.297820 0.541625
vt 0.297820 0.522405
vt 0.453108 0.522205
vt 0.453108 0.541620
vt 0.297793 0.522205
vt 0.329123 0.063893
vt 0.172234 0.063845
vt 0.250765 0.140786
vt 0.329160 0.063815
vt 0.250719 0.140696
vt 0.172277 0.063815
vt 0.329143 0.063980
vt 0.250702 0.140860
vt 0.172260 0.063980
vt 0.329123 0.063893
vt 0.172234 0.063845
vt 0.329140 0.063959
vt 0.250731 0.140801
vt 0.172251 0.063911
vt 0.172251 0.063911
vt 0.250681 0.140751
vt 0.329140 0.063959
vt 0.329143 0.063980
vt 0.172260 0.063980
vt 0.172277 0.063815
vt 0.250668 0.140746
vt 0.329160 0.063815
vn 1.0000 0.0000 -0.0000
vn 0.0000 0.0000 1.0000
vn -1.0000 0.0000 0.0000
vn -0.0000 0.0000 -1.0000
vn 0.0000 -1.0000 0.0000
vn 0.0000 1.0000 0.0000
usemtl Mat_Master
f 15/41/8 16/42/8 18/43/8 17/44/8
f 17/45/9 18/46/9 22/47/9 21/48/9
f 21/49/10 22/47/10 20/50/10 19/51/10
f 19/52/11 20/53/11 16/42/11 15/54/11
f 17/55/12 21/56/12 24/57/12
f 22/58/13 23/59/13 20/60/13
f 16/61/13 23/62/13 18/63/13
f 18/64/13 23/59/13 22/65/13
f 20/66/13 23/67/13 16/68/13
f 15/69/12 24/70/12 19/71/12
f 24/57/12 15/72/12 17/73/12
f 19/74/12 24/75/12 21/76/12
o BackLegs_Cube.008
v 0.362500 0.000000 0.237500
v 0.362500 1.340625 0.237500
v 0.362500 0.000000 0.362500
v 0.362500 1.284375 0.362500
v 0.237500 0.000000 0.237500
v 0.237500 1.340625 0.237500
v 0.237500 0.000000 0.362500
v 0.237500 1.284375 0.362500
v 0.637500 0.000000 0.237500
v 0.637500 1.340625 0.237500
v 0.637500 0.000000 0.362500
v 0.637500 1.284375 0.362500
v 0.762500 0.000000 0.237500
v 0.762500 1.340625 0.237500
v 0.762500 0.000000 0.362500
v 0.762500 1.284375 0.362500
vt 0.171872 0.500510
vt 0.171872 0.998733
vt 0.218326 0.977829
vt 0.218326 0.500510
vt 0.109913 0.500389
vt 0.109913 0.972934
vt 0.156368 0.972934
vt 0.156368 0.500389
vt 0.218326 0.500510
vt 0.218326 0.977829
vt 0.171872 0.998733
vt 0.171872 0.500510
vt 0.156368 0.500389
vt 0.156368 0.993629
vt 0.109913 0.993629
vt 0.109913 0.500389
vt 0.445679 0.616841
vt 0.492133 0.616841
vt 0.492133 0.570852
vt 0.445679 0.570852
vt 0.171872 0.500510
vt 0.218326 0.500510
vt 0.218326 0.977829
vt 0.171872 0.998733
vt 0.109913 0.500389
vt 0.156368 0.500389
vt 0.156368 0.972934
vt 0.109913 0.972934
vt 0.218326 0.500510
vt 0.171872 0.500510
vt 0.171872 0.998733
vt 0.218326 0.977829
vt 0.156368 0.500389
vt 0.109913 0.500389
vt 0.109913 0.993629
vt 0.156368 0.993629
vt 0.445679 0.616841
vt 0.445679 0.570852
vt 0.492133 0.570852
vt 0.492133 0.616841
vn 1.0000 0.0000 -0.0000
vn 0.0000 0.0000 1.0000
vn -1.0000 0.0000 0.0000
vn -0.0000 0.0000 -1.0000
vn 0.0000 -1.0000 0.0000
usemtl Mat_Master
f 25/77/14 26/78/14 28/79/14 27/80/14
f 27/81/15 28/82/15 32/83/15 31/84/15
f 31/85/16 32/86/16 30/87/16 29/88/16
f 29/89/17 30/90/17 26/91/17 25/92/17
f 27/93/18 31/94/18 29/95/18 25/96/18
f 33/97/16 35/98/16 36/99/16 34/100/16
f 35/101/15 39/102/15 40/103/15 36/104/15
f 39/105/14 37/106/14 38/107/14 40/108/14
f 37/109/17 33/110/17 34/111/17 38/112/17
f 35/113/18 33/114/18 37/115/18 39/116/18
o LecternCatch_Cube.007
v 0.145000 1.134375 0.815625
v 0.145000 1.134375 0.784375
v 0.855000 1.134375 0.784375
v 0.855000 1.134375 0.815625
v 0.145000 1.165625 0.815625
v 0.145000 1.165625 0.784375
v 0.855000 1.165625 0.784375
v 0.855000 1.165625 0.815625
vt 0.436261 0.038990
vt 0.436261 0.022266
vt 0.063070 0.022266
vt 0.063070 0.038990
vt 0.436261 0.038990
vt 0.063070 0.038990
vt 0.063070 0.022266
vt 0.436261 0.022266
vt 0.450025 0.026354
vt 0.450025 0.035227
vt 0.441062 0.035227
vt 0.441062 0.026354
vt 0.441062 0.026354
vt 0.441062 0.035227
vt 0.450025 0.035227
vt 0.450025 0.026354
vn 0.0000 -1.0000 0.0000
vn 0.0000 1.0000 0.0000
vn -1.0000 0.0000 -0.0000
vn -0.0000 0.0000 -1.0000
vn 1.0000 -0.0000 0.0000
vn 0.0000 0.0000 1.0000
usemtl Mat_Master
f 41/117/19 42/118/19 43/119/19 44/120/19
f 45/121/20 48/122/20 47/123/20 46/124/20
f 41/125/21 45/126/21 46/127/21 42/128/21
f 42/118/22 46/124/22 47/123/22 43/119/22
f 43/129/23 47/130/23 48/131/23 44/132/23
f 45/121/24 41/117/24 44/120/24 48/122/24
o LecternHead_Cube.006
v 0.062500 1.364635 0.141586
v 0.062500 1.422378 0.165504
v 0.062500 1.077622 0.834496
v 0.062500 1.135365 0.858414
v 0.062500 1.323633 0.240574
v 0.139062 1.282632 0.339561
v 0.171875 1.241630 0.438548
v 0.171875 1.200628 0.537535
v 0.139063 1.159626 0.636522
v 0.062500 1.118624 0.735509
v 0.062500 1.176367 0.759427
v 0.139063 1.217368 0.660440
v 0.171875 1.258370 0.561453
v 0.171875 1.299372 0.462465
v 0.139062 1.340374 0.363478
v 0.062500 1.381376 0.264491
v 0.937500 1.364635 0.141586
v 0.937500 1.422378 0.165504
v 0.937500 1.077622 0.834496
v 0.937500 1.135365 0.858414
v 0.500000 1.077622 0.834496
v 0.500000 1.135365 0.858414
v 0.500000 1.364635 0.141586
v 0.500000 1.422378 0.165504
v 0.937500 1.323633 0.240573
v 0.860937 1.282632 0.339560
v 0.828125 1.241630 0.438547
v 0.828125 1.200628 0.537535
v 0.860938 1.159626 0.636522
v 0.937500 1.118624 0.735509
v 0.937500 1.176367 0.759426
v 0.860938 1.217368 0.660439
v 0.828125 1.258370 0.561452
v 0.828125 1.299372 0.462465
v 0.860937 1.340374 0.363478
v 0.937500 1.381376 0.264491
v 0.500000 1.176367 0.759427
v 0.500000 1.217368 0.660439
v 0.500000 1.258370 0.561452
v 0.500000 1.299372 0.462465
v 0.500000 1.340374 0.363478
v 0.500000 1.381376 0.264491
v 0.500000 1.118624 0.735509
v 0.500000 1.159626 0.636522
v 0.500000 1.200628 0.537535
v 0.500000 1.241630 0.438548
v 0.500000 1.282632 0.339561
v 0.500000 1.323633 0.240573
vt 0.312949 0.187896
vt 0.312949 0.205697
vt 0.468051 0.205697
vt 0.468051 0.187896
vt 0.297341 0.543759
vt 0.297341 0.561880
vt 0.266277 0.561880
vt 0.266277 0.543759
vt 0.093664 0.758761
vt 0.248969 0.758761
vt 0.248969 0.721216
vt 0.093664 0.721216
vt 0.248969 0.758761
vt 0.093664 0.758761
vt 0.093664 0.721216
vt 0.248969 0.721216
vt 0.468051 0.187896
vt 0.468051 0.205697
vt 0.312949 0.205697
vt 0.312949 0.187896
vt 0.248969 0.984030
vt 0.093664 0.984030
vt 0.093664 0.946485
vt 0.248969 0.946485
vt 0.093664 0.908940
vt 0.221790 0.908940
vt 0.093664 0.871396
vt 0.210142 0.871396
vt 0.093664 0.833851
vt 0.210142 0.833851
vt 0.093664 0.796306
vt 0.221790 0.796306
vt 0.093664 0.984030
vt 0.248969 0.984030
vt 0.248969 0.946485
vt 0.093664 0.946485
vt 0.221790 0.908940
vt 0.093664 0.908940
vt 0.210142 0.871396
vt 0.093664 0.871396
vt 0.210142 0.833851
vt 0.093664 0.833851
vt 0.221790 0.796306
vt 0.093664 0.796306
vt 0.483727 0.543759
vt 0.483727 0.561880
vt 0.452663 0.561880
vt 0.452663 0.543759
vt 0.421598 0.561880
vt 0.421598 0.543759
vt 0.390534 0.561880
vt 0.390534 0.543759
vt 0.359470 0.561880
vt 0.359470 0.543759
vt 0.328406 0.561880
vt 0.328406 0.543759
vt 0.468051 0.187896
vt 0.468051 0.205697
vt 0.297341 0.543759
vt 0.266277 0.543759
vt 0.266277 0.561880
vt 0.297341 0.561880
vt 0.248969 0.721216
vt 0.248969 0.758761
vt 0.248969 0.758761
vt 0.248969 0.721216
vt 0.468051 0.187896
vt 0.468051 0.205697
vt 0.248969 0.984030
vt 0.248969 0.946485
vt 0.221790 0.908940
vt 0.210142 0.871396
vt 0.210142 0.833851
vt 0.221790 0.796306
vt 0.248969 0.946485
vt 0.248969 0.984030
vt 0.221790 0.908940
vt 0.210142 0.871396
vt 0.210142 0.833851
vt 0.221790 0.796306
vt 0.483727 0.543759
vt 0.452663 0.543759
vt 0.452663 0.561880
vt 0.483727 0.561880
vt 0.421598 0.543759
vt 0.421598 0.561880
vt 0.390534 0.543759
vt 0.390534 0.561880
vt 0.359470 0.543759
vt 0.359470 0.561880
vt 0.328406 0.543759
vt 0.328406 0.561880
vn 0.0000 -0.3827 0.9239
vn -1.0000 -0.0000 0.0000
vn -0.0000 -0.9239 -0.3827
vn 0.0000 0.9239 0.3827
vn -0.0000 0.3827 -0.9239
vn -0.8136 0.2225 -0.5371
vn -0.9562 0.1121 -0.2705
vn -0.9562 -0.1121 0.2705
vn -0.8136 -0.2225 0.5371
vn 1.0000 0.0000 0.0000
vn 0.8136 0.2225 -0.5371
vn 0.9562 0.1121 -0.2705
vn 0.9562 -0.1121 0.2705
vn 0.8136 -0.2225 0.5371
usemtl Mat_Master
f 69/133/25 70/134/25 52/135/25 51/136/25
f 53/137/26 64/138/26 50/139/26 49/140/26
f 96/141/27 53/142/27 49/143/27 71/144/27
f 64/145/28 90/146/28 72/147/28 50/148/28
f 49/149/29 50/150/29 72/151/29 71/152/29
f 52/153/28 70/154/28 85/155/28 59/156/28
f 59/156/28 85/155/28 86/157/28 60/158/28
f 60/158/28 86/157/28 87/159/28 61/160/28
f 61/160/28 87/159/28 88/161/28 62/162/28
f 62/162/28 88/161/28 89/163/28 63/164/28
f 63/164/28 89/163/28 90/146/28 64/145/28
f 69/165/27 51/166/27 58/167/27 91/168/27
f 91/168/27 58/167/27 57/169/27 92/170/27
f 92/170/27 57/169/27 56/171/27 93/172/27
f 93/172/27 56/171/27 55/173/27 94/174/27
f 94/174/27 55/173/27 54/175/27 95/176/27
f 95/176/27 54/175/27 53/142/27 96/141/27
f 51/177/26 52/178/26 59/179/26 58/180/26
f 58/180/30 59/179/30 60/181/30 57/182/30
f 57/182/31 60/181/31 61/183/31 56/184/31
f 56/184/26 61/183/26 62/185/26 55/186/26
f 55/186/32 62/185/32 63/187/32 54/188/32
f 54/188/33 63/187/33 64/138/33 53/137/33
f 69/133/25 67/189/25 68/190/25 70/134/25
f 73/191/34 65/192/34 66/193/34 84/194/34
f 96/141/27 71/144/27 65/195/27 73/196/27
f 84/197/28 66/198/28 72/147/28 90/146/28
f 65/199/29 71/152/29 72/151/29 66/200/29
f 68/201/28 79/202/28 85/155/28 70/154/28
f 79/202/28 80/203/28 86/157/28 85/155/28
f 80/203/28 81/204/28 87/159/28 86/157/28
f 81/204/28 82/205/28 88/161/28 87/159/28
f 82/205/28 83/206/28 89/163/28 88/161/28
f 83/206/28 84/197/28 90/146/28 89/163/28
f 69/165/27 91/168/27 78/207/27 67/208/27
f 91/168/27 92/170/27 77/209/27 78/207/27
f 92/170/27 93/172/27 76/210/27 77/209/27
f 93/172/27 94/174/27 75/211/27 76/210/27
f 94/174/27 95/176/27 74/212/27 75/211/27
f 95/176/27 96/141/27 73/196/27 74/212/27
f 67/213/34 78/214/34 79/215/34 68/216/34
f 78/214/35 77/217/35 80/218/35 79/215/35
f 77/217/36 76/219/36 81/220/36 80/218/36
f 76/219/34 75/221/34 82/222/34 81/220/34
f 75/221/37 74/223/37 83/224/37 82/222/37
f 74/223/38 73/191/38 84/194/38 83/224/38
o LecternBack_Cube.004
v 0.851107 1.387500 0.162717
v 0.851107 1.812500 0.162717
v 0.148893 1.387500 0.162718
v 0.148893 1.812500 0.162718
v 0.382964 1.387500 0.165218
v 0.617036 1.387500 0.165217
v 0.617036 1.387500 0.160217
v 0.382964 1.387500 0.160217
v 0.382964 1.600000 0.160217
v 0.617036 1.600000 0.160217
v 0.617036 1.600000 0.165217
v 0.382964 1.600000 0.165218
vt 0.333370 0.250101
vt 0.000291 0.499667
vt 0.999528 0.499667
vt 0.666449 0.250101
vt 0.666449 0.250101
vt 0.333370 0.250101
vt 0.666449 0.000293
vt 0.333370 0.000293
vt 0.999528 0.000293
vt 0.333370 0.000293
vt 0.666449 0.000293
vt 0.000291 0.000293
vn -0.0000 0.0118 -0.9999
vn 0.0000 0.0118 0.9999
vn 0.0000 0.0000 1.0000
vn 0.0107 0.0000 0.9999
vn -0.0000 0.0000 -1.0000
vn -0.0107 0.0000 -0.9999
vn 0.0107 0.0000 -0.9999
vn -0.0107 0.0000 0.9999
usemtl Mat_LecternGrate
f 105/225/39 100/226/39 98/227/39 106/228/39
f 107/229/40 98/227/40 100/226/40 108/230/40
f 102/231/41 107/229/41 108/230/41 101/232/41
f 97/233/42 98/227/42 107/229/42 102/231/42
f 104/234/43 105/225/43 106/228/43 103/235/43
f 99/236/44 100/226/44 105/225/44 104/234/44
f 103/235/45 106/228/45 98/227/45 97/233/45
f 101/232/46 108/230/46 100/226/46 99/236/46
o FrontLegs_Cube.001
v 0.362500 0.000000 0.637500
v 0.362500 1.178914 0.637500
v 0.362500 0.000000 0.762500
v 0.362500 1.122664 0.762500
v 0.237500 0.000000 0.637500
v 0.237500 1.178914 0.637500
v 0.237500 0.000000 0.762500
v 0.237500 1.122664 0.762500
v 0.637500 0.000000 0.637500
v 0.637500 1.178914 0.637500
v 0.637500 0.000000 0.762500
v 0.637500 1.122664 0.762500
v 0.762500 0.000000 0.637500
v 0.762500 1.178914 0.637500
v 0.762500 0.000000 0.762500
v 0.762500 1.122664 0.762500
vt 0.094765 0.500447
vt 0.094765 0.921030
vt 0.139810 0.900962
vt 0.139810 0.500447
vt 0.047346 0.500446
vt 0.047346 0.900962
vt 0.094925 0.900962
vt 0.094925 0.500446
vt 0.139786 0.500447
vt 0.139786 0.900962
vt 0.094741 0.921030
vt 0.094741 0.500447
vt 0.140656 0.500447
vt 0.140656 0.921030
vt 0.185185 0.921030
vt 0.185701 0.500447
vt 0.445660 0.617343
vt 0.492792 0.617343
vt 0.492792 0.570210
vt 0.445660 0.570210
vt 0.094765 0.500447
vt 0.139810 0.500447
vt 0.139810 0.900962
vt 0.094765 0.921030
vt 0.047346 0.500446
vt 0.094925 0.500446
vt 0.094925 0.900962
vt 0.047346 0.900962
vt 0.139786 0.500447
vt 0.094741 0.500447
vt 0.094741 0.921030
vt 0.139786 0.900962
vt 0.140656 0.500447
vt 0.185701 0.500447
vt 0.185185 0.921030
vt 0.140656 0.921030
vt 0.445660 0.617343
vt 0.445660 0.570210
vt 0.492792 0.570210
vt 0.492792 0.617343
vn 1.0000 0.0000 -0.0000
vn 0.0000 0.0000 1.0000
vn -1.0000 0.0000 0.0000
vn 0.0000 0.0000 -1.0000
vn 0.0000 -1.0000 0.0000
usemtl Mat_Master
f 109/237/47 110/238/47 112/239/47 111/240/47
f 111/241/48 112/242/48 116/243/48 115/244/48
f 115/245/49 116/246/49 114/247/49 113/248/49
f 113/249/50 114/250/50 110/251/50 109/252/50
f 111/253/51 115/254/51 113/255/51 109/256/51
f 117/257/49 119/258/49 120/259/49 118/260/49
f 119/261/48 123/262/48 124/263/48 120/264/48
f 123/265/47 121/266/47 122/267/47 124/268/47
f 121/269/50 117/270/50 118/271/50 122/272/50
f 119/273/51 117/274/51 121/275/51 123/276/51
