# Blender v2.80 (sub 75) OBJ File: ''
# www.blender.org
mtllib makeshift_resonator_dry.mtl
o Bowl_Cube
v 0.777882 0.768238 0.708375
v 0.689551 0.812635 0.218246
v 0.784511 0.841680 0.076246
v 0.917007 0.775084 0.811439
v 0.185492 0.662923 0.933113
v 0.168968 0.786018 0.947241
v 0.036471 0.852614 0.212048
v 0.052995 0.729519 0.197919
v 0.673027 0.935730 0.232374
v 0.761358 0.891333 0.722503
v 0.900484 0.898179 0.825567
v 0.767987 0.964775 0.090374
v 0.268805 0.815811 0.804430
v 0.180473 0.860208 0.314301
v 0.196997 0.737113 0.300173
v 0.285328 0.692716 0.790302
v 0.503964 0.629581 0.490145
v 0.520488 0.506486 0.476017
vt 0.687500 0.812500
vt 0.937500 0.812500
vt 1.000000 0.875000
vt 0.625000 0.875000
vt 1.000000 0.937500
vt 1.000000 1.000000
vt 0.625000 1.000000
vt 0.625000 0.937500
vt 0.937500 0.875000
vt 0.687500 0.875000
vt 0.625000 0.937500
vt 1.000000 0.937500
vt 0.625000 0.937500
vt 0.625000 1.000000
vt 1.000000 1.000000
vt 1.000000 0.937500
vt 0.625000 0.937500
vt 1.000000 0.937500
vt 0.937500 0.875000
vt 0.687500 0.875000
vt 1.000000 0.875000
vt 0.625000 0.875000
vt 0.687500 0.812500
vt 0.937500 0.812500
vt 0.625000 0.937500
vt 0.625000 1.000000
vt 0.625000 0.875000
vt 0.687500 0.812500
vt 0.937500 0.812500
vt 1.000000 0.875000
vt 0.687500 0.812500
vt 0.937500 0.812500
vt 0.812500 0.687500
vt 1.000000 0.937500
vt 0.937500 0.875000
vt 0.687500 0.875000
vt 0.625000 0.937500
vt 0.687500 0.875000
vt 0.625000 0.937500
vt 1.000000 0.937500
vt 0.937500 0.875000
vt 0.937500 0.812500
vt 1.000000 0.875000
vt 0.625000 0.875000
vt 0.687500 0.812500
vt 1.000000 0.937500
vt 1.000000 1.000000
vt 0.812500 0.687500
vt 0.687500 0.812500
vt 0.937500 0.812500
vt 0.687500 0.812500
vt 0.937500 0.812500
vt 0.687500 0.812500
vt 0.937500 0.812500
vn 0.1322 -0.9848 -0.1130
vn -0.9754 -0.1495 0.1622
vn -0.1322 0.9848 0.1130
vn 0.9754 0.1495 -0.1622
vn 0.1767 -0.0888 0.9803
vn 0.5923 0.8050 -0.0338
vn -0.1767 0.0888 -0.9803
vn -0.5923 -0.8050 0.0338
vn -0.0314 -0.6335 -0.7731
vn 0.7802 -0.5946 -0.1945
vn 0.2184 -0.7591 0.6132
vn -0.2184 0.7591 -0.6132
vn -0.7802 0.5946 0.1945
vn 0.0314 0.6335 0.7731
usemtl Main
s 1
f 1/1/1 2/2/1 3/3/1 4/4/1
f 5/5/2 6/6/2 7/7/2 8/8/2
f 9/9/3 10/10/3 11/11/3 12/12/3
f 3/13/4 12/14/4 11/15/4 4/16/4
f 7/17/3 6/18/3 13/19/3 14/20/3
f 5/21/1 8/22/1 15/23/1 16/24/1
f 4/25/5 11/26/5 6/6/5 5/5/5
f 5/27/1 16/28/1 1/29/1 4/30/1
f 14/31/6 13/32/6 17/33/6
f 7/34/3 14/35/3 9/36/3 12/37/3
f 13/38/3 6/39/3 11/40/3 10/41/3
f 15/42/1 8/43/1 3/44/1 2/45/1
f 8/46/7 7/47/7 12/14/7 3/13/7
f 16/24/8 15/23/8 18/48/8
f 15/42/9 2/45/9 18/48/9
f 2/2/10 1/1/10 18/48/10
f 1/29/11 16/28/11 18/48/11
f 13/49/12 10/50/12 17/33/12
f 10/51/13 9/52/13 17/33/13
f 9/53/14 14/54/14 17/33/14
o Sticks_Cube.005
v 0.730179 -0.026631 0.769627
v 0.067401 0.754185 0.233002
v 0.111733 0.762021 0.189649
v 0.774511 -0.018795 0.726274
v 0.137373 0.807446 0.224078
v 0.800151 0.026631 0.760703
v 0.093041 0.799611 0.267431
v 0.755819 0.018795 0.804056
v 0.772874 -0.025514 0.270088
v 0.228049 0.682197 0.901435
v 0.182802 0.685701 0.858462
v 0.727628 -0.022010 0.227114
v 0.212630 0.733225 0.830930
v 0.757456 0.025514 0.199582
v 0.257877 0.729721 0.873903
v 0.802702 0.022010 0.242556
v 0.271678 -0.023879 0.229785
v 0.898033 0.828383 0.769679
v 0.853958 0.832848 0.813766
v 0.227603 -0.019414 0.273872
v 0.824346 0.876140 0.779778
v 0.197991 0.023879 0.239885
v 0.868422 0.871676 0.735692
v 0.242067 0.019414 0.195798
v 0.271632 -0.022826 0.686748
v 0.727285 0.863682 0.100746
v 0.771695 0.869656 0.144315
v 0.316041 -0.016851 0.730318
v 0.735261 0.909334 0.176010
v 0.279608 0.022826 0.762012
v 0.690851 0.903359 0.132440
v 0.235198 0.016851 0.718443
vt 0.968750 0.625000
vt 0.968750 0.000000
vt 1.000000 0.000000
vt 1.000000 0.625000
vt 1.000000 0.000000
vt 1.000000 0.625000
vt 0.968750 0.625000
vt 0.968750 0.000000
vt 0.968750 0.625000
vt 0.968750 0.000000
vt 1.000000 0.000000
vt 1.000000 0.625000
vt 1.000000 0.000000
vt 1.000000 0.625000
vt 0.968750 0.625000
vt 0.968750 0.000000
vt 0.875000 0.500000
vt 0.906250 0.500000
vt 0.906250 0.531250
vt 0.875000 0.531250
vt 0.875000 0.500000
vt 0.875000 0.000000
vt 0.906250 0.000000
vt 0.906250 0.500000
vt 0.906250 0.000000
vt 0.906250 0.500000
vt 0.875000 0.500000
vt 0.875000 0.000000
vt 0.875000 0.500000
vt 0.875000 0.000000
vt 0.906250 0.000000
vt 0.906250 0.500000
vt 0.906250 0.000000
vt 0.906250 0.500000
vt 0.875000 0.500000
vt 0.875000 0.000000
vt 0.875000 0.500000
vt 0.906250 0.500000
vt 0.906250 0.531250
vt 0.875000 0.531250
vt 0.937500 0.000000
vt 0.937500 0.531250
vt 0.906250 0.531250
vt 0.906250 0.000000
vt 0.906250 0.531250
vt 0.906250 0.000000
vt 0.937500 0.000000
vt 0.937500 0.531250
vt 0.937500 0.000000
vt 0.937500 0.531250
vt 0.906250 0.531250
vt 0.906250 0.000000
vt 0.906250 0.531250
vt 0.906250 0.000000
vt 0.937500 0.000000
vt 0.937500 0.531250
vt 0.875000 0.500000
vt 0.906250 0.500000
vt 0.875000 0.531250
vt 0.968750 0.000000
vt 0.968750 0.562500
vt 0.937500 0.562500
vt 0.937500 0.000000
vt 0.968750 0.000000
vt 0.968750 0.562500
vt 0.937500 0.562500
vt 0.937500 0.000000
vt 0.968750 0.000000
vt 0.968750 0.562500
vt 0.937500 0.562500
vt 0.937500 0.000000
vt 0.968750 0.000000
vt 0.968750 0.562500
vt 0.937500 0.562500
vt 0.937500 0.000000
vt 0.875000 0.500000
vt 0.906250 0.500000
vt 0.906250 0.531250
vt 0.875000 0.531250
vn -0.4102 -0.7268 -0.5509
vn 0.7093 0.1254 -0.6937
vn 0.4102 0.7268 0.5509
vn -0.7093 -0.1254 0.6937
vn 0.5732 -0.6753 0.4641
vn -0.4773 -0.7604 0.4405
vn -0.7240 0.0561 -0.6876
vn 0.4773 0.7604 -0.4405
vn 0.7240 -0.0561 0.6876
vn 0.4981 -0.6471 -0.5772
vn 0.4738 -0.6927 0.5438
vn -0.7052 0.0714 0.7054
vn -0.4738 0.6927 -0.5438
vn 0.7052 -0.0714 -0.7054
vn -0.5275 -0.7177 -0.4546
vn 0.5829 -0.6348 -0.5071
vn 0.7106 0.0956 0.6971
vn -0.5829 0.6348 0.5071
vn -0.7105 -0.0956 -0.6971
vn -0.3941 -0.7667 0.5068
usemtl Main
s 1
f 19/55/15 20/56/15 21/57/15 22/58/15
f 22/59/16 21/60/16 23/61/16 24/62/16
f 24/63/17 23/64/17 25/65/17 26/66/17
f 26/67/18 25/68/18 20/69/18 19/70/18
f 22/71/19 24/72/19 26/73/19 19/74/19
f 27/75/20 28/76/20 29/77/20 30/78/20
f 30/79/21 29/80/21 31/81/21 32/82/21
f 32/83/22 31/84/22 33/85/22 34/86/22
f 34/87/23 33/88/23 28/89/23 27/90/23
f 30/91/24 32/92/24 34/93/24 27/94/24
f 35/95/25 36/96/25 37/97/25 38/98/25
f 38/99/26 37/100/26 39/101/26 40/102/26
f 40/103/27 39/104/27 41/105/27 42/106/27
f 42/107/28 41/108/28 36/109/28 35/110/28
f 38/111/29 40/112/29 42/107/29 35/113/29
f 43/114/30 44/115/30 45/116/30 46/117/30
f 46/118/31 45/119/31 47/120/31 48/121/31
f 48/122/32 47/123/32 49/124/32 50/125/32
f 50/126/33 49/127/33 44/128/33 43/129/33
f 46/130/34 48/131/34 50/132/34 43/133/34
o String_Cube.001
v 0.436522 0.314340 0.686802
v 0.436522 0.376840 0.686802
v 0.312674 0.376840 0.469635
v 0.312674 0.314340 0.469635
v 0.529841 0.376840 0.345786
v 0.529841 0.314340 0.345786
v 0.653689 0.376840 0.562954
v 0.653689 0.314340 0.562954
vt 0.625000 0.968750
vt 0.625000 1.000000
vt 0.500000 1.000000
vt 0.500000 0.968750
vt 0.625000 0.968750
vt 0.625000 1.000000
vt 0.500000 1.000000
vt 0.500000 0.968750
vt 0.625000 0.968750
vt 0.625000 1.000000
vt 0.500000 1.000000
vt 0.500000 0.968750
vt 0.625000 0.968750
vt 0.625000 1.000000
vt 0.500000 1.000000
vt 0.500000 0.968750
vt 0.500000 0.843750
vt 0.625000 0.843750
vt 0.500000 0.843750
vt 0.625000 0.843750
vt 0.625000 0.968750
vt 0.500000 0.968750
vn -0.8687 0.0000 0.4954
vn -0.4954 0.0000 -0.8687
vn 0.8687 0.0000 -0.4954
vn 0.4954 0.0000 0.8687
vn 0.0000 -1.0000 -0.0000
vn -0.0000 1.0000 0.0000
usemtl Main
s 1
f 51/134/35 52/135/35 53/136/35 54/137/35
f 54/138/36 53/139/36 55/140/36 56/141/36
f 56/142/37 55/143/37 57/144/37 58/145/37
f 58/146/38 57/147/38 52/148/38 51/149/38
f 54/150/39 56/151/39 58/146/39 51/149/39
f 55/152/40 53/153/40 52/154/40 57/155/40
