# Blender v2.79 (sub 0) OBJ File: 'rawquartz.blend'
# www.blender.org
mtllib quartz_cluster.mtl
o Cylinder.005_Cylinder.009
v 0.641698 -0.140297 0.777004
v 0.704925 0.489420 0.971598
v 0.466647 -0.126735 0.789995
v 0.525132 0.455753 0.969994
v 0.369500 -0.073753 0.650105
v 0.427985 0.508735 0.830104
v 0.447404 -0.034332 0.497224
v 0.510631 0.595385 0.691817
v 0.622455 -0.047894 0.484233
v 0.690424 0.629052 0.693421
v 0.719602 -0.100876 0.624123
v 0.787571 0.576069 0.833311
v 0.585221 -0.192520 0.682735
v 0.497696 -0.185740 0.689230
v 0.449122 -0.159248 0.619285
v 0.488074 -0.139538 0.542845
v 0.575600 -0.146319 0.536349
v 0.624173 -0.172810 0.606294
vt 0.998870 0.998870
vt 0.000232 0.998870
vt 0.000232 0.000389
vt 0.998870 0.000389
vt 0.000232 0.000389
vt 0.998870 0.000389
vt 0.998870 0.998870
vt 0.000232 0.998870
vt 0.999363 0.000882
vt 0.999363 0.999521
vt 0.000261 0.999521
vt 0.000261 0.000882
vt 0.998870 0.000389
vt 0.000232 0.000389
vt 0.000232 0.998870
vt 0.998870 0.998870
vt 0.747791 0.062835
vt 0.996877 0.494265
vt 0.000532 0.494265
vt 0.249618 0.062835
vt 0.000232 0.998870
vt 0.998870 0.998870
vt 0.998870 0.000389
vt 0.000232 0.000389
vt 0.000261 0.000882
vt 0.000261 0.999521
vt 0.999363 0.999521
vt 0.999363 0.000882
vt 0.747791 0.062835
vt 0.249618 0.062835
vt 0.374161 0.278550
vt 0.623247 0.278550
vt 0.747791 0.494265
vt 0.249618 0.494265
vt 0.374161 0.709980
vt 0.623247 0.709980
vt 0.249618 0.925695
vt 0.747790 0.925695
vt 0.996877 0.494265
vt 0.000532 0.494265
vt 0.747790 0.925695
vt 0.249618 0.925695
vn 0.0475 -0.2993 0.9530
vn -0.8332 -0.0852 0.5464
vn -0.8917 0.2130 -0.3995
vn -0.0475 0.2993 -0.9530
vn -0.1683 0.8774 0.4492
vn 0.8332 0.0852 -0.5464
vn 0.8917 -0.2130 0.3995
vn -0.6786 -0.7056 0.2040
vn -0.0955 -0.9511 -0.2939
vn 0.5496 -0.5800 -0.6013
vn -0.0302 -0.8666 0.4981
vn -0.7182 -0.4913 -0.4927
vn 0.5883 -0.8034 0.0926
vn -0.0998 -0.4281 -0.8982
usemtl mat_rawQuartz
f 1/1/1 2/2/1 4/3/1 3/4/1
f 3/5/2 4/6/2 6/7/2 5/8/2
f 5/9/3 6/10/3 8/11/3 7/12/3
f 7/13/4 8/14/4 10/15/4 9/16/4
f 4/17/5 2/18/5 8/19/5 6/20/5
f 9/21/6 10/22/6 12/23/6 11/24/6
f 11/25/7 12/26/7 2/27/7 1/28/7
f 3/29/8 5/30/8 15/31/8 14/32/8
f 13/33/9 16/34/9 17/35/9 18/36/9
f 9/37/10 11/38/10 18/36/10 17/35/10
f 1/39/11 3/29/11 14/32/11 13/33/11
f 5/30/12 7/40/12 16/34/12 15/31/12
f 11/38/13 1/39/13 13/33/13 18/36/13
f 7/40/14 9/37/14 17/35/14 16/34/14
f 16/34/9 13/33/9 14/32/9 15/31/9
f 8/19/5 2/18/5 12/41/5 10/42/5
o Cylinder.004_Cylinder.008
v 0.548183 -0.140297 0.192611
v 0.611410 0.489420 -0.001983
v 0.697438 -0.126735 0.284994
v 0.755923 0.455753 0.104995
v 0.693806 -0.073753 0.455269
v 0.752291 0.508735 0.275270
v 0.540919 -0.034332 0.533161
v 0.604147 0.595385 0.338568
v 0.391664 -0.047894 0.440778
v 0.459634 0.629052 0.231591
v 0.395296 -0.100876 0.270503
v 0.463265 0.576069 0.061315
v 0.538463 -0.192520 0.302072
v 0.613091 -0.185740 0.348264
v 0.611275 -0.159248 0.433401
v 0.534832 -0.139538 0.472348
v 0.460204 -0.146319 0.426156
v 0.462020 -0.172810 0.341019
vt 0.998870 0.998870
vt 0.000232 0.998870
vt 0.000232 0.000389
vt 0.998870 0.000389
vt 0.000232 0.000389
vt 0.998870 0.000389
vt 0.998870 0.998870
vt 0.000232 0.998870
vt 0.999363 0.000882
vt 0.999363 0.999521
vt 0.000261 0.999521
vt 0.000261 0.000882
vt 0.998870 0.000389
vt 0.000232 0.000389
vt 0.000232 0.998870
vt 0.998870 0.998870
vt 0.747791 0.062835
vt 0.996877 0.494265
vt 0.000532 0.494265
vt 0.249618 0.062835
vt 0.000232 0.998870
vt 0.998870 0.998870
vt 0.998870 0.000389
vt 0.000232 0.000389
vt 0.000261 0.000882
vt 0.000261 0.999521
vt 0.999363 0.999521
vt 0.999363 0.000882
vt 0.747791 0.062835
vt 0.249618 0.062835
vt 0.374161 0.278550
vt 0.623247 0.278550
vt 0.747791 0.494265
vt 0.249618 0.494265
vt 0.374161 0.709980
vt 0.623247 0.709980
vt 0.249618 0.925695
vt 0.747790 0.925695
vt 0.996877 0.494265
vt 0.000532 0.494265
vt 0.747790 0.925695
vt 0.249618 0.925695
vn 0.5217 -0.2993 -0.7989
vn 0.9952 -0.0852 0.0477
vn 0.4866 0.2130 0.8473
vn -0.5217 0.2993 0.7989
vn 0.4002 0.8774 -0.2645
vn -0.9952 0.0852 -0.0477
vn -0.4866 -0.2130 -0.8473
vn 0.6690 -0.7056 0.2338
vn -0.0955 -0.9511 0.2939
vn -0.7980 -0.5800 0.1635
vn 0.3172 -0.8666 -0.3853
vn 0.2915 -0.4913 0.8208
vn -0.4215 -0.8034 -0.4207
vn -0.4472 -0.4281 0.7853
usemtl mat_rawQuartz
f 19/43/15 20/44/15 22/45/15 21/46/15
f 21/47/16 22/48/16 24/49/16 23/50/16
f 23/51/17 24/52/17 26/53/17 25/54/17
f 25/55/18 26/56/18 28/57/18 27/58/18
f 22/59/19 20/60/19 26/61/19 24/62/19
f 27/63/20 28/64/20 30/65/20 29/66/20
f 29/67/21 30/68/21 20/69/21 19/70/21
f 21/71/22 23/72/22 33/73/22 32/74/22
f 31/75/23 34/76/23 35/77/23 36/78/23
f 27/79/24 29/80/24 36/78/24 35/77/24
f 19/81/25 21/71/25 32/74/25 31/75/25
f 23/72/26 25/82/26 34/76/26 33/73/26
f 29/80/27 19/81/27 31/75/27 36/78/27
f 25/82/28 27/79/28 35/77/28 34/76/28
f 34/76/23 31/75/23 32/74/23 33/73/23
f 26/61/19 20/60/19 30/83/19 28/84/19
o Cylinder.003_Cylinder.007
v 0.531370 -0.053757 0.350984
v 0.365839 0.575960 0.230718
v 0.486268 -0.033153 0.520947
v 0.333152 0.549336 0.409701
v 0.321013 -0.066710 0.572690
v 0.167897 0.515778 0.461445
v 0.200860 -0.120872 0.454470
v 0.035329 0.508845 0.334205
v 0.245962 -0.141477 0.284507
v 0.068016 0.535469 0.155222
v 0.411217 -0.107919 0.232764
v 0.233271 0.569027 0.103479
v 0.469434 -0.149250 0.391888
v 0.446883 -0.138948 0.476870
v 0.364255 -0.155727 0.502742
v 0.304179 -0.182808 0.443632
v 0.326730 -0.193110 0.358650
v 0.409357 -0.176331 0.332778
vt 0.998870 0.998870
vt 0.000232 0.998870
vt 0.000232 0.000389
vt 0.998870 0.000389
vt 0.000232 0.000389
vt 0.998870 0.000389
vt 0.998870 0.998870
vt 0.000232 0.998870
vt 0.999363 0.000882
vt 0.999363 0.999521
vt 0.000261 0.999521
vt 0.000261 0.000882
vt 0.998870 0.000389
vt 0.000232 0.000389
vt 0.000232 0.998870
vt 0.998870 0.998870
vt 0.747791 0.062835
vt 0.996877 0.494265
vt 0.000532 0.494265
vt 0.249618 0.062835
vt 0.000232 0.998870
vt 0.998870 0.998870
vt 0.998870 0.000389
vt 0.000232 0.000389
vt 0.000261 0.000882
vt 0.000261 0.999521
vt 0.999363 0.999521
vt 0.999363 0.000882
vt 0.747791 0.062835
vt 0.249618 0.062835
vt 0.374161 0.278550
vt 0.623247 0.278550
vt 0.747791 0.494265
vt 0.249618 0.494265
vt 0.374161 0.709980
vt 0.623247 0.709980
vt 0.249618 0.925695
vt 0.747790 0.925695
vt 0.996877 0.494265
vt 0.000532 0.494265
vt 0.747790 0.925695
vt 0.249618 0.925695
vn 0.9341 0.2863 0.2132
vn 0.2444 0.2435 0.9386
vn -0.6906 -0.0437 0.7219
vn -0.9341 -0.2863 -0.2132
vn -0.1626 0.9798 0.1161
vn -0.2444 -0.2435 -0.9386
vn 0.6906 0.0437 -0.7219
vn 0.3492 -0.4682 0.8117
vn 0.2500 -0.9511 0.1816
vn -0.0092 -0.8253 -0.5647
vn 0.8558 -0.4352 0.2798
vn -0.3376 -0.6775 0.6535
vn 0.6769 -0.6133 -0.4070
vn -0.5164 -0.8557 -0.0333
usemtl mat_rawQuartz
f 37/85/29 38/86/29 40/87/29 39/88/29
f 39/89/30 40/90/30 42/91/30 41/92/30
f 41/93/31 42/94/31 44/95/31 43/96/31
f 43/97/32 44/98/32 46/99/32 45/100/32
f 40/101/33 38/102/33 44/103/33 42/104/33
f 45/105/34 46/106/34 48/107/34 47/108/34
f 47/109/35 48/110/35 38/111/35 37/112/35
f 39/113/36 41/114/36 51/115/36 50/116/36
f 49/117/37 52/118/37 53/119/37 54/120/37
f 45/121/38 47/122/38 54/120/38 53/119/38
f 37/123/39 39/113/39 50/116/39 49/117/39
f 41/114/40 43/124/40 52/118/40 51/115/40
f 47/122/41 37/123/41 49/117/41 54/120/41
f 43/124/42 45/121/42 53/119/42 52/118/42
f 52/118/37 49/117/37 50/116/37 51/115/37
f 44/103/33 38/102/33 48/125/33 46/126/33
o Cylinder.002_Cylinder.006
v 0.502905 -0.097759 0.638996
v 0.707513 0.531958 0.638996
v 0.439492 -0.077155 0.474982
v 0.628754 0.505333 0.474982
v 0.542772 -0.110713 0.335987
v 0.732034 0.471775 0.335987
v 0.709466 -0.164875 0.361004
v 0.914073 0.464842 0.361004
v 0.772879 -0.185479 0.525018
v 0.992832 0.491467 0.525018
v 0.669599 -0.151921 0.664013
v 0.889552 0.525024 0.664013
v 0.528969 -0.193253 0.569498
v 0.497263 -0.182951 0.487491
v 0.548903 -0.199730 0.417993
v 0.632250 -0.226811 0.430502
v 0.663956 -0.237113 0.512509
v 0.612316 -0.220334 0.582007
vt 0.998870 0.998870
vt 0.000232 0.998870
vt 0.000232 0.000389
vt 0.998870 0.000389
vt 0.000232 0.000389
vt 0.998870 0.000389
vt 0.998870 0.998870
vt 0.000232 0.998870
vt 0.999363 0.000882
vt 0.999363 0.999521
vt 0.000261 0.999521
vt 0.000261 0.000882
vt 0.998870 0.000389
vt 0.000232 0.000389
vt 0.000232 0.998870
vt 0.998870 0.998870
vt 0.747791 0.062835
vt 0.996877 0.494265
vt 0.000532 0.494265
vt 0.249618 0.062835
vt 0.000232 0.998870
vt 0.998870 0.998870
vt 0.998870 0.000389
vt 0.000232 0.000389
vt 0.000261 0.000882
vt 0.000261 0.999521
vt 0.999363 0.999521
vt 0.999363 0.000882
vt 0.747791 0.062835
vt 0.249618 0.062835
vt 0.374161 0.278550
vt 0.623247 0.278550
vt 0.747791 0.494265
vt 0.249618 0.494265
vt 0.374161 0.709980
vt 0.623247 0.709980
vt 0.249618 0.925695
vt 0.747790 0.925695
vt 0.996877 0.494265
vt 0.000532 0.494265
vt 0.747790 0.925695
vt 0.249618 0.925695
vn -0.8810 0.2863 0.3766
vn -0.7494 0.2435 -0.6157
vn 0.1344 -0.0437 -0.9900
vn 0.8810 -0.2863 -0.3766
vn 0.0634 0.9798 -0.1895
vn 0.7494 -0.2435 0.6157
vn -0.1344 0.0437 0.9900
vn -0.7596 -0.4682 -0.4514
vn -0.3090 -0.9511 -0.0000
vn 0.3394 -0.8253 0.4514
vn -0.8568 -0.4352 0.2766
vn -0.1110 -0.6775 -0.7271
vn -0.3084 -0.6133 0.7271
vn 0.4374 -0.8557 -0.2766
usemtl mat_rawQuartz
f 55/127/43 56/128/43 58/129/43 57/130/43
f 57/131/44 58/132/44 60/133/44 59/134/44
f 59/135/45 60/136/45 62/137/45 61/138/45
f 61/139/46 62/140/46 64/141/46 63/142/46
f 58/143/47 56/144/47 62/145/47 60/146/47
f 63/147/48 64/148/48 66/149/48 65/150/48
f 65/151/49 66/152/49 56/153/49 55/154/49
f 57/155/50 59/156/50 69/157/50 68/158/50
f 67/159/51 70/160/51 71/161/51 72/162/51
f 63/163/52 65/164/52 72/162/52 71/161/52
f 55/165/53 57/155/53 68/158/53 67/159/53
f 59/156/54 61/166/54 70/160/54 69/157/54
f 65/164/55 55/165/55 67/159/55 72/162/55
f 61/166/56 63/163/56 71/161/56 70/160/56
f 70/160/51 67/159/51 68/158/51 69/157/51
f 62/145/47 56/144/47 66/167/47 64/168/47
o Cylinder.001_Cylinder.004
v 0.351361 -0.149231 0.690214
v 0.228879 0.441943 0.939501
v 0.202775 -0.139459 0.594036
v 0.089479 0.407377 0.824627
v 0.205142 -0.068805 0.427646
v 0.091846 0.478031 0.658238
v 0.356096 -0.007922 0.357434
v 0.233613 0.583252 0.606722
v 0.504682 -0.017694 0.453612
v 0.373013 0.617818 0.721596
v 0.502314 -0.088348 0.620001
v 0.370646 0.547164 0.887986
v 0.367855 -0.187800 0.575858
v 0.293562 -0.182914 0.527769
v 0.294746 -0.147587 0.444574
v 0.370222 -0.117146 0.409468
v 0.444515 -0.122032 0.457557
v 0.443332 -0.157359 0.540752
vt 0.998870 0.998870
vt 0.000232 0.998870
vt 0.000232 0.000389
vt 0.998870 0.000389
vt 0.000232 0.000389
vt 0.998870 0.000389
vt 0.998870 0.998870
vt 0.000232 0.998870
vt 0.999363 0.000882
vt 0.999363 0.999521
vt 0.000261 0.999521
vt 0.000261 0.000882
vt 0.998870 0.000389
vt 0.000232 0.000389
vt 0.000232 0.998870
vt 0.998870 0.998870
vt 0.747791 0.062835
vt 0.996877 0.494265
vt 0.000532 0.494265
vt 0.249618 0.062835
vt 0.000232 0.998870
vt 0.998870 0.998870
vt 0.998870 0.000389
vt 0.000232 0.000389
vt 0.000261 0.000882
vt 0.000261 0.999521
vt 0.999363 0.999521
vt 0.999363 0.000882
vt 0.747791 0.062835
vt 0.249618 0.062835
vt 0.374161 0.278550
vt 0.623247 0.278550
vt 0.747791 0.494265
vt 0.249618 0.494265
vt 0.374161 0.709980
vt 0.623247 0.709980
vt 0.249618 0.925695
vt 0.747790 0.925695
vt 0.996877 0.494265
vt 0.000532 0.494265
vt 0.747790 0.925695
vt 0.249618 0.925695
vn -0.5121 -0.4216 0.7483
vn -0.9822 -0.1676 -0.0851
vn -0.4896 0.2507 -0.8351
vn 0.5121 0.4216 -0.7483
vn -0.4789 0.8104 0.3373
vn 0.9822 0.1676 0.0851
vn 0.4896 -0.2507 0.8351
vn -0.5899 -0.7402 -0.3227
vn 0.1875 -0.9051 -0.3817
vn 0.8458 -0.4952 -0.1983
vn -0.2415 -0.9295 0.2787
vn -0.2252 -0.4426 -0.8680
vn 0.4838 -0.8058 0.3415
vn 0.5002 -0.3189 -0.8051
usemtl mat_rawQuartz
f 73/169/57 74/170/57 76/171/57 75/172/57
f 75/173/58 76/174/58 78/175/58 77/176/58
f 77/177/59 78/178/59 80/179/59 79/180/59
f 79/181/60 80/182/60 82/183/60 81/184/60
f 76/185/61 74/186/61 80/187/61 78/188/61
f 81/189/62 82/190/62 84/191/62 83/192/62
f 83/193/63 84/194/63 74/195/63 73/196/63
f 75/197/64 77/198/64 87/199/64 86/200/64
f 85/201/65 88/202/65 89/203/65 90/204/65
f 81/205/66 83/206/66 90/204/66 89/203/66
f 73/207/67 75/197/67 86/200/67 85/201/67
f 77/198/68 79/208/68 88/202/68 87/199/68
f 83/206/69 73/207/69 85/201/69 90/204/69
f 79/208/70 81/205/70 89/203/70 88/202/70
f 88/202/65 85/201/65 86/200/65 87/199/65
f 80/187/61 74/186/61 84/209/61 82/210/61
o Cylinder
v 0.500000 -0.088000 0.250000
v 0.500000 0.872000 0.250000
v 0.716506 -0.088000 0.375000
v 0.716506 0.800000 0.375000
v 0.716506 -0.088000 0.625000
v 0.716506 0.800000 0.625000
v 0.500000 -0.088000 0.750000
v 0.500000 0.872000 0.750000
v 0.283494 -0.088000 0.625000
v 0.283494 0.944000 0.625000
v 0.283494 -0.088000 0.375000
v 0.283494 0.944000 0.375000
v 0.500000 -0.208000 0.375000
v 0.608253 -0.208000 0.437500
v 0.608253 -0.208000 0.562500
v 0.500000 -0.208000 0.625000
v 0.391747 -0.208000 0.562500
v 0.391747 -0.208000 0.437500
vt 0.993872 0.994978
vt 0.005220 0.994978
vt 0.005220 0.005350
vt 0.993872 0.005350
vt 0.005220 0.005350
vt 0.993872 0.005350
vt 0.993872 0.994978
vt 0.005220 0.994978
vt 0.994360 0.005838
vt 0.994360 0.994490
vt 0.004732 0.994490
vt 0.004732 0.005838
vt 0.993872 0.005350
vt 0.005220 0.005350
vt 0.005220 0.994978
vt 0.993872 0.994978
vt 0.745303 0.067171
vt 0.991899 0.494288
vt 0.005517 0.494288
vt 0.252112 0.067171
vt 0.005220 0.994978
vt 0.993872 0.994978
vt 0.993872 0.005350
vt 0.005220 0.005350
vt 0.004732 0.005838
vt 0.004732 0.994490
vt 0.994360 0.994490
vt 0.994360 0.005838
vt 0.745303 0.067171
vt 0.252112 0.067171
vt 0.375410 0.280730
vt 0.622005 0.280730
vt 0.745303 0.494288
vt 0.252112 0.494288
vt 0.375410 0.707845
vt 0.622005 0.707845
vt 0.252112 0.921403
vt 0.745303 0.921403
vt 0.991899 0.494288
vt 0.005517 0.494288
vt 0.745303 0.921403
vt 0.252112 0.921403
vn 0.5000 0.0000 -0.8660
vn 1.0000 0.0000 0.0000
vn 0.5000 0.0000 0.8660
vn -0.5000 0.0000 0.8660
vn 0.3156 0.9489 0.0000
vn -1.0000 0.0000 0.0000
vn -0.5000 0.0000 -0.8660
vn 0.7425 -0.6698 0.0000
vn 0.0000 -1.0000 0.0000
vn -0.7425 -0.6698 0.0000
vn 0.3713 -0.6698 -0.6430
vn 0.3713 -0.6698 0.6430
vn -0.3713 -0.6698 -0.6430
vn -0.3713 -0.6698 0.6430
usemtl mat_rawQuartz
f 91/211/71 92/212/71 94/213/71 93/214/71
f 93/215/72 94/216/72 96/217/72 95/218/72
f 95/219/73 96/220/73 98/221/73 97/222/73
f 97/223/74 98/224/74 100/225/74 99/226/74
f 94/227/75 92/228/75 98/229/75 96/230/75
f 99/231/76 100/232/76 102/233/76 101/234/76
f 101/235/77 102/236/77 92/237/77 91/238/77
f 93/239/78 95/240/78 105/241/78 104/242/78
f 103/243/79 106/244/79 107/245/79 108/246/79
f 99/247/80 101/248/80 108/246/80 107/245/80
f 91/249/81 93/239/81 104/242/81 103/243/81
f 95/240/82 97/250/82 106/244/82 105/241/82
f 101/248/83 91/249/83 103/243/83 108/246/83
f 97/250/84 99/247/84 107/245/84 106/244/84
f 106/244/79 103/243/79 104/242/79 105/241/79
f 98/229/75 92/228/75 102/251/75 100/252/75
