# Blender v2.79 (sub 0) OBJ File: 'sliveroflight.blend'
# www.blender.org
mtllib quartz_sliver.mtl
o Cylinder.001
v 0.500000 -0.192790 0.450000
v 0.500000 0.508633 0.440933
v 0.543301 -0.192790 0.525000
v 0.551153 0.508633 0.529533
v 0.456699 -0.192790 0.525000
v 0.448847 0.508633 0.529533
v 0.500000 0.428109 0.400000
v 0.586603 0.428109 0.550000
v 0.413397 0.428109 0.550000
vt 0.629250 0.439221
vt 0.684049 0.463345
vt 0.684049 0.532969
vt 0.629250 0.557093
vt 0.368798 0.370511
vt 0.313999 0.346386
vt 0.313999 0.276763
vt 0.368798 0.252639
vt 0.461337 0.481121
vt 0.530960 0.481121
vt 0.496149 0.541417
vt 0.564864 0.745518
vt 0.588989 0.690719
vt 0.658612 0.690719
vt 0.682737 0.745518
vt 0.466135 0.518808
vt 0.525071 0.518808
vt 0.495603 0.467768
vt 0.393095 0.906912
vt 0.815639 0.877444
vt 0.815639 0.995316
vt 0.393095 0.965848
vt 0.094128 0.486359
vt 0.064660 0.063815
vt 0.182532 0.063815
vt 0.153064 0.486359
vt 0.905471 0.079217
vt 0.934939 0.501761
vt 0.817066 0.501761
vt 0.846535 0.079217
vn 0.8393 0.2463 -0.4846
vn 0.0000 0.2463 0.9692
vn 0.0000 1.0000 0.0000
vn -0.8393 0.2463 -0.4846
vn 0.0000 -1.0000 0.0000
vn -0.8653 -0.0402 -0.4996
vn 0.0000 -0.0402 0.9992
vn 0.8653 -0.0402 -0.4996
usemtl None
s off
f 7/1/1 2/2/1 4/3/1 8/4/1
f 8/5/2 4/6/2 6/7/2 9/8/2
f 2/9/3 6/10/3 4/11/3
f 9/12/4 6/13/4 2/14/4 7/15/4
f 1/16/5 3/17/5 5/18/5
f 5/19/6 9/20/6 7/21/6 1/22/6
f 3/23/7 8/24/7 9/25/7 5/26/7
f 1/27/8 7/28/8 8/29/8 3/30/8
