# Blender v2.79 (sub 0) OBJ File: 'radiantfurnace.blend'
# www.blender.org
mtllib radiant_furnace.mtl
o Cylinder
v 1.000000 1.000000 0.500000
v 0.750000 1.000000 0.933013
v 0.250000 1.000000 0.933013
v 0.000000 1.000000 0.500000
v 0.250000 1.000000 0.066987
v 0.750000 1.000000 0.066987
v 1.000000 0.875000 0.500000
v 0.750000 0.875000 0.933013
v 0.250000 0.875000 0.933013
v 0.000000 0.875000 0.500000
v 0.250000 0.875000 0.066987
v 0.750000 0.875000 0.066987
v 0.828125 0.000000 0.310557
v 0.828125 0.000000 0.689443
v 0.718750 0.000000 0.121114
v 0.281250 0.000000 0.121114
v 0.062500 0.000000 0.500000
v 0.281250 0.000000 0.878886
v 0.718750 0.750000 0.121114
v 0.281250 0.750000 0.121114
v 0.062500 0.750000 0.500000
v 0.281250 0.750000 0.878886
v 0.718750 0.750000 0.878886
v 0.718750 0.125000 0.878886
v 0.281250 0.125000 0.878886
v 0.062500 0.125000 0.500000
v 0.281250 0.125000 0.121114
v 0.718750 0.125000 0.121114
v 0.687500 0.875000 0.824760
v 0.687500 0.750000 0.824760
v 0.312500 0.875000 0.824759
v 0.312500 0.750000 0.824759
v 0.125000 0.875000 0.500000
v 0.125000 0.750000 0.500000
v 0.312500 0.875000 0.175240
v 0.312500 0.750000 0.175240
v 0.687500 0.875000 0.175240
v 0.687500 0.750000 0.175240
v 0.875000 0.750000 0.500000
v 0.875000 0.875000 0.500000
v 0.718750 0.000000 0.878886
v 0.828125 0.750000 0.689443
v 0.828125 0.125000 0.689443
v 0.828125 0.750000 0.310557
v 0.828125 0.125000 0.310557
v 1.125000 1.000000 0.500000
v 1.312500 1.000000 0.824760
v 1.687500 1.000000 0.824760
v 1.875000 1.000000 0.500000
v 1.687500 1.000000 0.175240
v 1.312500 1.000000 0.175240
v 1.171875 0.000000 0.689443
v 1.171875 0.000000 0.310557
v 1.281250 0.000000 0.878886
v 1.718750 0.000000 0.878886
v 1.937500 0.000000 0.500000
v 1.718750 0.000000 0.121114
v 1.343750 0.687500 0.878886
v 1.656250 0.687500 0.878886
v 1.937500 0.750000 0.500000
v 1.718750 0.750000 0.121114
v 1.281250 0.750000 0.121114
v 1.281250 0.125000 0.121114
v 1.718750 0.125000 0.121114
v 1.937500 0.125000 0.500000
v 1.656250 0.187500 0.878886
v 1.343750 0.187500 0.878886
v 1.406250 1.250000 0.337620
v 1.312500 0.750000 0.175240
v 1.593750 1.250000 0.337620
v 1.687500 0.750000 0.175240
v 1.687500 1.250000 0.500000
v 1.875000 0.750000 0.500000
v 1.593750 1.250000 0.662380
v 1.687500 0.750000 0.824760
v 1.406250 1.250000 0.662380
v 1.312500 0.750000 0.824760
v 1.125000 0.750000 0.500000
v 1.312500 1.250000 0.500000
v 1.281250 0.000000 0.121114
v 1.171875 0.750000 0.310557
v 1.171875 0.125000 0.310557
v 1.171875 0.750000 0.689443
v 1.171875 0.125000 0.689443
v 0.281250 0.125000 0.878886
v 0.281250 0.000000 0.878886
v 0.281250 0.125000 0.121114
v 0.281250 0.000000 0.121114
v 0.062500 0.000000 0.500000
v 0.062500 0.125000 0.500000
v 0.718750 0.000000 0.121114
v 0.718750 0.125000 0.121114
v 0.828125 0.000000 0.310557
v 0.828125 0.125000 0.310557
v 0.718750 0.125000 0.878886
v 0.718750 0.000000 0.878886
v 0.828125 0.000000 0.689443
v 0.828125 0.125000 0.689443
v 1.718750 0.125000 0.121114
v 1.718750 0.000000 0.121114
v 1.718750 0.125000 0.878886
v 1.718750 0.000000 0.878886
v 1.937500 0.000000 0.500000
v 1.937500 0.125000 0.500000
v 1.281250 0.000000 0.878886
v 1.281250 0.125000 0.878886
v 1.171875 0.000000 0.689443
v 1.171875 0.125000 0.689443
v 1.281250 0.125000 0.121114
v 1.281250 0.000000 0.121114
v 1.171875 0.000000 0.310557
v 1.171875 0.125000 0.310557
v 0.250000 0.125000 0.933013
v 0.250000 0.000000 0.933013
v 0.250000 0.125000 0.066987
v 0.250000 0.000000 0.066987
v 0.000000 0.000000 0.500000
v 0.000000 0.125000 0.500000
v 0.750000 0.000000 0.066987
v 0.750000 0.125000 0.066987
v 0.859375 0.000000 0.256430
v 0.859375 0.125000 0.256430
v 0.750000 0.125000 0.933013
v 0.750000 0.000000 0.933013
v 0.859375 0.000000 0.743570
v 0.859375 0.125000 0.743570
v 1.750000 0.125000 0.066987
v 1.750000 0.000000 0.066987
v 1.750000 0.125000 0.933013
v 1.750000 0.000000 0.933013
v 2.000000 0.000000 0.500000
v 2.000000 0.125000 0.500000
v 1.250000 0.000000 0.933013
v 1.250000 0.125000 0.933013
v 1.140625 0.000000 0.743570
v 1.140625 0.125000 0.743570
v 1.250000 0.125000 0.066987
v 1.250000 0.000000 0.066987
v 1.140625 0.000000 0.256430
v 1.140625 0.125000 0.256430
v 1.562500 1.500000 0.608253
v 1.406250 1.375000 0.662380
v 1.593750 1.375000 0.662380
v 1.687500 1.375000 0.500000
v 1.593750 1.375000 0.337620
v 1.312500 1.375000 0.500000
v 1.406250 1.375000 0.337620
v 1.625000 1.500000 0.716506
v 1.375000 1.500000 0.716506
v 1.250000 1.500000 0.500000
v 1.375000 1.500000 0.283494
v 1.625000 1.500000 0.283494
v 1.750000 1.500000 0.500000
v 1.625000 1.375000 0.716506
v 1.625000 1.375000 0.283494
v 1.375000 1.375000 0.716506
v 1.750000 1.375000 0.500000
v 1.250000 1.375000 0.500000
v 1.375000 1.375000 0.283494
v 0.875000 1.000000 0.500000
v 0.687500 1.000000 0.824760
v 0.312500 1.000000 0.824759
v 0.125000 1.000000 0.500000
v 0.312500 1.000000 0.175240
v 0.687500 1.000000 0.175240
v 0.687500 0.500000 0.500000
v 0.593750 0.500000 0.662380
v 0.406250 0.500000 0.662380
v 0.312500 0.500000 0.500000
v 0.406250 0.500000 0.337620
v 0.593750 0.500000 0.337620
v 1.437500 1.500000 0.608253
v 1.375000 1.500000 0.500000
v 1.437500 1.500000 0.391747
v 1.562500 1.500000 0.391747
v 1.625000 1.500000 0.500000
v 1.500000 1.250000 0.500000
v 1.718750 0.750000 0.878886
v 1.281250 0.750000 0.878886
v 1.718750 0.125000 0.878886
v 1.281250 0.125000 0.878886
v 1.656250 0.687500 0.500000
v 1.343750 0.687500 0.500000
v 1.656250 0.187500 0.500000
v 1.343750 0.187500 0.500000
vt 0.475166 0.585625
vt 0.477398 0.633135
vt 0.295063 0.563853
vt 0.297652 0.513419
vt 0.091092 0.608337
vt 0.098823 0.559843
vt 0.106307 0.702227
vt 0.112647 0.658207
vt 0.270890 0.748381
vt 0.273332 0.706765
vt 0.440100 0.720923
vt 0.438976 0.677761
vt 0.420252 0.629918
vt 0.402250 0.623263
vt 0.433527 0.590347
vt 0.380985 0.264344
vt 0.444500 0.375907
vt 0.536558 0.351605
vt 0.482702 0.233563
vt 0.276844 0.657209
vt 0.278050 0.647273
vt 0.376382 0.515157
vt 0.424327 0.550848
vt 0.296212 0.497728
vt 0.377752 0.315885
vt 0.308668 0.279140
vt 0.308668 0.279140
vt 0.377752 0.315885
vt 0.402554 0.665135
vt 0.275683 0.688071
vt 0.148294 0.576993
vt 0.293758 0.544380
vt 0.138685 0.611855
vt 0.158925 0.607532
vt 0.153697 0.649988
vt 0.287296 0.478076
vt 0.417169 0.446233
vt 0.163561 0.425749
vt 0.159195 0.324700
vt 0.130479 0.522795
vt 0.298119 0.482034
vt 0.428915 0.400756
vt 0.545086 0.370804
vt 0.545086 0.370804
vt 0.428915 0.400756
vt 0.154242 0.531580
vt 0.425212 0.595626
vt 0.542577 0.422595
vt 0.564172 0.433836
vt 0.518697 0.482791
vt 0.759816 0.369774
vt 0.747357 0.390157
vt 0.563669 0.564151
vt 0.523192 0.529733
vt 0.632013 0.578844
vt 0.503516 0.279743
vt 0.503516 0.279743
vt 0.643898 0.668501
vt 0.530239 0.623297
vt 0.625323 0.713595
vt 0.685182 0.735428
vt 0.888859 0.451635
vt 0.858012 0.458223
vt 0.805947 0.641330
vt 0.885098 0.557228
vt 0.785684 0.549136
vt 0.686983 0.183761
vt 0.722150 0.353629
vt 0.749071 0.457717
vt 0.714897 0.295108
vt 0.828389 0.245037
vt 0.711156 0.156462
vt 0.757240 0.362852
vt 0.801492 0.557364
vt 0.600343 0.401321
vt 0.624560 0.591036
vt 0.769850 0.493461
vt 0.774876 0.722216
vt 0.574601 0.534298
vt 0.813666 0.684232
vt 0.753454 0.658063
vt 0.654439 0.674452
vt 0.523429 0.213681
vt 0.792464 0.772239
vt 0.876346 0.802970
vt 0.805547 0.811623
vt 0.763549 0.797266
vt 0.523429 0.213681
vt 0.711156 0.156462
vt 0.287296 0.478076
vt 0.417169 0.446233
vt 0.433142 0.453758
vt 0.286088 0.489315
vt 0.163561 0.425749
vt 0.145416 0.430682
vt 0.484922 0.268735
vt 0.503828 0.201176
vt 0.159195 0.324700
vt 0.137909 0.314672
vt 0.310605 0.261107
vt 0.380811 0.299151
vt 0.600343 0.401321
vt 0.757240 0.362852
vt 0.828389 0.245037
vt 0.150136 0.397913
vt 0.143421 0.280099
vt 0.432299 0.421370
vt 0.287945 0.457669
vt 0.312414 0.225883
vt 0.445637 0.409111
vt 0.771494 0.371946
vt 0.855490 0.237670
vt 0.844392 0.202128
vt 0.763536 0.338077
vt 0.721470 0.133671
vt 0.501000 0.165380
vt 0.712799 0.097431
vt 0.594240 0.414805
vt 0.590166 0.381673
vt 0.539650 0.385224
vt 0.826727 0.743894
vt 0.785972 0.779084
vt 0.804636 0.785802
vt 0.861222 0.739081
vt 0.693491 0.791255
vt 0.683278 0.801476
vt 0.691590 0.859551
vt 0.608081 0.835760
vt 0.671549 0.828002
vt 0.713441 0.840637
vt 0.648322 0.791440
vt 0.694124 0.806117
vt 0.632221 0.771031
vt 0.662734 0.734729
vt 0.640100 0.726583
vt 0.601739 0.775284
vt 0.765161 0.719527
vt 0.779183 0.705494
vt 0.816775 0.845421
vt 0.778147 0.833043
vt 0.273213 0.730654
vt 0.402873 0.708913
vt 0.142037 0.624771
vt 0.148226 0.694422
vt 0.426143 0.642678
vt 0.291169 0.593580
vt 0.355375 0.483534
vt 0.295471 0.457449
vt 0.228538 0.513780
vt 0.286409 0.536491
vt 0.229981 0.473883
vt 0.347841 0.522537
vt 0.717072 0.699291
vt 0.569446 0.391813
vt 0.551092 0.224434
vt 0.611741 0.487932
vt 0.591301 0.328054
vn 0.8660 0.0000 0.5000
vn 0.0000 0.0000 1.0000
vn -0.8660 0.0000 0.5000
vn -0.8660 0.0000 -0.5000
vn 0.0000 0.0000 -1.0000
vn 0.0000 1.0000 0.0000
vn 0.0000 -1.0000 0.0000
vn 0.8660 0.0000 -0.5000
vn -0.7263 0.5447 -0.4193
vn -1.0000 0.0000 0.0000
vn 0.0000 0.5447 -0.8386
vn 0.7263 0.5447 0.4193
vn 0.0000 0.5447 0.8386
vn -0.7263 0.5447 0.4193
vn 0.7263 0.5447 -0.4193
vn -0.8237 0.3089 -0.4756
vn 0.8237 0.3089 0.4756
vn 0.0000 0.3089 -0.9511
vn -0.8237 0.3089 0.4756
vn 0.0000 0.3089 0.9511
vn 0.8237 0.3089 -0.4756
vn 0.0000 0.3974 0.9177
vn -0.7947 0.3974 -0.4588
vn -0.7947 0.3974 0.4588
vn 0.7947 0.3974 0.4588
vn 0.7947 0.3974 -0.4588
vn 0.0000 0.3974 -0.9177
vn 1.0000 0.0000 0.0000
usemtl None
s off
f 7/1/1 1/2/1 2/3/1 8/4/1
f 8/4/2 2/3/2 3/5/2 9/6/2
f 9/6/3 3/5/3 4/7/3 10/8/3
f 10/8/4 4/7/4 5/9/4 11/10/4
f 11/10/5 5/9/5 6/11/5 12/12/5
f 19/13/6 38/14/6 44/15/6
f 125/16/7 121/17/7 139/18/7 135/19/7
f 20/20/6 36/21/6 38/14/6 19/13/6
f 42/22/6 39/23/6 30/24/6
f 43/25/2 24/26/2 95/27/2 98/28/2
f 11/10/7 12/12/7 37/29/7 35/30/7
f 8/4/7 9/6/7 31/31/7 29/32/7
f 21/33/6 34/34/6 36/21/6 20/20/6
f 9/6/7 10/8/7 33/35/7 31/31/7
f 27/36/5 20/20/5 19/13/5 28/37/5
f 26/38/4 21/33/4 20/20/4 27/36/4
f 25/39/3 22/40/3 21/33/3 26/38/3
f 24/26/2 23/41/2 22/40/2 25/39/2
f 43/25/1 42/22/1 23/41/1 24/26/1
f 45/42/2 82/43/2 112/44/2 94/45/2
f 36/21/5 35/30/5 37/29/5 38/14/5
f 34/34/4 33/35/4 35/30/4 36/21/4
f 32/46/3 31/31/3 33/35/3 34/34/3
f 30/24/2 29/32/2 31/31/2 32/46/2
f 39/23/1 40/47/1 29/32/1 30/24/1
f 7/1/7 8/4/7 29/32/7 40/47/7
f 22/40/6 32/46/6 34/34/6 21/33/6
f 10/8/7 11/10/7 35/30/7 33/35/7
f 23/41/6 30/24/6 32/46/6 22/40/6
f 23/41/6 42/22/6 30/24/6
f 38/14/6 39/23/6 44/15/6
f 28/37/8 19/13/8 44/15/8 45/42/8
f 12/12/7 7/1/7 40/47/7 37/29/7
f 12/12/8 6/11/8 1/2/8 7/1/8
f 38/14/8 37/29/8 40/47/8 39/23/8
f 179/48/6 77/49/6 83/50/6
f 178/51/6 75/52/6 77/49/6 179/48/6
f 81/53/6 78/54/6 69/55/6
f 84/56/2 43/25/2 98/28/2 108/57/2
f 51/58/9 46/59/9 79/60/9 68/61/9
f 60/62/6 73/63/6 75/52/6 178/51/6
f 50/64/8 49/65/8 73/63/8 71/66/8
f 66/67/10 59/68/10 182/69/10 184/70/10
f 65/71/1 60/62/1 178/51/1 180/72/1
f 64/73/8 61/74/8 60/62/8 65/71/8
f 63/75/5 62/76/5 61/74/5 64/73/5
f 82/43/4 81/53/4 62/76/4 63/75/4
f 73/63/1 49/65/1 48/77/1 75/52/1
f 50/64/11 51/58/11 68/61/11 70/78/11
f 51/58/5 50/64/5 71/66/5 69/55/5
f 77/49/3 47/79/3 46/59/3 78/54/3
f 48/77/12 49/65/12 72/80/12 74/81/12
f 47/79/13 48/77/13 74/81/13 76/82/13
f 61/74/6 71/66/6 73/63/6 60/62/6
f 78/54/4 46/59/4 51/58/4 69/55/4
f 62/76/6 69/55/6 71/66/6 61/74/6
f 62/76/6 81/53/6 69/55/6
f 77/49/6 78/54/6 83/50/6
f 181/83/3 179/48/3 83/50/3 84/56/3
f 148/84/6 153/85/6 176/86/6 141/87/6
f 46/59/14 47/79/14 76/82/14 79/60/14
f 49/65/15 50/64/15 70/78/15 72/80/15
f 181/83/2 84/56/2 108/57/2 106/88/2
f 43/25/2 84/56/2 83/50/2 42/22/2
f 42/22/6 83/50/6 78/54/6 39/23/6
f 39/23/6 78/54/6 81/53/6 44/15/6
f 44/15/5 81/53/5 82/43/5 45/42/5
f 180/72/2 181/83/2 106/88/2 101/89/2
f 87/90/6 92/91/6 120/92/6 115/93/6
f 90/94/6 87/90/6 115/93/6 118/95/6
f 106/88/6 108/57/6 136/96/6 134/97/6
f 85/98/6 90/94/6 118/95/6 113/99/6
f 95/27/6 85/98/6 113/99/6 123/100/6
f 98/28/6 95/27/6 123/100/6 126/101/6
f 24/26/2 25/39/2 85/98/2 95/27/2
f 25/39/2 26/38/2 90/94/2 85/98/2
f 82/43/2 63/75/2 109/102/2 112/44/2
f 26/38/2 27/36/2 87/90/2 90/94/2
f 63/75/2 64/73/2 99/103/2 109/102/2
f 27/36/2 28/37/2 92/91/2 87/90/2
f 28/37/2 45/42/2 94/45/2 92/91/2
f 64/73/2 65/71/2 104/104/2 99/103/2
f 65/71/2 180/72/2 101/89/2 104/104/2
f 113/99/3 118/95/3 117/105/3 114/106/3
f 115/93/5 120/92/5 119/107/5 116/108/5
f 123/100/2 113/99/2 114/106/2 124/109/2
f 118/95/4 115/93/4 116/108/4 117/105/4
f 120/92/8 122/110/8 121/17/8 119/107/8
f 126/101/1 123/100/1 124/109/1 125/16/1
f 127/111/8 132/112/8 131/113/8 128/114/8
f 129/115/2 134/97/2 133/116/2 130/117/2
f 137/118/5 127/111/5 128/114/5 138/119/5
f 132/112/1 129/115/1 130/117/1 131/113/1
f 134/97/3 136/96/3 135/19/3 133/116/3
f 140/120/4 137/118/4 138/119/4 139/18/4
f 125/16/2 135/19/2 136/96/2 126/101/2
f 122/110/5 140/120/5 139/18/5 121/17/5
f 108/57/6 98/28/6 126/101/6 136/96/6
f 112/44/6 109/102/6 137/118/6 140/120/6
f 94/45/6 112/44/6 140/120/6 122/110/6
f 109/102/6 99/103/6 127/111/6 137/118/6
f 99/103/6 104/104/6 132/112/6 127/111/6
f 104/104/6 101/89/6 129/115/6 132/112/6
f 101/89/6 106/88/6 134/97/6 129/115/6
f 92/91/6 94/45/6 122/110/6 120/92/6
f 48/77/2 47/79/2 77/49/2 75/52/2
f 144/121/7 145/122/7 155/123/7 157/124/7
f 145/122/7 147/125/7 159/126/7 155/123/7
f 151/127/6 150/128/6 173/129/6 174/130/6
f 150/128/6 149/131/6 172/132/6 173/129/6
f 146/133/7 142/134/7 156/135/7 158/136/7
f 70/78/5 68/61/5 147/125/5 145/122/5
f 74/81/1 72/80/1 144/121/1 143/137/1
f 68/61/4 79/60/4 146/133/4 147/125/4
f 79/60/3 76/82/3 142/134/3 146/133/3
f 72/80/8 70/78/8 145/122/8 144/121/8
f 76/82/2 74/81/2 143/137/2 142/134/2
f 156/135/2 154/138/2 148/84/2 149/131/2
f 157/124/8 155/123/8 152/139/8 153/85/8
f 158/136/3 156/135/3 149/131/3 150/128/3
f 159/126/4 158/136/4 150/128/4 151/127/4
f 154/138/1 157/124/1 153/85/1 148/84/1
f 155/123/5 159/126/5 151/127/5 152/139/5
f 153/85/6 152/139/6 175/140/6 176/86/6
f 143/137/7 144/121/7 157/124/7 154/138/7
f 142/134/7 143/137/7 154/138/7 156/135/7
f 149/131/6 148/84/6 141/87/6 172/132/6
f 147/125/7 146/133/7 158/136/7 159/126/7
f 152/139/6 151/127/6 174/130/6 175/140/6
f 121/17/7 125/16/7 124/109/7 119/107/7
f 119/107/7 124/109/7 114/106/7 116/108/7
f 117/105/7 116/108/7 114/106/7
f 135/19/7 139/18/7 138/119/7 133/116/7
f 133/116/7 138/119/7 128/114/7 130/117/7
f 131/113/7 130/117/7 128/114/7
f 6/11/6 5/9/6 164/141/6 165/142/6
f 4/7/6 3/5/6 162/143/6 163/144/6
f 2/3/6 1/2/6 160/145/6 161/146/6
f 1/2/6 6/11/6 165/142/6 160/145/6
f 5/9/6 4/7/6 163/144/6 164/141/6
f 3/5/6 2/3/6 161/146/6 162/143/6
f 161/146/16 160/145/16 166/147/16 167/148/16
f 164/141/17 163/144/17 169/149/17 170/150/17
f 162/143/18 161/146/18 167/148/18 168/151/18
f 160/145/19 165/142/19 171/152/19 166/147/19
f 165/142/20 164/141/20 170/150/20 171/152/20
f 163/144/21 162/143/21 168/151/21 169/149/21
f 169/149/6 166/147/6 171/152/6 170/150/6
f 175/140/22 174/130/22 177/153/22
f 141/87/23 176/86/23 177/153/23
f 176/86/24 175/140/24 177/153/24
f 174/130/25 173/129/25 177/153/25
f 173/129/26 172/132/26 177/153/26
f 172/132/27 141/87/27 177/153/27
f 58/154/2 59/68/2 178/51/2 179/48/2
f 59/68/2 66/67/2 180/72/2 178/51/2
f 67/155/2 58/154/2 179/48/2 181/83/2
f 66/67/2 67/155/2 181/83/2 180/72/2
f 184/70/2 182/69/2 183/156/2 185/157/2
f 58/154/28 67/155/28 185/157/28 183/156/28
f 59/68/7 58/154/7 183/156/7 182/69/7
f 67/155/6 66/67/6 184/70/6 185/157/6
f 168/151/6 167/148/6 166/147/6 169/149/6
l 110 80
l 53 111
l 17 89
l 96 41
l 55 102
l 97 14
l 107 52
l 54 105
l 91 15
l 16 88
l 18 86
l 13 93
l 56 103
l 57 100
