# 3ds Max Wavefront OBJ Exporter v0.97b - (c)2007 guruware
# File Created: 14.10.2018 03:04:40

mtllib radiant_lantern.mtl

#
# object CornerPillars
#

v  0.3999 0.0923 0.5844
v  0.5844 0.0923 0.5844
v  0.5844 0.0923 0.3999
v  0.3999 0.0923 0.3999
v  0.3383 0.0000 0.6459
v  0.6459 0.0000 0.6459
v  0.3999 -0.0923 0.5844
v  0.5844 -0.0923 0.5844
v  0.6459 0.0000 0.3383
v  0.5844 -0.0923 0.3999
v  0.3383 0.0000 0.3383
v  0.3999 -0.0923 0.3999
# 12 vertices

vn 0.0000 1.0000 -0.0000
vn 0.0000 0.8000 0.6000
vn 0.0000 -0.8000 0.6000
vn 0.6000 0.8000 -0.0000
vn 0.6000 -0.8000 -0.0000
vn 0.0000 0.8000 -0.6000
vn 0.0000 -0.8000 -0.6000
vn -0.6000 0.8000 -0.0000
vn -0.6000 -0.8000 -0.0000
vn 0.0000 -1.0000 -0.0000
# 10 vertex normals

vt 0.3762 0.6261 0.0000
vt 0.4993 0.6261 0.0000
vt 0.4993 0.7495 0.0000
vt 0.3762 0.7495 0.0000
vt 0.4356 0.5589 0.0000
vt 0.2978 0.5589 0.0000
vt 0.2519 0.5026 0.0000
vt 0.4815 0.5026 0.0000
vt 0.4815 0.5592 0.0000
vt 0.2519 0.5592 0.0000
vt 0.2978 0.5029 0.0000
vt 0.4356 0.5029 0.0000
vt 0.4816 0.5026 0.0000
vt 0.2518 0.5026 0.0000
vt 0.2518 0.5592 0.0000
vt 0.4816 0.5592 0.0000
# 16 texture coords

g CornerPillars
usemtl mat_arcanearchives_master
f 1/1/1 2/2/1 3/3/1 4/4/1 
f 2/5/2 1/6/2 5/7/2 6/8/2 
f 6/9/3 5/10/3 7/11/3 8/12/3 
f 3/6/4 2/5/4 6/13/4 9/14/4 
f 9/15/5 6/16/5 8/12/5 10/11/5 
f 4/6/6 3/5/6 9/13/6 11/7/6 
f 11/10/7 9/16/7 10/12/7 12/11/7 
f 1/5/8 4/6/8 11/14/8 5/8/8 
f 5/9/9 11/15/9 12/11/9 7/12/9 
f 12/4/10 10/3/10 8/2/10 7/1/10 
# 10 polygons

#
# object CornerCrystal01
#

v  0.6722 0.5998 0.3881
v  0.5961 0.5463 0.3120
v  0.4921 0.5998 0.2841
v  0.4921 0.9024 0.4921
v  0.3881 0.5463 0.3120
v  0.3120 0.5998 0.3881
v  0.2841 0.5463 0.4921
v  0.3120 0.5998 0.5961
v  0.3881 0.5463 0.6722
v  0.4921 0.5998 0.7001
v  0.5961 0.5463 0.6722
v  0.6722 0.5998 0.5961
v  0.7001 0.5463 0.4921
v  0.4921 0.2437 0.4921
# 14 vertices

vn 0.4656 0.3644 -0.8065
vn -0.4656 0.3644 -0.8065
vn -0.9313 0.3644 -0.0000
vn -0.4656 0.3644 0.8065
vn 0.4656 0.3644 0.8065
vn 0.9313 0.3644 0.0000
vn -0.0000 -0.3644 -0.9313
vn -0.8065 -0.3644 -0.4656
vn -0.8065 -0.3644 0.4656
vn -0.0000 -0.3644 0.9313
vn 0.8065 -0.3644 0.4656
vn 0.8065 -0.3644 -0.4656
# 12 vertex normals

vt 0.5000 0.7865 0.0000
vt 0.5625 0.7500 0.0000
vt 0.6250 0.7865 0.0000
vt 0.5625 1.0000 0.0000
vt 0.5000 0.7864 0.0000
vt 0.6250 0.7864 0.0000
# 6 texture coords

g CornerCrystal01
usemtl mat_arcanearchives_matrixcore_crystal
f 13/17/11 14/18/11 15/19/11 16/20/11 
f 15/17/12 17/18/12 18/19/12 16/20/12 
f 18/21/13 19/18/13 20/22/13 16/20/13 
f 20/17/14 21/18/14 22/19/14 16/20/14 
f 22/17/15 23/18/15 24/19/15 16/20/15 
f 24/17/16 25/18/16 13/19/16 16/20/16 
f 14/17/17 26/20/17 17/19/17 15/18/17 
f 17/17/18 26/20/18 19/19/18 18/18/18 
f 19/17/19 26/20/19 21/19/19 20/18/19 
f 21/17/20 26/20/20 23/19/20 22/18/20 
f 25/19/21 24/18/21 23/17/21 26/20/21 
f 25/17/22 26/20/22 14/19/22 13/18/22 
# 12 polygons

