# Blender v2.79 (sub 0) OBJ File: ''
# www.blender.org
mtllib radiant_trove.mtl
o Reader
v 0.842280 0.565900 0.499980
v 0.671180 0.565900 0.203580
v 0.671180 0.861200 0.203580
v 0.842280 0.861200 0.499980
v 0.328880 0.565900 0.203580
v 0.328880 0.861200 0.203580
v 0.157680 0.565900 0.499980
v 0.157680 0.861200 0.499980
v 0.328880 0.565900 0.796480
v 0.328880 0.861200 0.796480
v 0.671180 0.565900 0.796480
v 0.671180 0.861200 0.796480
v 0.791280 0.565900 0.499980
v 0.645580 0.565900 0.247780
v 0.645580 0.861200 0.247780
v 0.791280 0.861200 0.499980
v 0.354380 0.565900 0.247780
v 0.354380 0.861200 0.247780
v 0.208780 0.565900 0.499980
v 0.208780 0.861200 0.499980
v 0.354380 0.565900 0.752180
v 0.354380 0.861200 0.752180
v 0.645580 0.565900 0.752180
v 0.645580 0.861200 0.752180
vt 0.374600 0.391100
vt 0.251400 0.391100
vt 0.251400 0.498600
vt 0.374600 0.498600
vt 0.374600 0.391100
vt 0.251400 0.391100
vt 0.251400 0.498600
vt 0.374600 0.498600
vt 0.374600 0.391100
vt 0.251400 0.391100
vt 0.251400 0.498600
vt 0.374600 0.498600
vt 0.374600 0.391100
vt 0.251400 0.391100
vt 0.251400 0.498600
vt 0.374600 0.498600
vt 0.374600 0.391100
vt 0.251400 0.391100
vt 0.251400 0.498600
vt 0.374600 0.498600
vt 0.116600 0.248000
vt 0.402700 0.248600
vt 0.381500 0.191400
vt 0.137800 0.190800
vt 0.402700 0.248600
vt 0.116600 0.248000
vt 0.137800 0.190800
vt 0.381500 0.191400
vt 0.116600 0.248000
vt 0.402700 0.248600
vt 0.381500 0.191400
vt 0.137800 0.190800
vt 0.402700 0.248600
vt 0.116600 0.248000
vt 0.137800 0.190800
vt 0.381500 0.191400
vt 0.116600 0.248000
vt 0.402700 0.248600
vt 0.381500 0.191400
vt 0.137800 0.190800
vt 0.402700 0.248600
vt 0.116600 0.248000
vt 0.137800 0.190800
vt 0.381500 0.191400
vt 0.116600 0.248000
vt 0.402700 0.248600
vt 0.381500 0.191400
vt 0.137800 0.190800
vt 0.402700 0.248600
vt 0.116600 0.248000
vt 0.137800 0.190800
vt 0.381500 0.191400
vt 0.116600 0.248000
vt 0.402700 0.248600
vt 0.381500 0.191400
vt 0.137800 0.190800
vt 0.402700 0.248600
vt 0.116600 0.248000
vt 0.137800 0.190800
vt 0.381500 0.191400
vt 0.260600 0.391100
vt 0.365400 0.391100
vt 0.365400 0.498600
vt 0.260600 0.498600
vt 0.260600 0.391100
vt 0.365400 0.391100
vt 0.365400 0.498600
vt 0.260600 0.498600
vt 0.260600 0.391100
vt 0.365400 0.391100
vt 0.365400 0.498600
vt 0.260600 0.498600
vt 0.260600 0.391100
vt 0.365400 0.391100
vt 0.365400 0.498600
vt 0.260600 0.498600
vt 0.260600 0.391100
vt 0.365400 0.391100
vt 0.365400 0.498600
vt 0.260600 0.498600
vt 0.251400 0.391200
vt 0.251400 0.498400
vt 0.261700 0.498400
vt 0.261700 0.391200
vt 0.251400 0.498400
vt 0.251400 0.391200
vt 0.261700 0.391200
vt 0.261700 0.498400
vn 0.8661 0.0000 -0.4999
vn 0.0000 0.0000 -1.0000
vn -0.8659 0.0000 -0.5002
vn -0.8660 -0.0000 0.5000
vn 0.8661 0.0000 0.4998
vn 0.0000 -1.0000 -0.0000
vn -0.0000 1.0000 0.0000
vn 0.8660 0.0000 -0.5000
vn 0.8660 0.0000 0.5000
vn 0.0000 -0.0000 1.0000
vn -0.8659 -0.0000 0.5002
vn -0.8658 0.0000 0.5003
usemtl mat_ArcaneArchives_Master
f 1/1/1 2/2/1 3/3/1 4/4/1
f 2/5/2 5/6/2 6/7/2 3/8/2
f 5/9/3 7/10/3 8/11/3 6/12/3
f 7/13/4 9/14/4 10/15/4 8/16/4
f 11/17/5 1/18/5 4/19/5 12/20/5
f 2/21/6 1/22/6 13/23/6 14/24/6
f 4/25/7 3/26/7 15/27/7 16/28/7
f 5/29/6 2/30/6 14/31/6 17/32/6
f 3/33/7 6/34/7 18/35/7 15/36/7
f 7/37/6 5/38/6 17/39/6 19/40/6
f 6/41/7 8/42/7 20/43/7 18/44/7
f 9/45/6 7/46/6 19/47/6 21/48/6
f 8/49/7 10/50/7 22/51/7 20/52/7
f 1/53/6 11/54/6 23/55/6 13/56/6
f 12/57/7 4/58/7 16/59/7 24/60/7
f 21/61/8 19/62/8 20/63/8 22/64/8
f 19/65/9 17/66/9 18/67/9 20/68/9
f 17/69/10 14/70/10 15/71/10 18/72/10
f 14/73/11 13/74/11 16/75/11 15/76/11
f 13/77/3 23/78/3 24/79/3 16/80/3
f 21/81/9 22/82/9 10/83/9 9/84/9
f 24/85/12 23/86/12 11/87/12 12/88/12
o MainCrystal
v 0.499980 0.963100 0.523580
v 0.499980 0.887200 0.612880
v 0.575180 0.843800 0.612880
v 0.624780 0.929600 0.476480
v 0.283980 0.838300 0.523680
v 0.349680 0.800400 0.612880
v 0.424780 0.843800 0.612880
v 0.375280 0.929600 0.476480
v 0.283980 0.588800 0.523680
v 0.349680 0.626800 0.612880
v 0.349680 0.713600 0.612880
v 0.250480 0.713600 0.476480
v 0.499980 0.464100 0.523680
v 0.499980 0.540000 0.612880
v 0.424780 0.583400 0.612880
v 0.375280 0.497500 0.476480
v 0.716080 0.588800 0.523680
v 0.650380 0.626800 0.612880
v 0.575180 0.583400 0.612880
v 0.624780 0.497500 0.476480
v 0.716080 0.838300 0.523680
v 0.650380 0.800400 0.612880
v 0.650380 0.713600 0.612880
v 0.749480 0.713600 0.476480
v 0.499980 0.713600 0.612880
v 0.630180 0.788800 0.387280
v 0.586780 0.863900 0.387280
v 0.499980 0.863900 0.387180
v 0.413180 0.863900 0.387280
v 0.369780 0.788800 0.387280
v 0.326380 0.713600 0.387280
v 0.369780 0.638400 0.387280
v 0.413180 0.563200 0.387280
v 0.499980 0.563200 0.387280
v 0.586780 0.563200 0.387280
v 0.630180 0.638400 0.387280
v 0.673580 0.713600 0.387280
v 0.499980 0.713600 0.387280
vt 0.745400 0.832500
vt 0.705400 0.975200
vt 0.625400 0.975200
vt 0.625400 0.759400
vt 0.745400 0.832500
vt 0.705400 0.975200
vt 0.625400 0.975200
vt 0.625400 0.759400
vt 0.745400 0.832500
vt 0.705400 0.975200
vt 0.625400 0.975200
vt 0.625400 0.759400
vt 0.745400 0.832500
vt 0.705400 0.975200
vt 0.625400 0.975200
vt 0.625400 0.759400
vt 0.745400 0.832500
vt 0.705400 0.975200
vt 0.625400 0.975200
vt 0.625400 0.759400
vt 0.745400 0.832500
vt 0.705400 0.975200
vt 0.625400 0.975200
vt 0.625400 0.759400
vt 0.505400 0.832500
vt 0.545400 0.975200
vt 0.505400 0.832500
vt 0.545400 0.975200
vt 0.505400 0.832500
vt 0.545400 0.975200
vt 0.505400 0.832500
vt 0.545400 0.975200
vt 0.505400 0.832500
vt 0.545400 0.975200
vt 0.505400 0.832500
vt 0.545400 0.975200
vt 0.525600 0.935000
vt 0.575500 0.965100
vt 0.625400 0.874900
vt 0.525600 0.874900
vt 0.625400 0.995200
vt 0.675300 0.965100
vt 0.725200 0.935000
vt 0.725200 0.874900
vt 0.725200 0.814700
vt 0.675300 0.784600
vt 0.625400 0.754500
vt 0.575500 0.784600
vt 0.525600 0.814700
vt 0.745400 0.832500
vt 0.625400 0.759400
vt 0.625400 0.975200
vt 0.705400 0.975200
vt 0.745400 0.832500
vt 0.625400 0.759400
vt 0.625400 0.975200
vt 0.705400 0.975200
vt 0.745400 0.832500
vt 0.625400 0.759400
vt 0.625400 0.975200
vt 0.705400 0.975200
vt 0.745400 0.832500
vt 0.625400 0.759400
vt 0.625400 0.975200
vt 0.705400 0.975200
vt 0.745400 0.832500
vt 0.625400 0.759400
vt 0.625400 0.975200
vt 0.705400 0.975200
vt 0.745400 0.832500
vt 0.625400 0.759400
vt 0.625400 0.975200
vt 0.705400 0.975200
vt 0.505400 0.832500
vt 0.545400 0.975200
vt 0.505400 0.832500
vt 0.545400 0.975200
vt 0.505400 0.832500
vt 0.545400 0.975200
vt 0.505400 0.832500
vt 0.545400 0.975200
vt 0.505400 0.832500
vt 0.545400 0.975200
vt 0.505400 0.832500
vt 0.545400 0.975200
vt 0.510100 0.874900
vt 0.538900 0.822700
vt 0.625400 0.874900
vt 0.538900 0.927000
vt 0.567800 0.979100
vt 0.625400 0.979100
vt 0.683000 0.979100
vt 0.711800 0.927000
vt 0.740600 0.874900
vt 0.711800 0.822700
vt 0.683000 0.770600
vt 0.625400 0.770600
vt 0.567800 0.770600
vn 0.4071 0.6978 0.5894
vn 0.4013 0.6988 0.5922
vn -0.4003 0.7015 0.5896
vn -0.4009 0.6995 0.5916
vn -0.8077 0.0043 0.5895
vn -0.8100 0.0000 0.5864
vn -0.4072 -0.6975 0.5896
vn -0.4038 -0.6994 0.5897
vn 0.4003 -0.7014 0.5898
vn 0.4070 -0.6995 0.5874
vn 0.4070 -0.6995 0.5875
vn 0.8076 -0.0042 0.5897
vn 0.8054 0.0000 0.5928
vn -0.8077 -0.0041 0.5896
vn -0.4069 0.6978 0.5895
vn 0.4075 -0.6974 0.5896
vn 0.8076 0.0042 0.5898
vn 0.4005 0.7016 0.5894
vn -0.4005 -0.7014 0.5897
vn 0.0000 0.0000 1.0000
vn 0.7016 0.4002 -0.5896
vn 0.6994 0.4038 -0.5897
vn 0.0031 0.8076 -0.5898
vn 0.0000 0.8076 -0.5898
vn -0.6973 0.4073 -0.5898
vn -0.6987 0.4013 -0.5922
vn -0.6987 0.4013 -0.5923
vn -0.7016 -0.4005 -0.5894
vn -0.6975 -0.4027 -0.5927
vn -0.6975 -0.4026 -0.5928
vn -0.0042 -0.8076 -0.5898
vn -0.0000 -0.8054 -0.5928
vn 0.6974 -0.4075 -0.5896
vn 0.6995 -0.4070 -0.5874
vn -0.7015 0.4007 -0.5893
vn -0.0031 0.8076 -0.5898
vn 0.0042 -0.8076 -0.5898
vn 0.7014 -0.4003 -0.5898
vn 0.6975 0.4072 -0.5896
vn -0.6975 -0.4073 -0.5895
vn 0.0000 0.0000 -1.0000
vn 0.0000 -0.0001 -1.0000
vn 0.0003 -0.0002 -1.0000
vn 0.0006 -0.0003 -1.0000
vn 0.0000 -0.0011 -1.0000
vn -0.0006 -0.0003 -1.0000
vn -0.0003 -0.0002 -1.0000
usemtl mat_ArcaneArchives_Master
f 25/89/13 26/90/13 27/91/14 28/92/14
f 29/93/15 30/94/15 31/95/16 32/96/16
f 33/97/17 34/98/17 35/99/18 36/100/18
f 37/101/19 38/102/19 39/103/20 40/104/20
f 41/105/21 42/106/21 43/107/22 44/108/23
f 45/109/24 46/110/24 47/111/25 48/112/25
f 29/113/26 36/100/18 35/99/18 30/114/26
f 25/115/27 32/96/16 31/95/16 26/116/27
f 37/117/28 44/108/23 43/107/22 38/118/28
f 41/119/29 48/112/25 47/111/25 42/120/29
f 45/121/30 28/92/14 27/91/14 46/122/30
f 33/123/31 40/104/20 39/103/20 34/124/31
f 46/125/32 27/126/32 49/127/32 47/128/32
f 26/129/32 31/130/32 49/127/32 27/126/32
f 30/131/32 35/132/32 49/127/32 31/130/32
f 34/133/32 39/134/32 49/127/32 35/132/32
f 38/135/32 43/136/32 49/127/32 39/134/32
f 42/137/32 47/128/32 49/127/32 43/136/32
f 28/138/33 45/139/34 50/140/34 51/141/33
f 32/142/35 25/143/36 52/144/36 53/145/35
f 36/146/37 29/147/38 54/148/39 55/149/37
f 40/150/40 33/151/41 56/152/42 57/153/40
f 44/154/43 37/155/44 58/156/44 59/157/43
f 48/158/45 41/159/46 60/160/46 61/161/45
f 32/162/47 53/163/47 54/148/39 29/147/38
f 28/164/48 51/165/48 52/144/36 25/143/36
f 40/166/49 57/167/49 58/156/44 37/155/44
f 44/168/50 59/169/50 60/160/46 41/159/46
f 48/170/51 61/171/51 50/140/34 45/139/34
f 36/172/52 55/173/52 56/152/42 33/151/41
f 61/174/53 60/175/53 62/176/54 50/177/55
f 51/178/56 50/177/55 62/176/54 52/179/57
f 53/180/58 52/179/57 62/176/54 54/181/59
f 55/182/53 54/181/59 62/176/54 56/183/53
f 57/184/53 56/183/53 62/176/54 58/185/53
f 59/186/53 58/185/53 62/176/54 60/175/53
o Base
v 0.106280 -0.000000 0.893680
v 0.106280 -0.000000 0.106280
v 0.893680 -0.000000 0.106280
v 0.893680 -0.000000 0.893680
v 0.893680 0.098400 0.893680
v 0.106280 0.098400 0.893680
v 0.893680 0.098400 0.106280
v 0.106280 0.098400 0.106280
v 0.844480 0.098400 0.844480
v 0.155480 0.098400 0.844480
v 0.844480 0.098400 0.155480
v 0.155480 0.098400 0.155480
v 0.844480 0.246100 0.844480
v 0.155480 0.246100 0.844480
v 0.844480 0.246100 0.155480
v 0.155480 0.246100 0.155480
v 0.746080 0.246100 0.746080
v 0.253980 0.246100 0.746080
v 0.746080 0.246100 0.253980
v 0.253980 0.246100 0.253980
v 0.598480 0.393700 0.598480
v 0.401580 0.393700 0.598480
v 0.598480 0.393700 0.401580
v 0.401580 0.393700 0.401580
vt 0.249300 0.251200
vt 0.249300 0.498800
vt 0.001300 0.498800
vt 0.001300 0.251200
vt 0.001300 0.001800
vt 0.498700 0.001800
vt 0.498700 0.061900
vt 0.001300 0.061900
vt 0.001300 0.001800
vt 0.498700 0.001800
vt 0.498700 0.061900
vt 0.001300 0.061900
vt 0.001300 0.001800
vt 0.498700 0.001800
vt 0.498700 0.061900
vt 0.001300 0.061900
vt 0.001300 0.001800
vt 0.498700 0.001800
vt 0.498700 0.061900
vt 0.001300 0.061900
vt 0.001200 0.001600
vt 0.498700 0.001600
vt 0.467600 0.031500
vt 0.032300 0.031500
vt 0.001200 0.001600
vt 0.498700 0.001600
vt 0.467600 0.031500
vt 0.032300 0.031500
vt 0.001200 0.001600
vt 0.498700 0.001600
vt 0.467600 0.031500
vt 0.032300 0.031500
vt 0.001200 0.001600
vt 0.498700 0.001600
vt 0.467600 0.031500
vt 0.032300 0.031500
vt 0.001000 0.063900
vt 0.498800 0.063900
vt 0.498800 0.185900
vt 0.001000 0.185900
vt 0.001000 0.063900
vt 0.498800 0.063900
vt 0.498800 0.185900
vt 0.001000 0.185900
vt 0.001000 0.063900
vt 0.498800 0.063900
vt 0.498800 0.185900
vt 0.001000 0.185900
vt 0.001000 0.063900
vt 0.498800 0.063900
vt 0.498800 0.185900
vt 0.001000 0.185900
vt 0.032300 0.001900
vt 0.467600 0.001900
vt 0.405400 0.061800
vt 0.094500 0.061800
vt 0.032300 0.001900
vt 0.467600 0.001900
vt 0.405400 0.061800
vt 0.094500 0.061800
vt 0.032300 0.001900
vt 0.467600 0.001900
vt 0.405400 0.061800
vt 0.094500 0.061800
vt 0.032300 0.001900
vt 0.467600 0.001900
vt 0.405400 0.061800
vt 0.094500 0.061800
vt 0.000800 0.063900
vt 0.498800 0.063900
vt 0.349400 0.185900
vt 0.150200 0.185900
vt 0.000800 0.063900
vt 0.498800 0.063900
vt 0.349400 0.185900
vt 0.150200 0.185900
vt 0.000800 0.063900
vt 0.498800 0.063900
vt 0.349400 0.185900
vt 0.150200 0.185900
vt 0.000800 0.063900
vt 0.498800 0.063900
vt 0.349400 0.185900
vt 0.150200 0.185900
vt 0.498000 0.748100
vt 0.378200 0.748100
vt 0.378200 0.627300
vt 0.498000 0.627300
vn 0.0000 -1.0000 -0.0000
vn 0.0000 0.0000 1.0000
vn 1.0000 0.0000 0.0000
vn 0.0000 0.0000 -1.0000
vn -1.0000 0.0000 0.0000
vn -0.0000 1.0000 0.0000
vn 0.0000 0.7071 0.7071
vn 0.7071 0.7071 0.0000
vn 0.0000 0.7071 -0.7071
vn -0.7071 0.7071 0.0000
usemtl mat_ArcaneArchives_Master
f 63/187/60 64/188/60 65/189/60 66/190/60
f 63/191/61 66/192/61 67/193/61 68/194/61
f 66/195/62 65/196/62 69/197/62 67/198/62
f 65/199/63 64/200/63 70/201/63 69/202/63
f 64/203/64 63/204/64 68/205/64 70/206/64
f 68/207/65 67/208/65 71/209/65 72/210/65
f 67/211/65 69/212/65 73/213/65 71/214/65
f 69/215/65 70/216/65 74/217/65 73/218/65
f 70/219/65 68/220/65 72/221/65 74/222/65
f 72/223/61 71/224/61 75/225/61 76/226/61
f 71/227/62 73/228/62 77/229/62 75/230/62
f 73/231/63 74/232/63 78/233/63 77/234/63
f 74/235/64 72/236/64 76/237/64 78/238/64
f 76/239/65 75/240/65 79/241/65 80/242/65
f 75/243/65 77/244/65 81/245/65 79/246/65
f 77/247/65 78/248/65 82/249/65 81/250/65
f 78/251/65 76/252/65 80/253/65 82/254/65
f 80/255/66 79/256/66 83/257/66 84/258/66
f 79/259/67 81/260/67 85/261/67 83/262/67
f 81/263/68 82/264/68 86/265/68 85/266/68
f 82/267/69 80/268/69 84/269/69 86/270/69
f 85/271/65 86/272/65 84/273/65 83/274/65
o Struts
v 0.696880 0.246100 0.226580
v 0.696880 0.936300 0.226580
v 0.647680 0.936300 0.226580
v 0.647680 0.246100 0.226580
v 0.696880 0.246100 0.177280
v 0.696880 0.936300 0.177280
v 0.647680 0.246100 0.177280
v 0.647680 0.936300 0.177280
v 0.352380 0.936300 0.226580
v 0.303180 0.936300 0.226580
v 0.303180 0.246100 0.226580
v 0.352380 0.246100 0.226580
v 0.303180 0.936300 0.177280
v 0.303180 0.246100 0.177280
v 0.352380 0.936300 0.177280
v 0.352380 0.246100 0.177280
v 0.696880 0.984300 0.226580
v 0.647680 0.984300 0.226580
v 0.696880 0.984300 0.177280
v 0.647680 0.984300 0.177280
v 0.352380 0.984300 0.226580
v 0.303180 0.984300 0.226580
v 0.303180 0.984300 0.177280
v 0.352380 0.984300 0.177280
vt 0.078200 0.983900
vt 0.078200 0.545800
vt 0.047100 0.545800
vt 0.047100 0.983900
vt 0.109200 0.983900
vt 0.109200 0.545800
vt 0.140200 0.983900
vt 0.140200 0.545800
vt 0.171300 0.983900
vt 0.171300 0.545800
vt 0.047100 0.545800
vt 0.078200 0.545800
vt 0.078200 0.983900
vt 0.047100 0.983900
vt 0.109200 0.545800
vt 0.109200 0.983900
vt 0.140200 0.545800
vt 0.140200 0.983900
vt 0.171300 0.545800
vt 0.171300 0.983900
vt 0.391000 0.609200
vt 0.421700 0.609200
vt 0.421700 0.578300
vt 0.391000 0.578300
vt 0.391000 0.609200
vt 0.421700 0.609200
vt 0.421700 0.578300
vt 0.391000 0.578300
vt 0.391000 0.609200
vt 0.421700 0.609200
vt 0.421700 0.578300
vt 0.391000 0.578300
vt 0.391000 0.609200
vt 0.421700 0.609200
vt 0.421700 0.578300
vt 0.391000 0.578300
vt 0.421700 0.609200
vt 0.391000 0.609200
vt 0.391000 0.578300
vt 0.421700 0.578300
vt 0.421700 0.609200
vt 0.391000 0.609200
vt 0.391000 0.578300
vt 0.421700 0.578300
vt 0.421700 0.609200
vt 0.391000 0.609200
vt 0.391000 0.578300
vt 0.421700 0.578300
vt 0.421700 0.609200
vt 0.391000 0.609200
vt 0.391000 0.578300
vt 0.421700 0.578300
vt 0.391000 0.578300
vt 0.421700 0.578300
vt 0.391000 0.578300
vt 0.421700 0.578300
vn 0.0000 -0.0000 1.0000
vn 1.0000 -0.0000 0.0000
vn 0.0000 0.0000 -1.0000
vn -1.0000 0.0000 0.0000
vn 0.0000 1.0000 0.0000
usemtl mat_ArcaneArchives_Master
f 87/275/70 88/276/70 89/277/70 90/278/70
f 91/279/71 92/280/71 88/276/71 87/275/71
f 93/281/72 94/282/72 92/280/72 91/279/72
f 90/283/73 89/284/73 94/282/73 93/281/73
f 95/285/70 96/286/70 97/287/70 98/288/70
f 96/286/73 99/289/73 100/290/73 97/287/73
f 99/289/72 101/291/72 102/292/72 100/290/72
f 101/291/71 95/293/71 98/294/71 102/292/71
f 103/295/70 104/296/70 89/297/70 88/298/70
f 105/299/71 103/300/71 88/301/71 92/302/71
f 106/303/72 105/304/72 92/305/72 94/306/72
f 104/307/73 106/308/73 94/309/73 89/310/73
f 107/311/70 108/312/70 96/313/70 95/314/70
f 108/315/73 109/316/73 99/317/73 96/318/73
f 109/319/72 110/320/72 101/321/72 99/322/72
f 110/323/71 107/324/71 95/325/71 101/326/71
f 105/327/74 106/328/74 104/296/74 103/295/74
f 110/329/74 109/330/74 108/315/74 107/324/74
