# 3ds Max Wavefront OBJ Exporter v0.97b - (c)2007 guruware
# File Created: 25.09.2018 07:44:05

mtllib radiantresonator.mtl

#
# object Legs
#

v  0.7874 0.0000 0.1969
v  0.7874 0.0000 0.0000
v  0.9843 0.0000 0.0000
v  0.9843 0.0000 0.1969
v  0.7751 0.7057 0.2830
v  0.7013 0.7057 0.2830
v  0.7751 0.7057 0.2092
v  0.7013 0.7057 0.2092
v  0.1969 0.0000 0.1969
v  0.0000 0.0000 0.1969
v  0.0000 0.0000 0.0000
v  0.1969 0.0000 0.0000
v  0.2830 0.7057 0.2830
v  0.2096 0.7057 0.2830
v  0.2096 0.7057 0.2092
v  0.2830 0.7057 0.2092
v  0.7874 0.0000 0.7874
v  0.9843 0.0000 0.7874
v  0.9843 0.0000 0.9843
v  0.7874 0.0000 0.9843
v  0.7013 0.7057 0.7013
v  0.7751 0.7057 0.7013
v  0.7751 0.7057 0.7751
v  0.7013 0.7057 0.7751
v  0.1969 0.0000 0.7874
v  0.1969 0.0000 0.9843
v  0.0000 0.0000 0.9843
v  0.0000 0.0000 0.7874
v  0.2092 0.7057 0.7013
v  0.2830 0.7057 0.7013
v  0.2092 0.7057 0.7751
v  0.2830 0.7057 0.7751
# 32 vertices

vn 0.0000 -1.0000 -0.0000
vn 0.0000 -0.1211 0.9926
vn 0.9588 0.2842 -0.0000
vn 0.0000 0.2842 -0.9588
vn -0.9926 -0.1211 -0.0000
vn -0.9586 0.2848 -0.0000
vn 0.9926 -0.1211 -0.0000
vn 0.0000 -0.1211 -0.9926
vn 0.0000 0.2842 0.9588
vn -0.9588 0.2842 -0.0000
# 10 vertex normals

vt 0.2516 0.6257 0.0000
vt 0.2516 0.7497 0.0000
vt 0.3747 0.7497 0.0000
vt 0.3747 0.6257 0.0000
vt 0.1882 0.7031 0.0000
vt 0.2376 0.7031 0.0000
vt 0.1851 0.9517 0.0000
vt 0.1666 0.9517 0.0000
vt 0.1882 0.5483 0.0000
vt 0.2376 0.5483 0.0000
vt 0.1851 0.7970 0.0000
vt 0.1666 0.7970 0.0000
vt 0.2376 0.6085 0.0000
vt 0.1882 0.6085 0.0000
vt 0.1666 0.8571 0.0000
vt 0.1851 0.8571 0.0000
vt 0.2376 0.6413 0.0000
vt 0.1882 0.6413 0.0000
vt 0.1666 0.8899 0.0000
vt 0.1851 0.8899 0.0000
vt 0.0621 0.7037 0.0000
vt 0.0838 0.9523 0.0000
vt 0.0654 0.9523 0.0000
vt 0.0127 0.7037 0.0000
vt 0.1882 0.6724 0.0000
vt 0.1666 0.9210 0.0000
vt 0.1851 0.9210 0.0000
vt 0.2376 0.6724 0.0000
vt 0.0127 0.6090 0.0000
vt 0.0654 0.8576 0.0000
vt 0.0838 0.8576 0.0000
vt 0.0621 0.6090 0.0000
vt 0.2376 0.5267 0.0000
vt 0.1851 0.7753 0.0000
vt 0.1666 0.7753 0.0000
vt 0.1882 0.5267 0.0000
vt 0.1882 0.5764 0.0000
vt 0.1666 0.8250 0.0000
vt 0.1851 0.8250 0.0000
vt 0.2376 0.5764 0.0000
vt 0.0621 0.5489 0.0000
vt 0.0838 0.7975 0.0000
vt 0.0652 0.7975 0.0000
vt 0.0127 0.5489 0.0000
vt 0.2376 0.7342 0.0000
vt 0.1851 0.9828 0.0000
vt 0.1666 0.9828 0.0000
vt 0.1882 0.7342 0.0000
vt 0.0127 0.6418 0.0000
vt 0.0652 0.8904 0.0000
vt 0.0838 0.8904 0.0000
vt 0.0621 0.6418 0.0000
vt 0.0621 0.5770 0.0000
vt 0.0127 0.5770 0.0000
vt 0.0652 0.8256 0.0000
vt 0.0838 0.8256 0.0000
vt 0.0621 0.6730 0.0000
vt 0.0127 0.6730 0.0000
vt 0.0652 0.9216 0.0000
vt 0.0838 0.9216 0.0000
vt 0.0127 0.7348 0.0000
vt 0.0621 0.7348 0.0000
vt 0.0838 0.9834 0.0000
vt 0.0652 0.9834 0.0000
vt 0.0127 0.5273 0.0000
vt 0.0621 0.5273 0.0000
vt 0.0838 0.7759 0.0000
vt 0.0652 0.7759 0.0000
# 68 texture coords

g Legs
usemtl mat_ArcaneArchives_Master
s 2
f 1/1/1 2/2/1 3/3/1 4/4/1 
s 8
f 1/5/2 4/6/2 5/7/2 6/8/2 
s 16
f 4/9/3 3/10/3 7/11/3 5/12/3 
s 32
f 3/13/4 2/14/4 8/15/4 7/16/4 
s 64
f 2/17/5 1/18/5 6/19/5 8/20/5 
s 2
f 9/4/1 10/1/1 11/2/1 12/3/1 
s 8
f 9/21/2 13/22/2 14/23/2 10/24/2 
s 16
f 10/25/6 14/26/6 15/27/6 11/28/6 
s 32
f 11/29/4 15/30/4 16/31/4 12/32/4 
s 64
f 12/33/7 16/34/7 13/35/7 9/36/7 
s 2
f 17/2/1 18/3/1 19/4/1 20/1/1 
s 8
f 17/37/8 21/38/8 22/39/8 18/40/8 
s 16
f 18/41/3 22/42/3 23/43/3 19/44/3 
s 32
f 19/45/9 23/46/9 24/47/9 20/48/9 
s 64
f 20/49/5 24/50/5 21/51/5 17/52/5 
s 2
f 25/3/1 26/4/1 27/1/1 28/2/1 
s 8
f 25/53/8 28/54/8 29/55/8 30/56/8 
s 16
f 28/57/10 27/58/10 31/59/10 29/60/10 
s 32
f 27/61/9 26/62/9 32/63/9 31/64/9 
s 64
f 26/65/7 25/66/7 30/67/7 32/68/7 
# 20 polygons

#
# object GoldRing
#

v  0.2092 0.7057 0.2092
v  0.2092 0.7800 0.2092
v  0.7751 0.7800 0.2092
v  0.7751 0.7061 0.2092
v  0.7751 0.7800 0.7751
v  0.7751 0.7061 0.7751
v  0.2092 0.7057 0.7751
v  0.2092 0.7800 0.7751
v  0.2830 0.7057 0.2830
v  0.2830 0.7800 0.2830
v  0.2830 0.7800 0.7013
v  0.2830 0.7057 0.7013
v  0.7013 0.7800 0.2830
v  0.7013 0.7061 0.2830
v  0.7013 0.7061 0.7013
v  0.7013 0.7800 0.7013
# 16 vertices

vn 0.0000 0.0000 -1.0000
vn 1.0000 0.0000 -0.0000
vn -1.0000 0.0000 -0.0000
vn 0.0000 0.0000 1.0000
vn 0.0010 -1.0000 -0.0007
vn 0.0007 -1.0000 0.0007
vn 0.0008 -1.0000 0.0006
vn 0.0010 -1.0000 -0.0010
vn 0.0000 -1.0000 -0.0000
vn 0.0000 1.0000 -0.0000
# 10 vertex normals

vt 0.4991 0.5607 0.0000
vt 0.4991 0.5015 0.0000
vt 0.2522 0.5015 0.0000
vt 0.2522 0.5604 0.0000
vt 0.4991 0.5604 0.0000
vt 0.2522 0.5607 0.0000
vt 0.4990 0.5609 0.0000
vt 0.4990 0.5016 0.0000
vt 0.2520 0.5016 0.0000
vt 0.2520 0.5609 0.0000
vt 0.4990 0.5606 0.0000
vt 0.2520 0.5606 0.0000
vt 0.4994 0.5016 0.0000
vt 0.2514 0.5016 0.0000
vt 0.2838 0.5602 0.0000
vt 0.4670 0.5602 0.0000
vt 0.2510 0.5019 0.0000
vt 0.4992 0.5019 0.0000
vt 0.4668 0.5607 0.0000
vt 0.2834 0.5607 0.0000
# 20 texture coords

g GoldRing
usemtl mat_ArcaneArchives_Master
s 8
f 33/69/11 34/70/11 35/71/11 36/72/11 
s 1
f 36/73/12 35/70/12 37/71/12 38/72/12 
s 2
f 39/74/13 40/71/13 34/70/13 33/69/13 
s 16
f 38/72/14 37/71/14 40/70/14 39/69/14 
s 2
f 41/75/12 42/76/12 43/77/12 44/78/12 
s 1
f 45/76/13 46/79/13 47/80/13 48/77/13 
s 16
f 48/77/11 47/80/11 44/75/11 43/76/11 
s 8
f 46/80/14 45/77/14 42/76/14 41/75/14 
s 4
f 38/81/15 39/82/16 44/83/17 47/84/18 
s 32
f 39/81/19 33/82/19 41/83/19 44/84/19 
s 4
f 33/81/15 36/82/16 46/83/17 41/84/18 
s 32
f 36/81/19 38/82/19 47/83/19 46/84/19 
s 4
f 34/85/20 40/86/20 43/87/20 42/88/20 
s 32
f 40/85/20 37/86/20 48/87/20 43/88/20 
s 4
f 37/85/20 35/86/20 45/87/20 48/88/20 
s 32
f 35/85/20 34/86/20 42/87/20 45/88/20 
# 16 polygons

#
# object Crossbars
#

v  0.2092 0.3322 0.2287
v  0.2092 0.4060 0.2287
v  0.2092 0.4060 0.7556
v  0.2092 0.3322 0.7556
v  0.1353 0.4060 0.2287
v  0.1353 0.4060 0.7556
v  0.1353 0.3322 0.2287
v  0.1353 0.3322 0.7556
v  0.7556 0.3322 0.7751
v  0.2286 0.3322 0.7751
v  0.2286 0.4060 0.7751
v  0.7556 0.4060 0.7751
v  0.2286 0.4060 0.8489
v  0.7556 0.4060 0.8489
v  0.2286 0.3322 0.8489
v  0.7556 0.3322 0.8489
v  0.2286 0.3322 0.2092
v  0.7556 0.3322 0.2092
v  0.7556 0.4060 0.2092
v  0.2286 0.4060 0.2092
v  0.7556 0.4060 0.1353
v  0.2286 0.4060 0.1353
v  0.7556 0.3322 0.1353
v  0.2286 0.3322 0.1353
v  0.7751 0.3322 0.7556
v  0.7751 0.4060 0.7556
v  0.7751 0.4060 0.2287
v  0.7751 0.3322 0.2287
v  0.8489 0.4060 0.2287
v  0.8489 0.4060 0.7556
v  0.8489 0.3322 0.2287
v  0.8489 0.3322 0.7556
# 32 vertices

vn 1.0000 0.0000 -0.0000
vn 0.0000 1.0000 -0.0000
vn -1.0000 0.0000 -0.0000
vn 0.0000 -1.0000 -0.0000
vn 0.0000 0.0000 -1.0000
vn 0.0000 0.0000 1.0000
vn -0.0000 0.0000 -1.0000
vn -1.0000 0.0000 0.0000
# 8 vertex normals

vt 0.1562 0.9927 0.0000
vt 0.0962 0.9927 0.0000
vt 0.0962 0.8313 0.0000
vt 0.1562 0.8313 0.0000
# 4 texture coords

g Crossbars
usemtl mat_ArcaneArchives_Master
s off
f 49/89/21 50/90/21 51/91/21 52/92/21 
s 4
f 50/90/22 53/89/22 54/92/22 51/91/22 
s off
f 53/91/23 55/92/23 56/89/23 54/90/23 
f 49/91/24 52/90/24 56/89/24 55/92/24 
f 57/89/25 58/92/25 59/91/25 60/90/25 
s 4
f 61/92/22 62/89/22 60/90/22 59/91/22 
s off
f 63/92/26 64/89/26 62/90/26 61/91/26 
f 63/92/24 58/91/24 57/90/24 64/89/24 
f 65/92/26 66/89/26 67/90/26 68/91/26 
s 4
f 68/92/22 67/89/22 69/90/22 70/91/22 
s off
f 70/91/27 69/90/27 71/89/27 72/92/27 
f 65/92/24 72/91/24 71/90/24 66/89/24 
f 73/89/28 74/90/28 75/91/28 76/92/28 
s 4
f 77/90/22 75/89/22 74/92/22 78/91/22 
s off
f 79/89/21 77/90/21 78/91/21 80/92/21 
f 79/91/24 80/90/24 73/89/24 76/92/24 
# 16 polygons

#
# object BarsPlane
#

v  0.0492 0.9459 0.9351
v  0.9350 0.9459 0.9351
v  0.9350 0.9459 0.0492
v  0.0492 0.9459 0.0492
# 4 vertices

vn 0.0000 1.0000 -0.0000
# 1 vertex normals

vt 0.0000 0.0000 0.0000
vt 1.0000 0.0000 0.0000
vt 1.0000 1.0000 0.0000
vt 0.0000 1.0000 0.0000
# 4 texture coords

g BarsPlane
usemtl 07___Default
s 1
f 81/93/29 82/94/29 83/95/29 84/96/29 
# 1 polygons

#
# object WaterPlane
#

v  0.1171 0.8858 0.8671
v  0.8671 0.8858 0.8671
v  0.8671 0.8858 0.1171
v  0.1171 0.8858 0.1171
# 4 vertices

vn 0.0000 1.0000 -0.0000
# 1 vertex normals

vt 0.0000 0.0000 0.0000
vt 1.0000 0.0000 0.0000
vt 1.0000 1.0000 0.0000
vt 0.0000 1.0000 0.0000
# 4 texture coords

g WaterPlane
usemtl 07___Default
s 1
f 85/97/30 86/98/30 87/99/30 88/100/30 
# 1 polygons

#
# object Bowl
#

v  0.9843 0.8858 0.9843
v  0.9843 0.9843 0.9843
v  0.0000 0.9843 0.9843
v  0.0000 0.8858 0.9843
v  0.9843 0.8858 0.0000
v  0.9843 0.9843 0.0000
v  0.0000 0.8858 0.0000
v  0.0000 0.9843 0.0000
v  0.8366 0.8858 0.8366
v  0.1476 0.8858 0.8366
v  0.1476 0.9843 0.8366
v  0.8366 0.9843 0.8366
v  0.1476 0.8858 0.1476
v  0.1476 0.9843 0.1476
v  0.8366 0.8858 0.1476
v  0.8366 0.9843 0.1476
v  0.9104 0.8858 0.0738
v  0.0738 0.8858 0.0738
v  0.9104 0.8858 0.9104
v  0.0738 0.8858 0.9104
v  0.3691 0.4921 0.3691
v  0.6152 0.4921 0.3691
v  0.4921 0.3937 0.4921
v  0.6152 0.7382 0.6152
v  0.3691 0.7382 0.6152
v  0.3691 0.4921 0.6152
v  0.6152 0.4921 0.6152
v  0.6152 0.7382 0.3691
v  0.3691 0.7382 0.3691
v  0.3975 0.5205 0.5868
v  0.5867 0.5205 0.5868
v  0.5867 0.5205 0.3975
v  0.3975 0.5205 0.3975
v  0.4039 0.7382 0.5804
v  0.5804 0.7382 0.5804
v  0.5804 0.7382 0.4039
v  0.4039 0.7382 0.4039
# 37 vertices

vn 0.0000 0.0000 1.0000
vn 1.0000 0.0000 -0.0000
vn 0.0000 0.0000 -1.0000
vn -1.0000 0.0000 -0.0000
vn 0.0000 1.0000 -0.0000
vn 0.0000 -1.0000 -0.0000
vn 0.0000 -0.7809 -0.6247
vn 0.0000 -0.0293 -0.9996
vn -0.9996 -0.0293 -0.0000
vn 0.0000 -0.0293 0.9996
vn 0.9996 -0.0293 -0.0000
vn 0.0000 -0.8944 -0.4472
vn 0.4472 -0.8944 -0.0000
vn 0.0000 -0.8944 0.4472
vn -0.4472 -0.8944 -0.0000
vn -0.4992 0.8665 -0.0000
vn 0.0000 0.8665 0.4992
vn 0.4992 0.8665 -0.0000
vn 0.0000 0.8665 -0.4992
vn -0.6247 -0.7809 -0.0000
vn 0.6247 -0.7809 -0.0000
vn 0.0000 -0.7809 0.6247
# 22 vertex normals

vt 0.4990 0.0020 0.0000
vt 0.4990 0.0613 0.0000
vt 0.0022 0.0613 0.0000
vt 0.0022 0.0020 0.0000
vt 0.4058 0.0020 0.0000
vt 0.0955 0.0020 0.0000
vt 0.0955 0.0614 0.0000
vt 0.4058 0.0614 0.0000
vt 0.4960 0.1825 0.0000
vt 0.0038 0.1825 0.0000
vt 0.0776 0.0651 0.0000
vt 0.4222 0.0651 0.0000
vt 0.4978 0.5601 0.0000
vt 0.4794 0.5486 0.0000
vt 0.2706 0.5486 0.0000
vt 0.2522 0.5601 0.0000
vt 0.2520 0.4832 0.0000
vt 0.3730 0.4832 0.0000
vt 0.3125 0.4398 0.0000
vt 0.4990 0.7486 0.0000
vt 0.3767 0.7486 0.0000
vt 0.3767 0.6260 0.0000
vt 0.4990 0.6260 0.0000
vt 0.4991 0.6263 0.0000
vt 0.3769 0.6263 0.0000
vt 0.3769 0.7493 0.0000
vt 0.4991 0.7493 0.0000
vt 0.4986 0.6263 0.0000
vt 0.4945 0.7484 0.0000
vt 0.3814 0.7484 0.0000
vt 0.3773 0.6263 0.0000
vt 0.4057 0.5027 0.0000
vt 0.3443 0.5027 0.0000
vt 0.2497 0.2519 0.0000
vt 0.2497 0.4997 0.0000
vt 0.1578 0.4075 0.0000
vt 0.1578 0.3441 0.0000
vt 0.0025 0.4997 0.0000
vt 0.0945 0.4075 0.0000
vt 0.0025 0.2519 0.0000
vt 0.0945 0.3441 0.0000
# 41 texture coords

g Bowl
usemtl mat_ArcaneArchives_Master
s off
f 89/101/31 90/102/31 91/103/31 92/104/31 
f 93/101/32 94/102/32 90/103/32 89/104/32 
f 95/104/33 96/103/33 94/102/33 93/101/33 
f 92/101/34 91/102/34 96/103/34 95/104/34 
f 97/105/33 98/106/33 99/107/33 100/108/33 
f 98/105/32 101/106/32 102/107/32 99/108/32 
f 101/106/31 103/105/31 104/108/31 102/107/31 
f 103/106/34 97/105/34 100/108/34 104/107/34 
f 91/109/35 90/110/35 100/111/35 99/112/35 
f 90/109/35 94/110/35 104/111/35 100/112/35 
f 94/109/35 96/110/35 102/111/35 104/112/35 
f 96/109/35 91/110/35 99/111/35 102/112/35 
f 93/113/36 105/114/36 106/115/36 95/116/36 
f 89/113/36 107/114/36 105/115/36 93/116/36 
f 92/113/36 108/114/36 107/115/36 89/116/36 
f 95/113/36 106/114/36 108/115/36 92/116/36 
f 109/117/37 110/118/37 111/119/37 
f 112/120/31 113/121/31 114/122/31 115/123/31 
f 116/120/32 112/121/32 115/122/32 110/123/32 
f 117/120/33 116/121/33 110/122/33 109/123/33 
f 113/120/34 117/121/34 109/122/34 114/123/34 
f 118/124/35 119/125/35 120/126/35 121/127/35 
f 118/128/38 122/129/38 123/130/38 119/131/38 
f 119/128/39 123/129/39 124/130/39 120/131/39 
f 120/128/40 124/129/40 125/130/40 121/131/40 
f 121/128/41 125/129/41 122/130/41 118/131/41 
f 106/115/42 105/114/42 116/132/42 117/133/42 
f 105/115/43 107/114/43 112/132/43 116/133/43 
f 107/115/44 108/114/44 113/132/44 112/133/44 
f 108/115/45 106/114/45 117/132/45 113/133/45 
f 97/134/46 103/135/46 124/136/46 123/137/46 
f 103/135/47 101/138/47 125/139/47 124/136/47 
f 101/138/48 98/140/48 122/141/48 125/139/48 
f 98/140/49 97/134/49 123/137/49 122/141/49 
f 111/119/50 114/117/50 109/118/50 
f 110/117/51 115/118/51 111/119/51 
f 111/119/52 115/117/52 114/118/52 
# 33 polygons - 4 triangles

