# 3ds Max Wavefront OBJ Exporter v0.97b - (c)2007 guruware
# File Created: 25.03.2019 18:42:53

mtllib radiant_tank.mtl

#
# object Base
#

v  0.0984 0.0000 0.8858
v  0.0984 0.0000 0.0984
v  0.8858 0.0000 0.0984
v  0.8858 0.0000 0.8858
v  0.8858 0.0984 0.8858
v  0.0984 0.0984 0.8858
v  0.8858 0.0984 0.0984
v  0.0984 0.0984 0.0984
v  0.7382 0.0984 0.7382
v  0.2461 0.0984 0.7382
v  0.7382 0.0984 0.2461
v  0.2461 0.0984 0.2461
v  0.5906 0.2461 0.5906
v  0.3937 0.2461 0.5906
v  0.5906 0.2461 0.3937
v  0.3937 0.2461 0.3937
v  0.0984 0.9843 0.8858
v  0.8858 0.9843 0.8858
v  0.8858 0.9843 0.0984
v  0.0984 0.9843 0.0984
v  0.0984 0.8858 0.8858
v  0.8858 0.8858 0.8858
v  0.8858 0.8858 0.0984
v  0.0984 0.8858 0.0984
v  0.2461 0.8858 0.7382
v  0.7382 0.8858 0.7382
v  0.7382 0.8858 0.2461
v  0.2461 0.8858 0.2461
v  0.3937 0.7382 0.5906
v  0.5906 0.7382 0.5906
v  0.5906 0.7382 0.3937
v  0.3937 0.7382 0.3937
# 32 vertices

vn 0.0000 -1.0000 -0.0000
vn 0.0000 0.0000 1.0000
vn 1.0000 0.0000 -0.0000
vn 0.0000 0.0000 -1.0000
vn -1.0000 0.0000 -0.0000
vn 0.0000 1.0000 -0.0000
vn 0.0000 0.7071 0.7071
vn 0.7071 0.7071 -0.0000
vn 0.0000 0.7071 -0.7071
vn -0.7071 0.7071 -0.0000
vn 0.0000 -0.7071 0.7071
vn 0.7071 -0.7071 -0.0000
vn 0.0000 -0.7071 -0.7071
vn -0.7071 -0.7071 -0.0000
# 14 vertex normals

vt 0.2493 0.2512 0.0000
vt 0.2493 0.4988 0.0000
vt 0.0013 0.4988 0.0000
vt 0.0013 0.2512 0.0000
vt 0.0013 0.0018 0.0000
vt 0.4987 0.0018 0.0000
vt 0.4987 0.0619 0.0000
vt 0.0013 0.0619 0.0000
vt 0.0003 0.0019 0.0000
vt 0.4996 0.0019 0.0000
vt 0.4053 0.0618 0.0000
vt 0.0946 0.0618 0.0000
vt 0.0008 0.0639 0.0000
vt 0.4988 0.0639 0.0000
vt 0.3494 0.1859 0.0000
vt 0.1502 0.1859 0.0000
# 16 texture coords

g Base
usemtl mat_ArcaneArchives_Master
f 1/1/1 2/2/1 3/3/1 4/4/1 
f 1/5/2 4/6/2 5/7/2 6/8/2 
f 4/5/3 3/6/3 7/7/3 5/8/3 
f 3/5/4 2/6/4 8/7/4 7/8/4 
f 2/5/5 1/6/5 6/7/5 8/8/5 
f 6/9/6 5/10/6 9/11/6 10/12/6 
f 5/9/6 7/10/6 11/11/6 9/12/6 
f 7/9/6 8/10/6 12/11/6 11/12/6 
f 8/9/6 6/10/6 10/11/6 12/12/6 
f 10/13/7 9/14/7 13/15/7 14/16/7 
f 9/13/8 11/14/8 15/15/8 13/16/8 
f 11/13/9 12/14/9 16/15/9 15/16/9 
f 12/13/10 10/14/10 14/15/10 16/16/10 
f 17/1/6 18/4/6 19/3/6 20/2/6 
f 17/5/2 21/8/2 22/7/2 18/6/2 
f 18/5/3 22/8/3 23/7/3 19/6/3 
f 19/5/4 23/8/4 24/7/4 20/6/4 
f 20/5/5 24/8/5 21/7/5 17/6/5 
f 21/9/1 25/12/1 26/11/1 22/10/1 
f 22/9/1 26/12/1 27/11/1 23/10/1 
f 23/9/1 27/12/1 28/11/1 24/10/1 
f 24/9/1 28/12/1 25/11/1 21/10/1 
f 25/13/11 29/16/11 30/15/11 26/14/11 
f 26/13/12 30/16/12 31/15/12 27/14/12 
f 27/13/13 31/16/13 32/15/13 28/14/13 
f 28/13/14 32/16/14 29/15/14 25/14/14 
# 26 polygons

#
# object Struts
#

v  0.1722 0.4921 0.1722
v  0.1230 0.4921 0.1722
v  0.1230 0.0984 0.1722
v  0.1722 0.0984 0.1722
v  0.1230 0.4921 0.1230
v  0.1230 0.0984 0.1230
v  0.1722 0.4921 0.1230
v  0.1722 0.0984 0.1230
v  0.8612 0.0984 0.1722
v  0.8612 0.4921 0.1722
v  0.8120 0.4921 0.1722
v  0.8120 0.0984 0.1722
v  0.8612 0.0984 0.1230
v  0.8612 0.4921 0.1230
v  0.8120 0.0984 0.1230
v  0.8120 0.4921 0.1230
v  0.1230 0.0984 0.8120
v  0.1230 0.4921 0.8120
v  0.1722 0.4921 0.8120
v  0.1722 0.0984 0.8120
v  0.1230 0.0984 0.8612
v  0.1230 0.4921 0.8612
v  0.1722 0.0984 0.8612
v  0.1722 0.4921 0.8612
v  0.8120 0.4921 0.8120
v  0.8612 0.4921 0.8120
v  0.8612 0.0984 0.8120
v  0.8120 0.0984 0.8120
v  0.8612 0.4921 0.8612
v  0.8612 0.0984 0.8612
v  0.8120 0.4921 0.8612
v  0.8120 0.0984 0.8612
v  0.1722 0.8858 0.1722
v  0.1230 0.8858 0.1722
v  0.1230 0.8858 0.1230
v  0.1722 0.8858 0.1230
v  0.8612 0.8858 0.1722
v  0.8120 0.8858 0.1722
v  0.8612 0.8858 0.1230
v  0.8120 0.8858 0.1230
v  0.1230 0.8858 0.8120
v  0.1722 0.8858 0.8120
v  0.1230 0.8858 0.8612
v  0.1722 0.8858 0.8612
v  0.8120 0.8858 0.8120
v  0.8612 0.8858 0.8120
v  0.8612 0.8858 0.8612
v  0.8120 0.8858 0.8612
# 48 vertices

vn 0.0000 0.0000 1.0000
vn -1.0000 -0.0000 -0.0000
vn -1.0000 0.0000 -0.0000
vn 0.0000 0.0000 -1.0000
vn 1.0000 -0.0000 -0.0000
vn 1.0000 0.0000 -0.0000
# 6 vertex normals

vt 0.0471 0.8340 0.0000
vt 0.0782 0.8340 0.0000
vt 0.0782 0.9839 0.0000
vt 0.0471 0.9839 0.0000
vt 0.1092 0.8340 0.0000
vt 0.1092 0.9839 0.0000
vt 0.1402 0.8340 0.0000
vt 0.1402 0.9839 0.0000
vt 0.1713 0.8340 0.0000
vt 0.1713 0.9839 0.0000
# 10 texture coords

g Struts
usemtl mat_ArcaneArchives_Master
f 33/17/15 34/18/15 35/19/15 36/20/15 
f 34/18/16 37/21/17 38/22/17 35/19/17 
f 37/21/18 39/23/18 40/24/18 38/22/18 
f 39/23/19 33/25/20 36/26/20 40/24/20 
f 41/19/15 42/18/15 43/17/15 44/20/15 
f 45/22/20 46/21/19 42/18/19 41/19/20 
f 47/24/18 48/23/18 46/21/18 45/22/18 
f 44/26/16 43/25/16 48/23/16 47/24/16 
f 49/19/18 50/18/18 51/17/18 52/20/18 
f 53/22/17 54/21/17 50/18/17 49/19/17 
f 55/24/15 56/23/15 54/21/15 53/22/15 
f 52/26/19 51/25/20 56/23/20 55/24/19 
f 57/17/18 58/18/18 59/19/18 60/20/18 
f 58/18/20 61/21/20 62/22/20 59/19/20 
f 61/21/15 63/23/15 64/24/15 62/22/15 
f 63/23/17 57/25/17 60/26/17 64/24/17 
f 33/17/15 65/20/15 66/19/15 34/18/15 
f 34/18/16 66/19/16 67/22/16 37/21/17 
f 37/21/18 67/22/18 68/24/18 39/23/18 
f 39/23/19 68/24/19 65/26/19 33/25/20 
f 69/19/15 70/20/15 43/17/15 42/18/15 
f 71/22/19 69/19/19 42/18/19 46/21/19 
f 72/24/18 71/22/18 46/21/18 48/23/18 
f 70/26/17 72/24/17 48/23/16 43/25/16 
f 73/19/18 74/20/18 51/17/18 50/18/18 
f 75/22/16 73/19/16 50/18/17 54/21/17 
f 76/24/15 75/22/15 54/21/15 56/23/15 
f 74/26/20 76/24/20 56/23/20 51/25/20 
f 57/17/18 77/20/18 78/19/18 58/18/18 
f 58/18/20 78/19/20 79/22/20 61/21/20 
f 61/21/15 79/22/15 80/24/15 63/23/15 
f 63/23/17 80/24/17 77/26/17 57/25/17 
# 32 polygons

#
# object Crystal
#

v  0.5906 0.7382 0.5906
v  0.3937 0.7382 0.5906
v  0.3937 0.2461 0.5906
v  0.5906 0.2461 0.5906
v  0.5906 0.7382 0.3937
v  0.5906 0.2461 0.3937
v  0.3937 0.7382 0.3937
v  0.3937 0.2461 0.3937
# 8 vertices

vn 0.0000 0.0000 1.0000
vn 1.0000 0.0000 -0.0000
vn 0.0000 0.0000 -1.0000
vn -1.0000 0.0000 -0.0000
# 4 vertex normals

vt 0.5537 0.9951 0.0000
vt 0.6990 0.9951 0.0000
vt 0.6990 0.7519 0.0000
vt 0.5537 0.7519 0.0000
# 4 texture coords

g Crystal
usemtl mat_ArcaneArchives_Master
f 81/27/21 82/28/21 83/29/21 84/30/21 
f 85/28/22 81/27/22 84/30/22 86/29/22 
f 87/27/23 85/28/23 86/29/23 88/30/23 
f 82/28/24 87/27/24 88/30/24 83/29/24 
# 4 polygons

