# Blender v2.79 (sub 0) OBJ File: 'radiantfurnace.blend'
# www.blender.org
mtllib radiant_furnace.mtl
o Cylinder
v 1.000000 1.000000 0.500000
v 0.750000 1.000000 0.933013
v 0.250000 1.000000 0.933013
v 0.000000 1.000000 0.500000
v 0.250000 1.000000 0.066987
v 0.750000 1.000000 0.066987
v 1.000000 0.875000 0.500000
v 0.750000 0.875000 0.933013
v 0.250000 0.875000 0.933013
v 0.000000 0.875000 0.500000
v 0.250000 0.875000 0.066987
v 0.750000 0.875000 0.066987
v 0.828125 0.000000 0.310557
v 0.828125 0.000000 0.689443
v 0.718750 0.000000 0.121114
v 0.281250 0.000000 0.121114
v 0.062500 0.000000 0.500000
v 0.281250 0.000000 0.878886
v 0.718750 0.750000 0.121114
v 0.281250 0.750000 0.121114
v 0.062500 0.750000 0.500000
v 0.281250 0.750000 0.878886
v 0.718750 0.750000 0.878886
v 0.718750 0.125000 0.878886
v 0.062500 0.125000 0.500000
v 0.281250 0.125000 0.121114
v 0.718750 0.125000 0.121114
v 0.687500 0.875000 0.824760
v 0.687500 0.750000 0.824760
v 0.312500 0.875000 0.824759
v 0.312500 0.750000 0.824759
v 0.125000 0.875000 0.500000
v 0.125000 0.750000 0.500000
v 0.312500 0.875000 0.175240
v 0.312500 0.750000 0.175240
v 0.687500 0.875000 0.175240
v 0.687500 0.750000 0.175240
v 0.875000 0.750000 0.500000
v 0.875000 0.875000 0.500000
v 0.718750 0.000000 0.878886
v 0.828125 0.750000 0.689443
v 0.828125 0.125000 0.689443
v 0.828125 0.750000 0.310557
v 1.125000 1.000000 0.500000
v 1.312500 1.000000 0.824760
v 1.687500 1.000000 0.824760
v 1.875000 1.000000 0.500000
v 1.687500 1.000000 0.175240
v 1.312500 1.000000 0.175240
v 1.171875 0.000000 0.689443
v 1.171875 0.000000 0.310557
v 1.281250 0.000000 0.878886
v 1.718750 0.000000 0.878886
v 1.937500 0.000000 0.500000
v 1.718750 0.000000 0.121114
v 1.343750 0.687500 0.878886
v 1.656250 0.687500 0.878886
v 1.937500 0.750000 0.500000
v 1.718750 0.750000 0.121114
v 1.281250 0.750000 0.121114
v 1.281250 0.125000 0.121114
v 1.718750 0.125000 0.121114
v 1.937500 0.125000 0.500000
v 1.656250 0.187500 0.878886
v 1.343750 0.187500 0.878886
v 1.406250 1.250000 0.337620
v 1.312500 0.750000 0.175240
v 1.593750 1.250000 0.337620
v 1.687500 0.750000 0.175240
v 1.687500 1.250000 0.500000
v 1.875000 0.750000 0.500000
v 1.593750 1.250000 0.662380
v 1.687500 0.750000 0.824760
v 1.406250 1.250000 0.662380
v 1.312500 0.750000 0.824760
v 1.125000 0.750000 0.500000
v 1.312500 1.250000 0.500000
v 1.281250 0.000000 0.121114
v 1.171875 0.750000 0.310557
v 1.171875 0.750000 0.689443
v 0.281250 0.125000 0.878886
v 0.281250 0.000000 0.878886
v 0.281250 0.000000 0.121114
v 0.062500 0.000000 0.500000
v 0.718750 0.000000 0.121114
v 0.828125 0.000000 0.310557
v 0.828125 0.125000 0.310557
v 0.718750 0.000000 0.878886
v 0.828125 0.000000 0.689443
v 1.718750 0.000000 0.121114
v 1.718750 0.125000 0.878886
v 1.718750 0.000000 0.878886
v 1.937500 0.000000 0.500000
v 1.281250 0.000000 0.878886
v 1.281250 0.125000 0.878886
v 1.171875 0.000000 0.689443
v 1.171875 0.125000 0.689443
v 1.281250 0.000000 0.121114
v 1.171875 0.000000 0.310557
v 1.171875 0.125000 0.310557
v 0.250000 0.125000 0.933013
v 0.250000 0.000000 0.933013
v 0.250000 0.125000 0.066987
v 0.250000 0.000000 0.066987
v 0.000000 0.000000 0.500000
v 0.000000 0.125000 0.500000
v 0.750000 0.000000 0.066987
v 0.750000 0.125000 0.066987
v 0.859375 0.000000 0.256430
v 0.859375 0.125000 0.256430
v 0.750000 0.125000 0.933013
v 0.750000 0.000000 0.933013
v 0.859375 0.000000 0.743570
v 0.859375 0.125000 0.743570
v 1.750000 0.125000 0.066987
v 1.750000 0.000000 0.066987
v 1.750000 0.125000 0.933013
v 1.750000 0.000000 0.933013
v 2.000000 0.000000 0.500000
v 2.000000 0.125000 0.500000
v 1.250000 0.000000 0.933013
v 1.250000 0.125000 0.933013
v 1.140625 0.000000 0.743570
v 1.140625 0.125000 0.743570
v 1.250000 0.125000 0.066987
v 1.250000 0.000000 0.066987
v 1.140625 0.000000 0.256430
v 1.140625 0.125000 0.256430
v 1.562500 1.500000 0.608253
v 1.406250 1.375000 0.337620
v 1.625000 1.500000 0.716506
v 1.312500 1.375000 0.500000
v 1.593750 1.375000 0.337620
v 1.687500 1.375000 0.500000
v 1.593750 1.375000 0.662380
v 1.406250 1.375000 0.662380
v 0.875000 1.000000 0.500000
v 0.687500 1.000000 0.824760
v 0.312500 1.000000 0.824759
v 0.125000 1.000000 0.500000
v 0.312500 1.000000 0.175240
v 0.687500 1.000000 0.175240
v 0.687500 0.500000 0.500000
v 0.593750 0.500000 0.662380
v 0.406250 0.500000 0.662380
v 0.312500 0.500000 0.500000
v 0.406250 0.500000 0.337620
v 0.593750 0.500000 0.337620
v 1.437500 1.500000 0.608253
v 1.375000 1.500000 0.500000
v 1.562500 1.500000 0.391747
v 1.625000 1.500000 0.500000
v 1.500000 1.250000 0.500000
v 1.718750 0.750000 0.878886
v 1.281250 0.750000 0.878886
v 1.656250 0.687500 0.500000
v 1.343750 0.687500 0.500000
v 1.656250 0.187500 0.500000
v 1.343750 0.187500 0.500000
v 1.375000 1.500000 0.716506
v 1.250000 1.500000 0.500000
v 1.375000 1.500000 0.283494
v 1.625000 1.500000 0.283494
v 1.625000 1.375000 0.283494
v 1.750000 1.375000 0.500000
v 1.375000 1.375000 0.283494
v 1.750000 1.500000 0.500000
v 1.625000 1.375000 0.716506
v 1.375000 1.375000 0.716506
v 1.250000 1.375000 0.500000
v 1.437500 1.500000 0.391747
vt 0.000000 0.875000
vt 0.000000 0.937500
vt 0.250000 0.937500
vt 0.250000 0.875000
vt 0.000000 0.937500
vt 0.000000 0.875000
vt 0.250000 0.875000
vt 0.250000 0.937500
vt 0.000000 0.937500
vt 0.000000 0.875000
vt 0.250000 0.875000
vt 0.250000 0.937500
vt 0.000000 0.937500
vt 0.000000 0.875000
vt 0.250000 0.937500
vt 0.250000 0.875000
vt 1.000000 0.968750
vt 0.984375 1.000000
vt 0.875000 0.968750
vt 0.018316 0.984390
vt 0.013428 0.984390
vt 0.013428 0.987212
vt 0.018316 0.987212
vt 0.984375 0.968750
vt 0.968750 1.000000
vt 0.781250 1.000000
vt 0.765625 0.968750
vt 0.875000 0.968750
vt 0.984375 1.000000
vt 0.765625 1.000000
vt 1.000000 0.875000
vt 0.750000 0.875000
vt 0.781250 0.937500
vt 0.968750 0.937500
vt 0.750000 0.875000
vt 1.000000 0.875000
vt 0.968750 0.937500
vt 0.781250 0.937500
vt 0.984375 0.968750
vt 0.968750 1.000000
vt 0.781250 1.000000
vt 0.765625 0.968750
vt 0.750000 0.875000
vt 0.781250 0.937500
vt 0.000000 0.562500
vt 0.000000 0.875000
vt 0.218750 0.875000
vt 0.218750 0.562500
vt 0.218750 0.562500
vt 0.218750 0.875000
vt 0.218750 0.562500
vt 0.218750 0.875000
vt 0.000000 0.875000
vt 0.000000 0.562500
vt 0.218750 0.562500
vt 0.218750 0.875000
vt 0.000000 0.875000
vt 0.000000 0.562500
vt 0.218750 0.562500
vt 0.218750 0.875000
vt 0.343750 0.875000
vt 0.343750 0.562500
vt 0.250000 0.875000
vt 0.250000 0.937500
vt 0.437500 0.937500
vt 0.437500 0.875000
vt 0.437500 0.875000
vt 0.437500 0.937500
vt 0.437500 0.875000
vt 0.437500 0.937500
vt 0.250000 0.937500
vt 0.250000 0.875000
vt 0.437500 0.875000
vt 0.437500 0.937500
vt 0.250000 0.937500
vt 0.250000 0.875000
vt 0.250000 0.875000
vt 0.250000 0.937500
vt 1.000000 0.875000
vt 0.968750 0.937500
vt 0.984375 0.968750
vt 0.968750 1.000000
vt 0.781250 1.000000
vt 0.765625 0.968750
vt 0.984375 0.968750
vt 0.968750 1.000000
vt 0.781250 1.000000
vt 0.765625 0.968750
vt 0.750000 0.968750
vt 0.765625 1.000000
vt 0.343750 0.875000
vt 0.343750 0.562500
vt 0.000000 0.875000
vt 0.000000 0.937500
vt 0.250000 0.937500
vt 0.250000 0.875000
vt 0.250000 0.875000
vt 0.250000 0.937500
vt 0.437500 0.937500
vt 0.437500 0.875000
vt 1.000000 0.968750
vt 0.984375 1.000000
vt 0.875000 0.968750
vt 0.984375 0.968750
vt 0.968750 1.000000
vt 0.781250 1.000000
vt 0.765625 0.968750
vt 0.875000 0.968750
vt 0.984375 1.000000
vt 0.765625 1.000000
vt 0.000000 0.406250
vt 0.187500 0.406250
vt 0.140625 0.562500
vt 0.046875 0.562500
vt 0.984375 0.968750
vt 0.968750 1.000000
vt 0.781250 1.000000
vt 0.765625 0.968750
vt 0.187500 0.406250
vt 0.000000 0.406250
vt 0.000000 0.281250
vt 0.187500 0.281250
vt 0.843750 0.562500
vt 0.843750 0.812500
vt 0.656250 0.812500
vt 0.656250 0.562500
vt 0.000000 0.562500
vt 0.000000 0.875000
vt 0.218750 0.875000
vt 0.218750 0.562500
vt 0.000000 0.562500
vt 0.000000 0.875000
vt 0.218750 0.875000
vt 0.218750 0.562500
vt 0.000000 0.562500
vt 0.000000 0.875000
vt 0.218750 0.875000
vt 0.218750 0.562500
vt 0.218750 0.562500
vt 0.218750 0.875000
vt 0.343750 0.875000
vt 0.343750 0.562500
vt 0.187500 0.406250
vt 0.187500 0.281250
vt 0.140625 0.562500
vt 0.000000 0.281250
vt 0.000000 0.281250
vt 0.000000 0.406250
vt 0.187500 0.281250
vt 0.046875 0.562500
vt 0.140625 0.562500
vt 0.046875 0.562500
vt 0.984375 0.968750
vt 0.968750 1.000000
vt 0.781250 1.000000
vt 0.765625 0.968750
vt 0.984375 0.968750
vt 0.968750 1.000000
vt 0.781250 1.000000
vt 0.765625 0.968750
vt 0.750000 0.968750
vt 0.765625 1.000000
vt 0.343750 0.562500
vt 0.343750 0.875000
vt 0.218750 0.875000
vt 0.218750 0.562500
vt 0.312500 0.379078
vt 0.187500 0.379078
vt 0.218750 0.433204
vt 0.281250 0.433204
vt 0.343750 0.562500
vt 0.500000 0.562500
vt 0.500000 0.875000
vt 0.343750 0.875000
vt 0.562500 1.000000
vt 0.718750 1.000000
vt 0.697443 0.890625
vt 0.583807 0.890625
vt 0.718750 1.000000
vt 0.562500 1.000000
vt 0.500000 0.875000
vt 0.500000 0.562500
vt 0.984375 0.968750
vt 0.765625 0.968750
vt 0.750000 0.937500
vt 1.000000 0.937500
vt 0.984375 0.968750
vt 0.765625 0.968750
vt 0.750000 0.937500
vt 1.000000 0.937500
vt 0.531250 0.984375
vt 0.531250 0.859375
vt 0.562500 0.875000
vt 0.562500 1.000000
vt 0.984375 0.968750
vt 0.765625 0.968750
vt 0.750000 0.937500
vt 1.000000 0.937500
vt 0.984375 0.968750
vt 0.765625 0.968750
vt 0.750000 0.937500
vt 1.000000 0.937500
vt 0.562500 0.859375
vt 0.562500 0.984375
vt 0.531250 1.000000
vt 0.531250 0.875000
vt 0.250000 1.000000
vt 0.000000 1.000000
vt 0.000000 0.937500
vt 0.250000 0.937500
vt 0.000000 1.000000
vt 0.250000 1.000000
vt 0.250000 0.937500
vt 0.000000 0.937500
vt 0.250000 1.000000
vt 0.000000 1.000000
vt 0.000000 0.937500
vt 0.250000 0.937500
vt 0.250000 1.000000
vt 0.250000 0.937500
vt 0.375000 1.000000
vt 0.375000 0.937500
vt 0.250000 1.000000
vt 0.375000 1.000000
vt 0.375000 0.937500
vt 0.250000 0.937500
vt 0.000000 1.000000
vt 0.250000 1.000000
vt 0.250000 0.937500
vt 0.000000 0.937500
vt 0.250000 1.000000
vt 0.000000 1.000000
vt 0.000000 0.937500
vt 0.250000 0.937500
vt 0.000000 1.000000
vt 0.250000 1.000000
vt 0.250000 0.937500
vt 0.000000 0.937500
vt 0.000000 1.000000
vt 0.000000 0.937500
vt 0.375000 1.000000
vt 0.250000 1.000000
vt 0.250000 0.937500
vt 0.375000 0.937500
vt 0.375000 1.000000
vt 0.250000 1.000000
vt 0.250000 0.937500
vt 0.375000 0.937500
vt 0.382812 0.937500
vt 0.523438 0.937500
vt 0.523438 1.000000
vt 0.382812 1.000000
vt 0.382812 1.000000
vt 0.523438 1.000000
vt 0.523438 0.937500
vt 0.382812 0.937500
vt 0.554631 0.814750
vt 0.726506 0.814750
vt 0.710881 0.841813
vt 0.570256 0.841813
vt 0.562500 0.859375
vt 0.562500 0.984375
vt 0.531250 1.000000
vt 0.531250 0.875000
vt 0.554631 0.814750
vt 0.726506 0.814750
vt 0.710881 0.841812
vt 0.570256 0.841812
vt 0.984375 0.968750
vt 0.765625 0.968750
vt 0.750000 0.937500
vt 1.000000 0.937500
vt 0.984375 0.968750
vt 0.765625 0.968750
vt 0.750000 0.937500
vt 1.000000 0.937500
vt 0.984375 0.968750
vt 0.765625 0.968750
vt 0.750000 0.937500
vt 1.000000 0.937500
vt 0.984375 0.968750
vt 0.765625 0.968750
vt 0.750000 0.937500
vt 1.000000 0.937500
vt 0.531250 0.984375
vt 0.531250 0.859375
vt 0.562500 0.875000
vt 0.562500 1.000000
vt 0.703125 0.406141
vt 0.796875 0.406141
vt 0.812500 0.379078
vt 0.687500 0.379078
vt 0.187500 0.316578
vt 0.312500 0.316578
vt 0.281250 0.370704
vt 0.218750 0.370704
vt 0.578125 0.531141
vt 0.671875 0.531141
vt 0.687500 0.504078
vt 0.562500 0.504078
vt 0.796875 0.531141
vt 0.703125 0.531141
vt 0.687500 0.504078
vt 0.812500 0.504078
vt 0.437500 0.316577
vt 0.562500 0.316577
vt 0.531250 0.370704
vt 0.468750 0.370704
vt 0.140625 0.218750
vt 0.046875 0.218750
vt 0.046875 0.281250
vt 0.140625 0.281250
vt 0.140625 0.218750
vt 0.046875 0.218750
vt 0.046875 0.281250
vt 0.140625 0.281250
vt 0.140625 0.218750
vt 0.140625 0.281250
vt 0.046875 0.218750
vt 0.140625 0.218750
vt 0.140625 0.281250
vt 0.046875 0.281250
vt 0.140625 0.218750
vt 0.046875 0.218750
vt 0.046875 0.281250
vt 0.140625 0.281250
vt 0.046875 0.218750
vt 0.046875 0.281250
vt 0.437500 0.316578
vt 0.312500 0.316578
vt 0.343750 0.370704
vt 0.406250 0.370704
vt 0.828125 0.531141
vt 0.921875 0.531141
vt 0.937500 0.504077
vt 0.812500 0.504077
vt 0.671875 0.406141
vt 0.578125 0.406141
vt 0.562500 0.379078
vt 0.687500 0.379078
vt 0.312500 0.379078
vt 0.437500 0.379078
vt 0.406250 0.433204
vt 0.343750 0.433204
vt 0.562500 0.379078
vt 0.437500 0.379078
vt 0.468750 0.433204
vt 0.531250 0.433204
vt 0.921875 0.406141
vt 0.828125 0.406141
vt 0.812500 0.379078
vt 0.937500 0.379078
vt 0.020218 0.983292
vt 0.011527 0.983292
vt 0.020218 0.978275
vt 0.011527 0.978275
vt 0.015872 0.975766
vt 0.011527 0.988310
vt 0.020218 0.988310
vt 0.011527 0.993327
vt 0.020218 0.993327
vt 0.015872 0.995836
vt 0.750000 0.875000
vt 1.000000 0.875000
vt 0.968750 0.937500
vt 0.781250 0.937500
vt 0.750000 0.875000
vt 1.000000 0.875000
vt 0.968750 0.937500
vt 0.781250 0.937500
vt 0.750000 0.875000
vt 1.000000 0.875000
vt 0.968750 0.937500
vt 0.781250 0.937500
vt 0.187500 0.312500
vt 0.375000 0.312500
vt 0.328125 0.062500
vt 0.234375 0.062500
vt 0.375000 0.312500
vt 0.187500 0.312500
vt 0.234375 0.062500
vt 0.328125 0.062500
vt 0.375000 0.312500
vt 0.328125 0.062500
vt 0.187500 0.312500
vt 0.234375 0.062500
vt 0.093750 0.000000
vt 0.093750 0.187500
vt 0.012560 0.140625
vt 0.012560 0.046875
vt 0.500000 0.437500
vt 0.562500 0.437500
vt 0.531250 0.562500
vt 0.250000 0.437500
vt 0.312500 0.437500
vt 0.281250 0.562500
vt 0.187500 0.437500
vt 0.250000 0.437500
vt 0.218750 0.562500
vt 0.500000 0.437500
vt 0.437500 0.437500
vt 0.468750 0.562500
vt 0.375000 0.437500
vt 0.406250 0.562500
vt 0.312500 0.437500
vt 0.343750 0.562500
vt 0.031250 0.843750
vt 0.187500 0.843750
vt 0.000000 0.875000
vt 0.187500 0.593750
vt 0.031250 0.593750
vt 0.000000 0.562500
vt 0.500000 0.812500
vt 0.500000 0.562500
vt 0.843750 0.812500
vt 0.843750 0.562500
vt 0.656250 0.562500
vt 0.656250 0.812500
vt 1.000000 0.562500
vt 0.843750 0.562500
vt 0.843750 0.750000
vt 1.000000 0.750000
vt 1.000000 0.562500
vt 1.000000 0.750000
vt 0.843750 0.750000
vt 0.174940 0.046875
vt 0.174940 0.140625
vt 0.562500 0.437500
vt 0.687500 0.437500
vt 0.687500 0.500000
vt 0.562500 0.500000
vt 0.812500 0.437500
vt 0.937500 0.437500
vt 0.937500 0.500000
vt 0.812500 0.500000
vt 0.812500 0.312500
vt 0.937500 0.312500
vt 0.937500 0.375000
vt 0.812500 0.375000
vt 0.687500 0.312500
vt 0.687500 0.375000
vt 0.562500 0.312500
vt 0.562500 0.375000
vn 0.8660 0.0000 0.5000
vn 0.0000 0.0000 1.0000
vn -0.8660 0.0000 0.5000
vn -0.8660 0.0000 -0.5000
vn 0.0000 0.0000 -1.0000
vn 0.0000 1.0000 0.0000
vn 0.0000 -1.0000 0.0000
vn 0.8660 0.0000 -0.5000
vn -0.7263 0.5447 -0.4193
vn -1.0000 0.0000 0.0000
vn 0.0000 0.5447 -0.8386
vn 0.7263 0.5447 0.4193
vn 0.0000 0.5447 0.8386
vn -0.7263 0.5447 0.4193
vn 0.7263 0.5447 -0.4193
vn -0.8237 0.3089 -0.4756
vn 0.8237 0.3089 0.4756
vn 0.0000 0.3089 -0.9511
vn -0.8237 0.3089 0.4756
vn 0.0000 0.3089 0.9511
vn 0.8237 0.3089 -0.4756
vn 0.0000 0.3974 0.9177
vn -0.7947 0.3974 -0.4588
vn -0.7947 0.3974 0.4588
vn 0.7947 0.3974 0.4588
vn 0.7947 0.3974 -0.4588
vn 0.0000 0.3974 -0.9177
vn 1.0000 0.0000 0.0000
usemtl None
s off
f 7/1/1 1/2/1 2/3/1 8/4/1
f 8/4/2 2/3/2 3/5/2 9/6/2
f 9/7/3 3/8/3 4/9/3 10/10/3
f 10/11/4 4/12/4 5/13/4 11/14/4
f 11/14/5 5/13/5 6/15/5 12/16/5
f 19/17/6 37/18/6 43/19/6
f 113/20/7 109/21/7 127/22/7 123/23/7
f 20/24/6 35/25/6 37/26/6 19/27/6
f 41/28/6 38/29/6 29/30/6
f 11/31/7 12/32/7 36/33/7 34/34/7
f 8/35/7 9/36/7 30/37/7 28/38/7
f 21/39/6 33/40/6 35/41/6 20/42/6
f 9/36/7 10/43/7 32/44/7 30/37/7
f 26/45/5 20/46/5 19/47/5 27/48/5
f 25/49/4 21/50/4 20/46/4 26/45/4
f 81/51/3 22/52/3 21/53/3 25/54/3
f 24/55/2 23/56/2 22/57/2 81/58/2
f 42/59/1 41/60/1 23/61/1 24/62/1
f 35/63/5 34/64/5 36/65/5 37/66/5
f 33/67/4 32/68/4 34/64/4 35/63/4
f 31/69/3 30/70/3 32/71/3 33/72/3
f 29/73/2 28/74/2 30/75/2 31/76/2
f 38/77/1 39/78/1 28/74/1 29/73/1
f 7/79/7 8/35/7 28/38/7 39/80/7
f 22/81/6 31/82/6 33/83/6 21/84/6
f 10/43/7 11/31/7 34/34/7 32/44/7
f 23/85/6 29/86/6 31/87/6 22/88/6
f 23/89/6 41/28/6 29/30/6
f 37/18/6 38/90/6 43/19/6
f 27/48/8 19/47/8 43/91/8 87/92/8
f 12/32/7 7/79/7 39/80/7 36/33/7
f 12/93/8 6/94/8 1/95/8 7/96/8
f 37/97/8 36/98/8 39/99/8 38/100/8
f 155/101/6 75/102/6 80/103/6
f 154/104/6 73/105/6 75/106/6 155/107/6
f 79/108/6 76/109/6 67/110/6
f 49/111/9 44/112/9 77/113/9 66/114/9
f 58/115/6 71/116/6 73/117/6 154/118/6
f 48/119/8 47/120/8 71/121/8 69/122/8
f 64/123/10 57/124/10 156/125/10 158/126/10
f 63/127/1 58/128/1 154/129/1 91/130/1
f 62/131/8 59/132/8 58/133/8 63/134/8
f 61/135/5 60/136/5 59/137/5 62/138/5
f 100/139/4 79/140/4 60/141/4 61/142/4
f 71/121/1 47/120/1 46/143/1 73/144/1
f 48/119/11 49/111/11 66/114/11 68/145/11
f 49/111/5 48/119/5 69/122/5 67/146/5
f 75/147/3 45/148/3 44/112/3 76/149/3
f 46/143/12 47/120/12 70/150/12 72/151/12
f 45/148/13 46/143/13 72/151/13 74/152/13
f 59/153/6 69/154/6 71/155/6 58/156/6
f 76/149/4 44/112/4 49/111/4 67/146/4
f 60/157/6 67/158/6 69/159/6 59/160/6
f 60/161/6 79/108/6 67/110/6
f 75/102/6 76/162/6 80/103/6
f 95/163/3 155/164/3 80/165/3 97/166/3
f 163/167/6 162/168/6 171/169/6 151/170/6
f 44/112/14 45/148/14 74/152/14 77/113/14
f 47/120/15 48/119/15 68/145/15 70/150/15
f 42/171/2 97/172/2 80/173/2 41/174/2
f 41/175/6 80/176/6 76/177/6 38/178/6
f 38/178/6 76/177/6 79/179/6 43/180/6
f 43/91/5 79/181/5 100/182/5 87/92/5
f 26/183/6 27/184/6 108/185/6 103/186/6
f 25/187/6 26/188/6 103/189/6 106/190/6
f 95/191/6 97/192/6 124/193/6 122/194/6
f 81/195/6 25/196/6 106/197/6 101/198/6
f 24/199/6 81/200/6 101/201/6 111/202/6
f 42/203/6 24/204/6 111/205/6 114/206/6
f 101/207/3 106/208/3 105/209/3 102/210/3
f 103/211/5 108/212/5 107/213/5 104/214/5
f 111/215/2 101/216/2 102/217/2 112/218/2
f 106/219/4 103/211/4 104/214/4 105/220/4
f 108/212/8 110/221/8 109/222/8 107/213/8
f 114/223/1 111/224/1 112/225/1 113/226/1
f 115/227/8 120/228/8 119/229/8 116/230/8
f 117/231/2 122/232/2 121/233/2 118/234/2
f 125/235/5 115/236/5 116/237/5 126/238/5
f 120/239/1 117/231/1 118/234/1 119/240/1
f 122/241/3 124/242/3 123/243/3 121/244/3
f 128/245/4 125/246/4 126/247/4 127/248/4
f 113/249/2 123/250/2 124/251/2 114/252/2
f 110/253/5 128/254/5 127/255/5 109/256/5
f 97/257/6 42/258/6 114/259/6 124/260/6
f 100/261/6 61/262/6 125/263/6 128/264/6
f 87/265/6 100/266/6 128/267/6 110/268/6
f 61/269/6 62/270/6 115/271/6 125/272/6
f 62/273/6 63/274/6 120/275/6 115/276/6
f 63/277/6 91/278/6 117/279/6 120/280/6
f 91/281/6 95/282/6 122/283/6 117/284/6
f 27/285/6 87/286/6 110/287/6 108/288/6
f 46/143/2 45/148/2 75/147/2 73/144/2
f 130/289/7 132/290/7 170/291/7 166/292/7
f 160/293/6 131/294/6 129/295/6 149/296/6
f 136/297/7 135/298/7 168/299/7 169/300/7
f 135/301/7 134/302/7 165/303/7 168/304/7
f 167/305/6 163/306/6 151/307/6 152/308/6
f 68/309/5 66/310/5 130/311/5 133/312/5
f 72/313/1 70/314/1 134/315/1 135/316/1
f 66/310/4 77/317/4 132/318/4 130/311/4
f 77/319/3 74/320/3 136/321/3 132/322/3
f 70/323/8 68/324/8 133/325/8 134/326/8
f 74/327/2 72/313/2 135/316/2 136/328/2
f 131/329/6 167/330/6 152/331/6 129/332/6
f 134/333/7 133/334/7 164/335/7 165/336/7
f 133/337/7 130/338/7 166/339/7 164/340/7
f 162/341/6 161/342/6 150/343/6 171/344/6
f 161/345/6 160/346/6 149/347/6 150/348/6
f 132/349/7 136/350/7 169/351/7 170/352/7
f 109/21/7 113/20/7 112/353/7 107/354/7
f 107/354/7 112/353/7 102/355/7 104/356/7
f 105/357/7 104/356/7 102/355/7
f 123/23/7 127/22/7 126/358/7 121/359/7
f 121/359/7 126/358/7 116/360/7 118/361/7
f 119/362/7 118/361/7 116/360/7
f 6/363/6 5/364/6 141/365/6 142/366/6
f 4/367/6 3/368/6 139/369/6 140/370/6
f 2/371/6 1/372/6 137/373/6 138/374/6
f 1/372/6 6/363/6 142/366/6 137/373/6
f 5/364/6 4/367/6 140/370/6 141/365/6
f 3/368/6 2/371/6 138/374/6 139/369/6
f 138/375/16 137/376/16 143/377/16 144/378/16
f 141/379/17 140/380/17 146/381/17 147/382/17
f 139/383/18 138/375/18 144/378/18 145/384/18
f 137/376/19 142/385/19 148/386/19 143/377/19
f 142/385/20 141/379/20 147/382/20 148/386/20
f 140/380/21 139/383/21 145/384/21 146/381/21
f 146/387/6 143/388/6 148/389/6 147/390/6
f 151/391/22 171/392/22 153/393/22
f 129/394/23 152/395/23 153/396/23
f 152/397/24 151/398/24 153/399/24
f 171/400/25 150/401/25 153/402/25
f 150/401/26 149/403/26 153/404/26
f 149/403/27 129/405/27 153/406/27
f 56/407/2 57/408/2 154/129/2 155/409/2
f 57/408/2 64/410/2 91/130/2 154/129/2
f 65/411/2 56/407/2 155/409/2 95/412/2
f 64/410/2 65/411/2 95/412/2 91/130/2
f 158/126/2 156/125/2 157/413/2 159/414/2
f 56/415/28 65/416/28 159/417/28 157/418/28
f 57/419/7 56/420/7 157/421/7 156/422/7
f 65/416/6 64/423/6 158/424/6 159/425/6
f 145/426/6 144/427/6 143/388/6 146/387/6
f 169/428/2 168/429/2 131/430/2 160/431/2
f 165/432/8 164/433/8 163/434/8 167/435/8
f 170/436/3 169/437/3 160/438/3 161/439/3
f 166/440/4 170/436/4 161/439/4 162/441/4
f 168/429/1 165/432/1 167/435/1 131/430/1
f 164/442/5 166/440/5 162/441/5 163/443/5
l 98 78
l 51 99
l 17 84
l 88 40
l 53 92
l 89 14
l 96 50
l 52 94
l 85 15
l 16 83
l 18 82
l 13 86
l 54 93
l 55 90
