# 3ds Max Wavefront OBJ Exporter v0.97b - (c)2007 guruware
# File Created: 16.10.2018 21:12:58

mtllib radiant_crafting_table.mtl

#
# object craftingtable
#

v  0.9468 0.9535 0.3038
v  0.9468 0.9535 0.6805
v  0.9468 0.7689 0.6805
v  0.9468 0.7689 0.3038
v  0.6805 0.9535 0.0375
v  0.6805 0.7689 0.0375
v  0.3038 0.9535 0.0375
v  0.3038 0.7689 0.0375
v  0.0375 0.9537 0.3038
v  0.0375 0.7689 0.3038
v  0.0375 0.9537 0.6805
v  0.0375 0.7689 0.6805
v  0.3038 0.9535 0.9468
v  0.3038 0.7689 0.9468
v  0.6805 0.9535 0.9468
v  0.6805 0.7689 0.9468
v  0.8331 0.7382 0.6334
v  0.8331 0.7382 0.3509
v  0.9184 0.7382 0.3156
v  0.9184 0.7382 0.6687
v  0.6334 0.7382 0.1511
v  0.6687 0.7382 0.0659
v  0.3509 0.7382 0.1511
v  0.3156 0.7382 0.0659
v  0.1511 0.7382 0.3509
v  0.0659 0.7382 0.3156
v  0.1511 0.7382 0.6334
v  0.0659 0.7382 0.6687
v  0.3509 0.7382 0.8331
v  0.3156 0.7382 0.9184
v  0.6334 0.7382 0.8331
v  0.6687 0.7382 0.9184
v  0.4921 0.2461 0.4921
v  0.8335 0.9537 0.3509
v  0.8335 0.9537 0.6334
v  0.9184 0.9843 0.6687
v  0.9184 0.9843 0.3156
v  0.6337 0.9537 0.1511
v  0.6687 0.9843 0.0659
v  0.3512 0.9537 0.1511
v  0.3156 0.9843 0.0659
v  0.1515 0.9537 0.3509
v  0.0659 0.9843 0.3156
v  0.1515 0.9537 0.6334
v  0.0659 0.9843 0.6687
v  0.3512 0.9537 0.8331
v  0.3156 0.9843 0.9184
v  0.6337 0.9537 0.8331
v  0.6687 0.9843 0.9184
v  0.9468 0.9843 0.3038
v  0.9468 0.9843 0.6805
v  0.9468 0.7382 0.6805
v  0.9468 0.7382 0.3038
v  0.6805 0.9843 0.0375
v  0.6805 0.7382 0.0375
v  0.3038 0.9843 0.0375
v  0.3038 0.7382 0.0375
v  0.0375 0.9843 0.3038
v  0.0375 0.7382 0.3038
v  0.0375 0.9843 0.6805
v  0.0375 0.7382 0.6805
v  0.3038 0.9843 0.9468
v  0.3038 0.7382 0.9468
v  0.6805 0.9843 0.9468
v  0.6805 0.7382 0.9468
v  0.4925 0.9537 0.4921
# 66 vertices

vn 1.0000 0.0000 -0.0000
vn 0.7071 0.0000 -0.7071
vn 0.0000 0.0000 -1.0000
vn -0.7071 0.0000 -0.7071
vn -1.0000 0.0000 -0.0000
vn -0.7071 0.0000 0.7071
vn 0.0000 0.0000 1.0000
vn 0.7071 0.0000 0.7071
vn 0.0000 -1.0000 -0.0000
vn 0.8220 -0.5695 -0.0000
vn 0.5812 -0.5695 -0.5812
vn 0.0000 -0.5695 -0.8220
vn -0.5812 -0.5695 -0.5812
vn -0.8220 -0.5695 -0.0000
vn -0.5812 -0.5695 0.5812
vn 0.0000 -0.5695 0.8220
vn 0.5812 -0.5695 0.5812
vn -0.3382 0.9411 0.0000
vn -0.2389 0.9412 0.2389
vn 0.0000 0.9415 0.3370
vn 0.2376 0.9418 0.2376
vn 0.3357 0.9420 0.0000
vn 0.2376 0.9418 -0.2376
vn -0.0000 0.9415 -0.3370
vn -0.2389 0.9412 -0.2389
vn 0.0000 1.0000 -0.0000
# 26 vertex normals

vt 0.0775 0.7188 0.0000
vt 0.0775 0.9529 0.0000
vt 0.2031 0.9529 0.0000
vt 0.2031 0.7188 0.0000
vt 0.0773 0.7188 0.0000
vt 0.0773 0.9529 0.0000
vt 0.1094 0.7428 0.0000
vt 0.1094 0.9295 0.0000
vt 0.1694 0.9529 0.0000
vt 0.1694 0.7194 0.0000
vt 0.4227 0.9999 0.0000
vt 0.9363 0.9999 0.0000
vt 0.6795 0.0004 0.0000
vt 0.5748 0.9999 0.0000
vt 0.3180 0.0004 0.0000
vt 0.0612 0.9999 0.0000
vt 0.9988 0.0625 0.0000
vt 0.0007 0.3193 0.0000
vt 0.9988 0.5760 0.0000
vt 0.9988 0.4240 0.0000
vt 0.0007 0.6807 0.0000
vt 0.9988 0.9375 0.0000
vt 0.5748 0.0004 0.0000
vt 0.3180 1.0000 0.0000
vt 0.0612 0.0004 0.0000
vt 0.9363 0.0004 0.0000
vt 0.6795 0.9999 0.0000
vt 0.4227 0.0004 0.0000
vt 0.0007 0.4240 0.0000
vt 0.9988 0.6807 0.0000
vt 0.0007 0.9375 0.0000
vt 0.0007 0.0625 0.0000
vt 0.9988 0.3193 0.0000
vt 0.0007 0.5760 0.0000
vt 0.1097 0.9295 0.0000
vt 0.1097 0.7428 0.0000
vt 0.1096 0.7429 0.0000
vt 0.1096 0.9297 0.0000
vt 0.1094 0.9293 0.0000
vt 0.1094 0.7425 0.0000
vt 0.1093 0.7429 0.0000
vt 0.1093 0.9297 0.0000
vt 0.1092 0.9295 0.0000
vt 0.1092 0.7428 0.0000
vt 0.1093 0.7426 0.0000
vt 0.1093 0.9294 0.0000
vt 0.1094 0.9298 0.0000
vt 0.1094 0.7430 0.0000
vt 0.1096 0.7426 0.0000
vt 0.1096 0.9294 0.0000
vt 0.2511 0.5372 0.0000
vt 0.4997 0.5372 0.0000
vt 0.4997 0.5014 0.0000
vt 0.2511 0.5014 0.0000
vt 0.2511 0.5017 0.0000
vt 0.4997 0.5017 0.0000
vt 0.8744 0.3449 0.0000
vt 0.8744 0.6551 0.0000
vt 0.5000 0.5000 0.0000
vt 0.6551 0.1256 0.0000
vt 0.3449 0.1256 0.0000
vt 0.1256 0.3449 0.0000
vt 0.1256 0.6551 0.0000
vt 0.3449 0.8744 0.0000
vt 0.6551 0.8744 0.0000
vt 0.4997 0.5016 0.2500
vt 0.2511 0.5016 0.2500
vt 0.2579 0.5372 0.2500
vt 0.4930 0.5372 0.2500
vt 0.2511 0.5016 -0.2500
vt 0.4997 0.5016 -0.2500
vt 0.4930 0.5372 -0.2500
vt 0.2579 0.5372 -0.2500
# 73 texture coords

g craftingtable
usemtl mat_arcanearchives_master
f 1/1/1 2/2/1 3/3/1 4/4/1 
f 5/2/2 1/1/2 4/4/2 6/3/2 
f 7/5/3 5/6/3 6/3/3 8/4/3 
f 9/6/4 7/1/4 8/4/4 10/3/4 
f 11/5/5 9/6/5 10/3/5 12/4/5 
f 13/2/6 11/5/6 12/4/6 14/3/6 
f 15/5/7 13/6/7 14/3/7 16/4/7 
f 2/2/8 15/1/8 16/4/8 3/3/8 
f 17/7/9 18/8/9 19/9/9 20/10/9 
f 18/8/9 21/7/9 22/10/9 19/9/9 
f 21/7/9 23/8/9 24/9/9 22/10/9 
f 23/8/9 25/7/9 26/10/9 24/9/9 
f 25/7/9 27/8/9 28/9/9 26/10/9 
f 27/8/9 29/7/9 30/10/9 28/9/9 
f 29/7/9 31/8/9 32/9/9 30/10/9 
f 31/8/9 17/7/9 20/10/9 32/9/9 
usemtl mat_quartz_bordered
f 18/11/10 17/12/10 33/13/10 
f 18/14/11 33/15/11 21/16/11 
f 21/17/12 33/18/12 23/19/12 
f 23/20/13 33/21/13 25/22/13 
f 25/23/14 33/24/14 27/25/14 
f 27/26/15 33/27/15 29/28/15 
f 29/29/16 33/30/16 31/31/16 
f 31/32/17 33/33/17 17/34/17 
usemtl mat_arcanearchives_master
f 34/35/18 35/36/18 36/10/18 37/9/18 
f 38/37/19 34/38/19 37/9/19 39/10/19 
f 40/39/20 38/40/20 39/10/20 41/9/20 
f 42/41/21 40/42/21 41/9/21 43/10/21 
f 44/43/22 42/44/22 43/10/22 45/9/22 
f 46/45/23 44/46/23 45/9/23 47/10/23 
f 48/47/24 46/48/24 47/10/24 49/9/24 
f 35/49/25 48/50/25 49/9/25 36/10/25 
f 50/51/1 51/52/1 2/53/1 1/54/1 
f 52/53/1 53/54/1 4/51/1 3/52/1 
f 54/51/2 50/52/2 1/53/2 5/54/2 
f 53/53/2 55/54/2 6/51/2 4/52/2 
f 56/51/3 54/52/3 5/53/3 7/54/3 
f 55/53/3 57/54/3 8/51/3 6/52/3 
f 58/51/4 56/52/4 7/53/4 9/55/4 
f 57/53/4 59/54/4 10/51/4 8/52/4 
f 60/52/5 58/51/5 9/55/5 11/56/5 
f 59/54/5 61/53/5 12/52/5 10/51/5 
f 62/52/6 60/51/6 11/55/6 13/53/6 
f 61/54/6 63/53/6 14/52/6 12/51/6 
f 64/52/7 62/51/7 13/54/7 15/53/7 
f 63/54/7 65/53/7 16/52/7 14/51/7 
f 51/52/8 64/51/8 15/54/8 2/53/8 
f 65/54/8 52/53/8 3/52/8 16/51/8 
usemtl mat_crafting_table
f 35/57/26 34/58/26 66/59/26 
f 48/60/26 35/57/26 66/59/26 
f 46/61/26 48/60/26 66/59/26 
f 44/62/26 46/61/26 66/59/26 
f 42/63/26 44/62/26 66/59/26 
f 40/64/26 42/63/26 66/59/26 
f 38/65/26 40/64/26 66/59/26 
f 34/58/26 38/65/26 66/59/26 
usemtl mat_arcanearchives_master
f 51/66/26 50/67/26 37/68/26 36/69/26 
f 50/66/26 54/67/26 39/68/26 37/69/26 
f 54/66/26 56/67/26 41/68/26 39/69/26 
f 56/66/26 58/67/26 43/68/26 41/69/26 
f 58/66/26 60/67/26 45/68/26 43/69/26 
f 60/66/26 62/67/26 47/68/26 45/69/26 
f 62/66/26 64/67/26 49/68/26 47/69/26 
f 64/66/26 51/67/26 36/68/26 49/69/26 
f 53/70/9 52/71/9 20/72/9 19/73/9 
f 55/70/9 53/71/9 19/72/9 22/73/9 
f 57/70/9 55/71/9 22/72/9 24/73/9 
f 59/70/9 57/71/9 24/72/9 26/73/9 
f 61/70/9 59/71/9 26/72/9 28/73/9 
f 63/70/9 61/71/9 28/72/9 30/73/9 
f 65/70/9 63/71/9 30/72/9 32/73/9 
f 52/70/9 65/71/9 32/72/9 20/73/9 
# 56 polygons - 16 triangles

