# Blender v2.79 (sub 0) OBJ File: ''
# www.blender.org
mtllib radiant_chest.mtl
o lid_right
v 0.499990 0.984300 0.007890
v 0.869090 0.984300 0.007890
v 0.869090 0.861200 0.007890
v 0.499990 0.861200 0.007890
v 0.992190 0.984300 0.130890
v 0.992190 0.984300 0.869090
v 0.992190 0.861200 0.869090
v 0.992190 0.861200 0.130890
v 0.869090 0.984300 0.992190
v 0.869090 0.984300 0.869090
v 0.499990 0.984300 0.869090
v 0.499990 0.984300 0.992190
v 0.930590 0.861200 0.069390
v 0.930590 0.984300 0.069390
v 0.930590 0.984300 0.930590
v 0.930590 0.861200 0.930590
v 0.869090 0.984300 0.130890
v 0.499990 0.959600 0.130890
v 0.499990 0.959600 0.869090
v 0.869090 0.959600 0.869090
v 0.869090 0.959600 0.130890
v 0.499990 0.861200 0.992190
v 0.869090 0.861200 0.992190
v 0.499990 0.984300 0.130890
v 0.869090 0.861200 0.130890
v 0.869090 0.861200 0.869090
v 0.499990 0.861200 0.869090
v 0.499990 0.861200 0.130890
v 0.623090 0.969500 0.376990
v 0.499990 0.969500 0.376990
v 0.499990 0.969500 0.623090
v 0.623090 0.969500 0.623090
vt 0.217400 0.718700
vt 0.217400 0.532200
vt 0.125200 0.532200
vt 0.125200 0.718700
vt 0.125300 0.718700
vt 0.125300 0.532200
vt 0.217400 0.532200
vt 0.217400 0.718700
vt 0.498300 0.748400
vt 0.439600 0.748400
vt 0.439600 0.626200
vt 0.498300 0.626200
vt 0.500000 0.000000
vt 0.875000 0.000000
vt 0.875000 0.125000
vt 0.500000 0.125000
vt 0.875000 0.000000
vt 0.125000 0.000000
vt 0.125000 0.125000
vt 0.875000 0.125000
vt 0.875000 0.000000
vt 0.875000 0.125000
vt 0.500000 0.125000
vt 0.500000 0.000000
vt 0.973900 0.125000
vt 0.973900 0.000000
vt 0.026100 0.000000
vt 0.026100 0.125000
vt 0.875000 0.875000
vt 1.000000 0.125000
vt 1.000000 0.875000
vt 0.500000 0.125000
vt 0.125000 0.125000
vt 0.125000 0.000000
vt 0.937500 0.937500
vt 0.875000 1.000000
vt 0.500000 1.000000
vt 0.500000 0.875000
vt 0.937500 0.062500
vt 0.875000 1.000000
vt 0.875000 0.875000
vt 0.500000 0.875000
vt 0.500000 1.000000
vt 0.875000 0.125000
vt 0.875000 0.000000
vt 0.500000 0.000000
vt 0.500000 0.125000
vt 1.000000 0.875000
vt 1.000000 0.125000
vt 0.937500 0.062500
vt 0.937500 0.937500
vt 0.928600 0.975000
vt 0.500000 0.975000
vt 0.500000 1.000000
vt 0.928600 1.000000
vt 0.500000 0.975000
vt 0.071400 0.975000
vt 0.071400 1.000000
vt 0.500000 1.000000
vt 0.875000 0.975000
vt 0.125000 0.975000
vt 0.125000 1.000000
vt 0.875000 1.000000
vt 0.875000 0.025000
vt 0.875000 0.125000
vt 0.125000 0.125000
vt 0.125000 0.025000
vt -0.000000 0.125000
vt -0.000000 0.000000
vt 1.000000 0.000000
vt 1.000000 0.125000
vt 0.875000 0.000000
vt 0.125000 0.000000
vn 0.0000 1.0000 0.0000
vn 0.0000 -1.0000 -0.0000
vn 0.0000 0.0000 -1.0000
vn 1.0000 0.0000 0.0000
vn 0.7071 0.0000 -0.7071
vn 0.7068 0.0000 -0.7074
vn 0.7071 -0.0000 0.7071
vn 0.0000 -0.0000 1.0000
vn -1.0000 0.0000 0.0000
vn 0.7072 -0.0000 0.7070
usemtl mat_arcanearchives_master
f 18/1/1 19/2/1 20/3/1 21/4/1
f 25/5/2 26/6/2 27/7/2 28/8/2
f 29/9/1 30/10/1 31/11/1 32/12/1
usemtl mat_quartz
f 1/13/3 2/14/3 3/15/3 4/16/3
f 5/17/4 6/18/4 7/19/4 8/20/4
f 9/21/1 10/22/1 11/23/1 12/24/1
f 5/17/5 8/20/5 13/25/6 14/26/6
f 7/19/7 6/18/7 15/27/7 16/28/7
f 17/29/1 10/22/1 6/30/1 5/31/1
f 22/32/8 23/33/8 9/34/8 12/24/8
f 17/29/1 14/35/1 2/36/1
f 1/37/1 24/38/1 17/29/1 2/36/1
f 9/21/1 15/39/1 10/22/1
f 3/40/2 25/41/2 28/42/2 4/43/2
f 26/44/2 23/45/2 22/46/2 27/47/2
f 25/41/2 8/48/2 7/49/2 26/44/2
f 16/50/2 26/44/2 7/49/2
f 13/51/2 25/41/2 3/40/2
f 20/52/3 19/53/3 11/54/3 10/55/3
f 18/56/8 21/57/8 17/58/8 24/59/8
f 21/60/9 20/61/9 10/62/9 17/63/9
f 18/64/9 28/65/9 27/66/9 19/67/9
f 27/66/9 22/68/9 12/69/9 19/67/9
f 1/70/9 4/71/9 28/65/9 18/64/9
f 1/70/9 18/64/9 24/72/9
f 11/73/9 19/67/9 12/69/9
f 16/28/7 15/27/7 9/34/10 23/33/10
f 14/26/6 13/25/6 3/15/5 2/14/5
f 17/29/1 5/31/1 14/35/1
f 15/39/1 6/30/1 10/22/1
f 16/50/2 23/45/2 26/44/2
f 13/51/2 8/48/2 25/41/2
o lid_left
v 0.499990 0.861200 0.007890
v 0.130890 0.861200 0.007890
v 0.130890 0.984300 0.007890
v 0.499990 0.984300 0.007890
v 0.007890 0.861200 0.130890
v 0.007890 0.861200 0.869090
v 0.007890 0.984300 0.869090
v 0.007890 0.984300 0.130890
v 0.499990 0.984300 0.992190
v 0.499990 0.984300 0.869090
v 0.130890 0.984300 0.869090
v 0.130890 0.984300 0.992190
v 0.069390 0.984300 0.069390
v 0.069390 0.861200 0.069390
v 0.069390 0.861200 0.930590
v 0.069390 0.984300 0.930590
v 0.130890 0.984300 0.130890
v 0.130890 0.959600 0.130890
v 0.130890 0.959600 0.869090
v 0.499990 0.959600 0.869090
v 0.499990 0.959600 0.130890
v 0.130890 0.861200 0.992190
v 0.499990 0.861200 0.992190
v 0.499990 0.984300 0.130890
v 0.499990 0.861200 0.130890
v 0.499990 0.861200 0.869090
v 0.130890 0.861200 0.869090
v 0.130890 0.861200 0.130890
v 0.376990 0.969500 0.623090
v 0.499990 0.969500 0.623090
v 0.499990 0.969500 0.376990
v 0.376990 0.969500 0.376990
vt 0.125200 0.718700
vt 0.125200 0.532200
vt 0.217400 0.532200
vt 0.217400 0.718700
vt 0.217400 0.718700
vt 0.217400 0.532200
vt 0.125300 0.532200
vt 0.125300 0.718700
vt 0.376700 0.626200
vt 0.435500 0.626200
vt 0.435500 0.748400
vt 0.376700 0.748400
vt 0.500000 0.125000
vt 0.125000 0.125000
vt 0.125000 0.000000
vt 0.500000 0.000000
vt 0.125000 0.125000
vt 0.875000 0.125000
vt 0.875000 0.000000
vt 0.125000 0.000000
vt 0.500000 0.000000
vt 0.500000 0.125000
vt 0.125000 0.125000
vt 0.125000 0.000000
vt 0.026100 0.000000
vt 0.026100 0.125000
vt 0.973900 0.125000
vt 0.973900 0.000000
vt 0.000000 0.875000
vt 0.000000 0.125000
vt 0.125000 0.875000
vt 0.875000 0.000000
vt 0.875000 0.125000
vt 0.500000 0.125000
vt 0.125000 1.000000
vt 0.062500 0.937500
vt 0.500000 0.875000
vt 0.500000 1.000000
vt 0.062500 0.062500
vt 0.500000 1.000000
vt 0.500000 0.875000
vt 0.125000 0.875000
vt 0.125000 1.000000
vt 0.500000 0.125000
vt 0.500000 0.000000
vt 0.125000 0.000000
vt 0.125000 0.125000
vt 0.000000 0.125000
vt 0.000000 0.875000
vt 0.062500 0.062500
vt 0.062500 0.937500
vt 0.071400 1.000000
vt 0.500000 1.000000
vt 0.500000 0.975000
vt 0.071400 0.975000
vt 0.500000 1.000000
vt 0.928600 1.000000
vt 0.928600 0.975000
vt 0.500000 0.975000
vt 0.125000 1.000000
vt 0.875000 1.000000
vt 0.875000 0.975000
vt 0.125000 0.975000
vt 0.875000 0.025000
vt 0.875000 0.125000
vt 0.125000 0.125000
vt 0.125000 0.025000
vt 1.000000 0.000000
vt 1.000000 0.125000
vt -0.000000 0.125000
vt -0.000000 0.000000
vt 0.125000 0.000000
vt 0.875000 0.000000
vn 0.0000 1.0000 0.0000
vn 0.0000 -1.0000 -0.0000
vn 0.0000 0.0000 -1.0000
vn -1.0000 -0.0000 0.0000
vn -0.7071 0.0000 -0.7071
vn -0.7074 -0.0000 0.7068
vn -0.7071 -0.0000 0.7071
vn 0.0000 -0.0000 1.0000
vn 1.0000 0.0000 0.0000
vn -0.7072 -0.0000 0.7070
usemtl mat_arcanearchives_master
f 50/74/11 51/75/11 52/76/11 53/77/11
f 57/78/12 58/79/12 59/80/12 60/81/12
f 61/82/11 62/83/11 63/84/11 64/85/11
usemtl mat_quartz
f 33/86/13 34/87/13 35/88/13 36/89/13
f 37/90/14 38/91/14 39/92/14 40/93/14
f 41/94/11 42/95/11 43/96/11 44/97/11
f 45/98/15 46/99/15 37/90/15 40/93/15
f 47/100/16 48/101/16 39/92/17 38/91/17
f 40/102/11 39/103/11 43/96/11 49/104/11
f 41/94/18 44/105/18 54/106/18 55/107/18
f 35/108/11 45/109/11 49/104/11
f 35/108/11 49/104/11 56/110/11 36/111/11
f 43/96/11 48/112/11 44/97/11
f 33/113/12 57/114/12 60/115/12 34/116/12
f 58/117/12 55/118/12 54/119/12 59/120/12
f 59/120/12 38/121/12 37/122/12 60/115/12
f 38/121/12 59/120/12 47/123/12
f 34/116/12 60/115/12 46/124/12
f 43/125/13 42/126/13 52/127/13 51/128/13
f 56/129/18 49/130/18 50/131/18 53/132/18
f 49/133/19 43/134/19 51/135/19 50/136/19
f 52/137/19 58/138/19 57/139/19 53/140/19
f 52/137/19 41/141/19 55/142/19 58/138/19
f 53/140/19 57/139/19 33/143/19 36/144/19
f 56/145/19 53/140/19 36/144/19
f 41/141/19 52/137/19 42/146/19
f 54/106/20 44/105/20 48/101/16 47/100/16
f 35/88/15 34/87/15 46/99/15 45/98/15
f 45/109/11 40/102/11 49/104/11
f 43/96/11 39/103/11 48/112/11
f 59/120/12 54/119/12 47/123/12
f 60/115/12 37/122/12 46/124/12
o box
v 0.869090 0.024600 0.130890
v 0.869090 0.024600 0.869090
v 0.130890 0.024600 0.869090
v 0.130890 0.024600 0.130890
v 0.869090 0.123000 0.967490
v 0.869090 0.738200 0.967490
v 0.130890 0.738200 0.967490
v 0.130890 0.123000 0.967490
v 0.967490 0.123000 0.130890
v 0.967490 0.738200 0.130890
v 0.967490 0.738200 0.869090
v 0.967490 0.123000 0.869090
v 0.130890 0.123000 0.032490
v 0.130890 0.738200 0.032490
v 0.869090 0.738200 0.032490
v 0.869090 0.123000 0.032490
v 0.032490 0.123000 0.869090
v 0.032490 0.738200 0.869090
v 0.032490 0.738200 0.130890
v 0.032490 0.123000 0.130890
v 0.130890 0.861200 0.992190
v 0.130890 0.738200 0.992190
v 0.869090 0.738200 0.992190
v 0.869090 0.861200 0.992190
v 0.869090 -0.000000 0.992190
v 0.869090 0.123000 0.992190
v 0.130890 0.123000 0.992190
v 0.130890 -0.000000 0.992190
v 0.992190 0.861200 0.869090
v 0.992190 0.738200 0.869090
v 0.992190 0.738200 0.130890
v 0.992190 0.861200 0.130890
v 0.992190 0.123000 0.130890
v 0.992190 0.123000 0.869090
v 0.992190 -0.000000 0.869090
v 0.992190 -0.000000 0.130890
v 0.869090 0.861200 0.007890
v 0.869090 0.738200 0.007890
v 0.130890 0.738200 0.007890
v 0.130890 0.861200 0.007890
v 0.130890 0.000000 0.007890
v 0.130890 0.123000 0.007890
v 0.869090 0.123000 0.007890
v 0.869090 0.000000 0.007890
v 0.007890 0.861200 0.130890
v 0.007890 0.738200 0.130890
v 0.007890 0.738200 0.869090
v 0.007890 0.861200 0.869090
v 0.007890 0.123000 0.869090
v 0.007890 0.123000 0.130890
v 0.007890 -0.000000 0.130890
v 0.007890 -0.000000 0.869090
v 0.869090 -0.000000 0.130890
v 0.130890 -0.000000 0.130890
v 0.130890 -0.000000 0.869090
v 0.869090 -0.000000 0.869090
v 0.930590 0.738200 0.930590
v 0.930590 0.123000 0.930590
v 0.930590 0.123000 0.069390
v 0.930590 0.738200 0.069390
v 0.069390 0.738200 0.069390
v 0.069390 0.123000 0.069390
v 0.069390 0.123000 0.930590
v 0.069390 0.738200 0.930590
v 0.930590 0.861200 0.930590
v 0.930590 0.861200 0.069390
v 0.930590 -0.000000 0.069390
v 0.930590 -0.000000 0.930590
v 0.069390 0.861200 0.069390
v 0.069390 0.861200 0.930590
v 0.069390 -0.000000 0.930590
v 0.069390 -0.000000 0.069390
v 0.869090 0.861200 0.869090
v 0.130890 0.861200 0.869090
v 0.130890 0.861200 0.130890
v 0.869090 0.861200 0.130890
vt 0.031600 0.718600
vt 0.031600 0.531300
vt 0.218600 0.531300
vt 0.218600 0.718600
vt 0.218600 0.531400
vt 0.218600 0.718600
vt 0.031500 0.718600
vt 0.031500 0.531400
vt 0.031500 0.531400
vt 0.031500 0.718600
vt 0.218600 0.718600
vt 0.218600 0.531400
vt 0.031500 0.531400
vt 0.031500 0.718600
vt 0.218600 0.718600
vt 0.218600 0.531400
vt 0.218600 0.531400
vt 0.218600 0.718600
vt 0.031500 0.718600
vt 0.031500 0.531400
vt 0.904900 0.085200
vt 0.961700 0.085200
vt 0.961700 0.029500
vt 0.904900 0.029500
vt 0.875000 1.000000
vt 0.875000 0.875000
vt 0.125000 0.875000
vt 0.125000 1.000000
vt 0.125000 0.000000
vt 0.125000 0.125000
vt 0.875000 0.125000
vt 0.875000 0.000000
vt 0.125000 1.000000
vt 0.125000 0.875000
vt 0.875000 0.875000
vt 0.875000 1.000000
vt 0.875000 0.125000
vt 0.125000 0.125000
vt 0.125000 -0.000000
vt 0.875000 -0.000000
vt 0.875000 1.000000
vt 0.875000 0.875000
vt 0.125000 0.875000
vt 0.125000 1.000000
vt 0.125000 -0.000000
vt 0.125000 0.125000
vt 0.875000 0.125000
vt 0.875000 -0.000000
vt 0.125000 1.000000
vt 0.125000 0.875000
vt 0.875000 0.875000
vt 0.875000 1.000000
vt 0.875000 0.125000
vt 0.125000 0.125000
vt 0.125000 0.000000
vt 0.875000 0.000000
vt 0.875000 0.875000
vt 0.125000 0.875000
vt 0.125000 1.000000
vt 0.875000 1.000000
vt 0.125000 0.000000
vt 0.125000 0.125000
vt 0.875000 0.125000
vt 0.875000 0.000000
vt 0.026100 0.875000
vt 0.026100 0.125000
vt 0.973900 0.125000
vt 0.973900 0.875000
vt 0.026100 0.875000
vt 0.026100 0.125000
vt 0.973900 0.125000
vt 0.973900 0.875000
vt 0.026100 1.000000
vt 0.973900 1.000000
vt 0.973900 -0.000000
vt 0.026100 -0.000000
vt 0.026100 1.000000
vt 0.973900 1.000000
vt 0.973900 0.000000
vt 0.026100 0.000000
vt 1.000000 0.875000
vt 1.000000 0.125000
vt 0.000000 0.125000
vt 0.000000 0.875000
vt 0.937500 0.937500
vt 0.062500 0.937500
vt 0.062500 0.062500
vt 0.937500 0.062500
vt 0.125000 0.000000
vt 0.875000 0.000000
vt 0.875000 0.125000
vt 0.125000 0.125000
vt 0.125000 0.875000
vt 0.875000 0.875000
vt 1.000000 0.125000
vt 1.000000 0.875000
vt 0.000000 0.875000
vt 0.000000 0.125000
vt 0.937500 0.937500
vt 0.062500 0.937500
vt 0.062500 0.062500
vt 0.937500 0.062500
vt 1.000000 0.125000
vt 1.000000 0.875000
vt 0.975000 0.875000
vt 0.975000 0.125000
vt 0.875000 0.000000
vt 0.125000 0.000000
vt 0.125000 0.025000
vt 0.875000 0.025000
vt 1.000000 0.875000
vt 1.000000 0.125000
vt 0.975000 0.125000
vt 0.975000 0.875000
vt 0.125000 0.000000
vt 0.875000 0.000000
vt 0.875000 0.025000
vt 0.125000 0.025000
vt 1.000000 0.125000
vt 1.000000 0.875000
vt 0.975000 0.875000
vt 0.975000 0.125000
vt 1.000000 0.125000
vt 1.000000 0.875000
vt 0.975000 0.875000
vt 0.975000 0.125000
vt 1.000000 0.125000
vt 0.975000 0.125000
vt 1.000000 0.875000
vt 0.975000 0.875000
vt 0.000000 0.125000
vt 0.000000 0.875000
vt 0.025000 0.875000
vt 0.025000 0.125000
vt 0.125000 1.000000
vt 0.875000 1.000000
vt 0.875000 0.975000
vt 0.125000 0.975000
vt 0.000000 0.875000
vt 0.000000 0.125000
vt 0.025000 0.125000
vt 0.025000 0.875000
vt 0.875000 1.000000
vt 0.125000 1.000000
vt 0.125000 0.975000
vt 0.875000 0.975000
vt 0.000000 0.875000
vt 0.000000 0.125000
vt 0.025000 0.125000
vt 0.025000 0.875000
vt -0.000000 0.875000
vt 0.025000 0.875000
vt 0.000000 0.125000
vt 0.000000 0.875000
vt 0.025000 0.875000
vt 0.025000 0.125000
vt 0.000000 0.125000
vt 0.025000 0.125000
vt 0.031600 0.718600
vt 0.031600 0.531300
vt 0.218600 0.531300
vt 0.218600 0.718600
vn 0.0000 -1.0000 -0.0000
vn 0.0000 -0.0000 1.0000
vn 1.0000 -0.0000 0.0000
vn 0.0000 0.0000 -1.0000
vn -1.0000 0.0000 0.0000
vn 0.0000 1.0000 -0.0000
vn 0.7071 -0.0000 0.7071
vn 0.7070 -0.0000 0.7072
vn 0.7068 0.0000 -0.7074
vn 0.7070 0.0000 -0.7072
vn 0.7069 0.0000 -0.7073
vn -0.7071 0.0000 -0.7071
vn -0.7074 -0.0000 0.7068
vn -0.7071 -0.0000 0.7071
vn 0.7071 -0.0000 -0.7071
vn 0.7069 0.0000 0.7073
vn 0.7072 -0.0000 0.7070
vn -0.7072 -0.0000 0.7070
usemtl mat_arcanearchives_master
f 65/147/21 66/148/21 67/149/21 68/150/21
f 69/151/22 70/152/22 71/153/22 72/154/22
f 73/155/23 74/156/23 75/157/23 76/158/23
f 77/159/24 78/160/24 79/161/24 80/162/24
f 81/163/25 82/164/25 83/165/25 84/166/25
f 139/167/26 138/168/26 137/169/26 140/170/26
usemtl mat_quartz
f 85/171/22 86/172/22 87/173/22 88/174/22
f 89/175/22 90/176/22 91/177/22 92/178/22
f 93/179/23 94/180/23 95/181/23 96/182/23
f 97/183/23 98/184/23 99/185/23 100/186/23
f 101/187/24 102/188/24 103/189/24 104/190/24
f 105/191/24 106/192/24 107/193/24 108/194/24
f 109/195/25 110/196/25 111/197/25 112/198/25
f 113/199/25 114/200/25 115/201/25 116/202/25
f 117/203/21 118/204/21 105/205/21 108/206/21
f 92/207/21 119/208/21 120/209/21 89/210/21
f 121/211/27 122/212/27 98/184/28 94/180/27
f 123/213/29 124/214/29 95/181/30 97/183/31
f 125/215/32 126/216/32 114/200/32 110/196/32
f 127/217/33 128/218/33 111/197/34 113/199/34
f 129/219/27 121/211/27 94/180/27 93/179/28
f 124/214/29 130/220/29 96/182/35 95/181/30
f 131/221/29 123/213/29 97/183/31 100/186/35
f 122/212/27 132/222/27 99/185/36 98/184/28
f 133/223/32 125/215/32 110/196/32 109/195/32
f 128/218/33 134/224/33 112/198/34 111/197/34
f 135/225/33 127/217/33 113/199/34 116/202/34
f 126/216/32 136/226/32 115/201/32 114/200/32
f 100/227/21 99/228/21 120/209/21 117/203/21
f 116/229/21 115/230/21 118/204/21 119/208/21
f 108/206/21 131/231/21 117/203/21
f 118/204/21 136/232/21 105/205/21
f 92/207/21 135/233/21 119/208/21
f 120/209/21 132/234/21 89/210/21
f 85/235/26 88/236/26 137/237/26 138/238/26
f 101/187/26 104/190/26 139/239/26 140/240/26
f 93/241/26 96/242/26 140/240/26 137/237/26
f 109/243/26 112/244/26 138/238/26 139/239/26
f 101/187/26 140/240/26 130/245/26
f 109/243/26 139/239/26 133/246/26
f 85/235/26 138/238/26 134/247/26
f 93/241/26 137/237/26 129/248/26
f 87/173/37 90/176/37 122/212/27 121/211/27
f 107/193/35 102/188/35 124/214/29 123/213/29
f 103/189/32 106/192/32 126/216/32 125/215/32
f 91/177/38 86/172/38 128/218/33 127/217/33
f 88/174/37 87/173/37 121/211/27 129/219/27
f 102/188/35 101/187/35 130/220/29 124/214/29
f 108/194/35 107/193/35 123/213/29 131/221/29
f 90/176/37 89/175/27 132/222/27 122/212/27
f 104/190/32 103/189/32 125/215/32 133/223/32
f 86/172/38 85/171/38 134/224/33 128/218/33
f 92/178/34 91/177/38 127/217/33 135/225/33
f 106/192/32 105/191/32 136/226/32 126/216/32
f 140/240/26 96/242/26 130/245/26
f 139/239/26 104/190/26 133/246/26
f 138/238/26 112/244/26 134/247/26
f 137/237/26 88/236/26 129/248/26
f 131/231/21 100/227/21 117/203/21
f 118/204/21 115/230/21 136/232/21
f 135/233/21 116/229/21 119/208/21
f 120/209/21 99/228/21 132/234/21
f 90/249/25 87/250/25 70/251/25 69/252/25
f 87/253/21 86/254/21 71/255/21 70/256/21
f 86/257/23 91/258/23 72/259/23 71/260/23
f 91/261/26 90/262/26 69/263/26 72/264/26
f 98/265/26 97/266/26 73/267/26 76/268/26
f 97/269/22 95/270/22 74/271/22 73/272/22
f 95/270/21 94/273/21 75/274/21 74/271/21
f 94/275/24 98/265/24 76/268/24 75/276/24
f 106/277/23 103/278/23 78/279/23 77/280/23
f 103/281/21 102/282/21 79/283/21 78/284/21
f 102/285/25 107/286/25 80/287/25 79/288/25
f 107/289/26 106/290/26 77/291/26 80/292/26
f 114/293/26 113/294/26 81/295/26 84/296/26
f 113/294/24 111/297/24 82/298/24 81/295/24
f 111/299/21 110/300/21 83/301/21 82/302/21
f 110/300/22 114/303/22 84/304/22 83/301/22
f 117/305/25 120/306/25 66/148/25 65/147/25
f 120/306/24 119/307/24 67/149/24 66/148/24
f 119/307/23 118/308/23 68/150/23 67/149/23
f 118/308/22 117/305/22 65/147/22 68/150/22
