# Blender v2.79 (sub 0) OBJ File: 'radiantfurnace.blend'
# www.blender.org
mtllib radiant_furnace.mtl
o Cylinder
v 1.000000 1.000000 0.500000
v 0.750000 1.000000 0.933013
v 0.250000 1.000000 0.933013
v 0.000000 1.000000 0.500000
v 0.250000 1.000000 0.066987
v 0.750000 1.000000 0.066987
v 1.000000 0.875000 0.500000
v 0.750000 0.875000 0.933013
v 0.250000 0.875000 0.933013
v 0.000000 0.875000 0.500000
v 0.250000 0.875000 0.066987
v 0.750000 0.875000 0.066987
v 0.828125 0.000000 0.310557
v 0.828125 0.000000 0.689443
v 0.718750 0.000000 0.121114
v 0.281250 0.000000 0.121114
v 0.062500 0.000000 0.500000
v 0.281250 0.000000 0.878886
v 0.718750 0.750000 0.121114
v 0.281250 0.750000 0.121114
v 0.062500 0.750000 0.500000
v 0.281250 0.750000 0.878886
v 0.718750 0.750000 0.878886
v 0.718750 0.125000 0.878886
v 0.062500 0.125000 0.500000
v 0.281250 0.125000 0.121114
v 0.718750 0.125000 0.121114
v 0.687500 0.875000 0.824760
v 0.687500 0.750000 0.824760
v 0.312500 0.875000 0.824759
v 0.312500 0.750000 0.824759
v 0.125000 0.875000 0.500000
v 0.125000 0.750000 0.500000
v 0.312500 0.875000 0.175240
v 0.312500 0.750000 0.175240
v 0.687500 0.875000 0.175240
v 0.687500 0.750000 0.175240
v 0.875000 0.750000 0.500000
v 0.875000 0.875000 0.500000
v 0.718750 0.000000 0.878886
v 0.828125 0.750000 0.689443
v 0.828125 0.125000 0.689443
v 0.828125 0.750000 0.310557
v 1.125000 1.000000 0.500000
v 1.312500 1.000000 0.824760
v 1.687500 1.000000 0.824760
v 1.875000 1.000000 0.500000
v 1.687500 1.000000 0.175240
v 1.312500 1.000000 0.175240
v 1.171875 0.000000 0.689443
v 1.171875 0.000000 0.310557
v 1.281250 0.000000 0.878886
v 1.718750 0.000000 0.878886
v 1.937500 0.000000 0.500000
v 1.718750 0.000000 0.121114
v 1.343750 0.687500 0.878886
v 1.656250 0.687500 0.878886
v 1.937500 0.750000 0.500000
v 1.718750 0.750000 0.121114
v 1.281250 0.750000 0.121114
v 1.281250 0.125000 0.121114
v 1.718750 0.125000 0.121114
v 1.937500 0.125000 0.500000
v 1.656250 0.187500 0.878886
v 1.343750 0.187500 0.878886
v 1.406250 1.250000 0.337620
v 1.312500 0.750000 0.175240
v 1.593750 1.250000 0.337620
v 1.687500 0.750000 0.175240
v 1.687500 1.250000 0.500000
v 1.875000 0.750000 0.500000
v 1.593750 1.250000 0.662380
v 1.687500 0.750000 0.824760
v 1.406250 1.250000 0.662380
v 1.312500 0.750000 0.824760
v 1.125000 0.750000 0.500000
v 1.312500 1.250000 0.500000
v 1.281250 0.000000 0.121114
v 1.171875 0.750000 0.310557
v 1.171875 0.750000 0.689443
v 0.281250 0.125000 0.878886
v 0.281250 0.000000 0.878886
v 0.281250 0.000000 0.121114
v 0.062500 0.000000 0.500000
v 0.718750 0.000000 0.121114
v 0.828125 0.000000 0.310557
v 0.828125 0.125000 0.310557
v 0.718750 0.000000 0.878886
v 0.828125 0.000000 0.689443
v 1.718750 0.000000 0.121114
v 1.718750 0.125000 0.878886
v 1.718750 0.000000 0.878886
v 1.937500 0.000000 0.500000
v 1.281250 0.000000 0.878886
v 1.281250 0.125000 0.878886
v 1.171875 0.000000 0.689443
v 1.171875 0.125000 0.689443
v 1.281250 0.000000 0.121114
v 1.171875 0.000000 0.310557
v 1.171875 0.125000 0.310557
v 0.250000 0.125000 0.933013
v 0.250000 0.000000 0.933013
v 0.250000 0.125000 0.066987
v 0.250000 0.000000 0.066987
v 0.000000 0.000000 0.500000
v 0.000000 0.125000 0.500000
v 0.750000 0.000000 0.066987
v 0.750000 0.125000 0.066987
v 0.859375 0.000000 0.256430
v 0.859375 0.125000 0.256430
v 0.750000 0.125000 0.933013
v 0.750000 0.000000 0.933013
v 0.859375 0.000000 0.743570
v 0.859375 0.125000 0.743570
v 1.750000 0.125000 0.066987
v 1.750000 0.000000 0.066987
v 1.750000 0.125000 0.933013
v 1.750000 0.000000 0.933013
v 2.000000 0.000000 0.500000
v 2.000000 0.125000 0.500000
v 1.250000 0.000000 0.933013
v 1.250000 0.125000 0.933013
v 1.140625 0.000000 0.743570
v 1.140625 0.125000 0.743570
v 1.250000 0.125000 0.066987
v 1.250000 0.000000 0.066987
v 1.140625 0.000000 0.256430
v 1.140625 0.125000 0.256430
v 1.562500 1.500000 0.608253
v 1.406250 1.375000 0.337620
v 1.625000 1.500000 0.716506
v 1.312500 1.375000 0.500000
v 1.593750 1.375000 0.337620
v 1.687500 1.375000 0.500000
v 1.593750 1.375000 0.662380
v 1.406250 1.375000 0.662380
v 0.875000 1.000000 0.500000
v 0.687500 1.000000 0.824760
v 0.312500 1.000000 0.824759
v 0.125000 1.000000 0.500000
v 0.312500 1.000000 0.175240
v 0.687500 1.000000 0.175240
v 0.687500 0.500000 0.500000
v 0.593750 0.500000 0.662380
v 0.406250 0.500000 0.662380
v 0.312500 0.500000 0.500000
v 0.406250 0.500000 0.337620
v 0.593750 0.500000 0.337620
v 1.437500 1.500000 0.608253
v 1.375000 1.500000 0.500000
v 1.562500 1.500000 0.391747
v 1.625000 1.500000 0.500000
v 1.500000 1.250000 0.500000
v 1.718750 0.750000 0.878886
v 1.281250 0.750000 0.878886
v 1.656250 0.687500 0.500000
v 1.343750 0.687500 0.500000
v 1.656250 0.187500 0.500000
v 1.343750 0.187500 0.500000
v 1.375000 1.500000 0.716506
v 1.250000 1.500000 0.500000
v 1.375000 1.500000 0.283494
v 1.625000 1.500000 0.283494
v 1.625000 1.375000 0.283494
v 1.750000 1.375000 0.500000
v 1.375000 1.375000 0.283494
v 1.750000 1.500000 0.500000
v 1.625000 1.375000 0.716506
v 1.375000 1.375000 0.716506
v 1.250000 1.375000 0.500000
v 1.437500 1.500000 0.391747
vt 0.000000 0.875000
vt 0.000000 0.937500
vt 0.250000 0.937500
vt 0.250000 0.875000
vt 0.000000 0.937500
vt 0.000000 0.875000
vt 0.250000 0.937500
vt 0.250000 0.875000
vt 0.000000 0.937500
vt 0.000000 0.875000
vt 0.250000 0.937500
vt 0.250000 0.875000
vt 1.000000 0.968750
vt 0.984375 1.000000
vt 0.875000 0.968750
vt 0.018316 0.984390
vt 0.013428 0.984390
vt 0.013428 0.987212
vt 0.018316 0.987212
vt 0.984375 0.968750
vt 0.968750 1.000000
vt 0.781250 1.000000
vt 0.765625 0.968750
vt 0.875000 0.968750
vt 0.984375 1.000000
vt 0.765625 1.000000
vt 1.000000 0.875000
vt 0.750000 0.875000
vt 0.781250 0.937500
vt 0.968750 0.937500
vt 0.750000 0.875000
vt 1.000000 0.875000
vt 0.968750 0.937500
vt 0.781250 0.937500
vt 0.984375 0.968750
vt 0.968750 1.000000
vt 0.781250 1.000000
vt 0.765625 0.968750
vt 0.750000 0.875000
vt 0.781250 0.937500
vt 0.218750 0.562500
vt 0.218750 0.875000
vt 0.000000 0.875000
vt 0.000000 0.562500
vt 0.218750 0.562500
vt 0.218750 0.875000
vt 0.000000 0.875000
vt 0.000000 0.562500
vt 0.218750 0.562500
vt 0.218750 0.875000
vt 0.000000 0.875000
vt 0.000000 0.562500
vt 0.218750 0.562500
vt 0.218750 0.875000
vt 0.000000 0.875000
vt 0.000000 0.562500
vt 0.875000 0.000000
vt 0.875000 0.312500
vt 1.000000 0.312500
vt 1.000000 0.000000
vt 0.250000 0.875000
vt 0.250000 0.937500
vt 0.437500 0.937500
vt 0.437500 0.875000
vt 0.437500 0.875000
vt 0.437500 0.937500
vt 0.437500 0.875000
vt 0.437500 0.937500
vt 0.250000 0.937500
vt 0.250000 0.875000
vt 0.437500 0.875000
vt 0.437500 0.937500
vt 0.250000 0.937500
vt 0.250000 0.875000
vt 0.250000 0.875000
vt 0.250000 0.937500
vt 1.000000 0.875000
vt 0.968750 0.937500
vt 0.984375 0.968750
vt 0.968750 1.000000
vt 0.781250 1.000000
vt 0.765625 0.968750
vt 0.984375 0.968750
vt 0.968750 1.000000
vt 0.781250 1.000000
vt 0.765625 0.968750
vt 0.750000 0.968750
vt 0.765625 1.000000
vt 0.875000 0.000000
vt 0.875000 0.312500
vt 1.000000 0.312500
vt 1.000000 0.000000
vt 0.250000 0.875000
vt 0.250000 0.937500
vt 0.437500 0.937500
vt 0.437500 0.875000
vt 1.000000 0.968750
vt 0.984375 1.000000
vt 0.875000 0.968750
vt 0.984375 0.968750
vt 0.968750 1.000000
vt 0.781250 1.000000
vt 0.765625 0.968750
vt 0.875000 0.968750
vt 0.984375 1.000000
vt 0.765625 1.000000
vt 0.375000 0.250000
vt 0.562500 0.250000
vt 0.515625 0.406250
vt 0.421875 0.406250
vt 0.984375 0.968750
vt 0.968750 1.000000
vt 0.781250 1.000000
vt 0.765625 0.968750
vt 0.750000 0.250000
vt 0.562500 0.250000
vt 0.562500 0.125000
vt 0.750000 0.125000
vt 0.656250 0.562500
vt 0.656250 0.812500
vt 0.843750 0.812500
vt 0.843750 0.562500
vt 0.218750 0.562500
vt 0.218750 0.875000
vt 0.000000 0.875000
vt 0.000000 0.562500
vt 0.218750 0.562500
vt 0.218750 0.875000
vt 0.000000 0.875000
vt 0.000000 0.562500
vt 0.218750 0.562500
vt 0.218750 0.875000
vt 0.000000 0.875000
vt 0.000000 0.562500
vt 0.875000 0.000000
vt 0.875000 0.312500
vt 1.000000 0.312500
vt 1.000000 0.000000
vt 0.375000 0.250000
vt 0.375000 0.125000
vt 0.187500 0.250000
vt 0.328125 0.406250
vt 0.234375 0.406250
vt 0.375000 0.125000
vt 0.187500 0.125000
vt 0.187500 0.000000
vt 0.375000 0.000000
vt 0.750000 0.000000
vt 0.750000 0.125000
vt 0.562500 0.125000
vt 0.562500 0.000000
vt 0.375000 0.406250
vt 0.562500 0.406250
vt 0.515625 0.562500
vt 0.421875 0.562500
vt 0.187500 0.406250
vt 0.328125 0.562500
vt 0.234375 0.562500
vt 0.984375 0.968750
vt 0.968750 1.000000
vt 0.781250 1.000000
vt 0.765625 0.968750
vt 0.984375 0.968750
vt 0.968750 1.000000
vt 0.781250 1.000000
vt 0.765625 0.968750
vt 0.750000 0.968750
vt 0.765625 1.000000
vt 1.000000 0.000000
vt 1.000000 0.312500
vt 0.875000 0.312500
vt 0.875000 0.000000
vt 0.875000 0.816578
vt 0.750000 0.816578
vt 0.781250 0.870704
vt 0.843750 0.870704
vt 0.750000 0.250000
vt 0.703125 0.406250
vt 0.609375 0.406250
vt 0.750000 0.406250
vt 0.703125 0.562500
vt 0.609375 0.562500
vt 0.343750 0.562500
vt 0.500000 0.562500
vt 0.500000 0.875000
vt 0.343750 0.875000
vt 0.562500 1.000000
vt 0.718750 1.000000
vt 0.697443 0.890625
vt 0.583807 0.890625
vt 0.718750 1.000000
vt 0.562500 1.000000
vt 0.500000 0.875000
vt 0.343750 0.875000
vt 0.343750 0.562500
vt 0.500000 0.562500
vt 0.984375 0.968750
vt 0.765625 0.968750
vt 0.750000 0.937500
vt 1.000000 0.937500
vt 0.984375 0.968750
vt 0.765625 0.968750
vt 0.750000 0.937500
vt 1.000000 0.937500
vt 0.531250 0.984375
vt 0.531250 0.859375
vt 0.562500 0.875000
vt 0.562500 1.000000
vt 0.984375 0.968750
vt 0.765625 0.968750
vt 0.750000 0.937500
vt 1.000000 0.937500
vt 0.984375 0.968750
vt 0.765625 0.968750
vt 0.750000 0.937500
vt 1.000000 0.937500
vt 0.562500 0.859375
vt 0.562500 0.984375
vt 0.531250 1.000000
vt 0.531250 0.875000
vt 0.250000 1.000000
vt 0.000000 1.000000
vt 0.000000 0.937500
vt 0.250000 0.937500
vt 0.000000 1.000000
vt 0.250000 1.000000
vt 0.250000 0.937500
vt 0.000000 0.937500
vt 0.250000 1.000000
vt -0.000000 1.000000
vt 0.000000 0.937500
vt 0.250000 0.937500
vt 0.250000 1.000000
vt 0.250000 0.937500
vt 0.375000 1.000000
vt 0.375000 0.937500
vt 0.250000 1.000000
vt 0.375000 1.000000
vt 0.375000 0.937500
vt 0.250000 0.937500
vt 0.000000 1.000000
vt 0.250000 1.000000
vt 0.250000 0.937500
vt 0.000000 0.937500
vt 0.250000 1.000000
vt 0.000000 1.000000
vt 0.000000 0.937500
vt 0.250000 0.937500
vt 0.000000 1.000000
vt 0.250000 1.000000
vt 0.250000 0.937500
vt 0.000000 0.937500
vt 0.000000 1.000000
vt 0.000000 0.937500
vt 0.375000 1.000000
vt 0.250000 1.000000
vt 0.250000 0.937500
vt 0.375000 0.937500
vt 0.375000 1.000000
vt 0.250000 1.000000
vt 0.250000 0.937500
vt 0.375000 0.937500
vt 0.382812 0.937500
vt 0.523438 0.937500
vt 0.523438 1.000000
vt 0.382812 1.000000
vt 0.382812 1.000000
vt 0.523438 1.000000
vt 0.523438 0.937500
vt 0.382812 0.937500
vt 0.554631 0.814750
vt 0.726506 0.814750
vt 0.710881 0.841813
vt 0.570256 0.841813
vt 0.562500 0.859375
vt 0.562500 0.984375
vt 0.531250 1.000000
vt 0.531250 0.875000
vt 0.554631 0.814750
vt 0.726506 0.814750
vt 0.710881 0.841812
vt 0.570256 0.841812
vt 0.984375 0.968750
vt 0.765625 0.968750
vt 0.750000 0.937500
vt 1.000000 0.937500
vt 0.984375 0.968750
vt 0.765625 0.968750
vt 0.750000 0.937500
vt 1.000000 0.937500
vt 0.984375 0.968750
vt 0.765625 0.968750
vt 0.750000 0.937500
vt 1.000000 0.937500
vt 0.984375 0.968750
vt 0.765625 0.968750
vt 0.750000 0.937500
vt 1.000000 0.937500
vt 0.531250 0.984375
vt 0.531250 0.859375
vt 0.562500 0.875000
vt 0.562500 1.000000
vt 0.187500 0.250000
vt 0.187500 0.125000
vt 0.765625 0.374891
vt 0.859375 0.374891
vt 0.875000 0.347828
vt 0.750000 0.347828
vt 0.750000 0.816578
vt 0.875000 0.816578
vt 0.843750 0.870704
vt 0.781250 0.870704
vt 0.765625 0.374891
vt 0.859375 0.374891
vt 0.875000 0.347828
vt 0.750000 0.347828
vt 0.765625 0.374891
vt 0.750000 0.347828
vt 0.750000 0.816577
vt 0.843750 0.870704
vt 0.781250 0.870704
vt 0.984375 0.312500
vt 0.890625 0.312500
vt 0.890625 0.375000
vt 0.984375 0.375000
vt 0.984375 0.312500
vt 0.890625 0.312500
vt 0.890625 0.375000
vt 0.984375 0.375000
vt 0.984375 0.312500
vt 0.984375 0.375000
vt 0.890625 0.312500
vt 0.890625 0.375000
vt 0.843750 0.870704
vt 0.859375 0.374891
vt 0.875000 0.347827
vt 0.875000 0.816578
vt 0.843750 0.870704
vt 0.781250 0.870704
vt 0.843750 0.870704
vt 0.020218 0.983292
vt 0.011527 0.983292
vt 0.020218 0.978275
vt 0.011527 0.978275
vt 0.015872 0.975766
vt 0.011527 0.988310
vt 0.020218 0.988310
vt 0.011527 0.993327
vt 0.020218 0.993327
vt 0.015872 0.995836
vt 1.000000 0.875000
vt 0.750000 0.875000
vt 0.781250 0.937500
vt 0.968750 0.937500
vt 1.000000 0.875000
vt 0.750000 0.875000
vt 0.781250 0.937500
vt 0.968750 0.937500
vt 1.000000 0.875000
vt 0.750000 0.875000
vt 0.781250 0.937500
vt 0.968750 0.937500
vt 0.000000 0.437500
vt 0.187500 0.437500
vt 0.140625 0.187500
vt 0.046875 0.187500
vt 0.187500 0.437500
vt 0.000000 0.437500
vt 0.046875 0.187500
vt 0.140625 0.187500
vt 0.187500 0.437500
vt 0.140625 0.187500
vt 0.000000 0.437500
vt 0.046875 0.187500
vt 0.093750 0.000000
vt 0.093750 0.187500
vt 0.012560 0.140625
vt 0.012560 0.046875
vt 0.937500 0.750000
vt 1.000000 0.750000
vt 0.968750 0.875000
vt 0.937500 0.750000
vt 1.000000 0.750000
vt 0.937500 0.750000
vt 1.000000 0.750000
vt 0.031250 0.843750
vt 0.187500 0.843750
vt 0.218750 0.875000
vt 0.000000 0.875000
vt 0.187500 0.593750
vt 0.218750 0.562500
vt 0.031250 0.593750
vt 0.000000 0.562500
vt 0.656250 0.562500
vt 0.656250 0.812500
vt 0.500000 0.812500
vt 0.500000 0.562500
vt 0.656250 0.812500
vt 0.656250 0.562500
vt 0.843750 0.562500
vt 0.843750 0.812500
vt 0.750000 0.562500
vt 0.906250 0.562500
vt 0.906250 0.375000
vt 0.750000 0.375000
vt 0.843750 0.562500
vt 1.000000 0.562500
vt 1.000000 0.750000
vt 0.843750 0.750000
vt 0.174940 0.046875
vt 0.174940 0.140625
vt 0.875000 0.281250
vt 0.750000 0.281250
vt 0.750000 0.343750
vt 0.875000 0.343750
vt 0.875000 0.281250
vt 0.750000 0.281250
vt 0.750000 0.343750
vt 0.875000 0.343750
vt 0.750000 0.281250
vt 0.750000 0.343750
vt 0.875000 0.281250
vt 0.875000 0.343750
vn 0.8660 0.0000 0.5000
vn 0.0000 0.0000 1.0000
vn -0.8660 0.0000 0.5000
vn -0.8660 0.0000 -0.5000
vn 0.0000 0.0000 -1.0000
vn 0.0000 1.0000 0.0000
vn 0.0000 -1.0000 0.0000
vn 0.8660 0.0000 -0.5000
vn -0.7263 0.5447 -0.4193
vn -1.0000 0.0000 0.0000
vn 0.0000 0.5447 -0.8386
vn 0.7263 0.5447 0.4193
vn 0.0000 0.5447 0.8386
vn -0.7263 0.5447 0.4193
vn 0.7263 0.5447 -0.4193
vn -0.8237 0.3089 -0.4756
vn 0.8237 0.3089 0.4756
vn 0.0000 0.3089 -0.9511
vn -0.8237 0.3089 0.4756
vn 0.0000 0.3089 0.9511
vn 0.8237 0.3089 -0.4756
vn 0.0000 0.3974 0.9177
vn -0.7947 0.3974 -0.4588
vn -0.7947 0.3974 0.4588
vn 0.7947 0.3974 0.4588
vn 0.7947 0.3974 -0.4588
vn 0.0000 0.3974 -0.9177
vn 1.0000 0.0000 0.0000
usemtl None
s off
f 7/1/1 1/2/1 2/3/1 8/4/1
f 8/4/2 2/3/2 3/5/2 9/6/2
f 9/6/3 3/5/3 4/7/3 10/8/3
f 10/8/4 4/7/4 5/9/4 11/10/4
f 11/10/5 5/9/5 6/11/5 12/12/5
f 19/13/6 37/14/6 43/15/6
f 113/16/7 109/17/7 127/18/7 123/19/7
f 20/20/6 35/21/6 37/22/6 19/23/6
f 41/24/6 38/25/6 29/26/6
f 11/27/7 12/28/7 36/29/7 34/30/7
f 8/31/7 9/32/7 30/33/7 28/34/7
f 21/35/6 33/36/6 35/37/6 20/38/6
f 9/32/7 10/39/7 32/40/7 30/33/7
f 26/41/5 20/42/5 19/43/5 27/44/5
f 25/45/4 21/46/4 20/47/4 26/48/4
f 81/49/3 22/50/3 21/51/3 25/52/3
f 24/53/2 23/54/2 22/55/2 81/56/2
f 42/57/1 41/58/1 23/59/1 24/60/1
f 35/61/5 34/62/5 36/63/5 37/64/5
f 33/65/4 32/66/4 34/62/4 35/61/4
f 31/67/3 30/68/3 32/69/3 33/70/3
f 29/71/2 28/72/2 30/73/2 31/74/2
f 38/75/1 39/76/1 28/72/1 29/71/1
f 7/77/7 8/31/7 28/34/7 39/78/7
f 22/79/6 31/80/6 33/81/6 21/82/6
f 10/39/7 11/27/7 34/30/7 32/40/7
f 23/83/6 29/84/6 31/85/6 22/86/6
f 23/87/6 41/24/6 29/26/6
f 37/14/6 38/88/6 43/15/6
f 27/89/8 19/90/8 43/91/8 87/92/8
f 12/28/7 7/77/7 39/78/7 36/29/7
f 12/12/8 6/11/8 1/2/8 7/1/8
f 37/93/8 36/94/8 39/95/8 38/96/8
f 155/97/6 75/98/6 80/99/6
f 154/100/6 73/101/6 75/102/6 155/103/6
f 79/104/6 76/105/6 67/106/6
f 49/107/9 44/108/9 77/109/9 66/110/9
f 58/111/6 71/112/6 73/113/6 154/114/6
f 48/115/8 47/116/8 71/117/8 69/118/8
f 64/119/10 57/120/10 156/121/10 158/122/10
f 63/123/1 58/124/1 154/125/1 91/126/1
f 62/127/8 59/128/8 58/129/8 63/130/8
f 61/131/5 60/132/5 59/133/5 62/134/5
f 100/135/4 79/136/4 60/137/4 61/138/4
f 71/117/1 47/116/1 46/139/1 73/140/1
f 48/141/11 49/107/11 66/142/11 68/143/11
f 49/144/5 48/145/5 69/146/5 67/147/5
f 75/148/3 45/149/3 44/150/3 76/151/3
f 46/152/12 47/153/12 70/154/12 72/155/12
f 45/156/13 46/152/13 72/157/13 74/158/13
f 59/159/6 69/160/6 71/161/6 58/162/6
f 76/151/4 44/150/4 49/144/4 67/147/4
f 60/163/6 67/164/6 69/165/6 59/166/6
f 60/167/6 79/104/6 67/106/6
f 75/98/6 76/168/6 80/99/6
f 95/169/3 155/170/3 80/171/3 97/172/3
f 163/173/6 162/174/6 171/175/6 151/176/6
f 44/108/14 45/177/14 74/178/14 77/179/14
f 47/153/15 48/180/15 68/181/15 70/182/15
f 42/183/2 97/184/2 80/185/2 41/186/2
f 41/187/6 80/188/6 76/189/6 38/190/6
f 38/190/6 76/189/6 79/191/6 43/192/6
f 43/193/5 79/194/5 100/195/5 87/196/5
f 26/197/6 27/198/6 108/199/6 103/200/6
f 25/201/6 26/202/6 103/203/6 106/204/6
f 95/205/6 97/206/6 124/207/6 122/208/6
f 81/209/6 25/210/6 106/211/6 101/212/6
f 24/213/6 81/214/6 101/215/6 111/216/6
f 42/217/6 24/218/6 111/219/6 114/220/6
f 101/221/3 106/222/3 105/223/3 102/224/3
f 103/225/5 108/226/5 107/227/5 104/228/5
f 111/229/2 101/230/2 102/231/2 112/232/2
f 106/233/4 103/225/4 104/228/4 105/234/4
f 108/226/8 110/235/8 109/236/8 107/227/8
f 114/237/1 111/238/1 112/239/1 113/240/1
f 115/241/8 120/242/8 119/243/8 116/244/8
f 117/245/2 122/246/2 121/247/2 118/248/2
f 125/249/5 115/250/5 116/251/5 126/252/5
f 120/253/1 117/245/1 118/248/1 119/254/1
f 122/255/3 124/256/3 123/257/3 121/258/3
f 128/259/4 125/260/4 126/261/4 127/262/4
f 113/263/2 123/264/2 124/265/2 114/266/2
f 110/267/5 128/268/5 127/269/5 109/270/5
f 97/271/6 42/272/6 114/273/6 124/274/6
f 100/275/6 61/276/6 125/277/6 128/278/6
f 87/279/6 100/280/6 128/281/6 110/282/6
f 61/283/6 62/284/6 115/285/6 125/286/6
f 62/287/6 63/288/6 120/289/6 115/290/6
f 63/291/6 91/292/6 117/293/6 120/294/6
f 91/295/6 95/296/6 122/297/6 117/298/6
f 27/299/6 87/300/6 110/301/6 108/302/6
f 46/139/2 45/303/2 75/304/2 73/140/2
f 130/305/7 132/306/7 170/307/7 166/308/7
f 160/309/6 131/310/6 129/311/6 149/312/6
f 136/313/7 135/314/7 168/315/7 169/316/7
f 135/314/7 134/317/7 165/318/7 168/315/7
f 167/319/6 163/173/6 151/320/6 152/321/6
f 68/322/5 66/323/5 130/324/5 133/325/5
f 72/326/1 70/327/1 134/328/1 135/329/1
f 66/323/4 77/330/4 132/331/4 130/324/4
f 77/330/3 74/332/3 136/333/3 132/331/3
f 70/327/8 68/322/8 133/325/8 134/328/8
f 74/332/2 72/326/2 135/329/2 136/333/2
f 131/310/6 167/319/6 152/321/6 129/334/6
f 134/317/7 133/335/7 164/336/7 165/318/7
f 133/335/7 130/305/7 166/308/7 164/336/7
f 162/174/6 161/337/6 150/338/6 171/175/6
f 161/337/6 160/309/6 149/339/6 150/340/6
f 132/306/7 136/313/7 169/316/7 170/307/7
f 109/17/7 113/16/7 112/341/7 107/342/7
f 107/342/7 112/341/7 102/343/7 104/344/7
f 105/345/7 104/344/7 102/343/7
f 123/19/7 127/18/7 126/346/7 121/347/7
f 121/347/7 126/346/7 116/348/7 118/349/7
f 119/350/7 118/349/7 116/348/7
f 6/351/6 5/352/6 141/353/6 142/354/6
f 4/355/6 3/356/6 139/357/6 140/358/6
f 2/359/6 1/360/6 137/361/6 138/362/6
f 1/360/6 6/351/6 142/354/6 137/361/6
f 5/352/6 4/355/6 140/358/6 141/353/6
f 3/356/6 2/359/6 138/362/6 139/357/6
f 138/363/16 137/364/16 143/365/16 144/366/16
f 141/367/17 140/368/17 146/369/17 147/370/17
f 139/371/18 138/363/18 144/366/18 145/372/18
f 137/364/19 142/373/19 148/374/19 143/365/19
f 142/373/20 141/367/20 147/370/20 148/374/20
f 140/368/21 139/371/21 145/372/21 146/369/21
f 146/375/6 143/376/6 148/377/6 147/378/6
f 151/379/22 171/380/22 153/381/22
f 129/382/23 152/383/23 153/381/23
f 152/383/24 151/379/24 153/381/24
f 171/380/25 150/384/25 153/381/25
f 150/384/26 149/385/26 153/381/26
f 149/385/27 129/382/27 153/381/27
f 56/386/2 57/387/2 154/388/2 155/389/2
f 57/387/2 64/390/2 91/391/2 154/388/2
f 65/392/2 56/386/2 155/389/2 95/393/2
f 64/390/2 65/392/2 95/393/2 91/391/2
f 158/394/2 156/395/2 157/396/2 159/397/2
f 56/398/28 65/399/28 159/400/28 157/401/28
f 57/402/7 56/403/7 157/404/7 156/405/7
f 65/406/6 64/407/6 158/408/6 159/409/6
f 145/410/6 144/411/6 143/376/6 146/375/6
f 169/412/2 168/413/2 131/414/2 160/415/2
f 165/416/8 164/417/8 163/418/8 167/419/8
f 170/420/3 169/412/3 160/415/3 161/421/3
f 166/422/4 170/420/4 161/421/4 162/423/4
f 168/413/1 165/416/1 167/419/1 131/414/1
f 164/417/5 166/422/5 162/423/5 163/418/5
l 98 78
l 51 99
l 17 84
l 88 40
l 53 92
l 89 14
l 96 50
l 52 94
l 85 15
l 16 83
l 18 82
l 13 86
l 54 93
l 55 90
