# Blender v2.79 (sub 0) OBJ File: ''
# www.blender.org
mtllib radiant_resonator.mtl
o Crossbars
v 0.217070 0.332200 0.236570
v 0.217070 0.406000 0.236570
v 0.217070 0.406000 0.763470
v 0.217070 0.332200 0.763470
v 0.143170 0.406000 0.236570
v 0.143170 0.406000 0.763470
v 0.143170 0.332200 0.236570
v 0.143170 0.332200 0.763470
v 0.763470 0.332200 0.782970
v 0.236470 0.332200 0.782970
v 0.236470 0.406000 0.782970
v 0.763470 0.406000 0.782970
v 0.236470 0.406000 0.856770
v 0.763470 0.406000 0.856770
v 0.236470 0.332200 0.856770
v 0.763470 0.332200 0.856770
v 0.236470 0.332200 0.217070
v 0.763470 0.332200 0.217070
v 0.763470 0.406000 0.217070
v 0.236470 0.406000 0.217070
v 0.763470 0.406000 0.143170
v 0.236470 0.406000 0.143170
v 0.763470 0.332200 0.143170
v 0.236470 0.332200 0.143170
v 0.782970 0.332200 0.763470
v 0.782970 0.406000 0.763470
v 0.782970 0.406000 0.236570
v 0.782970 0.332200 0.236570
v 0.856770 0.406000 0.236570
v 0.856770 0.406000 0.763470
v 0.856770 0.332200 0.236570
v 0.856770 0.332200 0.763470
vt 0.156200 0.992700
vt 0.096200 0.992700
vt 0.096200 0.831300
vt 0.156200 0.831300
vt 0.156200 0.992700
vt 0.156200 0.831300
vt 0.096200 0.831300
vt 0.156200 0.831300
vt 0.156200 0.992700
vt 0.096200 0.992700
vt 0.096200 0.831300
vt 0.096200 0.992700
vt 0.156200 0.992700
vt 0.156200 0.831300
vt 0.096200 0.831300
vt 0.096200 0.992700
vt 0.156200 0.831300
vt 0.156200 0.992700
vt 0.156200 0.831300
vt 0.156200 0.992700
vt 0.096200 0.992700
vt 0.096200 0.831300
vt 0.096200 0.831300
vt 0.096200 0.992700
vt 0.156200 0.831300
vt 0.156200 0.992700
vt 0.096200 0.992700
vt 0.096200 0.831300
vt 0.156200 0.831300
vt 0.156200 0.992700
vt 0.096200 0.992700
vt 0.096200 0.831300
vt 0.156200 0.992700
vt 0.156200 0.831300
vt 0.096200 0.831300
vt 0.096200 0.992700
vt 0.156200 0.992700
vt 0.096200 0.992700
vt 0.096200 0.831300
vt 0.156200 0.831300
vt 0.096200 0.992700
vt 0.156200 0.992700
vt 0.156200 0.831300
vt 0.096200 0.831300
vt 0.156200 0.992700
vt 0.156200 0.831300
vt 0.096200 0.831300
vt 0.096200 0.992700
vn 1.0000 0.0000 0.0000
vn 0.0000 1.0000 0.0000
vn -1.0000 0.0000 0.0000
vn 0.0000 -1.0000 -0.0000
vn 0.0000 0.0000 -1.0000
vn 0.0000 0.0000 1.0000
usemtl mat_ArcaneArchives_Master
f 1/1/1 2/2/1 3/3/1 4/4/1
f 2/2/2 5/5/2 6/6/2 3/3/2
f 5/7/3 7/8/3 8/9/3 6/10/3
f 1/11/4 4/12/4 8/9/4 7/8/4
f 9/13/5 10/14/5 11/15/5 12/16/5
f 13/17/2 14/18/2 12/16/2 11/15/2
f 15/19/6 16/20/6 14/21/6 13/22/6
f 15/19/4 10/23/4 9/24/4 16/20/4
f 17/25/6 18/26/6 19/27/6 20/28/6
f 20/29/2 19/30/2 21/31/2 22/32/2
f 22/32/5 21/31/5 23/33/5 24/34/5
f 17/25/4 24/35/4 23/36/4 18/26/4
f 25/37/3 26/38/3 27/39/3 28/40/3
f 29/41/2 27/42/2 26/43/2 30/44/2
f 31/45/1 29/41/1 30/44/1 32/46/1
f 31/47/4 32/48/4 25/37/4 28/40/4
o WaterPlane
v 0.124970 0.885800 0.874970
v 0.874970 0.885800 0.874970
v 0.874970 0.885800 0.124970
v 0.124970 0.885800 0.124970
vt 0.000000 0.000000
vt 1.000000 0.000000
vt 1.000000 1.000000
vt 0.000000 1.000000
vn 0.0000 1.0000 0.0000
usemtl mat_minecraft_water
f 33/49/7 34/50/7 35/51/7 36/52/7
o GoldRing
v 0.217070 0.705700 0.217070
v 0.217070 0.780000 0.217070
v 0.782970 0.780000 0.217070
v 0.782970 0.706100 0.217070
v 0.782970 0.780000 0.782970
v 0.782970 0.706100 0.782970
v 0.217070 0.705700 0.782970
v 0.217070 0.780000 0.782970
v 0.290870 0.705700 0.290870
v 0.290870 0.780000 0.290870
v 0.290870 0.780000 0.709170
v 0.290870 0.705700 0.709170
v 0.709170 0.780000 0.290870
v 0.709170 0.706100 0.290870
v 0.709170 0.706100 0.709170
v 0.709170 0.780000 0.709170
vt 0.499100 0.560700
vt 0.499100 0.501500
vt 0.252200 0.501500
vt 0.252200 0.560400
vt 0.499100 0.560400
vt 0.499100 0.501500
vt 0.252200 0.501500
vt 0.252200 0.560400
vt 0.252200 0.560700
vt 0.252200 0.501500
vt 0.499100 0.501500
vt 0.499100 0.560700
vt 0.499000 0.560900
vt 0.499000 0.501600
vt 0.252000 0.501600
vt 0.252000 0.560900
vt 0.499000 0.501600
vt 0.499000 0.560600
vt 0.252000 0.560600
vt 0.252000 0.501600
vt 0.499000 0.560900
vt 0.499000 0.501600
vt 0.252000 0.560600
vt 0.252000 0.501600
vt 0.499400 0.501600
vt 0.251400 0.501600
vt 0.283800 0.560200
vt 0.467000 0.560200
vt 0.499400 0.501600
vt 0.251400 0.501600
vt 0.283800 0.560200
vt 0.467000 0.560200
vt 0.499400 0.501600
vt 0.251400 0.501600
vt 0.283800 0.560200
vt 0.467000 0.560200
vt 0.499400 0.501600
vt 0.251400 0.501600
vt 0.283800 0.560200
vt 0.467000 0.560200
vt 0.251000 0.501900
vt 0.499200 0.501900
vt 0.466800 0.560700
vt 0.283400 0.560700
vt 0.251000 0.501900
vt 0.499200 0.501900
vt 0.466800 0.560700
vt 0.283400 0.560700
vt 0.251000 0.501900
vt 0.499200 0.501900
vt 0.466800 0.560700
vt 0.283400 0.560700
vt 0.251000 0.501900
vt 0.499200 0.501900
vt 0.466800 0.560700
vt 0.283400 0.560700
vn 0.0000 0.0000 -1.0000
vn 1.0000 0.0000 0.0000
vn -1.0000 -0.0000 0.0000
vn 0.0000 0.0000 1.0000
vn 0.0006 -1.0000 -0.0006
vn 0.0003 -1.0000 0.0007
vn 0.0004 -1.0000 0.0006
vn 0.0006 -1.0000 -0.0008
vn 0.0006 -1.0000 -0.0009
vn 0.0003 -1.0000 0.0006
vn 0.0000 1.0000 0.0000
usemtl mat_ArcaneArchives_Master
f 37/53/8 38/54/8 39/55/8 40/56/8
f 40/57/9 39/58/9 41/59/9 42/60/9
f 43/61/10 44/62/10 38/54/10 37/53/10
f 42/60/11 41/59/11 44/63/11 43/64/11
f 45/65/9 46/66/9 47/67/9 48/68/9
f 49/69/10 50/70/10 51/71/10 52/72/10
f 52/72/8 51/71/8 48/73/8 47/74/8
f 50/75/11 49/76/11 46/66/11 45/65/11
f 42/77/12 43/78/13 48/79/14 51/80/15
f 43/81/13 37/82/12 45/83/16 48/84/14
f 37/85/12 40/86/17 50/87/14 45/88/16
f 40/89/17 42/90/12 51/91/15 50/92/14
f 38/93/18 44/94/18 47/95/18 46/96/18
f 44/97/18 41/98/18 52/99/18 47/100/18
f 41/101/18 39/102/18 49/103/18 52/104/18
f 39/105/18 38/106/18 46/107/18 49/108/18
o Bowl
v 0.992170 0.885800 0.992170
v 0.992170 0.984300 0.992170
v 0.007870 0.984300 0.992170
v 0.007870 0.885800 0.992170
v 0.992170 0.885800 0.007870
v 0.992170 0.984300 0.007870
v 0.007870 0.885800 0.007870
v 0.007870 0.984300 0.007870
v 0.844470 0.885800 0.844470
v 0.155470 0.885800 0.844470
v 0.155470 0.984300 0.844470
v 0.844470 0.984300 0.844470
v 0.155470 0.885800 0.155470
v 0.155470 0.984300 0.155470
v 0.844470 0.885800 0.155470
v 0.844470 0.984300 0.155470
v 0.918270 0.885800 0.081670
v 0.081670 0.885800 0.081670
v 0.918270 0.885800 0.918270
v 0.081670 0.885800 0.918270
v 0.376970 0.492100 0.376970
v 0.623070 0.492100 0.376970
v 0.499970 0.393700 0.499970
v 0.623070 0.738200 0.623070
v 0.376970 0.738200 0.623070
v 0.376970 0.492100 0.623070
v 0.623070 0.492100 0.623070
v 0.623070 0.738200 0.376970
v 0.376970 0.738200 0.376970
v 0.405370 0.520500 0.594670
v 0.594570 0.520500 0.594670
v 0.594570 0.520500 0.405370
v 0.405370 0.520500 0.405370
v 0.411770 0.738200 0.588270
v 0.588270 0.738200 0.588270
v 0.588270 0.738200 0.411770
v 0.411770 0.738200 0.411770
vt 0.499000 0.002000
vt 0.499000 0.061300
vt 0.002200 0.061300
vt 0.002200 0.002000
vt 0.499000 0.002000
vt 0.499000 0.061300
vt 0.002200 0.061300
vt 0.002200 0.002000
vt 0.002200 0.002000
vt 0.002200 0.061300
vt 0.499000 0.002000
vt 0.499000 0.061300
vt 0.405800 0.002000
vt 0.095500 0.002000
vt 0.095500 0.061400
vt 0.405800 0.061400
vt 0.405800 0.002000
vt 0.095500 0.002000
vt 0.095500 0.061400
vt 0.405800 0.061400
vt 0.405800 0.002000
vt 0.405800 0.061400
vt 0.095500 0.002000
vt 0.095500 0.061400
vt 0.496000 0.182500
vt 0.003800 0.182500
vt 0.077600 0.065100
vt 0.422200 0.065100
vt 0.496000 0.182500
vt 0.003800 0.182500
vt 0.077600 0.065100
vt 0.422200 0.065100
vt 0.496000 0.182500
vt 0.003800 0.182500
vt 0.077600 0.065100
vt 0.422200 0.065100
vt 0.496000 0.182500
vt 0.003800 0.182500
vt 0.077600 0.065100
vt 0.422200 0.065100
vt 0.497800 0.560100
vt 0.479400 0.548600
vt 0.270600 0.548600
vt 0.252200 0.560100
vt 0.497800 0.560100
vt 0.479400 0.548600
vt 0.270600 0.548600
vt 0.252200 0.560100
vt 0.497800 0.560100
vt 0.479400 0.548600
vt 0.270600 0.548600
vt 0.252200 0.560100
vt 0.497800 0.560100
vt 0.479400 0.548600
vt 0.270600 0.548600
vt 0.252200 0.560100
vt 0.252000 0.483200
vt 0.373000 0.483200
vt 0.312500 0.439800
vt 0.499000 0.748600
vt 0.376700 0.748600
vt 0.376700 0.626000
vt 0.499000 0.626000
vt 0.499000 0.748600
vt 0.376700 0.748600
vt 0.376700 0.626000
vt 0.499000 0.626000
vt 0.499000 0.748600
vt 0.376700 0.748600
vt 0.376700 0.626000
vt 0.499000 0.626000
vt 0.499000 0.748600
vt 0.376700 0.748600
vt 0.376700 0.626000
vt 0.499000 0.626000
vt 0.499100 0.626300
vt 0.376900 0.626300
vt 0.376900 0.749300
vt 0.499100 0.749300
vt 0.498600 0.626300
vt 0.494500 0.748400
vt 0.381400 0.748400
vt 0.377300 0.626300
vt 0.498600 0.626300
vt 0.494500 0.748400
vt 0.381400 0.748400
vt 0.377300 0.626300
vt 0.498600 0.626300
vt 0.494500 0.748400
vt 0.381400 0.748400
vt 0.377300 0.626300
vt 0.498600 0.626300
vt 0.494500 0.748400
vt 0.381400 0.748400
vt 0.377300 0.626300
vt 0.405700 0.502700
vt 0.344300 0.502700
vt 0.405700 0.502700
vt 0.344300 0.502700
vt 0.405700 0.502700
vt 0.344300 0.502700
vt 0.405700 0.502700
vt 0.344300 0.502700
vt 0.249700 0.251900
vt 0.249700 0.499700
vt 0.157800 0.407500
vt 0.157800 0.344100
vt 0.002500 0.499700
vt 0.094500 0.407500
vt 0.002500 0.251900
vt 0.094500 0.344100
vt 0.252000 0.483200
vt 0.373000 0.483200
vt 0.252000 0.483200
vt 0.373000 0.483200
vt 0.252000 0.483200
vt 0.373000 0.483200
vn 0.0000 0.0000 1.0000
vn 1.0000 0.0000 0.0000
vn 0.0000 0.0000 -1.0000
vn -1.0000 0.0000 0.0000
vn 0.0000 1.0000 0.0000
vn 0.0000 -1.0000 -0.0000
vn 0.0000 -0.7809 -0.6247
vn 0.0000 -0.0294 -0.9996
vn -0.9996 -0.0295 0.0000
vn 0.0000 -0.0294 0.9996
vn 0.9996 -0.0294 0.0000
vn -0.0000 -0.8943 -0.4474
vn 0.4472 -0.8944 -0.0000
vn 0.0000 -0.8944 0.4472
vn -0.4471 -0.8945 -0.0000
vn -0.4992 0.8665 0.0000
vn 0.0000 0.8666 0.4990
vn 0.4990 0.8666 0.0000
vn 0.0000 0.8665 -0.4992
vn -0.6247 -0.7809 0.0000
vn 0.6244 -0.7811 0.0000
vn 0.0000 -0.7811 0.6244
usemtl mat_ArcaneArchives_Master
f 53/109/19 54/110/19 55/111/19 56/112/19
f 57/113/20 58/114/20 54/115/20 53/116/20
f 59/117/21 60/118/21 58/114/21 57/113/21
f 56/119/22 55/120/22 60/118/22 59/117/22
f 61/121/21 62/122/21 63/123/21 64/124/21
f 62/125/20 65/126/20 66/127/20 63/128/20
f 65/126/19 67/129/19 68/130/19 66/127/19
f 67/131/22 61/121/22 64/124/22 68/132/22
f 55/133/23 54/134/23 64/135/23 63/136/23
f 54/137/23 58/138/23 68/139/23 64/140/23
f 58/141/23 60/142/23 66/143/23 68/144/23
f 60/145/23 55/146/23 63/147/23 66/148/23
f 57/149/24 69/150/24 70/151/24 59/152/24
f 53/153/24 71/154/24 69/155/24 57/156/24
f 56/157/24 72/158/24 71/159/24 53/160/24
f 59/161/24 70/162/24 72/163/24 56/164/24
f 73/165/25 74/166/25 75/167/25
f 76/168/19 77/169/19 78/170/19 79/171/19
f 80/172/20 76/173/20 79/174/20 74/175/20
f 81/176/21 80/177/21 74/178/21 73/179/21
f 77/180/22 81/181/22 73/182/22 78/183/22
f 82/184/23 83/185/23 84/186/23 85/187/23
f 82/188/26 86/189/26 87/190/26 83/191/26
f 83/192/27 87/193/27 88/194/27 84/195/27
f 84/196/28 88/197/28 89/198/28 85/199/28
f 85/200/29 89/201/29 86/202/29 82/203/29
f 70/151/30 69/150/30 80/204/30 81/205/30
f 69/155/31 71/154/31 76/206/31 80/207/31
f 71/159/32 72/158/32 77/208/32 76/209/32
f 72/163/33 70/162/33 81/210/33 77/211/33
f 61/212/34 67/213/34 88/214/34 87/215/34
f 67/213/35 65/216/35 89/217/35 88/214/35
f 65/216/36 62/218/36 86/219/36 89/217/36
f 62/218/37 61/212/37 87/215/37 86/219/37
f 75/167/38 78/220/38 73/221/38
f 74/222/39 79/223/39 75/167/39
f 75/167/40 79/224/40 78/225/40
o BarsPlane
v 0.057070 0.945900 0.942970
v 0.942870 0.945900 0.942970
v 0.942870 0.945900 0.057070
v 0.057070 0.945900 0.057070
vt 0.000000 0.000000
vt 1.000000 0.000000
vt 1.000000 1.000000
vt 0.000000 1.000000
vn 0.0000 1.0000 0.0000
usemtl mat_minecraft_bars
f 90/226/41 91/227/41 92/228/41 93/229/41
o Legs
v 0.795270 -0.000000 0.204770
v 0.795270 0.000000 0.007870
v 0.992170 0.000000 0.007870
v 0.992170 -0.000000 0.204770
v 0.782970 0.705700 0.290870
v 0.709170 0.705700 0.290870
v 0.782970 0.705700 0.217070
v 0.709170 0.705700 0.217070
v 0.204770 -0.000000 0.204770
v 0.007870 -0.000000 0.204770
v 0.007870 0.000000 0.007870
v 0.204770 0.000000 0.007870
v 0.290870 0.705700 0.290870
v 0.217470 0.705700 0.290870
v 0.217470 0.705700 0.217070
v 0.290870 0.705700 0.217070
v 0.795270 -0.000000 0.795270
v 0.992170 -0.000000 0.795270
v 0.992170 -0.000000 0.992170
v 0.795270 -0.000000 0.992170
v 0.709170 0.705700 0.709170
v 0.782970 0.705700 0.709170
v 0.782970 0.705700 0.782970
v 0.709170 0.705700 0.782970
v 0.204770 -0.000000 0.795270
v 0.204770 -0.000000 0.992170
v 0.007870 -0.000000 0.992170
v 0.007870 -0.000000 0.795270
v 0.217070 0.705700 0.709170
v 0.290870 0.705700 0.709170
v 0.217070 0.705700 0.782970
v 0.290870 0.705700 0.782970
vt 0.251600 0.625700
vt 0.251600 0.749700
vt 0.374700 0.749700
vt 0.374700 0.625700
vt 0.188200 0.703100
vt 0.237600 0.703100
vt 0.185100 0.951700
vt 0.166600 0.951700
vt 0.188200 0.548300
vt 0.237600 0.548300
vt 0.185100 0.797000
vt 0.166600 0.797000
vt 0.237600 0.608500
vt 0.188200 0.608500
vt 0.166600 0.857100
vt 0.185100 0.857100
vt 0.237600 0.641300
vt 0.188200 0.641300
vt 0.166600 0.889900
vt 0.185100 0.889900
vt 0.374700 0.625700
vt 0.251600 0.625700
vt 0.251600 0.749700
vt 0.374700 0.749700
vt 0.062100 0.703700
vt 0.083800 0.952300
vt 0.065400 0.952300
vt 0.012700 0.703700
vt 0.188200 0.672400
vt 0.166600 0.921000
vt 0.185100 0.921000
vt 0.237600 0.672400
vt 0.012700 0.609000
vt 0.065400 0.857600
vt 0.083800 0.857600
vt 0.062100 0.609000
vt 0.237600 0.526700
vt 0.185100 0.775300
vt 0.166600 0.775300
vt 0.188200 0.526700
vt 0.251600 0.749700
vt 0.374700 0.749700
vt 0.374700 0.625700
vt 0.251600 0.625700
vt 0.188200 0.576400
vt 0.166600 0.825000
vt 0.185100 0.825000
vt 0.237600 0.576400
vt 0.062100 0.548900
vt 0.083800 0.797500
vt 0.065200 0.797500
vt 0.012700 0.548900
vt 0.237600 0.734200
vt 0.185100 0.982800
vt 0.166600 0.982800
vt 0.188200 0.734200
vt 0.012700 0.641800
vt 0.065200 0.890400
vt 0.083800 0.890400
vt 0.062100 0.641800
vt 0.374700 0.749700
vt 0.374700 0.625700
vt 0.251600 0.625700
vt 0.251600 0.749700
vt 0.062100 0.577000
vt 0.012700 0.577000
vt 0.065200 0.825600
vt 0.083800 0.825600
vt 0.062100 0.673000
vt 0.012700 0.673000
vt 0.065200 0.921600
vt 0.083800 0.921600
vt 0.012700 0.734800
vt 0.062100 0.734800
vt 0.083800 0.983400
vt 0.065200 0.983400
vt 0.012700 0.527300
vt 0.062100 0.527300
vt 0.083800 0.775900
vt 0.065200 0.775900
vn 0.0000 -1.0000 -0.0000
vn 0.0000 -0.1211 0.9926
vn 0.9588 0.2842 0.0000
vn 0.0000 0.2842 -0.9588
vn -0.9926 -0.1211 -0.0000
vn -0.9586 0.2847 0.0000
vn 0.9926 -0.1211 -0.0000
vn 0.0000 -0.1211 -0.9926
vn 0.0000 0.2842 0.9588
vn -0.9588 0.2842 0.0000
usemtl mat_ArcaneArchives_Master
f 94/230/42 95/231/42 96/232/42 97/233/42
f 94/234/43 97/235/43 98/236/43 99/237/43
f 97/238/44 96/239/44 100/240/44 98/241/44
f 96/242/45 95/243/45 101/244/45 100/245/45
f 95/246/46 94/247/46 99/248/46 101/249/46
f 102/250/42 103/251/42 104/252/42 105/253/42
f 102/254/43 106/255/43 107/256/43 103/257/43
f 103/258/47 107/259/47 108/260/47 104/261/47
f 104/262/45 108/263/45 109/264/45 105/265/45
f 105/266/48 109/267/48 106/268/48 102/269/48
f 110/270/42 111/271/42 112/272/42 113/273/42
f 110/274/49 114/275/49 115/276/49 111/277/49
f 111/278/44 115/279/44 116/280/44 112/281/44
f 112/282/50 116/283/50 117/284/50 113/285/50
f 113/286/46 117/287/46 114/288/46 110/289/46
f 118/290/42 119/291/42 120/292/42 121/293/42
f 118/294/49 121/295/49 122/296/49 123/297/49
f 121/298/51 120/299/51 124/300/51 122/301/51
f 120/302/50 119/303/50 125/304/50 124/305/50
f 119/306/48 118/307/48 123/308/48 125/309/48
