# 3ds Max Wavefront OBJ Exporter v0.97b - (c)2007 guruware
# File Created: 23.09.2018 22:47:51

mtllib rawquartz.mtl

#
# object RawQuartz
#

v  -0.6091 6.6100 0.3186
v  0.3158 5.8879 0.6552
v  0.6524 6.6100 -0.2697
v  -0.2725 7.3320 -0.6063
v  -0.4705 3.0172 0.5166
v  0.5137 3.0172 0.5166
v  0.5137 3.0701 -0.4677
v  -0.4705 2.9799 -0.4677
v  0.1494 5.1702 0.8144
v  1.0743 4.8946 1.1511
v  1.4110 5.1702 0.2262
v  0.4861 5.4458 -0.1105
v  -0.2636 2.9345 0.3751
v  0.6613 3.1080 0.7117
v  0.9992 3.2645 -0.2132
v  0.0730 3.0226 -0.5498
v  0.2764 5.7472 1.3291
v  0.0216 5.6474 0.3784
v  -0.9291 5.7472 0.6331
v  -0.6743 5.8470 1.5838
v  0.4432 3.0172 0.5282
v  0.1885 2.9425 -0.4225
v  -0.7622 3.1344 -0.1678
v  -0.5075 3.1241 0.7829
v  -0.4802 5.7472 -1.2759
v  -1.4607 5.4716 -1.1901
v  -1.3749 5.7472 -0.2096
v  -0.3944 6.0228 -0.2954
v  0.6127 3.1352 -0.7561
v  -0.3678 3.1005 -0.6703
v  -0.2821 2.9345 0.3102
v  0.6984 3.1115 0.2244
v  0.8342 5.7472 -0.2458
v  1.2502 5.2105 -1.1378
v  0.3582 5.7472 -1.5537
v  -0.0578 6.2840 -0.6617
v  0.5819 3.0172 0.5145
v  0.9991 3.2645 -0.3775
v  0.1058 3.1481 -0.7935
v  -0.3102 2.9345 0.0985
# 40 vertices

vn 0.3043 0.6940 0.6525
vn -0.0627 -0.0310 0.9975
vn -0.0000 -0.0482 0.9988
vn -0.2694 0.0273 0.9627
vn -0.3139 0.0402 0.9486
vn 0.9975 -0.0241 0.0659
vn 0.9992 -0.0390 -0.0021
vn 0.9612 0.0231 0.2750
vn 0.9267 0.0459 0.3731
vn 0.0540 -0.0225 -0.9983
vn 0.0029 -0.0320 -0.9995
vn 0.2868 0.0218 -0.9577
vn 0.3676 0.0376 -0.9292
vn -0.9983 -0.0270 -0.0515
vn -0.9993 -0.0385 0.0015
vn -0.9589 0.0246 -0.2826
vn -0.9472 0.0329 -0.3190
vn 0.1556 0.9298 0.3337
vn -0.3326 -0.1421 0.9323
vn -0.3113 -0.1585 0.9370
vn -0.3559 -0.1238 0.9263
vn -0.3694 -0.1130 0.9224
vn 0.9215 -0.2691 0.2801
vn 0.9191 -0.2657 0.2909
vn 0.9243 -0.2733 0.2663
vn 0.9265 -0.2769 0.2547
vn 0.3260 0.1208 -0.9376
vn 0.3119 0.1178 -0.9428
vn 0.3566 0.1275 -0.9255
vn 0.3733 0.1311 -0.9184
vn -0.9254 0.2261 -0.3041
vn -0.9210 0.2317 -0.3131
vn -0.9336 0.2152 -0.2865
vn -0.9372 0.2102 -0.2785
vn 0.0710 0.9899 -0.1230
vn 0.9538 0.1377 -0.2671
vn 0.9540 0.1377 -0.2664
vn 0.9532 0.1375 -0.2692
vn 0.9531 0.1374 -0.2698
vn -0.2031 0.2730 -0.9403
vn -0.1964 0.2759 -0.9409
vn -0.2175 0.2667 -0.9389
vn -0.2237 0.2640 -0.9382
vn -0.9564 -0.1359 0.2585
vn -0.9576 -0.1337 0.2551
vn -0.9535 -0.1412 0.2665
vn -0.9520 -0.1436 0.2702
vn 0.2226 -0.2620 0.9390
vn 0.2222 -0.2619 0.9392
vn 0.2236 -0.2623 0.9387
vn 0.2240 -0.2624 0.9386
vn -0.2820 0.9298 -0.2367
vn -0.0630 -0.2361 -0.9697
vn -0.0758 -0.2467 -0.9661
vn -0.0376 -0.2146 -0.9760
vn -0.0276 -0.2062 -0.9781
vn -0.9304 -0.3630 0.0516
vn -0.9332 -0.3587 0.0209
vn -0.9151 -0.3743 0.1499
vn -0.9072 -0.3775 0.1855
vn 0.0471 0.1939 0.9799
vn 0.0507 0.1940 0.9797
vn 0.0352 0.1935 0.9805
vn 0.0314 0.1934 0.9806
vn 0.9278 0.3606 -0.0954
vn 0.9251 0.3728 -0.0719
vn 0.9317 0.3295 -0.1530
vn 0.9320 0.3193 -0.1713
vn 0.5739 0.7919 -0.2089
vn 0.9041 0.0446 0.4249
vn 0.8986 0.0541 0.4353
vn 0.9102 0.0336 0.4128
vn 0.9125 0.0292 0.4079
vn 0.3850 -0.3121 -0.8685
vn 0.4348 -0.2915 -0.8521
vn 0.2768 -0.3521 -0.8941
vn 0.1942 -0.3786 -0.9050
vn -0.9049 -0.0294 -0.4246
vn -0.9032 -0.0291 -0.4282
vn -0.9107 -0.0302 -0.4120
vn -0.9128 -0.0305 -0.4073
vn -0.3990 0.2696 0.8764
vn -0.4270 0.2790 0.8601
vn -0.3143 0.2403 0.9184
vn -0.2926 0.2326 0.9275
# 85 vertex normals

vt 0.0000 0.0000 0.0000
vt 1.0000 0.0000 0.0000
vt 1.0000 1.0000 0.0000
vt 0.0000 1.0000 0.0000
vt -0.0000 1.0000 0.0000
vt 0.0000 -0.0000 0.0000
# 6 texture coords

g RawQuartz
usemtl 08___Default
s 4
f 1/1/1 2/2/1 3/3/1 4/4/1 
s 8
f 5/1/2 6/2/3 2/3/4 1/4/5 
s 16
f 6/3/6 7/5/7 3/6/8 2/2/9 
s 32
f 7/5/10 8/1/11 4/2/12 3/3/13 
s 64
f 8/3/14 5/5/15 1/6/16 4/2/17 
s 4
f 9/1/18 10/2/18 11/3/18 12/4/18 
s 8
f 13/1/19 14/2/20 10/3/21 9/4/22 
s 16
f 14/3/23 15/5/24 11/6/25 10/2/26 
s 32
f 15/1/27 16/2/28 12/3/29 11/4/30 
s 64
f 16/1/31 13/2/32 9/3/33 12/4/34 
s 4
f 17/1/35 18/2/35 19/3/35 20/4/35 
s 8
f 21/1/36 22/2/37 18/3/38 17/4/39 
s 16
f 22/1/40 23/2/41 19/3/42 18/4/43 
s 32
f 23/3/44 24/5/45 20/6/46 19/2/47 
s 64
f 24/5/48 21/1/49 17/2/50 20/3/51 
s 4
f 25/1/52 26/2/52 27/3/52 28/4/52 
s 8
f 29/1/53 30/2/54 26/3/55 25/4/56 
s 16
f 30/1/57 31/2/58 27/3/59 26/4/60 
s 32
f 31/3/61 32/5/62 28/6/63 27/2/64 
s 64
f 32/5/65 29/1/66 25/2/67 28/3/68 
s 4
f 33/1/69 34/2/69 35/3/69 36/4/69 
s 8
f 37/1/70 38/2/71 34/3/72 33/4/73 
s 16
f 38/3/74 39/5/75 35/6/76 34/2/77 
s 32
f 39/1/78 40/2/79 36/3/80 35/4/81 
s 64
f 40/1/82 37/2/83 33/3/84 36/4/85 
# 25 polygons

