# 3ds Max Wavefront OBJ Exporter v0.97b - (c)2007 guruware
# File Created: 27.09.2018 21:59:23

mtllib repositorymatrix.mtl

#
# object Crystal
#

v  0.6023 2.1037 0.3014
v  0.4921 2.1849 0.3014
v  0.4921 2.4424 0.4921
v  0.6573 2.1849 0.3968
v  0.3820 2.1037 0.3014
v  0.3269 2.1849 0.3968
v  0.2719 2.1037 0.4921
v  0.3269 2.1849 0.5875
v  0.3820 2.1037 0.6829
v  0.4921 2.1849 0.6829
v  0.6023 2.1037 0.6829
v  0.6573 2.1849 0.5875
v  0.7124 2.1037 0.4921
v  0.6023 0.8313 0.3014
v  0.4921 0.7501 0.3014
v  0.3820 0.8313 0.3014
v  0.3269 0.7501 0.3968
v  0.2719 0.8313 0.4921
v  0.3269 0.7501 0.5875
v  0.6573 0.7501 0.3968
v  0.6573 0.7501 0.5875
v  0.7124 0.8313 0.4921
v  0.4921 0.4927 0.4921
v  0.3820 0.8313 0.6829
v  0.4921 0.7501 0.6829
v  0.6023 0.8313 0.6829
# 26 vertices

vn 0.4634 0.3754 -0.8027
vn -0.4634 0.3754 -0.8027
vn -0.9269 0.3754 -0.0000
vn -0.4634 0.3754 0.8027
vn 0.4634 0.3754 0.8027
vn 0.9269 0.3754 -0.0000
vn 0.0000 0.0000 -1.0000
vn -0.8660 0.0000 -0.5000
vn -0.8660 0.0000 0.5000
vn 0.8660 0.0000 -0.5000
vn 0.8660 -0.0000 0.5000
vn 0.4634 -0.3754 -0.8027
vn -0.4634 -0.3754 -0.8027
vn -0.9269 -0.3754 -0.0000
vn -0.4634 -0.3754 0.8027
vn 0.4634 -0.3754 0.8027
vn 0.9269 -0.3754 -0.0000
vn 0.0000 0.0000 1.0000
# 18 vertex normals

vt 0.7187 0.7817 0.0000
vt 0.5306 0.7812 0.0000
vt 0.5304 0.9687 0.0000
vt 0.7197 0.9685 0.0000
vt 0.7088 0.7073 0.0000
vt 0.7088 0.0434 0.0000
vt 0.6254 0.0033 0.0000
vt 0.6254 0.7473 0.0000
vt 0.5421 0.0434 0.0000
vt 0.5421 0.7073 0.0000
# 10 texture coords

g Crystal
usemtl mat_ArcaneArchives_Master
s off
f 1/1/1 2/2/1 3/3/1 4/4/1 
f 5/3/2 6/2/2 3/1/2 2/4/2 
f 7/1/3 8/4/3 3/3/3 6/2/3 
f 9/4/4 10/1/4 3/2/4 8/3/4 
f 11/3/5 12/4/5 3/1/5 10/2/5 
f 13/1/6 4/2/6 3/3/6 12/4/6 
f 1/5/7 14/6/7 15/7/7 2/8/7 
f 5/5/8 16/6/8 17/7/8 6/8/8 
f 8/8/9 7/5/9 18/6/9 19/7/9 
f 4/8/10 20/7/10 14/9/10 1/10/10 
f 5/10/7 2/8/7 15/7/7 16/9/7 
f 7/10/8 6/8/8 17/7/8 18/9/8 
f 12/8/11 21/7/11 22/9/11 13/10/11 
f 14/4/12 20/3/12 23/2/12 15/1/12 
f 16/3/13 15/2/13 23/1/13 17/4/13 
f 18/1/14 17/4/14 23/3/14 19/2/14 
f 24/4/15 19/1/15 23/2/15 25/3/15 
f 26/2/16 25/1/16 23/4/16 21/3/16 
f 22/1/17 21/2/17 23/3/17 20/4/17 
f 4/8/10 13/5/10 22/6/10 20/7/10 
f 10/8/18 9/5/18 24/6/18 25/7/18 
f 12/8/11 11/5/11 26/6/11 21/7/11 
f 8/8/9 19/7/9 24/9/9 9/10/9 
f 10/8/18 25/7/18 26/9/18 11/10/18 
# 24 polygons

#
# object Base
#

v  0.0984 0.0000 0.8858
v  0.0984 0.0000 0.0984
v  0.8858 0.0000 0.0984
v  0.8858 0.0000 0.8858
v  0.8858 0.0984 0.8858
v  0.0984 0.0984 0.8858
v  0.8858 0.0984 0.0984
v  0.0984 0.0984 0.0984
v  0.8366 0.0984 0.8366
v  0.1476 0.0984 0.8366
v  0.8366 0.0984 0.1476
v  0.1476 0.0984 0.1476
v  0.8366 0.2461 0.8366
v  0.1476 0.2461 0.8366
v  0.8366 0.2461 0.1476
v  0.1476 0.2461 0.1476
v  0.7382 0.2461 0.7382
v  0.2461 0.2461 0.7382
v  0.7382 0.2461 0.2461
v  0.2461 0.2461 0.2461
v  0.5906 0.3937 0.5906
v  0.3937 0.3937 0.5906
v  0.5906 0.3937 0.3937
v  0.3937 0.3937 0.3937
v  0.0984 2.9528 0.8858
v  0.0984 2.9528 0.0984
v  0.8858 2.9528 0.0984
v  0.8858 2.9528 0.8858
v  0.8858 2.8543 0.8858
v  0.0984 2.8543 0.8858
v  0.8858 2.8543 0.0984
v  0.0984 2.8543 0.0984
v  0.8366 2.8543 0.8366
v  0.1476 2.8543 0.8366
v  0.8366 2.8543 0.1476
v  0.1476 2.8543 0.1476
v  0.8366 2.7067 0.8366
v  0.1476 2.7067 0.8366
v  0.8366 2.7067 0.1476
v  0.1476 2.7067 0.1476
v  0.7382 2.7067 0.7382
v  0.2461 2.7067 0.7382
v  0.7382 2.7067 0.2461
v  0.2461 2.7067 0.2461
v  0.5906 2.5591 0.5906
v  0.3937 2.5591 0.5906
v  0.5906 2.5591 0.3937
v  0.3937 2.5591 0.3937
# 48 vertices

vn 0.0000 -1.0000 -0.0000
vn 0.0000 0.0000 1.0000
vn 1.0000 0.0000 -0.0000
vn 0.0000 0.0000 -1.0000
vn -1.0000 0.0000 -0.0000
vn 0.0000 1.0000 -0.0000
vn 0.0000 0.7071 0.7071
vn 0.7071 0.7071 -0.0000
vn 0.0000 0.7071 -0.7071
vn -0.7071 0.7071 -0.0000
# 10 vertex normals

vt 0.2493 0.2512 0.0000
vt 0.2493 0.4988 0.0000
vt 0.0013 0.4988 0.0000
vt 0.0013 0.2512 0.0000
vt 0.0013 0.0018 0.0000
vt 0.4987 0.0018 0.0000
vt 0.4987 0.0619 0.0000
vt 0.0013 0.0619 0.0000
vt 0.0012 0.0016 0.0000
vt 0.4987 0.0016 0.0000
vt 0.4676 0.0315 0.0000
vt 0.0323 0.0315 0.0000
vt 0.0010 0.0639 0.0000
vt 0.4988 0.0639 0.0000
vt 0.4988 0.1859 0.0000
vt 0.0010 0.1859 0.0000
vt 0.0323 0.0019 0.0000
vt 0.4676 0.0019 0.0000
vt 0.4054 0.0618 0.0000
vt 0.0945 0.0618 0.0000
vt 0.0008 0.0639 0.0000
vt 0.3494 0.1859 0.0000
vt 0.1502 0.1859 0.0000
vt 0.4980 0.7481 0.0000
vt 0.3782 0.7481 0.0000
vt 0.3782 0.6273 0.0000
vt 0.4980 0.6273 0.0000
# 27 texture coords

g Base
usemtl mat_ArcaneArchives_Master
s 2
f 27/11/19 28/12/19 29/13/19 30/14/19 
s 8
f 27/15/20 30/16/20 31/17/20 32/18/20 
s 16
f 30/15/21 29/16/21 33/17/21 31/18/21 
s 32
f 29/15/22 28/16/22 34/17/22 33/18/22 
s 64
f 28/15/23 27/16/23 32/17/23 34/18/23 
s off
f 32/19/24 31/20/24 35/21/24 36/22/24 
f 31/19/24 33/20/24 37/21/24 35/22/24 
f 33/19/24 34/20/24 38/21/24 37/22/24 
f 34/19/24 32/20/24 36/21/24 38/22/24 
f 36/23/20 35/24/20 39/25/20 40/26/20 
f 35/23/21 37/24/21 41/25/21 39/26/21 
f 37/23/22 38/24/22 42/25/22 41/26/22 
f 38/23/23 36/24/23 40/25/23 42/26/23 
f 40/27/24 39/28/24 43/29/24 44/30/24 
f 39/27/24 41/28/24 45/29/24 43/30/24 
f 41/27/24 42/28/24 46/29/24 45/30/24 
f 42/27/24 40/28/24 44/29/24 46/30/24 
f 44/31/25 43/24/25 47/32/25 48/33/25 
f 43/31/26 45/24/26 49/32/26 47/33/26 
f 45/31/27 46/24/27 50/32/27 49/33/27 
f 46/31/28 44/24/28 48/32/28 50/33/28 
f 49/34/24 50/35/24 48/36/24 47/37/24 
s 2
f 51/11/19 52/12/19 53/13/19 54/14/19 
s 8
f 51/15/22 54/16/22 55/17/22 56/18/22 
s 16
f 54/15/23 53/16/23 57/17/23 55/18/23 
s 32
f 53/15/20 52/16/20 58/17/20 57/18/20 
s 64
f 52/15/21 51/16/21 56/17/21 58/18/21 
s off
f 56/19/24 55/20/24 59/21/24 60/22/24 
f 55/19/24 57/20/24 61/21/24 59/22/24 
f 57/19/24 58/20/24 62/21/24 61/22/24 
f 58/19/24 56/20/24 60/21/24 62/22/24 
f 60/23/22 59/24/22 63/25/22 64/26/22 
f 59/23/23 61/24/23 65/25/23 63/26/23 
f 61/23/20 62/24/20 66/25/20 65/26/20 
f 62/23/21 60/24/21 64/25/21 66/26/21 
f 64/27/24 63/28/24 67/29/24 68/30/24 
f 63/27/24 65/28/24 69/29/24 67/30/24 
f 65/27/24 66/28/24 70/29/24 69/30/24 
f 66/27/24 64/28/24 68/29/24 70/30/24 
f 68/31/27 67/24/27 71/32/27 72/33/27 
f 67/31/28 69/24/28 73/32/28 71/33/28 
f 69/31/25 70/24/25 74/32/25 73/33/25 
f 70/31/26 68/24/26 72/32/26 74/33/26 
f 73/34/24 74/35/24 72/36/24 71/37/24 
# 44 polygons

#
# object Reader
#

v  0.8344 0.8366 0.4921
v  0.6633 0.8366 0.1957
v  0.6633 1.1319 0.1957
v  0.8344 1.1319 0.4921
v  0.3210 0.8366 0.1957
v  0.3210 1.1319 0.1957
v  0.1498 0.8366 0.4921
v  0.1498 1.1319 0.4921
v  0.3210 0.8366 0.7886
v  0.3210 1.1319 0.7886
v  0.6633 0.8366 0.7886
v  0.6633 1.1319 0.7886
v  0.7834 0.8366 0.4921
v  0.6377 0.8366 0.2399
v  0.6377 1.1319 0.2399
v  0.7834 1.1319 0.4921
v  0.3465 0.8366 0.2399
v  0.3465 1.1319 0.2399
v  0.2009 0.8366 0.4921
v  0.2009 1.1319 0.4921
v  0.3465 0.8366 0.7443
v  0.3465 1.1319 0.7443
v  0.6377 0.8366 0.7443
v  0.6377 1.1319 0.7443
v  0.8344 1.3287 0.4921
v  0.6633 1.3287 0.1957
v  0.6633 1.6240 0.1957
v  0.8344 1.6240 0.4921
v  0.3210 1.3287 0.1957
v  0.3210 1.6240 0.1957
v  0.1498 1.3287 0.4921
v  0.1498 1.6240 0.4921
v  0.3210 1.3287 0.7886
v  0.3210 1.6240 0.7886
v  0.6633 1.3287 0.7886
v  0.6633 1.6240 0.7886
v  0.7834 1.3287 0.4921
v  0.6377 1.3287 0.2399
v  0.6377 1.6240 0.2399
v  0.7834 1.6240 0.4921
v  0.3465 1.3287 0.2399
v  0.3465 1.6240 0.2399
v  0.2009 1.3287 0.4921
v  0.2009 1.6240 0.4921
v  0.3465 1.3287 0.7443
v  0.3465 1.6240 0.7443
v  0.6377 1.3287 0.7443
v  0.6377 1.6240 0.7443
v  0.8344 1.8209 0.4921
v  0.6633 1.8209 0.1957
v  0.6633 2.1161 0.1957
v  0.8344 2.1161 0.4921
v  0.3210 1.8209 0.1957
v  0.3210 2.1161 0.1957
v  0.1498 1.8209 0.4921
v  0.1498 2.1161 0.4921
v  0.3210 1.8209 0.7886
v  0.3210 2.1161 0.7886
v  0.6633 1.8209 0.7886
v  0.6633 2.1161 0.7886
v  0.7834 1.8209 0.4921
v  0.6377 1.8209 0.2399
v  0.6377 2.1161 0.2399
v  0.7834 2.1161 0.4921
v  0.3465 1.8209 0.2399
v  0.3465 2.1161 0.2399
v  0.2009 1.8209 0.4921
v  0.2009 2.1161 0.4921
v  0.3465 1.8209 0.7443
v  0.3465 2.1161 0.7443
v  0.6377 1.8209 0.7443
v  0.6377 2.1161 0.7443
# 72 vertices

vn 0.8660 0.0000 -0.5000
vn -0.0000 0.0000 -1.0000
vn -0.8660 0.0000 -0.5000
vn -0.8660 0.0000 0.5000
vn 0.8660 0.0000 0.5000
vn 0.0000 -1.0000 -0.0000
vn 0.0000 1.0000 -0.0000
vn 0.0000 0.0000 1.0000
# 8 vertex normals

vt 0.3746 0.3911 0.0000
vt 0.2514 0.3911 0.0000
vt 0.2514 0.4986 0.0000
vt 0.3746 0.4986 0.0000
vt 0.1166 0.2480 0.0000
vt 0.4027 0.2486 0.0000
vt 0.3815 0.1914 0.0000
vt 0.1378 0.1908 0.0000
vt 0.2606 0.3911 0.0000
vt 0.3654 0.3911 0.0000
vt 0.3654 0.4986 0.0000
vt 0.2606 0.4986 0.0000
vt 0.2514 0.3912 0.0000
vt 0.2514 0.4984 0.0000
vt 0.2617 0.4984 0.0000
vt 0.2617 0.3912 0.0000
# 16 texture coords

g Reader
usemtl mat_ArcaneArchives_Master
s off
f 75/38/29 76/39/29 77/40/29 78/41/29 
f 76/38/30 79/39/30 80/40/30 77/41/30 
f 79/38/31 81/39/31 82/40/31 80/41/31 
f 81/38/32 83/39/32 84/40/32 82/41/32 
f 85/38/33 75/39/33 78/40/33 86/41/33 
f 76/42/34 75/43/34 87/44/34 88/45/34 
f 78/43/35 77/42/35 89/45/35 90/44/35 
f 79/42/34 76/43/34 88/44/34 91/45/34 
f 77/43/35 80/42/35 92/45/35 89/44/35 
f 81/42/34 79/43/34 91/44/34 93/45/34 
f 80/43/35 82/42/35 94/45/35 92/44/35 
f 83/42/34 81/43/34 93/44/34 95/45/34 
f 82/43/35 84/42/35 96/45/35 94/44/35 
f 75/42/34 85/43/34 97/44/34 87/45/34 
f 86/43/35 78/42/35 90/45/35 98/44/35 
f 95/46/29 93/47/29 94/48/29 96/49/29 
f 93/46/33 91/47/33 92/48/33 94/49/33 
f 91/46/36 88/47/36 89/48/36 92/49/36 
f 88/46/32 87/47/32 90/48/32 89/49/32 
f 87/46/31 97/47/31 98/48/31 90/49/31 
f 95/50/33 96/51/33 84/52/33 83/53/33 
f 98/51/32 97/50/32 85/53/32 86/52/32 
f 99/38/29 100/39/29 101/40/29 102/41/29 
f 100/38/30 103/39/30 104/40/30 101/41/30 
f 103/38/31 105/39/31 106/40/31 104/41/31 
f 105/38/32 107/39/32 108/40/32 106/41/32 
f 109/38/33 99/39/33 102/40/33 110/41/33 
f 100/42/34 99/43/34 111/44/34 112/45/34 
f 102/43/35 101/42/35 113/45/35 114/44/35 
f 103/42/34 100/43/34 112/44/34 115/45/34 
f 101/43/35 104/42/35 116/45/35 113/44/35 
f 105/42/34 103/43/34 115/44/34 117/45/34 
f 104/43/35 106/42/35 118/45/35 116/44/35 
f 107/42/34 105/43/34 117/44/34 119/45/34 
f 106/43/35 108/42/35 120/45/35 118/44/35 
f 99/42/34 109/43/34 121/44/34 111/45/34 
f 110/43/35 102/42/35 114/45/35 122/44/35 
f 119/46/29 117/47/29 118/48/29 120/49/29 
f 117/46/33 115/47/33 116/48/33 118/49/33 
f 115/46/36 112/47/36 113/48/36 116/49/36 
f 112/46/32 111/47/32 114/48/32 113/49/32 
f 111/46/31 121/47/31 122/48/31 114/49/31 
f 119/50/33 120/51/33 108/52/33 107/53/33 
f 122/51/32 121/50/32 109/53/32 110/52/32 
f 123/38/29 124/39/29 125/40/29 126/41/29 
f 124/38/30 127/39/30 128/40/30 125/41/30 
f 127/38/31 129/39/31 130/40/31 128/41/31 
f 129/38/32 131/39/32 132/40/32 130/41/32 
f 133/38/33 123/39/33 126/40/33 134/41/33 
f 124/42/34 123/43/34 135/44/34 136/45/34 
f 126/43/35 125/42/35 137/45/35 138/44/35 
f 127/42/34 124/43/34 136/44/34 139/45/34 
f 125/43/35 128/42/35 140/45/35 137/44/35 
f 129/42/34 127/43/34 139/44/34 141/45/34 
f 128/43/35 130/42/35 142/45/35 140/44/35 
f 131/42/34 129/43/34 141/44/34 143/45/34 
f 130/43/35 132/42/35 144/45/35 142/44/35 
f 123/42/34 133/43/34 145/44/34 135/45/34 
f 134/43/35 126/42/35 138/45/35 146/44/35 
f 143/46/29 141/47/29 142/48/29 144/49/29 
f 141/46/33 139/47/33 140/48/33 142/49/33 
f 139/46/36 136/47/36 137/48/36 140/49/36 
f 136/46/32 135/47/32 138/48/32 137/49/32 
f 135/46/31 145/47/31 146/48/31 138/49/31 
f 143/50/33 144/51/33 132/52/33 131/53/33 
f 146/51/32 145/50/32 133/53/32 134/52/32 
# 66 polygons

#
# object Struts
#

v  0.6890 0.2461 0.2187
v  0.6890 1.4764 0.2187
v  0.6398 1.4764 0.2187
v  0.6398 0.2461 0.2187
v  0.6890 0.2461 0.1694
v  0.6890 1.4764 0.1694
v  0.6398 0.2461 0.1694
v  0.6398 1.4764 0.1694
v  0.6890 2.7067 0.2187
v  0.6398 2.7067 0.2187
v  0.6890 2.7067 0.1694
v  0.6398 2.7067 0.1694
v  0.2953 0.2461 0.2187
v  0.3445 0.2461 0.2187
v  0.3445 1.4764 0.2187
v  0.2953 1.4764 0.2187
v  0.2953 0.2461 0.1694
v  0.2953 1.4764 0.1694
v  0.3445 0.2461 0.1694
v  0.3445 1.4764 0.1694
v  0.2953 2.7067 0.2187
v  0.3445 2.7067 0.2187
v  0.2953 2.7067 0.1694
v  0.3445 2.7067 0.1694
# 24 vertices

vn 0.0000 0.0000 1.0000
vn 1.0000 0.0000 -0.0000
vn 0.0000 0.0000 -1.0000
vn -1.0000 0.0000 -0.0000
# 4 vertex normals

vt 0.0782 0.9839 0.0000
vt 0.0782 0.5154 0.0000
vt 0.0471 0.5154 0.0000
vt 0.0471 0.9839 0.0000
vt 0.1092 0.9839 0.0000
vt 0.1092 0.5154 0.0000
vt 0.1402 0.9839 0.0000
vt 0.1402 0.5154 0.0000
vt 0.1713 0.9839 0.0000
vt 0.1713 0.5154 0.0000
# 10 texture coords

g Struts
usemtl mat_ArcaneArchives_Master
s 8
f 147/54/37 148/55/37 149/56/37 150/57/37 
s 16
f 151/58/38 152/59/38 148/55/38 147/54/38 
s 32
f 153/60/39 154/61/39 152/59/39 151/58/39 
s 64
f 150/62/40 149/63/40 154/61/40 153/60/40 
s 8
f 155/54/37 156/57/37 149/56/37 148/55/37 
s 16
f 157/58/38 155/54/38 148/55/38 152/59/38 
s 32
f 158/60/39 157/58/39 152/59/39 154/61/39 
s 64
f 156/62/40 158/60/40 154/61/40 149/63/40 
s 8
f 159/54/37 160/57/37 161/56/37 162/55/37 
s 16
f 163/58/40 159/54/40 162/55/40 164/59/40 
s 32
f 165/60/39 163/58/39 164/59/39 166/61/39 
s 64
f 160/62/38 165/60/38 166/61/38 161/63/38 
s 8
f 167/54/37 162/55/37 161/56/37 168/57/37 
s 16
f 169/58/40 164/59/40 162/55/40 167/54/40 
s 32
f 170/60/39 166/61/39 164/59/39 169/58/39 
s 64
f 168/62/38 161/63/38 166/61/38 170/60/38 
# 16 polygons

